<svg width="750" height="615" viewBox="0 0 750 615" fill="none" xmlns="http://www.w3.org/2000/svg">
<path d="M0 612.436H750" stroke="#0B4870" stroke-width="0.5"/>
<path d="M52.1711 586.347H697.824" stroke="#0B4870" stroke-opacity="0.1" stroke-width="0.5"/>
<g opacity="0.5">
<path opacity="0.5" d="M200.872 50.5609H54.7837V202.778H200.872V50.5609Z" stroke="#D3D3D3" stroke-width="4" stroke-miterlimit="10" stroke-linecap="round" stroke-linejoin="round"/>
<path opacity="0.5" d="M180.469 179.187V74.152H75.1876V179.187H180.469Z" stroke="#D3D3D3" stroke-width="2" stroke-miterlimit="10" stroke-linecap="round" stroke-linejoin="round"/>
<path opacity="0.5" d="M365.217 2H236.517V96.4525H365.217V2Z" stroke="#D3D3D3" stroke-width="4" stroke-miterlimit="10" stroke-linecap="round" stroke-linejoin="round"/>
<path opacity="0.5" d="M346.321 77.0756V21.3738L255.418 21.3738V77.0756H346.321Z" stroke="#D3D3D3" stroke-width="2" stroke-miterlimit="10" stroke-linecap="round" stroke-linejoin="round"/>
<path opacity="0.5" d="M311.9 244.673V156.442H255.417V244.673H311.9Z" stroke="#D3D3D3" stroke-width="2" stroke-miterlimit="10" stroke-linecap="round" stroke-linejoin="round"/>
<path opacity="0.5" d="M330.798 137.068H236.517V264.05H330.798V137.068Z" stroke="#D3D3D3" stroke-width="4" stroke-miterlimit="10" stroke-linecap="round" stroke-linejoin="round"/>
</g>
<path d="M536.84 476.55H419.097C413.558 476.55 409.104 472.097 409.104 466.557C409.104 461.018 413.558 456.564 419.097 456.564H536.84C542.379 456.564 546.833 461.018 546.833 466.557C546.833 472.205 542.379 476.55 536.84 476.55Z" fill="#D3D3D3"/>
<path d="M453.54 592.082V602.075H554.881V592.082H453.54Z" fill="#0E538C"/>
<path d="M462.981 600.052C463.85 605.265 460.374 610.153 455.16 611.022C449.947 611.891 445.059 608.415 444.19 603.202C443.321 597.988 446.797 593.1 452.01 592.231C457.224 591.362 462.112 594.838 462.981 600.052Z" fill="#0E538C"/>
<path d="M508.709 470.037H498.716V596.143H508.709V470.037Z" fill="#0E538C"/>
<path d="M564.316 600.052C565.185 605.265 561.709 610.153 556.495 611.022C551.282 611.891 546.394 608.415 545.525 603.202C544.656 597.988 548.132 593.1 553.345 592.231C558.559 591.362 563.447 594.838 564.316 600.052Z" fill="#0E538C"/>
<path d="M567.798 476.554H456.464C448.861 476.554 443.43 469.168 445.603 461.673L498.717 278.543C500.129 273.655 504.582 270.288 509.579 270.288H620.804C628.407 270.288 633.838 277.674 631.666 285.169L578.66 468.299C577.248 473.187 572.795 476.554 567.798 476.554Z" fill="#D3D3D3"/>
<path d="M552.477 476.554H455.589C447.986 476.554 442.555 469.168 444.727 461.673L497.842 278.543C499.254 273.655 503.707 270.288 508.704 270.288H605.591C613.194 270.288 618.625 277.674 616.453 285.169L563.339 468.299C561.927 473.187 557.473 476.554 552.477 476.554Z" fill="#F2F2F2"/>
<path d="M567.69 476.55H449.947C444.408 476.55 439.955 472.097 439.955 466.557C439.955 461.018 444.408 456.564 449.947 456.564H567.69C573.229 456.564 577.683 461.018 577.683 466.557C577.683 472.205 573.229 476.55 567.69 476.55Z" fill="#D3D3D3"/>
<path d="M472.425 321.119L448.311 390.526L453.959 404.212L486.436 398.021L495.669 323.726L472.425 321.119Z" fill="#FFE3CA"/>
<path d="M486.986 287.338C486.986 287.338 467.978 298.091 463.741 333.718L488.941 348.707L486.986 287.338Z" fill="#007BFF"/>
<path d="M519.566 273.654L486.981 287.34L461.347 401.607L547.264 435.496L592.992 305.154C592.992 305.154 585.497 277.89 542.593 271.047L519.566 273.654Z" fill="#007BFF"/>
<path d="M606.356 407.905C606.248 406.384 605.379 397.369 605.053 395.957L590.932 305.369C588.217 292.987 574.205 286.687 563.126 292.878C554.98 297.44 551.287 307.216 554.437 315.905L571.272 393.676L606.356 407.905Z" fill="#FFE3CA"/>
<path d="M587.134 388.463L491.332 380.969L486.553 398.022L578.77 429.195C592.999 433.974 607.445 422.787 606.359 407.906C605.599 397.587 597.453 389.332 587.134 388.463Z" fill="#FFE3CA"/>
<path d="M581.26 290.054C581.26 290.054 593.534 295.377 598.747 326.985L555.626 340.236C555.626 340.236 527.385 308.628 557.581 287.556L581.26 290.054Z" fill="#007BFF"/>
<path d="M461.244 399.001C464.72 408.45 482.533 408.776 491.874 405.301C501.324 401.825 510.991 396.394 507.407 386.944C503.931 377.494 488.181 371.955 477.971 374.236C465.48 377.168 457.659 389.66 461.244 399.001Z" fill="#FFE3CA"/>
<path d="M513.382 411.816L444.952 403.018L445.93 395.306L514.359 404.104C516.532 404.43 517.944 406.277 517.727 408.449C517.401 410.621 515.446 412.142 513.382 411.816Z" fill="#FFC107"/>
<path d="M453.967 404.215L363.38 392.593C358.166 391.941 354.039 387.814 353.278 382.6L343.72 316.886C342.851 311.02 347.847 306.024 353.604 306.784L436.806 317.429C440.282 317.863 442.997 320.579 443.431 324.055L453.967 404.215Z" fill="#FFC107"/>
<path d="M403.675 359.027C403.023 363.806 398.787 367.064 394.008 366.521C389.229 365.87 385.97 361.633 386.513 356.854C387.165 352.075 391.401 348.816 396.18 349.36C400.959 350.011 404.327 354.356 403.675 359.027Z" fill="white"/>
<path d="M345.672 577.786L322.102 587.562L307.221 588.648C300.378 589.191 294.73 594.079 293.209 600.813L292.558 603.963L373.152 614.065L374.782 581.588L345.672 577.786Z" fill="#FFC107"/>
<path d="M374.893 581.587L382.822 546.177L353.603 542.267L345.674 577.785L374.893 581.587Z" fill="#FFE3CA"/>
<path d="M547.16 435.496C547.16 435.496 544.879 455.047 509.796 457.654H425.508L385.753 568.554L343.935 561.819L385.753 399L481.555 409.645L547.16 435.496Z" fill="#0B4870"/>
<path d="M278.112 514.135L252.912 510.442L239.552 503.708C233.47 500.666 225.975 501.97 221.304 506.966L219.132 509.356L283.108 559.429L301.139 532.383L278.112 514.135Z" fill="#FFC107"/>
<path d="M301.356 532.384L323.297 504.469L300.269 486.004L278.111 514.136L301.356 532.384Z" fill="#FFE3CA"/>
<path d="M461.346 401.607L396.392 382.164C393.676 381.295 390.961 380.426 388.354 379.34C382.706 377.168 368.586 374.235 357.615 390.962C343.495 412.469 287.23 493.715 287.23 493.715L321.554 519.023L396.501 423.439C402.8 414.75 412.902 409.645 423.547 409.645L481.549 409.536L461.346 401.607Z" fill="#0B4870"/>
<path d="M544.878 238.027C546.073 235.855 566.167 200.011 547.702 190.995C547.702 190.995 545.312 172.096 524.132 174.16C502.951 176.223 508.708 182.415 495.239 179.373C481.771 176.332 469.062 183.284 470.04 194.471C471.018 205.768 479.707 210.547 495.239 207.831C510.772 205.116 523.046 207.18 523.046 207.18L535.971 210.981L544.878 238.027Z" fill="black"/>
<path d="M547.482 276.803L545.853 231.292L514.245 242.48L516.743 278.976C517.286 287.448 522.065 294.074 530.538 293.422L533.144 293.205C541.617 292.662 548.025 285.384 547.482 276.803Z" fill="#FFE3CA"/>
<path d="M543.134 237.592C543.134 237.592 549.108 275.608 516.631 277.781L515.219 259.75L543.134 237.592Z" fill="#FCD2B1"/>
<path d="M516.308 269.308H517.394C533.579 268.548 546.07 254.862 545.309 238.678L543.789 205.658C543.572 201.422 539.987 198.272 535.86 198.381L497.3 200.227C489.805 200.553 484.049 206.961 484.375 214.456L485.678 241.611C486.438 257.578 500.124 270.069 516.308 269.308Z" fill="#FFE3CA"/>
<path d="M538.031 228.686C538.248 234.117 542.919 238.353 548.35 238.136C553.781 237.919 558.017 233.248 557.8 227.817C557.582 222.386 552.912 218.15 547.481 218.367C541.941 218.585 537.705 223.147 538.031 228.686Z" fill="#FFE3CA"/>
<path d="M533.256 202.184L535.212 239.114C535.429 242.481 534.017 245.848 531.301 247.695C529.563 248.89 528.151 250.519 525.11 250.084C516.312 248.781 520.331 242.264 502.517 243.241C486.225 244.11 487.419 253.234 487.419 253.234C487.419 253.234 490.569 270.505 512.945 271.265C535.32 272.134 546.508 257.905 543.901 239.114L541.729 200.12L533.256 202.184Z" fill="black"/>
<path d="M485.461 208.375C485.461 208.375 495.888 210.004 510.986 206.311C526.084 202.618 538.032 214.783 538.032 214.783C538.032 214.783 541.291 220.432 542.051 220.214C542.811 220.106 547.482 218.259 547.482 218.259L547.265 201.206L536.186 192.625L505.555 191.322L487.416 195.341L485.461 208.375Z" fill="black"/>
<path fill-rule="evenodd" clip-rule="evenodd" d="M361.54 288.288C369.434 282.605 374.573 273.336 374.573 262.867C374.573 245.578 360.557 231.562 343.268 231.562C325.98 231.562 311.964 245.578 311.964 262.867C311.964 280.155 325.98 294.171 343.268 294.171C346.563 294.171 349.738 293.662 352.72 292.719L362.263 300.68L361.54 288.288Z" fill="#EE3224"/>
<path d="M356.31 253.552L352.583 249.826L343.266 259.143L333.949 249.826L330.223 253.552L339.54 262.869L330.223 272.186L333.949 275.913L343.266 266.596L352.583 275.913L356.31 272.186L346.993 262.869L356.31 253.552Z" fill="white"/>
<mask id="path-42-inside-1" fill="white">
<path fill-rule="evenodd" clip-rule="evenodd" d="M491.961 131.77C499.859 126.087 505.001 116.816 505.001 106.343C505.001 89.0542 490.986 75.0388 473.697 75.0388C456.408 75.0388 442.392 89.0542 442.392 106.343C442.392 123.632 456.408 137.647 473.697 137.647C476.99 137.647 480.164 137.139 483.145 136.196L492.683 144.153L491.961 131.77Z"/>
</mask>
<path fill-rule="evenodd" clip-rule="evenodd" d="M491.961 131.77C499.859 126.087 505.001 116.816 505.001 106.343C505.001 89.0542 490.986 75.0388 473.697 75.0388C456.408 75.0388 442.392 89.0542 442.392 106.343C442.392 123.632 456.408 137.647 473.697 137.647C476.99 137.647 480.164 137.139 483.145 136.196L492.683 144.153L491.961 131.77Z" fill="white"/>
<path d="M491.961 131.77L491.377 130.958L490.931 131.279L490.963 131.828L491.961 131.77ZM483.145 136.196L483.786 135.428L483.366 135.078L482.844 135.243L483.145 136.196ZM492.683 144.153L492.042 144.921L493.815 146.4L493.681 144.095L492.683 144.153ZM504.001 106.343C504.001 116.48 499.025 125.455 491.377 130.958L492.545 132.582C500.693 126.719 506.001 117.151 506.001 106.343H504.001ZM473.697 76.0388C490.433 76.0388 504.001 89.6065 504.001 106.343H506.001C506.001 88.502 491.538 74.0388 473.697 74.0388V76.0388ZM443.392 106.343C443.392 89.6065 456.96 76.0388 473.697 76.0388V74.0388C455.855 74.0388 441.392 88.502 441.392 106.343H443.392ZM473.697 136.647C456.96 136.647 443.392 123.08 443.392 106.343H441.392C441.392 124.184 455.855 138.647 473.697 138.647V136.647ZM482.844 135.243C479.959 136.155 476.886 136.647 473.697 136.647V138.647C477.093 138.647 480.369 138.123 483.447 137.15L482.844 135.243ZM493.323 143.385L483.786 135.428L482.505 136.964L492.042 144.921L493.323 143.385ZM490.963 131.828L491.684 144.211L493.681 144.095L492.959 131.712L490.963 131.828Z" fill="#FFC107" mask="url(#path-42-inside-1)"/>
<path d="M481.643 90.633C479.121 88.7368 476.277 88.0835 472.673 88.0835C469.94 88.0835 467.602 88.637 465.749 89.8709C463.016 91.7128 461.732 94.8067 461.732 99.6971H468.775C468.775 98.3906 468.647 96.9843 469.417 95.7775C470.188 94.5708 471.261 93.6453 473.104 93.6453C474.975 93.6453 475.938 94.1806 476.846 95.2876C477.616 96.2312 477.91 97.3563 477.91 98.5539C477.91 99.5882 477.378 100.541 476.745 101.403C476.397 101.911 475.938 102.365 475.36 102.8C475.36 102.8 471.554 105.041 470.215 107.164C469.216 108.743 468.858 110.721 468.775 113.089C468.766 113.261 468.83 113.615 469.436 113.615H475.104C475.635 113.615 475.746 113.216 475.755 113.053C475.791 112.191 475.901 110.866 476.057 110.367C476.36 109.424 476.947 108.598 477.864 107.89L479.763 106.593C481.478 105.268 482.844 104.188 483.449 103.335C484.486 101.938 485.21 100.214 485.21 98.1728C485.21 94.843 483.972 92.3842 481.643 90.633ZM472.187 117.226C469.812 117.154 467.849 118.787 467.767 121.337C467.693 123.895 469.555 125.574 471.939 125.646C474.416 125.719 476.332 124.14 476.406 121.591C476.479 119.041 474.663 117.299 472.187 117.226Z" fill="#FFC107"/>
<path d="M454.78 59.8944L450.926 61.6526L454.983 70.5465L458.837 68.7883L454.78 59.8944Z" fill="#FFC107"/>
<path d="M483.829 67.3865L487.739 68.7985L491.432 59.566L487.522 58.1539L483.829 67.3865Z" fill="#FFC107"/>
<path d="M514.966 80.9999L505.677 85.2375L507.39 88.9928L516.679 84.7551L514.966 80.9999Z" fill="#FFC107"/>
<path d="M436.671 116.748L427.382 120.986L429.095 124.741L438.384 120.503L436.671 116.748Z" fill="#FFC107"/>
<path d="M428.22 85.1993L426.699 89.1096L436.04 92.3681L437.452 88.4579L428.22 85.1993Z" fill="#FFC107"/>
<path d="M138.722 558.293C129.756 552.588 113.957 542.536 107.131 521.677C102.372 507.132 102.254 488.796 107.389 487.075C113.322 485.087 123.697 506.15 127.516 504.345C130.513 502.929 124.266 489.898 123.417 467.778C122.839 452.708 125.009 439.771 131.78 428.26C134.889 422.974 137.157 419.119 139.651 419.405C149.935 420.587 147.016 490.246 158.016 491.555C163.186 492.171 167.327 477.202 173.102 478.437C178.012 479.487 181.313 491.642 182.188 499.495C182.231 499.884 182.263 500.193 182.285 500.409C184.863 525.939 169.961 544.341 164.904 550.586C157.399 559.854 152.291 561.681 148.397 561.737C144.292 561.795 141.155 559.841 138.722 558.293Z" fill="#20C997"/>
<path d="M136.067 461.183C137.795 479.384 148.112 507.056 149.65 530.545C150.651 545.839 149.721 559.338 148.174 570.391" stroke="#46DBC9" stroke-width="2" stroke-miterlimit="10" stroke-linecap="round" stroke-linejoin="round"/>
<path d="M183.542 612.314H107.289C99.6233 598.736 99.9136 582.072 108.048 568.769L119.263 550.427H171.568L182.464 567.408C190.527 579.974 191.49 595.825 185.007 609.274L183.542 612.314Z" fill="#0B4870"/>
<path d="M124.072 522.183C124.072 522.183 131.79 537.925 150.068 537.925M160.43 502.938C160.43 502.938 160.231 511.303 148.73 522.183L160.43 502.938Z" stroke="#46DBC9" stroke-width="2" stroke-miterlimit="10" stroke-linecap="round" stroke-linejoin="round"/>
<path opacity="0.67" d="M164.023 563.404C164.023 563.404 175.622 570.959 175.622 589.122" stroke="white" stroke-width="2" stroke-miterlimit="10" stroke-linecap="round" stroke-linejoin="round"/>
<g opacity="0.5">
<path d="M643.047 142.869C671.141 142.869 693.916 120.094 693.916 91.9997C693.916 63.9052 671.141 41.1301 643.047 41.1301C614.952 41.1301 592.177 63.9052 592.177 91.9997C592.177 120.094 614.952 142.869 643.047 142.869Z" stroke="#D3D3D3" stroke-width="3" stroke-miterlimit="10" stroke-linecap="round" stroke-linejoin="round"/>
<path d="M643.045 46.3217V51.2909" stroke="#D3D3D3" stroke-width="2" stroke-miterlimit="10" stroke-linecap="round" stroke-linejoin="round"/>
<path d="M643.045 132.709V137.677" stroke="#D3D3D3" stroke-width="2" stroke-miterlimit="10" stroke-linecap="round" stroke-linejoin="round"/>
<path d="M688.72 91.9985H683.752" stroke="#D3D3D3" stroke-width="2" stroke-miterlimit="10" stroke-linecap="round" stroke-linejoin="round"/>
<path d="M602.334 91.9985H597.365" stroke="#D3D3D3" stroke-width="2" stroke-miterlimit="10" stroke-linecap="round" stroke-linejoin="round"/>
<path d="M643.041 96.1093C645.309 96.1093 647.149 94.27 647.149 92.0011C647.149 89.7322 645.309 87.8929 643.041 87.8929C640.772 87.8929 638.932 89.7322 638.932 92.0011C638.932 94.27 640.772 96.1093 643.041 96.1093Z" fill="#D3D3D3"/>
<path d="M643.045 91.9995L664.981 64.8517" stroke="#D3D3D3" stroke-width="2" stroke-miterlimit="10" stroke-linecap="round" stroke-linejoin="round"/>
<path d="M629.203 78.4266L643.045 92.001" stroke="#D3D3D3" stroke-width="2" stroke-miterlimit="10" stroke-linecap="round" stroke-linejoin="round"/>
</g>
</svg>
