<svg width="750" height="622" viewBox="0 0 750 622" fill="none" xmlns="http://www.w3.org/2000/svg">
<path d="M0 618.83H700.447" stroke="#0B4870" stroke-width="0.5"/>
<path d="M48.7267 594.466H659.029" stroke="#0B4870" stroke-opacity="0.1" stroke-width="0.5"/>
<g opacity="0.5">
<path opacity="0.5" d="M207.09 94.08H70.6539V236.24H207.09V94.08Z" stroke="#D3D3D3" stroke-width="4" stroke-miterlimit="10" stroke-linecap="round" stroke-linejoin="round"/>
<path opacity="0.5" d="M188.035 214.206V116.111H89.71V214.206H188.035Z" stroke="#D3D3D3" stroke-width="2" stroke-miterlimit="10" stroke-linecap="round" stroke-linejoin="round"/>
<path opacity="0.5" d="M360.578 48.7267H240.381V136.939H360.578V48.7267Z" stroke="#D3D3D3" stroke-width="4" stroke-miterlimit="10" stroke-linecap="round" stroke-linejoin="round"/>
<path opacity="0.5" d="M342.928 118.843V66.8212H258.031V118.843H342.928Z" stroke="#D3D3D3" stroke-width="2" stroke-miterlimit="10" stroke-linecap="round" stroke-linejoin="round"/>
<path opacity="0.5" d="M310.781 275.367V192.966H258.03V275.367H310.781Z" stroke="#D3D3D3" stroke-width="2" stroke-miterlimit="10" stroke-linecap="round" stroke-linejoin="round"/>
<path opacity="0.5" d="M328.433 174.871H240.381V293.463H328.433V174.871Z" stroke="#D3D3D3" stroke-width="4" stroke-miterlimit="10" stroke-linecap="round" stroke-linejoin="round"/>
</g>
<path d="M257.877 352.893H236.717V417.522H257.877V352.893Z" fill="#0B4870"/>
<path d="M157.583 390.293H336.994C337.909 390.293 338.651 389.547 338.651 388.627V262.354C338.651 261.434 337.909 260.688 336.994 260.688H157.583C156.668 260.688 155.926 261.434 155.926 262.354V388.644C155.926 389.564 156.668 390.293 157.583 390.293Z" fill="#0E538C"/>
<path d="M241.394 379.29C241.394 382.57 244.035 385.225 247.297 385.225C250.559 385.225 253.2 382.57 253.2 379.29C253.2 376.01 250.559 373.372 247.297 373.372C244.035 373.355 241.394 376.01 241.394 379.29Z" fill="#163C47"/>
<path d="M294.898 409.834H199.695V420.351H294.898V409.834Z" fill="#0E538C"/>
<path d="M162.38 366.733H331.868V267.031H162.38V366.733Z" fill="#CCE9FF"/>
<path d="M219.77 310.429V297.077L231.661 287.049V287.923C231.661 290.861 234.047 293.247 236.985 293.247C239.923 293.247 242.309 290.861 242.309 287.923V283.115H254.199V287.923C254.199 290.861 256.585 293.247 259.523 293.247C262.462 293.247 264.847 290.861 264.847 287.923V287.063L276.722 297.077V310.429C276.722 322.622 271.255 334.16 261.805 341.874L262.121 342.261L261.805 341.874L248.246 352.941L234.688 341.874C225.252 334.16 219.77 322.621 219.77 310.429Z" fill="#EE3224" stroke="#FFC1BC"/>
<mask id="mask0" mask-type="alpha" maskUnits="userSpaceOnUse" x="219" y="282" width="59" height="72">
<path d="M232.145 285.987L219.27 296.845V310.429C219.27 322.772 224.82 334.452 234.371 342.261L248.246 353.587L262.121 342.261C271.688 334.452 277.222 322.772 277.222 310.429V296.845L264.347 285.987V287.923C264.347 290.585 262.185 292.747 259.523 292.747C256.861 292.747 254.699 290.585 254.699 287.923V282.615H241.809V287.923C241.809 290.585 239.647 292.747 236.985 292.747C234.323 292.747 232.161 290.585 232.161 287.923V285.987H232.145Z" fill="#EE3224"/>
</mask>
<g mask="url(#mask0)">
<path d="M202.718 272.864L187.598 280.692V290.485C187.598 299.382 194.116 307.803 205.332 313.432L221.627 321.597L237.922 313.432C249.158 307.803 255.657 299.382 255.657 290.485V280.692L240.537 272.864V274.26C240.537 276.179 237.998 277.738 234.871 277.738C231.745 277.738 229.206 276.179 229.206 274.26V270.434H214.067V274.26C214.067 276.179 211.528 277.738 208.402 277.738C205.276 277.738 202.737 276.179 202.737 274.26V272.864H202.718Z" fill="#FFC1BC"/>
</g>
<path d="M255.049 304.946C252.97 303.391 250.625 302.856 247.653 302.856C245.399 302.856 243.471 303.309 241.943 304.321C239.69 305.831 238.631 308.368 238.631 312.378H244.439C244.439 311.307 244.333 310.153 244.968 309.164C245.604 308.175 246.488 307.416 248.008 307.416C249.551 307.416 250.345 307.855 251.094 308.762C251.729 309.536 251.971 310.458 251.971 311.44C251.971 312.289 251.533 313.07 251.011 313.776C250.723 314.193 250.345 314.565 249.869 314.922C249.869 314.922 246.73 316.76 245.626 318.5C244.802 319.795 244.507 321.416 244.439 323.358C244.431 323.499 244.484 323.79 244.983 323.79H249.657C250.096 323.79 250.187 323.462 250.194 323.328C250.224 322.622 250.315 321.536 250.444 321.126C250.693 320.353 251.177 319.676 251.933 319.095L253.499 318.032C254.913 316.946 256.04 316.06 256.539 315.361C257.394 314.215 257.991 312.802 257.991 311.128C257.991 308.398 256.97 306.382 255.049 304.946ZM247.252 326.75C245.294 326.691 243.675 328.03 243.607 330.12C243.547 332.218 245.082 333.595 247.048 333.654C249.09 333.714 250.671 332.419 250.731 330.329C250.792 328.238 249.294 326.81 247.252 326.75Z" fill="white"/>
<path d="M82.0244 431.4L51.163 617.212L66.5937 617.494L119.541 431.4H82.0244Z" fill="#D3D3D3"/>
<path d="M417.023 429.37L435.046 621.103H420.616L381.804 437.321L379.742 423.618L417.023 429.37Z" fill="#D3D3D3"/>
<path d="M380.921 431.4L382.334 439.971L417.907 438.674L417.201 431.4H380.921Z" fill="#ACACAC"/>
<path d="M82.0242 431.4L80.5518 440.141L117.362 439.182L119.541 431.4H82.0242Z" fill="#ACACAC"/>
<path d="M445.765 419.05H51.1631V431.4H445.765V419.05Z" fill="#D3D3D3"/>
<path d="M738.115 78.9563C739.513 86.4268 737.344 93.0286 731.603 98.7572C725.798 104.554 719.656 107.248 713.185 106.842C706.712 106.434 700.306 103.656 693.97 98.5125L683.855 107.208L671.646 94.9884L686.162 79.2995C693.166 84.9788 698.923 88.2999 703.428 89.2732C707.93 90.2446 711.753 89.1644 714.892 86.0322C717.493 83.4358 718.627 80.5339 718.294 77.3337C717.963 74.13 716.059 70.7943 712.592 67.3236C709.122 63.8509 705.316 62.0146 701.18 61.8113C697.043 61.6053 693.038 63.1691 689.169 66.4976L681.564 48.0821C687.771 43.6194 694.626 42.0122 702.134 43.2528C709.638 44.4949 717.263 48.989 725.003 56.7365C732.342 64.0776 736.71 71.4864 738.115 78.9563ZM675.449 116.002C675.577 118.935 674.443 121.604 672.04 124.001C669.638 126.398 666.969 127.529 664.032 127.395C661.096 127.256 658.291 125.852 655.623 123.183C652.957 120.51 651.573 117.725 651.473 114.824C651.372 111.925 652.524 109.272 654.926 106.874C657.328 104.477 659.981 103.33 662.886 103.429C665.787 103.535 668.573 104.92 671.242 107.592C673.912 110.262 675.312 113.067 675.449 116.002Z" fill="#FFC107"/>
<path d="M572.558 8.19796C575.13 11.2961 575.829 14.9093 574.647 19.0378C573.451 23.2178 571.302 26.0466 568.2 27.5242C565.099 29.0065 561.416 29.3671 557.159 28.6201L554.716 35.2472L545.918 32.7345L548.6 21.7331C553.305 22.5621 556.824 22.6136 559.161 21.9041C561.493 21.1969 562.987 19.7122 563.631 17.4524C564.166 15.5791 563.945 13.9469 562.966 12.5489C561.986 11.1555 560.249 10.0994 557.752 9.38521C555.246 8.67098 553.016 8.80212 551.047 9.77159C549.078 10.7411 547.625 12.4974 546.696 15.0381L538.43 8.46959C540.156 4.80714 542.917 2.29681 546.708 0.938606C550.501 -0.419593 555.19 -0.304845 560.771 1.28987C566.058 2.7956 569.987 5.09752 572.558 8.19796ZM553.087 41.4832C553.907 42.8063 554.064 44.3354 553.57 46.066C553.077 47.7965 552.135 49.0048 550.738 49.6956C549.343 50.3888 547.683 50.4637 545.761 49.9134C543.839 49.3631 542.479 48.4311 541.687 47.1104C540.892 45.7967 540.744 44.2722 541.236 42.5417C541.731 40.8158 542.664 39.5981 544.036 38.8979C545.407 38.2001 547.053 38.1228 548.977 38.6731C550.902 39.2258 552.271 40.1601 553.087 41.4832Z" fill="#FFC107"/>
<path d="M75.5513 386.987C70.2296 383.601 60.852 377.635 56.8008 365.254C53.9759 356.621 53.9058 345.738 56.9535 344.716C60.4754 343.536 66.6333 356.038 68.9002 354.967C70.6787 354.126 66.9711 346.392 66.4671 333.263C66.1238 324.318 67.412 316.639 71.4308 309.807C73.2762 306.67 74.6225 304.381 76.1026 304.551C82.2064 305.253 80.4738 346.598 87.0031 347.375C90.0716 347.741 92.5297 338.856 95.9573 339.589C98.8713 340.212 100.831 347.427 101.35 352.088C101.376 352.319 101.395 352.502 101.408 352.631C102.938 367.784 94.093 378.706 91.0912 382.413C86.6367 387.914 83.605 388.998 81.294 389.031C78.8571 389.066 76.9954 387.906 75.5513 386.987Z" fill="#20C997"/>
<path d="M73.9752 329.347C75.0012 340.151 81.1247 356.575 82.0374 370.517C82.6319 379.595 82.0795 387.607 81.1615 394.167" stroke="#46DBC9" stroke-width="2" stroke-miterlimit="10" stroke-linecap="round" stroke-linejoin="round"/>
<path d="M102.154 419.05H56.8945C52.3448 410.991 52.5171 401.1 57.345 393.205L64.0019 382.318H95.0471L101.514 392.397C106.3 399.855 106.872 409.263 103.024 417.246L102.154 419.05Z" fill="#0B4870"/>
<path d="M66.854 365.553C66.854 365.553 71.4355 374.896 82.2841 374.896M88.4344 354.13C88.4344 354.13 88.3164 359.095 81.4902 365.553L88.4344 354.13Z" stroke="#46DBC9" stroke-width="2" stroke-miterlimit="10" stroke-linecap="round" stroke-linejoin="round"/>
<path opacity="0.67" d="M90.5667 390.021C90.5667 390.021 97.4507 394.505 97.4507 405.286" stroke="white" stroke-width="2" stroke-miterlimit="10" stroke-linecap="round" stroke-linejoin="round"/>
<path d="M533.147 170.21L536.75 141.349C538.03 131.091 543.335 121.763 551.497 115.415C559.659 109.067 570.01 106.219 580.273 107.499C590.536 108.778 599.869 114.08 606.221 122.238C612.572 130.396 615.421 140.741 614.141 150.999L610.538 179.86C610.365 181.238 609.652 182.49 608.556 183.342C607.46 184.195 606.07 184.578 604.692 184.407L537.696 176.054C536.318 175.88 535.065 175.168 534.213 174.072C533.36 172.977 532.976 171.588 533.147 170.21Z" fill="black"/>
<path d="M565.239 178.821C581.029 178.821 593.829 166.028 593.829 150.246C593.829 134.465 581.029 121.672 565.239 121.672C549.449 121.672 536.649 134.465 536.649 150.246C536.649 166.028 549.449 178.821 565.239 178.821Z" fill="#FFE3CA"/>
<path d="M527.307 142.516C528.329 134.406 532.527 127.033 538.982 122.013C545.436 116.993 553.619 114.737 561.736 115.74L567.512 116.46C575.626 117.481 583.004 121.677 588.026 128.128C593.049 134.579 595.306 142.758 594.303 150.87L594.231 151.447L582.025 149.925L579.317 137.756L577.03 149.302L570.722 148.516L569.355 142.376L568.201 148.202L527.235 143.094L527.307 142.516Z" fill="black"/>
<path d="M425.404 252.177C426.278 253.892 427.518 255.394 429.035 256.579C430.553 257.763 432.312 258.6 434.188 259.031C436.064 259.463 438.013 259.477 439.895 259.075C441.778 258.672 443.55 257.862 445.085 256.701L471.053 271.904L484.146 258.386L447.173 237.43C445.05 234.981 442.103 233.396 438.889 232.974C435.675 232.551 432.418 233.322 429.735 235.14C427.051 236.958 425.129 239.696 424.33 242.836C423.532 245.977 423.915 249.3 425.404 252.177Z" fill="#FFE3CA"/>
<path d="M510.514 279.497C491.359 279.497 457.653 270.927 455.787 270.448L455.197 270.297L460.502 243.453L511.985 253.616L539.953 214.252L572.064 210.99L571.167 212.168C570.75 212.718 529.358 267.177 522.916 276.312C521.291 278.617 516.647 279.497 510.514 279.497Z" fill="#0B4870"/>
<path d="M515.649 380.249L514.882 379.883C514.719 379.806 498.445 371.894 490.016 356.449C481.627 341.078 520.898 275.871 523.645 271.346L523.685 250.638L537.812 212.518L555.828 202.34L540.36 238.413L515.649 380.249Z" fill="#0B4870"/>
<path d="M497.6 602.82L480.381 602.818L472.189 536.439L497.602 536.44L497.6 602.82Z" fill="#FFE3CA"/>
<path d="M501.99 619.501L446.47 619.499V618.797C446.47 613.069 448.747 607.575 452.8 603.525C456.852 599.475 462.349 597.199 468.08 597.199H468.081L501.991 597.2L501.99 619.501Z" fill="#FFC107"/>
<path d="M682.549 587.737L666.187 593.095L637.721 532.566L661.871 524.657L682.549 587.737Z" fill="#FFE3CA"/>
<path d="M691.92 602.224L639.159 619.501L638.941 618.834C637.157 613.39 637.609 607.461 640.198 602.351C642.787 597.241 647.301 593.368 652.748 591.584L652.749 591.583L684.973 581.031L691.92 602.224Z" fill="#FFC107"/>
<path d="M649.211 576.885L600.125 494.982L558.688 407.479L521.4 484.773L506.588 584.883L454.64 585.604L454.845 584.792L534.341 269.091L596.601 278.387L593.767 319.461L595.455 321.86C609.519 341.829 624.061 362.476 615.721 384.732L639.365 454.9L691.703 571.737L649.211 576.885Z" fill="#0B4870"/>
<path d="M537.185 337.513C528.163 337.513 517.87 327.217 523.21 309.64L522.864 309.39L535.69 252.754C524.497 236.755 539.254 223.551 540.637 222.372L547.681 209.699L578.762 189.998L594.488 320.59L594.255 320.813C582.898 331.674 544.752 337.513 537.185 337.513Z" fill="#007BFF"/>
<path d="M600.838 366.98C599.603 367 598.37 366.869 597.166 366.592C595.957 366.289 594 364.751 590.976 354.91C578.955 315.79 564.761 198.083 575.073 186.564L575.309 186.3L592.24 189.12C593.648 188.082 601.033 182.929 607.848 183.826C609.251 184.002 610.603 184.464 611.821 185.183C613.038 185.902 614.095 186.863 614.926 188.007L615.042 188.16L620.436 264.854L640.197 355.109L639.723 355.324C638.574 355.847 613.899 366.98 600.838 366.98Z" fill="#0B4870"/>
<path d="M589.451 337.004C591.375 336.94 593.262 336.455 594.978 335.583C596.695 334.711 598.199 333.474 599.385 331.958C600.571 330.442 601.411 328.685 601.844 326.81C602.277 324.935 602.294 322.988 601.892 321.106L626.678 304.044L619.977 286.462L585.314 311.048C582.195 311.931 579.509 313.927 577.764 316.657C576.019 319.387 575.337 322.663 575.847 325.862C576.357 329.062 578.024 331.963 580.531 334.016C583.038 336.07 586.212 337.133 589.451 337.004Z" fill="#FFE3CA"/>
<path d="M618.5 317.716L596.423 301.535L627.456 259.24L603.641 217.237L614.296 186.786L614.984 188.098C615.305 188.708 647.109 249.262 652.657 258.966C658.429 269.061 620.504 315.284 618.887 317.246L618.5 317.716Z" fill="#0B4870"/>
</svg>
