<svg width="667" height="613" viewBox="0 0 667 613" fill="none" xmlns="http://www.w3.org/2000/svg">
<path opacity="0.5" d="M624.525 611.831H0.739189C7.33074 583.316 30.9458 559.462 62.9672 547.096C74.8195 542.462 87.8665 539.417 101.592 538.303C110.074 515.548 124.765 494.908 144.132 477.552C181.406 444.183 236.019 423.14 296.884 423.14C380.669 423.14 452.584 463.045 483.807 520.079C487.762 519.759 491.751 519.52 495.797 519.52C554.8 519.52 602.592 557.234 602.592 603.717C602.592 604.183 602.592 604.575 602.534 604.986C610.448 606.286 617.845 608.652 624.525 611.831Z" fill="#0B4870"/>
<path opacity="0.7" d="M182.157 611.831H666.985C661.861 589.669 643.512 571.129 618.617 561.512C609.408 557.913 599.27 555.547 588.598 554.683C582.009 536.998 570.589 520.958 555.535 507.463C526.568 481.524 484.118 465.172 436.81 465.172C371.693 465.172 315.793 496.188 291.527 540.521C288.454 540.267 285.354 540.085 282.208 540.085C236.352 540.085 199.209 569.392 199.209 605.526C199.209 605.883 199.209 606.188 199.249 606.508C193.1 607.519 187.352 609.364 182.157 611.831Z" fill="#0B4870"/>
<path d="M574.878 580.577C584.411 590.999 593.973 601.41 603.536 611.83H488.073C491.938 603.514 495.891 595.197 499.537 586.688C501.913 581.076 503.903 575.36 505.618 569.499C505.697 569.528 505.726 569.556 505.81 569.528C518.738 568.424 531.7 567.293 544.599 566.129C546.315 565.991 545.9 563.424 544.215 563.588C531.617 564.691 519.014 565.8 506.416 566.875C509.789 554.937 512.193 542.7 514.705 530.596C515.921 524.85 517.002 519.135 518.133 513.359C524.985 511.566 531.779 509.767 538.603 507.943C542.003 507.028 545.596 506.28 546.812 502.614C547.338 501.007 544.907 500.097 544.378 501.698C543.083 505.568 533.246 506.67 529.765 507.611C526.06 508.578 522.389 509.602 518.738 510.541C521.583 496.034 524.351 481.443 526.89 466.835C527.167 465.199 524.6 464.952 524.322 466.61C520.589 487.912 516.555 509.155 512.136 530.327C511.864 531.571 511.608 532.753 511.361 533.97C504.538 523.248 498.954 512.006 494.564 500.04C493.986 498.467 491.61 499.549 492.215 501.088C496.859 513.885 502.937 525.875 510.398 537.229C510.477 537.364 510.563 537.398 510.62 537.478C506.914 555.13 503.02 572.759 495.559 589.279C494.868 590.717 494.229 592.152 493.573 593.59C483.762 582.293 474.534 570.518 465.997 558.252C465.029 556.905 463.01 558.558 463.978 559.882C472.735 572.43 482.134 584.447 492.191 595.943C492.244 596.023 492.358 596.081 492.414 596.137C489.98 601.386 487.548 606.602 485.144 611.83H381.015C380.844 610.858 380.766 609.895 380.766 608.9C380.766 600.254 387.089 592.844 394.135 587.82C401.155 582.79 409.246 579.253 415.714 573.533C418.061 571.435 420.272 568.921 420.963 565.88C422.399 559.581 417.342 553.917 414.139 548.339C404.3 531.207 411.373 509.687 418.671 491.339C420.656 486.229 423.09 480.673 428.035 478.326C435.248 474.925 443.371 480.041 449.913 484.622C456.464 489.183 465.471 493.438 471.881 488.684C478.234 483.99 476.798 473.874 472.601 467.184C467.848 459.593 460.606 453.823 455.831 446.276C451.022 438.733 449.336 427.74 455.747 421.466C463.373 414.059 475.915 418.203 485.722 422.376C495.537 426.553 508.878 429.42 515.095 420.803C518.659 415.911 518.106 408.978 515.395 403.588C512.661 398.174 508.188 393.947 503.903 389.692C501.556 387.344 499.096 384.662 498.819 381.349C498.546 378.338 500.198 375.435 502.084 373.032C512.826 359.498 534.043 355.707 548.826 364.715C563.583 373.747 569.936 394.332 562.784 410.111C560.073 416.075 555.926 423.786 560.736 428.26C566.981 434.178 576.095 424.198 584.661 423.486C591.876 422.874 598.059 429.726 599.026 436.884C599.966 444.063 596.871 451.142 593.007 457.244C585.572 468.986 575.158 478.462 565.651 488.606C564.136 490.236 562.56 491.978 562.174 494.184C561.454 497.828 564.166 501.256 567.173 503.44C573.941 508.33 582.593 509.546 590.547 512.029C598.564 514.518 606.852 519.271 609.116 527.311C611.52 535.983 605.743 545.025 598.53 550.411C591.294 555.796 582.563 558.835 575.128 563.978C572.974 565.466 570.79 567.315 570.133 569.862C569.158 573.839 572.119 577.594 574.878 580.577Z" fill="#0B4870"/>
<path d="M83.7365 580.577C74.2029 590.999 64.641 601.41 55.0859 611.83H170.541C166.679 603.514 162.723 595.197 159.081 586.688C156.704 581.076 154.713 575.36 152.999 569.499C152.92 569.528 152.889 569.556 152.805 569.528C139.878 568.424 126.917 567.293 114.018 566.129C112.303 565.991 112.716 563.424 114.403 563.588C127.001 564.691 139.601 565.8 152.201 566.875C148.83 554.937 146.425 542.7 143.912 530.596C142.696 524.85 141.622 519.135 140.483 513.359C133.633 511.566 126.836 509.767 120.015 507.943C116.613 507.028 113.021 506.28 111.805 502.614C111.279 501.007 113.711 500.097 114.238 501.698C115.534 505.568 125.371 506.67 128.852 507.611C132.557 508.578 136.229 509.602 139.878 510.541C137.034 496.034 134.266 481.443 131.725 466.835C131.448 465.199 134.022 464.952 134.295 466.61C138.028 487.912 142.062 509.155 146.481 530.327C146.753 531.57 147.007 532.753 147.256 533.97C154.079 523.248 159.664 512.006 164.053 500.04C164.631 498.467 167.006 499.549 166.402 501.088C161.756 513.885 155.679 525.874 148.223 537.229C148.138 537.364 148.054 537.398 147.996 537.478C151.703 555.13 155.595 572.759 163.058 589.279C163.747 590.717 164.387 592.152 165.044 593.59C174.853 582.293 184.081 570.518 192.619 558.252C193.585 556.905 195.607 558.558 194.639 559.882C185.88 572.43 176.49 584.447 166.423 595.943C166.374 596.023 166.265 596.081 166.203 596.137C168.643 601.386 171.069 606.602 173.473 611.83H277.603C277.773 610.858 277.852 609.895 277.852 608.9C277.852 600.254 271.526 592.844 264.482 587.82C257.468 582.789 249.372 579.253 242.905 573.533C240.556 571.435 238.345 568.921 237.653 565.88C236.217 559.581 241.275 553.917 244.478 548.339C254.315 531.207 247.243 509.687 239.944 491.339C237.96 486.229 235.527 480.673 230.582 478.326C223.369 474.925 215.243 480.041 208.703 484.622C202.153 489.183 193.143 493.438 186.736 488.684C180.381 483.99 181.819 473.874 186.016 467.184C190.77 459.593 198.01 453.823 202.787 446.276C207.594 438.733 209.281 427.74 202.871 421.466C195.244 414.059 182.701 418.203 172.896 422.376C163.087 426.553 149.739 429.42 143.52 420.803C139.957 415.911 140.513 408.978 143.221 403.588C145.953 398.174 150.429 393.947 154.712 389.692C157.06 387.344 159.523 384.662 159.799 381.349C160.07 378.338 158.418 375.435 156.534 373.032C145.79 359.498 124.574 355.707 109.79 364.715C95.0364 373.747 88.6815 394.332 95.8394 410.111C98.5426 416.075 102.69 423.786 97.8827 428.26C91.6406 434.178 82.52 424.198 73.9545 423.486C66.7413 422.874 60.5567 429.726 59.5906 436.884C58.6493 444.063 61.7465 451.142 65.6091 457.244C73.0439 468.986 83.4593 478.462 92.9642 488.606C94.4818 490.236 96.0593 491.978 96.4443 494.184C97.1632 497.828 94.4513 501.256 91.444 503.44C84.6758 508.33 76.0262 509.546 68.0724 512.029C60.0607 514.518 51.7653 519.271 49.5027 527.311C47.0984 535.983 52.8745 545.025 60.0877 550.411C67.3229 555.796 76.0533 558.835 83.4881 563.978C85.6439 565.466 87.828 567.315 88.4834 569.862C89.4558 573.839 86.4969 577.594 83.7365 580.577Z" fill="#0B4870"/>
<path d="M336.165 474.49C336.165 474.49 329.138 452.668 309.676 460.764L309.664 460.759L309.501 460.839C308.719 461.166 307.934 461.522 307.119 461.946C307.119 461.946 307.294 462.41 307.667 463.159L307.724 463.283H307.729C309.885 467.561 318.033 480.341 336.165 474.49Z" fill="#FFBE55"/>
<path d="M439.474 585.035L439.167 584.991L439.151 585.001C422.706 583.259 415.892 593.376 413.086 601.719C412.537 594.847 411.174 588.086 408.531 581.631C407.853 579.977 407.106 578.395 406.32 576.832C430.06 571.603 428.313 548.443 428.313 548.443C427.235 548.396 426.212 548.406 425.223 548.443H424.859L424.843 548.463C407.542 549.268 403.479 562.067 402.688 570.394C394.196 556.974 381.981 546.484 370.444 535.411C386.405 524.742 378.776 507.864 378.776 507.864C377.901 508.148 377.086 508.454 376.312 508.77L376.142 508.827L376.137 508.844C364.34 513.76 363.553 523.179 364.78 529.84C364.77 529.828 364.757 529.816 364.746 529.806C358.143 523.107 352.646 515.74 348.442 507.842C364.553 502.183 364.328 488.091 363.802 483.536L363.807 483.53L363.781 483.321C363.678 482.542 363.582 482.088 363.582 482.088C362.677 482.179 361.833 482.303 361.018 482.456L360.798 482.485L360.791 482.501C347.813 484.975 345.381 494.569 345.387 501.394C341.635 492.6 339.451 483.207 339.135 473.338C358.597 476.443 364.271 458.444 364.271 458.444C363.383 458.045 362.535 457.722 361.697 457.433L361.642 457.409C349.685 453.269 342.852 459.593 339.299 465.33C339.35 464.629 339.372 463.932 339.441 463.226C340.118 456.001 341.561 448.927 343.503 441.988C359.813 441.286 363.281 428.392 363.979 424.124C363.982 424.124 363.982 424.124 363.982 424.124L364 424.018C364.125 423.23 364.147 422.763 364.147 422.763C363.343 422.622 362.579 422.525 361.833 422.446L361.556 422.41L361.539 422.424C355.911 421.923 351.888 423.335 349.02 425.606C350.935 420.656 353.018 415.764 355.203 410.921C369.727 417.477 378.614 407.816 381.183 404.392C381.183 404.392 381.189 404.392 381.189 404.397L381.245 404.313C381.725 403.673 381.962 403.266 381.962 403.266C381.311 402.756 380.669 402.315 380.033 401.897L379.835 401.756L379.813 401.761C370.513 395.779 363.282 399.146 358.733 403.238C360.007 400.523 361.29 397.822 362.569 395.131C362.863 394.519 362.727 393.941 362.414 393.491C378.642 392.732 382.083 379.888 382.784 375.634L382.795 375.543C382.925 374.746 382.953 374.269 382.953 374.269C382.15 374.128 381.386 374.032 380.645 373.96L380.362 373.913L380.34 373.936C362.987 372.397 360.939 389.053 360.702 392.788C360.396 392.879 360.114 393.094 359.921 393.494C357.493 398.604 355.048 403.74 352.696 408.929C352.051 404.776 348.469 389.105 331.673 391.945L331.657 391.933L331.418 391.985C330.665 392.12 329.895 392.278 329.093 392.493C329.093 392.493 331.731 411.357 352.239 409.954C348.107 419.124 344.298 428.453 341.408 438.05C340.397 432.85 336.226 419.406 320.555 422.061L320.538 422.049L320.302 422.095C319.549 422.229 318.785 422.389 317.981 422.606C317.981 422.606 320.601 441.274 340.816 440.087C339.441 444.905 338.292 449.788 337.47 454.756C336.492 460.679 336.057 466.52 336.152 472.244C336.069 472.528 336.023 472.696 336.023 472.696C336.073 472.713 336.119 472.72 336.169 472.731C336.396 482.751 338.318 492.432 342.042 501.693C336.838 497.547 328.6 494.185 318.885 501.586H318.869L318.694 501.734C318.037 502.241 317.375 502.786 316.709 503.397C316.709 503.397 317.03 503.837 317.637 504.516L317.647 504.526C320.668 507.937 330.88 517.36 345.658 509.472C347.288 512.556 349.109 515.594 351.174 518.569C353.534 521.953 356.142 525.126 358.884 528.177C353.654 524.499 345.942 522.145 336.956 528.992H336.939L336.763 529.138C336.11 529.647 335.451 530.186 334.785 530.792C334.785 530.792 335.102 531.232 335.707 531.917L335.723 531.934C338.908 535.52 350.009 545.738 365.987 535.571C366.235 535.815 366.489 536.054 366.739 536.289C367.022 536.946 367.209 537.321 367.209 537.321C367.344 537.252 367.457 537.183 367.588 537.115C373.795 543.095 380.277 548.827 386.298 554.973C382.309 553.568 377.385 553.365 371.367 555.255L371.344 555.242L371.1 555.327C370.127 555.638 369.132 555.989 368.102 556.415C368.102 556.415 374.959 580.872 401.889 574.977C402.116 575.384 402.365 575.791 402.58 576.199C402.631 577.014 402.688 577.477 402.688 577.477C402.851 577.454 402.998 577.427 403.158 577.404C407.122 585.422 409.081 593.873 409.755 602.536C406.732 594.191 399.549 583.708 382.698 586.258L382.676 586.242L382.359 586.304C381.297 586.474 380.203 586.677 379.067 586.959C379.067 586.959 379.152 587.65 379.412 588.805L379.417 588.839H379.423C380.769 594.734 386.751 612.476 409.652 612.03C410.878 611.21 412.401 611.287 413.686 611.955C436.316 611.21 441.46 593.366 442.534 587.435V587.425C442.748 586.249 442.806 585.546 442.806 585.546C441.645 585.314 440.543 585.159 439.474 585.035Z" fill="#20C997"/>
<path d="M273.081 509.822C273.081 509.822 278.304 493.598 292.765 499.616H292.776L292.901 499.673C293.479 499.915 294.061 500.181 294.665 500.5C294.665 500.5 294.536 500.843 294.265 501.397L294.22 501.495H294.213C292.612 504.674 286.553 514.167 273.081 509.822Z" fill="#FFBE55"/>
<path d="M196.307 591.97L196.534 591.937L196.544 591.95C208.766 590.653 213.835 598.167 215.917 604.374C216.324 599.259 217.337 594.236 219.306 589.437C219.805 588.215 220.363 587.032 220.948 585.871C203.305 581.992 204.602 564.781 204.602 564.781C205.403 564.748 206.162 564.751 206.898 564.781H207.165L207.181 564.791C220.035 565.393 223.056 574.896 223.646 581.093C229.958 571.119 239.033 563.323 247.606 555.096C235.747 547.162 241.416 534.625 241.416 534.625C242.066 534.83 242.666 535.055 243.249 535.294L243.373 535.337L243.378 535.35C252.142 539.003 252.725 546.003 251.815 550.953C251.826 550.943 251.831 550.931 251.838 550.926C256.743 545.946 260.832 540.475 263.956 534.604C251.985 530.401 252.149 519.926 252.546 516.542C252.539 516.537 252.539 516.537 252.539 516.537L252.563 516.384C252.637 515.803 252.709 515.463 252.709 515.463C253.377 515.53 254.004 515.628 254.616 515.739L254.774 515.763L254.78 515.773C264.426 517.614 266.23 524.742 266.23 529.816C269.015 523.276 270.638 516.293 270.875 508.961C256.408 511.27 252.194 497.895 252.194 497.895C252.85 497.603 253.483 497.353 254.107 497.138L254.145 497.126H254.152C263.034 494.047 268.114 498.746 270.751 503.01C270.715 502.489 270.698 501.968 270.648 501.449C270.141 496.081 269.07 490.825 267.627 485.664C255.509 485.143 252.929 475.559 252.408 472.39L252.398 472.312C252.307 471.724 252.283 471.378 252.283 471.378C252.883 471.27 253.449 471.204 254.004 471.146L254.212 471.113L254.219 471.123C258.406 470.756 261.399 471.801 263.531 473.489C262.106 469.811 260.557 466.18 258.938 462.58C248.143 467.446 241.534 460.265 239.628 457.726C239.623 457.726 239.623 457.726 239.623 457.726L239.583 457.671C239.226 457.187 239.046 456.888 239.046 456.888C239.531 456.515 240.008 456.182 240.475 455.87L240.63 455.769H240.642C247.554 451.326 252.929 453.828 256.308 456.866C255.362 454.852 254.41 452.839 253.461 450.841C253.242 450.389 253.342 449.959 253.574 449.625C241.517 449.058 238.956 439.518 238.441 436.353H238.435L238.429 436.289C238.333 435.694 238.309 435.345 238.309 435.345C238.904 435.23 239.476 435.163 240.025 435.106L240.24 435.079L240.25 435.089C253.15 433.947 254.666 446.327 254.847 449.099C255.073 449.173 255.288 449.331 255.429 449.625C257.235 453.42 259.051 457.24 260.792 461.099C261.274 458.01 263.939 446.365 276.419 448.477L276.431 448.471L276.606 448.504C277.167 448.607 277.739 448.726 278.337 448.884C278.337 448.884 276.381 462.897 261.138 461.857C264.205 468.673 267.034 475.606 269.183 482.74C269.936 478.876 273.037 468.883 284.679 470.851L284.691 470.847L284.873 470.884C285.427 470.989 285.999 471.101 286.593 471.261C286.593 471.261 284.646 485.133 269.625 484.249C270.648 487.831 271.505 491.457 272.108 495.153C272.832 499.559 273.162 503.894 273.088 508.148C273.156 508.363 273.189 508.488 273.189 508.488C273.148 508.498 273.114 508.504 273.076 508.511C272.906 515.955 271.475 523.153 268.714 530.031C272.584 526.948 278.7 524.453 285.918 529.953H285.931L286.066 530.065C286.553 530.438 287.044 530.846 287.538 531.299C287.538 531.299 287.299 531.628 286.852 532.135L286.845 532.142C286.845 532.142 286.845 532.142 286.842 532.142C284.594 534.676 277.009 541.676 266.028 535.815C264.816 538.111 263.464 540.362 261.925 542.57C260.172 545.093 258.237 547.446 256.2 549.714C260.086 546.982 265.817 545.229 272.493 550.322H272.505L272.634 550.43C273.122 550.808 273.607 551.209 274.106 551.663C274.106 551.663 273.874 551.984 273.421 552.493L273.41 552.51C271.045 555.174 262.796 562.767 250.916 555.208C250.734 555.39 250.548 555.571 250.361 555.752C250.151 556.24 250.009 556.508 250.009 556.508C249.915 556.465 249.83 556.408 249.733 556.357C245.116 560.8 240.3 565.064 235.826 569.631C238.791 568.59 242.446 568.436 246.92 569.84L246.937 569.83L247.118 569.897C247.843 570.129 248.578 570.384 249.348 570.7C249.348 570.7 244.25 588.878 224.239 584.493C224.069 584.8 223.883 585.099 223.723 585.409C223.689 586.01 223.646 586.356 223.646 586.356C223.527 586.339 223.414 586.316 223.294 586.299C220.346 592.255 218.892 598.541 218.394 604.973C220.641 598.773 225.981 590.983 238.502 592.879L238.514 592.867L238.751 592.913C239.544 593.037 240.352 593.195 241.2 593.4C241.2 593.4 241.133 593.919 240.94 594.767L240.935 594.801C239.934 599.18 235.486 612.362 218.467 612.03C217.556 611.423 216.426 611.48 215.47 611.979C198.649 611.423 194.83 598.161 194.034 593.759V593.749C193.876 592.879 193.836 592.345 193.836 592.345C194.689 592.176 195.509 592.061 196.307 591.97Z" fill="#20C997"/>
<path d="M336.113 25.7703C264.126 25.7703 196.902 53.1931 146.832 102.948C96.7903 152.689 69.2749 219.438 69.2986 290.896C69.3787 436.456 187.118 554.972 331.764 555.103H332.007C478.8 555.103 598.307 436.477 598.421 290.679C598.562 144.893 481.115 26.0597 336.652 25.7705H336.113V25.7703Z" fill="white"/>
<path d="M333.954 96.6771C274.762 164.82 208.743 166.493 205.893 166.551H177.28C172.053 166.551 167.792 170.805 167.792 176.034V186.533C165.087 249.079 172.302 303.975 189.847 354.543C205.427 399.432 228.03 433.91 258.99 459.924C280.306 477.864 304.963 490.748 332.324 498.188C332.799 498.329 333.347 498.413 333.954 498.453C334.574 498.413 335.123 498.329 335.553 498.205C362.933 490.747 387.622 477.881 408.933 459.936C439.876 433.909 462.483 399.431 478.071 354.543C495.615 303.975 502.827 249.079 500.129 186.748L500.119 176.033C500.119 170.804 495.864 166.55 490.637 166.55H462.087C459.169 166.493 393.139 164.82 333.954 96.6771Z" fill="#EE3224"/>
<path opacity="0.3" d="M485.171 166.55C469.839 275.099 376.561 358.565 263.803 358.565C236.691 358.565 210.705 353.753 186.661 344.915C171.442 297.022 165.252 245.136 167.804 186.533V176.034C167.804 170.8 172.053 166.55 177.28 166.55H205.893C208.743 166.507 274.752 164.808 333.964 96.677C393.139 164.808 459.157 166.506 462.075 166.55H485.171Z" fill="#5590EB"/>
<path d="M332.091 580.874H331.82C172.93 580.737 43.5847 450.644 43.5002 290.883C43.4839 212.536 73.7175 139.292 128.681 84.64C183.612 30.0525 257.235 0 336.019 0H336.619C495.325 0.315944 624.339 130.727 624.226 290.703C624.152 368.609 593.804 441.591 538.794 496.223C483.814 550.808 410.405 580.874 332.091 580.874ZM336.019 37.1816C267.13 37.1816 202.803 63.4282 154.899 111.033C107.007 158.623 80.6821 222.495 80.7038 290.883C80.7779 430.153 193.456 543.567 331.848 543.684H332.091C472.549 543.684 586.895 430.176 587.015 290.68C587.145 151.178 474.778 37.464 336.543 37.1816H336.019Z" fill="#D3D3D3"/>
<path d="M333.954 508.161L333.806 508.151C332.305 508.101 330.955 507.903 329.709 507.573C301.049 499.732 275.113 486.197 252.72 467.359C220.415 440.173 196.823 404.321 180.675 357.747C162.718 305.978 155.324 249.916 158.072 186.33V176.033C158.072 165.431 166.678 156.818 177.28 156.818H205.836C206.445 156.808 273.114 154.918 330.214 86.0982L333.953 81.5667L337.698 86.0982C394.982 155.111 461.47 156.808 462.139 156.818H490.636C501.234 156.818 509.838 165.431 509.838 176.033V186.533C512.577 249.916 505.199 305.978 487.258 357.747C471.077 404.321 447.519 440.173 415.17 467.359C392.769 486.197 366.862 499.732 338.167 507.573C336.956 507.903 335.615 508.101 334.111 508.151L333.954 508.161ZM333.954 96.6772C274.762 164.82 208.743 166.493 205.893 166.551H177.28C172.053 166.551 167.792 170.805 167.792 176.034V186.533C165.087 249.079 172.302 303.975 189.847 354.543C205.427 399.432 228.03 433.91 258.99 459.924C280.306 477.864 304.963 490.748 332.324 498.188C332.799 498.329 333.347 498.413 333.954 498.453C334.574 498.413 335.123 498.329 335.553 498.205C362.933 490.747 387.622 477.881 408.933 459.936C439.877 433.909 462.483 399.431 478.071 354.543C495.616 303.975 502.827 249.079 500.129 186.748L500.119 176.033C500.119 170.805 495.864 166.55 490.637 166.55H462.087C459.169 166.493 393.139 164.82 333.954 96.6772Z" fill="#F7B2B0"/>
<path opacity="0.87" d="M485.171 166.55C469.839 275.099 376.561 358.565 263.803 358.565C236.691 358.565 210.705 353.753 186.661 344.915C171.442 297.022 165.252 245.136 167.804 186.533V176.034C167.804 170.8 172.053 166.55 177.28 166.55H205.893C208.743 166.507 274.752 164.808 333.964 96.677C393.139 164.808 459.157 166.506 462.075 166.55H485.171Z" fill="#FFC1BC"/>
<path d="M423.498 285.464C423.447 275.041 417.822 268.734 407.61 267.676C398.422 266.748 397.461 260.508 397.533 255.884C397.686 247.691 397.686 238.856 397.533 228.807C397.179 203.777 377.97 184.767 352.848 184.576C340 184.508 327.107 184.532 314.263 184.767C292.092 185.171 274.412 200.412 271.31 221.85C270.111 229.928 270.181 238.159 270.282 246.854C270.309 250.238 270.326 253.611 270.282 257.006C270.23 259.676 270.11 266.792 261.076 267.824C249.411 269.147 244.403 274.884 244.37 286.968C244.303 317.797 244.303 348.648 244.37 379.465C244.427 392.919 250.813 399.216 264.505 399.216L292.33 399.233H338.919V399.403L376.668 399.455C386.094 399.455 395.577 399.431 405.035 399.374C416.719 399.336 423.416 392.553 423.473 380.818C423.621 348.817 423.621 316.744 423.498 285.464ZM353.608 316.523C353.144 321.388 350.732 325.781 346.806 328.869C339.752 334.454 339.04 340.828 339.267 346.306C339.469 350.346 339.408 354.521 339.366 358.543C339.346 360.359 339.346 362.181 339.346 364.019C339.346 366.074 339.346 368.218 339.191 369.378C338.015 369.558 335.764 369.637 333.568 369.735C331.899 369.814 330.48 369.864 329.325 369.864C328.855 369.864 328.484 369.864 328.216 369.842C328.092 368.585 328.092 366.458 328.092 364.359L328.035 360.971C328.035 358.322 328.018 355.668 328.092 353.05C328.312 345.061 328.584 335.171 318.52 326.516C314.361 323.008 313.484 318.407 313.455 315.222C313.405 309.428 316.098 303.591 320.702 299.549C324.313 296.393 328.929 294.622 333.675 294.622C339.304 294.622 344.714 297.129 348.5 301.417C352.239 305.719 354.099 311.216 353.608 316.523ZM365.392 257.786C360.856 257.685 356.288 257.662 351.712 257.662L333.811 257.707L329.224 257.95L315.493 257.91C311.05 257.91 306.576 257.927 301.857 258.046C301.523 258.046 301.28 258.029 301.058 258.029C301.036 257.707 301.001 257.265 301.001 256.684C301.127 252.179 301.098 247.731 301.058 243.279C301.036 238.685 301.001 234.058 301.151 229.454C301.349 221.436 306.728 215.908 314.507 215.717C327.453 215.399 340.572 215.494 353.578 216.056C360.856 216.348 365.935 221.584 366.23 229.05C366.427 234.136 366.377 239.387 366.353 244.445C366.326 248.603 366.274 252.745 366.377 256.892V257.752C366.133 257.752 365.839 257.786 365.449 257.786C365.449 257.786 365.426 257.786 365.392 257.786Z" fill="white"/>
</svg>
