<svg width="750" height="586" viewBox="0 0 750 586" fill="none" xmlns="http://www.w3.org/2000/svg">
<path d="M52.1738 558.551H705.652" stroke="#0B4870" stroke-opacity="0.1" stroke-width="0.5"/>
<path d="M0 584.638H750" stroke="#0B4870" stroke-width="0.5"/>
<path opacity="0.5" d="M106.31 240.839C249.386 207.324 264.707 125.465 357.175 125.508C449.643 125.551 460.066 208.095 545.585 178.909C631.104 149.723 710.512 171.923 721.145 298.483C731.777 425.042 688.536 525.93 457.261 480.286C225.987 434.642 258.679 552.373 154.658 537.03C50.6366 521.73 -36.7663 274.353 106.31 240.839Z" fill="#D3D3D3"/>
<path opacity="0.5" d="M368.937 585.459C468.185 585.459 548.641 574.887 548.641 561.844C548.641 548.802 468.185 538.23 368.937 538.23C269.69 538.23 189.234 548.802 189.234 561.844C189.234 574.887 269.69 585.459 368.937 585.459Z" fill="#ACACAC"/>
<path d="M394.598 395.256H343.278V554.859H394.598V395.256Z" fill="#0B4870"/>
<path d="M151.351 487.615H586.482C588.7 487.615 590.5 485.772 590.5 483.5V171.666C590.5 169.394 588.7 167.552 586.482 167.552H151.351C149.132 167.552 147.332 169.394 147.332 171.666V483.543C147.332 485.815 149.132 487.615 151.351 487.615Z" fill="#0E538C"/>
<path d="M354.622 460.443C354.622 468.543 361.026 475.1 368.938 475.1C376.849 475.1 383.254 468.543 383.254 460.443C383.254 452.343 376.849 445.828 368.938 445.828C361.026 445.785 354.622 452.343 354.622 460.443Z" fill="#163C47"/>
<path d="M484.386 535.873H253.489V561.845H484.386V535.873Z" fill="#0E538C"/>
<path d="M162.988 429.434L574.05 429.434V183.215L162.988 183.215L162.988 429.434Z" fill="#CCE9FF"/>
<path d="M483.527 395.28L467.489 416.768L521.736 459.21L537.774 437.723L483.527 395.28Z" fill="#007BFF"/>
<path opacity="0.2" d="M483.527 395.28L467.489 416.768L521.736 459.21L537.774 437.723L483.527 395.28Z" fill="black"/>
<path d="M625.052 514.671L617.14 525.257C612.033 532.114 602.448 533.443 595.75 528.171L509.729 460.884L536.184 425.484L622.205 492.771C628.903 497.999 630.159 507.814 625.052 514.671Z" fill="#007BFF"/>
<path fill-rule="evenodd" clip-rule="evenodd" d="M509.854 324.682C509.854 399.502 450.613 460.156 377.535 460.156C304.458 460.156 245.217 399.502 245.217 324.682C245.217 249.862 304.458 189.208 377.535 189.208C450.613 189.208 509.854 249.862 509.854 324.682ZM490.791 324.966C490.791 389.553 439.652 441.911 376.57 441.911C313.487 441.911 262.348 389.553 262.348 324.966C262.348 260.379 313.487 208.02 376.57 208.02C439.652 208.02 490.791 260.379 490.791 324.966Z" fill="#FFC107"/>
<path d="M600.021 97.764C602.774 101.081 603.522 104.95 602.257 109.371C600.977 113.846 598.675 116.875 595.354 118.457C592.034 120.045 588.09 120.431 583.532 119.631L580.916 126.727L571.496 124.036L574.367 112.257C579.405 113.144 583.173 113.199 585.675 112.44C588.173 111.683 589.772 110.093 590.462 107.673C591.035 105.667 590.799 103.92 589.749 102.423C588.7 100.931 586.84 99.8 584.167 99.0352C581.484 98.2705 579.096 98.4109 576.988 99.449C574.879 100.487 573.323 102.368 572.329 105.088L563.479 98.0549C565.326 94.1333 568.283 91.4454 572.342 89.9911C576.403 88.5368 581.423 88.6597 587.4 90.3672C593.06 91.9795 597.267 94.4442 600.021 97.764ZM579.172 133.404C580.05 134.821 580.218 136.458 579.689 138.311C579.162 140.164 578.153 141.458 576.657 142.197C575.163 142.94 573.386 143.02 571.328 142.431C569.269 141.841 567.813 140.843 566.965 139.429C566.114 138.023 565.956 136.39 566.483 134.537C567.013 132.689 568.012 131.386 569.48 130.636C570.949 129.889 572.711 129.806 574.772 130.395C576.832 130.987 578.298 131.987 579.172 133.404Z" fill="#FFC107"/>
<path d="M116.412 16.0541C124.434 17.4205 130.261 22.0478 133.886 29.9386C137.556 37.9201 137.984 45.0878 135.175 51.4373C132.365 57.7882 127.199 63.1921 119.683 67.6494L124.666 81.0343L107.864 88.7662L97.4885 68.366C105.791 63.4377 111.262 58.8865 113.91 54.722C116.556 50.5603 116.888 46.32 114.906 42.0055C113.263 38.4292 110.769 36.2139 107.431 35.3616C104.09 34.506 100.033 35.1816 95.2612 37.3766C90.4861 39.5744 87.2299 42.7166 85.4917 46.7958C83.7506 50.8748 83.8363 55.4771 85.7446 60.5979L64.4263 61.4074C62.2457 53.5177 63.1735 46.0363 67.2045 38.9539C71.235 31.8774 78.577 25.8853 89.2298 20.9835C99.3255 16.3345 108.387 14.6949 116.412 16.0541ZM130.381 92.7395C133.375 93.6977 135.636 95.8272 137.152 99.1301C138.669 102.432 138.815 105.532 137.591 108.432C136.363 111.33 133.912 113.627 130.241 115.317C126.568 117.004 123.257 117.361 120.306 116.385C117.357 115.411 115.119 113.27 113.602 109.969C112.084 106.667 111.917 103.577 113.093 100.695C114.276 97.8202 116.7 95.5352 120.374 93.8454C124.046 92.154 127.383 91.7884 130.381 92.7395Z" fill="#FFC107"/>
<circle cx="375.652" cy="323.769" r="62.8913" fill="#EE3224" stroke="#EE3224"/>
<path d="M375.652 262.138C363.463 262.138 351.547 265.753 341.412 272.525C331.277 279.297 323.378 288.922 318.713 300.184C314.048 311.445 312.828 323.837 315.206 335.792C317.584 347.747 323.454 358.729 332.073 367.348C340.692 375.967 351.674 381.837 363.629 384.215C375.584 386.593 387.976 385.372 399.237 380.708C410.499 376.043 420.124 368.144 426.896 358.009C433.668 347.874 437.283 335.958 437.283 323.769C437.283 307.423 430.789 291.747 419.231 280.189C407.674 268.631 391.998 262.138 375.652 262.138ZM375.652 376.595C365.204 376.595 354.991 373.496 346.304 367.692C337.616 361.887 330.846 353.637 326.847 343.984C322.849 334.332 321.803 323.71 323.841 313.463C325.879 303.215 330.911 293.803 338.299 286.415C345.686 279.027 355.099 273.996 365.346 271.958C375.594 269.919 386.215 270.965 395.868 274.964C405.521 278.962 413.771 285.733 419.575 294.42C425.38 303.107 428.478 313.321 428.478 323.769C428.478 337.779 422.913 351.215 413.006 361.122C403.099 371.029 389.663 376.595 375.652 376.595Z" fill="#EE3224"/>
<mask id="mask0" mask-type="alpha" maskUnits="userSpaceOnUse" x="312" y="260" width="128" height="128">
<circle cx="375.652" cy="323.769" r="62.8913" fill="#EE3224" stroke="#EE3224"/>
<path d="M375.652 262.138C363.463 262.138 351.547 265.753 341.412 272.525C331.277 279.297 323.378 288.922 318.713 300.184C314.048 311.445 312.828 323.837 315.206 335.792C317.584 347.747 323.454 358.729 332.073 367.348C340.692 375.967 351.674 381.837 363.629 384.215C375.584 386.593 387.976 385.372 399.237 380.708C410.499 376.043 420.124 368.144 426.896 358.009C433.668 347.874 437.283 335.958 437.283 323.769C437.283 307.423 430.789 291.747 419.231 280.189C407.674 268.631 391.998 262.138 375.652 262.138ZM375.652 376.595C365.204 376.595 354.991 373.496 346.304 367.692C337.616 361.887 330.846 353.637 326.847 343.984C322.849 334.332 321.803 323.71 323.841 313.463C325.879 303.215 330.911 293.803 338.299 286.415C345.686 279.027 355.099 273.996 365.346 271.958C375.594 269.919 386.215 270.965 395.868 274.964C405.521 278.962 413.771 285.733 419.575 294.42C425.38 303.107 428.478 313.321 428.478 323.769C428.478 337.779 422.913 351.215 413.006 361.122C403.099 371.029 389.663 376.595 375.652 376.595Z" fill="#EE3224"/>
<path d="M375.652 350.182C374.346 350.182 373.069 350.569 371.984 351.294C370.898 352.02 370.051 353.051 369.551 354.258C369.052 355.465 368.921 356.792 369.176 358.073C369.43 359.354 370.059 360.531 370.983 361.454C371.906 362.378 373.083 363.006 374.364 363.261C375.645 363.516 376.972 363.385 378.179 362.886C379.386 362.386 380.417 361.539 381.142 360.453C381.868 359.368 382.255 358.091 382.255 356.785C382.255 355.034 381.56 353.354 380.321 352.116C379.083 350.877 377.403 350.182 375.652 350.182Z" fill="white"/>
<path d="M371.25 288.551H380.054V336.975H371.25V288.551Z" fill="white"/>
</mask>
<g mask="url(#mask0)">
<circle cx="329.478" cy="259.334" r="63.3913" fill="#F7B2B0"/>
</g>
<path d="M375.652 350.182C374.346 350.182 373.069 350.569 371.984 351.294C370.898 352.02 370.051 353.051 369.551 354.258C369.052 355.465 368.921 356.792 369.176 358.073C369.43 359.354 370.059 360.531 370.983 361.454C371.906 362.378 373.083 363.006 374.364 363.261C375.645 363.516 376.972 363.385 378.179 362.886C379.386 362.386 380.417 361.539 381.142 360.453C381.868 359.368 382.255 358.091 382.255 356.785C382.255 355.034 381.56 353.354 380.321 352.116C379.083 350.877 377.403 350.182 375.652 350.182Z" fill="white"/>
<path d="M371.25 288.551H380.054V336.975H371.25V288.551Z" fill="white"/>
</svg>
