<svg width="506" height="534" viewBox="0 0 506 534" fill="none" xmlns="http://www.w3.org/2000/svg">
<path d="M69.1217 93.0083C96.0141 93.0083 117.815 72.3953 117.815 46.9678C117.815 21.5404 96.0141 0.927368 69.1217 0.927368C42.2293 0.927368 20.4287 21.5404 20.4287 46.9678C20.4287 72.3953 42.2293 93.0083 69.1217 93.0083Z" fill="white"/>
<path d="M69.1724 93.5869C68.0096 93.5869 66.8315 93.5474 65.6711 93.4684L65.7571 92.3325C67.8418 92.473 69.961 92.4844 72.0457 92.3659L72.1179 93.5026C71.1406 93.5588 70.1497 93.5869 69.1724 93.5869ZM78.5125 92.7365L78.2828 91.618C80.333 91.2414 82.3775 90.7319 84.3594 90.104L84.7425 91.1837C82.71 91.8276 80.6141 92.35 78.5125 92.7365ZM59.287 92.6408L59.1657 92.6172C57.0361 92.2012 54.9458 91.6567 52.9277 90.9962L53.322 89.9202C55.2903 90.5649 57.3308 91.0949 59.385 91.4973L59.5223 91.5239L59.287 92.6408ZM90.7058 88.8755L90.1782 87.8512C92.0565 86.9848 93.8939 85.9924 95.6381 84.9028L96.3022 85.8527C94.5139 86.9704 92.6315 87.9871 90.7058 88.8755ZM46.9885 88.6287C45.0724 87.7198 43.2005 86.6811 41.4266 85.5406L42.1036 84.5991C43.8341 85.7107 45.6594 86.7244 47.5289 87.6105L46.9885 88.6287ZM101.438 82.1694L100.649 81.3083C102.23 80.0122 103.736 78.606 105.123 77.1284L106.024 77.8847C104.602 79.3995 103.058 80.8406 101.438 82.1694ZM36.3418 81.7897C34.7438 80.4427 33.2228 78.9803 31.8207 77.4435L32.733 76.6994C34.1013 78.199 35.5853 79.6258 37.144 80.9393L36.3418 81.7897ZM109.979 73.0693L108.981 72.4315C110.153 70.7929 111.221 69.064 112.154 67.2948L113.233 67.8028C112.275 69.6175 111.181 71.3889 109.979 73.0693ZM27.9364 72.5803C26.7584 70.8863 25.6863 69.1035 24.7524 67.2819L25.8365 66.7854C26.7479 68.5629 27.7935 70.3016 28.9434 71.9546L27.9364 72.5803ZM115.723 62.1825L114.584 61.812C115.25 59.9813 115.799 58.0839 116.218 56.1742L116.238 56.0778L117.42 56.3033L117.397 56.4073C116.969 58.361 116.406 60.3056 115.723 62.1825ZM22.324 61.6389C21.647 59.7141 21.0993 57.7308 20.6962 55.7452L21.8791 55.5304C22.2726 57.4681 22.8074 59.402 23.4675 61.2797L22.324 61.6389ZM118.3 50.2662L117.098 50.1842C117.181 49.1037 117.223 48.005 117.223 46.9208C117.223 46.0278 117.195 45.1258 117.139 44.2389L118.341 44.1706C118.399 45.0802 118.428 46.0058 118.428 46.9208C118.428 48.0324 118.385 49.1576 118.3 50.2662ZM19.8996 49.6967C19.845 48.8046 19.8169 47.9025 19.8169 47.0149C19.8169 45.8836 19.8619 44.7355 19.9502 43.6011L21.1515 43.6846C21.0656 44.7909 21.0215 45.9116 21.0215 47.0149C21.0215 47.8805 21.0488 48.7613 21.1018 49.6307L19.8996 49.6967ZM116.353 38.3392C115.956 36.4 115.419 34.4661 114.756 32.5921L115.899 32.2307C116.578 34.1517 117.129 36.1342 117.536 38.1221L116.353 38.3392ZM22.0269 37.7614L20.8392 37.5678L20.8472 37.5313C21.28 35.5526 21.851 33.5868 22.544 31.6886L23.6827 32.0606C23.0066 33.9118 22.4493 35.8298 22.0269 37.7614ZM112.378 27.0896C111.464 25.3136 110.416 23.5755 109.263 21.9248L110.269 21.2977C111.449 22.9901 112.524 24.7707 113.462 26.5915L112.378 27.0896ZM26.1223 26.5801L25.0447 26.0706C26.0051 24.2566 27.1021 22.4867 28.3066 20.8087L29.3032 21.448C28.1283 23.0843 27.0587 24.8109 26.1223 26.5801ZM105.466 17.1846C104.096 15.688 102.609 14.2636 101.048 12.9508L101.849 12.0996C103.449 13.4451 104.973 14.9052 106.376 16.439L105.466 17.1846ZM33.169 16.7556L32.2696 15.9986C33.6934 14.4861 35.2384 13.0464 36.8622 11.7207L37.6492 12.5825C36.0664 13.8763 34.5583 15.2803 33.169 16.7556ZM96.083 9.29933C94.35 8.19 92.5223 7.17938 90.652 6.29481L91.1909 5.27584C93.1085 6.18167 94.9812 7.21811 96.7583 8.35553L96.083 9.29933ZM42.6657 8.99561L42.0032 8.04422C43.7932 6.92958 45.6779 5.91516 47.6044 5.02983L48.1304 6.05411C46.2513 6.91819 44.4123 7.90755 42.6657 8.99561ZM84.8549 3.99339C82.9067 3.35863 80.8895 2.83547 78.8578 2.43836L79.0305 1.30929L79.0995 1.32296C81.1834 1.72994 83.2512 2.26676 85.2476 2.91748L84.8549 3.99339ZM53.9524 3.80964L53.571 2.72917C55.6035 2.08833 57.7002 1.56897 59.8034 1.18553L60.0314 2.30397C57.9805 2.6783 55.9343 3.18475 53.9524 3.80964ZM72.5588 1.60769C70.4653 1.46343 68.3461 1.44976 66.2702 1.56441L66.1995 0.427758C68.3268 0.309309 70.5006 0.323734 72.6463 0.471796L72.5588 1.60769Z" fill="#EFEEEF"/>
<path opacity="0.5" d="M444.93 470.189C478.271 470.189 505.299 444.633 505.299 413.109C505.299 381.584 478.271 356.028 444.93 356.028C411.589 356.028 384.561 381.584 384.561 413.109C384.561 444.633 411.589 470.189 444.93 470.189Z" fill="#D3D3D3"/>
<path d="M445.034 470.758L445.032 469.62C447.118 469.616 449.22 469.509 451.276 469.304L451.403 470.437C449.305 470.647 447.162 470.755 445.034 470.758ZM438.662 470.458C436.551 470.254 434.429 469.942 432.357 469.531L432.605 468.416C434.636 468.819 436.716 469.125 438.784 469.324L438.662 470.458ZM457.704 469.49L457.453 468.377C459.484 467.967 461.517 467.449 463.492 466.841L463.866 467.924C461.851 468.545 459.777 469.072 457.704 469.49ZM426.189 467.984C424.171 467.367 422.165 466.643 420.227 465.831L420.714 464.79C422.614 465.586 424.58 466.296 426.558 466.9L426.189 467.984ZM469.819 465.752L469.327 464.713C471.222 463.91 473.094 463.003 474.892 462.017L475.498 463.002C473.663 464.008 471.752 464.934 469.819 465.752ZM414.537 463.096C412.698 462.095 410.896 460.991 409.181 459.815L409.889 458.892C411.569 460.046 413.335 461.128 415.138 462.109L414.537 463.096ZM480.839 459.704L480.128 458.784C481.804 457.628 483.436 456.373 484.981 455.053L485.789 455.898C484.213 457.245 482.547 458.525 480.839 459.704ZM404.218 456.024C402.642 454.686 401.122 453.254 399.697 451.766L400.591 451.002C401.986 452.461 403.477 453.866 405.023 455.176L404.218 456.024ZM490.294 451.627L489.399 450.867C490.787 449.405 492.111 447.858 493.331 446.267L494.307 446.936C493.062 448.559 491.712 450.138 490.294 451.627ZM395.67 447.088C394.415 445.464 393.242 443.765 392.18 442.038L393.222 441.466C394.261 443.158 395.413 444.824 396.642 446.416L395.67 447.088ZM497.781 441.874L496.738 441.305C497.779 439.599 498.733 437.826 499.574 436.034L500.675 436.496C499.817 438.324 498.843 440.134 497.781 441.874ZM389.268 436.672C388.399 434.839 387.625 432.946 386.968 431.044L388.113 430.69C388.757 432.554 389.516 434.409 390.368 436.206L389.268 436.672ZM502.957 430.86L501.81 430.51C502.449 428.639 502.99 426.716 503.418 424.794L504.597 425.029C504.16 426.99 503.608 428.952 502.957 430.86ZM385.306 425.219C384.864 423.262 384.525 421.258 384.301 419.261L385.5 419.141C385.719 421.098 386.05 423.063 386.484 424.98L385.306 425.219ZM505.579 419.067L504.381 418.952C504.591 417.021 504.697 415.055 504.697 413.109L505.901 413.045V413.109C505.901 415.094 505.793 417.098 505.579 419.067ZM385.163 413.237H383.958V413.108C383.958 411.101 384.069 409.074 384.287 407.085L385.485 407.202C385.271 409.152 385.163 411.14 385.163 413.108V413.237ZM504.368 407.14C504.15 405.183 503.821 403.218 503.39 401.3L504.568 401.062C505.008 403.02 505.344 405.024 505.566 407.021L504.368 407.14ZM386.456 401.362L385.278 401.126C385.716 399.165 386.27 397.203 386.926 395.296L388.071 395.648C387.429 397.517 386.886 399.439 386.456 401.362ZM501.769 395.588C501.126 393.722 500.369 391.866 499.52 390.069L500.62 389.605C501.485 391.437 502.258 393.331 502.913 395.235L501.769 395.588ZM390.312 390.126L389.213 389.662C390.074 387.835 391.05 386.026 392.113 384.288L393.156 384.857C392.115 386.561 391.158 388.334 390.312 390.126ZM496.674 384.807C495.631 383.109 494.482 381.441 493.258 379.854L494.232 379.183C495.48 380.803 496.653 382.503 497.715 384.236L496.674 384.807ZM396.567 379.899L395.593 379.229C396.839 377.61 398.19 376.034 399.611 374.542L400.506 375.304C399.113 376.766 397.788 378.312 396.567 379.899ZM489.315 375.262C487.923 373.804 486.433 372.398 484.888 371.084L485.694 370.237C487.269 371.578 488.789 373.012 490.208 374.5L489.315 375.262ZM404.929 371.12L404.123 370.274C405.696 368.934 407.363 367.656 409.078 366.474L409.787 367.395C408.106 368.553 406.471 369.807 404.929 371.12ZM480.027 367.361C478.342 366.205 476.577 365.12 474.78 364.139L475.383 363.153C477.215 364.154 479.016 365.259 480.734 366.44L480.027 367.361ZM415.027 364.169L414.423 363.183C416.26 362.177 418.171 361.254 420.104 360.439L420.595 361.479C418.7 362.278 416.827 363.183 415.027 364.169ZM469.207 361.454C467.309 360.654 465.343 359.943 463.366 359.338L463.738 358.253C465.755 358.871 467.76 359.598 469.697 360.414L469.207 361.454ZM426.432 359.356L426.06 358.273C428.073 357.654 430.148 357.129 432.223 356.712L432.474 357.826C430.438 358.235 428.406 358.749 426.432 359.356ZM457.321 357.814C455.289 357.409 453.211 357.101 451.143 356.9L451.267 355.767C453.376 355.972 455.497 356.287 457.571 356.7L457.321 357.814ZM438.651 356.906L438.526 355.773C440.625 355.567 442.768 355.461 444.896 355.459L444.898 356.598C442.81 356.599 440.708 356.703 438.651 356.906Z" fill="#E2DCE3"/>
<path d="M74.6271 480.754C115.165 480.754 148.027 449.682 148.027 411.353C148.027 373.023 115.165 341.951 74.6271 341.951C34.0894 341.951 1.22705 373.023 1.22705 411.353C1.22705 449.682 34.0894 480.754 74.6271 480.754Z" fill="white"/>
<path d="M74.6932 481.324L74.6916 480.185C76.8044 480.183 78.9397 480.094 81.0372 479.919L81.1424 481.054C79.0103 481.232 76.8405 481.322 74.6932 481.324ZM68.2432 481.065C66.1063 480.891 63.9526 480.626 61.8422 480.278L62.0494 479.155C64.126 479.498 66.2452 479.759 68.3468 479.93L68.2432 481.065ZM87.5434 480.256L87.3338 479.134C89.4121 478.787 91.4983 478.351 93.5349 477.834L93.8464 478.935C91.7762 479.459 89.6554 479.904 87.5434 480.256ZM55.5375 478.968C53.4673 478.447 51.3946 477.834 49.3782 477.144L49.7886 476.073C51.7729 476.752 53.811 477.355 55.8475 477.868L55.5375 478.968ZM100.004 477.1L99.5914 476.029C101.574 475.346 103.548 474.572 105.458 473.728L105.968 474.76C104.027 475.617 102.02 476.405 100.004 477.1ZM43.4117 474.815C41.4699 473.961 39.5426 473.014 37.6844 472.001L38.2867 471.014C40.1144 472.011 42.0095 472.942 43.92 473.783L43.4117 474.815ZM111.693 471.935L111.089 470.948C112.913 469.95 114.713 468.86 116.441 467.712L117.134 468.644C115.377 469.812 113.547 470.918 111.693 471.935ZM32.2406 468.724C30.4868 467.563 28.7642 466.313 27.122 465.009L27.8962 464.138C29.5119 465.419 31.2063 466.649 32.9312 467.791L32.2406 468.724ZM122.249 464.916L121.473 464.046C123.067 462.775 124.624 461.423 126.104 460.025L126.575 460.384L126.966 460.819C125.452 462.251 123.869 463.626 122.249 464.916ZM22.3656 460.892L22.2918 460.823C20.7812 459.395 19.3133 457.882 17.9353 456.333L18.8572 455.6C20.2127 457.124 21.6566 458.613 23.151 460.025L22.3656 460.892ZM131.361 456.286L130.439 455.553C131.795 454.027 133.096 452.426 134.304 450.793L135.291 451.447C134.061 453.106 132.739 454.734 131.361 456.286ZM13.9972 451.493C12.7621 449.83 11.5929 448.098 10.5224 446.346L11.5656 445.776C12.6184 447.499 13.7683 449.203 14.9833 450.839L13.9972 451.493ZM138.758 446.302L137.715 445.732C138.768 444.006 139.754 442.215 140.643 440.407L141.736 440.887C140.831 442.726 139.829 444.548 138.758 446.302ZM7.53915 440.931C6.63413 439.095 5.8038 437.197 5.07062 435.289L6.2029 434.9C6.92403 436.777 7.74072 438.644 8.63049 440.45L7.53915 440.931ZM144.2 435.247L143.068 434.859C143.787 432.985 144.426 431.057 144.969 429.13L146.132 429.424C145.581 431.382 144.931 433.341 144.2 435.247ZM3.13449 429.465C2.582 427.509 2.11383 425.504 1.74283 423.504L2.92973 423.307C3.29511 425.274 3.75524 427.247 4.29889 429.171L3.13449 429.465ZM147.52 423.462L146.333 423.266C146.696 421.304 146.971 419.301 147.154 417.311L148.353 417.409C148.17 419.432 147.889 421.468 147.52 423.462ZM0.905259 417.452C0.719758 415.433 0.625 413.381 0.625 411.354H1.82956C1.82956 413.349 1.92191 415.367 2.105 417.352L0.905259 417.452ZM147.425 411.312C147.423 409.316 147.33 407.298 147.146 405.313L148.345 405.213C148.532 407.231 148.628 409.283 148.63 411.311L147.425 411.312ZM2.105 405.353L0.905259 405.255C1.09076 403.236 1.37263 401.2 1.74283 399.202L2.92973 399.4C2.56515 401.365 2.28809 403.368 2.105 405.353ZM146.318 399.359C145.952 397.394 145.49 395.42 144.945 393.495L146.109 393.202C146.662 395.157 147.131 397.163 147.504 399.162L146.318 399.359ZM4.2981 393.537L3.13449 393.243C3.68779 391.283 4.33905 389.325 5.06982 387.421L6.2021 387.81C5.48338 389.682 4.84256 391.609 4.2981 393.537ZM143.037 387.768C142.315 385.892 141.497 384.025 140.606 382.22L141.697 381.738C142.604 383.574 143.436 385.471 144.169 387.378L143.037 387.768ZM8.62888 382.262L7.53755 381.781C8.44338 379.942 9.44637 378.121 10.5184 376.368L11.5616 376.937C10.5072 378.663 9.52026 380.454 8.62888 382.262ZM137.668 376.896C136.614 375.173 135.462 373.471 134.246 371.835L135.233 371.18C136.468 372.843 137.638 374.575 138.711 376.325L137.668 376.896ZM14.9753 371.879L13.9892 371.225C15.2186 369.568 16.542 367.941 17.9216 366.389L18.8435 367.122C17.4864 368.649 16.1847 370.25 14.9753 371.879ZM130.37 367.075C129.023 365.562 127.588 364.085 126.104 362.681L126.925 361.846L126.964 361.884C128.464 363.301 129.923 364.804 131.292 366.341L130.37 367.075ZM23.1526 362.681L22.2693 361.906L22.3343 361.846C23.8143 360.444 25.4092 359.061 27.0393 357.763L27.8151 358.635C26.2106 359.911 24.6423 361.272 23.1526 362.681ZM121.391 358.595C119.778 357.314 118.085 356.083 116.359 354.939L117.05 354.006C118.806 355.17 120.527 356.421 122.166 357.724L121.391 358.595ZM32.8493 354.97L32.1571 354.038C33.9141 352.87 35.7458 351.764 37.5993 350.75L38.2023 351.737C36.3795 352.733 34.5782 353.821 32.8493 354.97ZM111.007 351.712C109.18 350.715 107.285 349.783 105.375 348.942L105.884 347.91C107.826 348.765 109.752 349.713 111.609 350.727L111.007 351.712ZM43.8349 348.961L43.3257 347.929C45.2659 347.074 47.2735 346.288 49.2915 345.594L49.7034 346.664C47.7183 347.346 45.7437 348.119 43.8349 348.961ZM99.5079 346.649C97.5292 345.969 95.4911 345.365 93.4505 344.85L93.7605 343.75C95.8356 344.272 97.9082 344.888 99.919 345.578L99.5079 346.649ZM55.7616 344.861L55.4508 343.761C57.5178 343.239 59.6386 342.796 61.7546 342.444L61.9634 343.566C59.8828 343.911 57.7957 344.347 55.7616 344.861ZM87.2479 343.558C85.1688 343.214 83.0496 342.952 80.9505 342.781L81.0548 341.646C83.1885 341.821 85.3415 342.087 87.4559 342.437L87.2479 343.558ZM68.2608 342.783L68.1557 341.649C70.2941 341.472 72.464 341.382 74.6057 341.382V342.521C72.4993 342.521 70.3648 342.61 68.2608 342.783Z" fill="#E2DCE3"/>
<path d="M199.87 459.542L184.659 450.527H183.21H180.532H94.6133V454.038L100.435 459.542H199.87Z" fill="#4E80A9"/>
<path d="M115.708 524.106V462.308C115.708 453.077 107.792 445.593 98.028 445.593H91.0641C81.3008 445.593 73.3853 453.076 73.3853 462.308V524.106H115.708Z" fill="#EE3224"/>
<path d="M184.659 450.527V459.542H199.87L184.659 450.527Z" fill="#5183AC"/>
<path d="M130.996 423.751H125.672V447.319H130.996V423.751Z" fill="#724A5F"/>
<path opacity="0.72" d="M92.7908 452.16L51.603 413.216H145.362L186.386 452.005L92.7908 452.16Z" fill="#EE3224"/>
<path d="M145.373 413.225C142.406 421.158 144.277 430.347 150.988 436.693L167.215 452.036L186.386 452.005L145.373 413.225Z" fill="#EE3224"/>
<path d="M51.6069 413.22C48.6365 421.153 50.506 430.347 57.2194 436.693L87.2329 465.072C93.9463 471.42 103.669 473.188 112.06 470.379L51.6069 413.22Z" fill="#EE3224"/>
<path d="M115.707 521.062H73.3853V529.04H115.707V521.062Z" fill="#FFC107"/>
<path d="M115.708 482.12H73.386C72.9428 482.12 72.583 481.781 72.583 481.361C72.583 480.941 72.9428 480.602 73.386 480.602H115.708C116.151 480.602 116.511 480.941 116.511 481.361C116.511 481.781 116.152 482.12 115.708 482.12Z" fill="#4E80A9"/>
<path d="M183.275 470.137L182.298 469.213L119.205 409.512H116.234L119.205 413.842L178.067 470.153C178.611 470.153 179.06 470.147 179.45 470.137H183.275Z" fill="#0E538C"/>
<path d="M156.512 447.638L116.234 409.512L116.233 470.137H145.667H150.14H180.348L156.512 447.638ZM128.535 458.505V437.203L151.041 458.505H128.535Z" fill="#007BFF"/>
<path d="M121.155 471.022H116.233C116.039 471.022 115.881 470.874 115.881 470.69C115.881 470.507 116.038 470.358 116.233 470.358H121.155C121.348 470.358 121.507 470.506 121.507 470.69C121.506 470.874 121.348 471.022 121.155 471.022ZM121.154 466.395H116.234C116.04 466.395 115.882 466.247 115.882 466.063C115.882 465.88 116.039 465.73 116.234 465.73H121.154C121.348 465.73 121.506 465.879 121.506 466.063C121.505 466.247 121.348 466.395 121.154 466.395ZM121.154 461.768H116.234C116.04 461.768 115.882 461.62 115.882 461.436C115.882 461.253 116.039 461.103 116.234 461.103H121.154C121.348 461.103 121.506 461.252 121.506 461.436C121.505 461.62 121.348 461.768 121.154 461.768ZM121.154 457.142H116.233C116.039 457.142 115.881 456.994 115.881 456.809C115.881 456.625 116.038 456.477 116.233 456.477H121.154C121.348 456.477 121.506 456.625 121.506 456.809C121.506 456.994 121.348 457.142 121.154 457.142ZM121.154 452.516H116.234C116.04 452.516 115.882 452.367 115.882 452.184C115.882 452 116.039 451.851 116.234 451.851H121.154C121.348 451.851 121.506 451.999 121.506 452.184C121.505 452.367 121.348 452.516 121.154 452.516ZM121.154 447.888H116.234C116.04 447.888 115.882 447.739 115.882 447.556C115.882 447.372 116.039 447.223 116.234 447.223H121.154C121.348 447.223 121.506 447.371 121.506 447.556C121.505 447.739 121.348 447.888 121.154 447.888ZM121.154 443.26H116.234C116.04 443.26 115.882 443.112 115.882 442.929C115.882 442.745 116.039 442.597 116.234 442.597H121.154C121.348 442.597 121.506 442.744 121.506 442.929C121.505 443.112 121.348 443.26 121.154 443.26ZM121.154 438.634H116.234C116.04 438.634 115.882 438.486 115.882 438.301C115.882 438.119 116.039 437.97 116.234 437.97H121.154C121.348 437.97 121.506 438.118 121.506 438.301C121.505 438.486 121.348 438.634 121.154 438.634ZM121.154 434.008H116.234C116.04 434.008 115.882 433.86 115.882 433.675C115.882 433.492 116.039 433.343 116.234 433.343H121.154C121.348 433.343 121.506 433.491 121.506 433.675C121.505 433.859 121.348 434.008 121.154 434.008ZM121.154 429.381H116.234C116.04 429.381 115.882 429.233 115.882 429.048C115.882 428.866 116.039 428.716 116.234 428.716H121.154C121.348 428.716 121.506 428.865 121.506 429.048C121.505 429.233 121.348 429.381 121.154 429.381ZM121.154 424.754H116.234C116.04 424.754 115.882 424.606 115.882 424.422C115.882 424.239 116.039 424.09 116.234 424.09H121.154C121.348 424.09 121.506 424.238 121.506 424.422C121.505 424.606 121.348 424.754 121.154 424.754Z" fill="#FFBE55"/>
<path d="M187.496 450.527H184.659L199.87 459.542H113.718C114.987 461.847 115.707 464.464 115.707 467.242V529.04H162.852H183.21H205.175V467.242C205.175 458.011 197.259 450.527 187.496 450.527Z" fill="#EE3224"/>
<path d="M205.175 482.12H115.708C115.265 482.12 114.905 481.781 114.905 481.361C114.905 480.941 115.265 480.602 115.708 480.602H205.175C205.618 480.602 205.978 480.941 205.978 481.361C205.978 481.781 205.618 482.12 205.175 482.12Z" fill="#4E80A9"/>
<path d="M133.587 484.921C133.587 486.864 135.251 488.435 137.305 488.435C139.357 488.435 141.021 486.864 141.021 484.921V483.02H133.587V484.921ZM141.021 477.612C141.021 475.67 139.357 474.097 137.305 474.097C135.251 474.097 133.587 475.67 133.587 477.612V479.702H141.021V477.612ZM191.357 477.754C191.357 475.814 189.694 474.24 187.641 474.24C185.587 474.24 183.924 475.814 183.924 477.754V479.702H191.357V477.754ZM183.924 485.064C183.924 487.006 185.587 488.578 187.641 488.578C189.694 488.578 191.357 487.006 191.357 485.064V483.021H183.924V485.064Z" fill="#E3DDE4"/>
<path d="M205.174 521.062H115.708V529.04H205.174V521.062Z" fill="#FFC107"/>
<path d="M198.368 433.199C198.367 433.192 198.369 433.185 198.367 433.179C198.359 433.134 198.344 433.091 198.322 433.05C198.319 433.043 198.312 433.037 198.307 433.03C198.287 432.997 198.265 432.966 198.238 432.939C198.237 432.937 198.237 432.936 198.235 432.936L188.383 423.157C188.316 423.089 188.224 423.051 188.128 423.031C188.119 423.028 188.11 423.028 188.1 423.025C188.072 423.021 188.047 423.009 188.018 423.009L177.707 423.006C177.546 422.911 177.343 422.911 177.18 423.006L166.609 423.004C166.588 423.004 166.567 423.014 166.544 423.017C166.51 423.022 166.476 423.026 166.445 423.036C166.414 423.046 166.39 423.06 166.362 423.075C166.332 423.091 166.304 423.107 166.278 423.129C166.269 423.137 166.257 423.14 166.249 423.148L156.15 432.922C156.149 432.924 156.148 432.927 156.145 432.929C156.126 432.948 156.11 432.973 156.094 432.995C156.084 433.011 156.07 433.024 156.06 433.042C156.06 433.043 156.06 433.044 156.058 433.046C156.045 433.069 156.041 433.094 156.034 433.119C156.028 433.137 156.018 433.152 156.016 433.17C156.007 433.212 156.006 433.254 156.01 433.296C156.012 433.312 156.018 433.33 156.02 433.346C156.028 433.376 156.033 433.406 156.045 433.434C156.045 433.435 156.045 433.438 156.046 433.44C156.052 433.454 156.063 433.463 156.069 433.475C156.083 433.499 156.094 433.524 156.112 433.547L177.037 459.303C177.04 459.308 177.045 459.31 177.049 459.314C177.089 459.359 177.132 459.396 177.183 459.425C177.229 459.45 177.281 459.466 177.334 459.476C177.369 459.483 177.404 459.49 177.44 459.489C177.442 459.489 177.444 459.488 177.445 459.488C177.514 459.487 177.579 459.47 177.641 459.444C177.653 459.437 177.665 459.433 177.677 459.427C177.737 459.396 177.789 459.356 177.831 459.305C177.832 459.303 177.837 459.302 177.839 459.299L198.274 433.551C198.294 433.526 198.307 433.498 198.321 433.471C198.325 433.465 198.331 433.458 198.333 433.452C198.334 433.45 198.334 433.449 198.335 433.448C198.351 433.412 198.361 433.373 198.367 433.334C198.368 433.327 198.372 433.321 198.373 433.315C198.377 433.276 198.373 433.238 198.368 433.199ZM196.693 432.787L189.78 432.785L188.681 424.832L196.693 432.787ZM187.542 423.963L188.657 432.032L178.884 423.961L187.542 423.963ZM177.442 424.034L188.036 432.785L166.62 432.781L177.442 424.034ZM167.052 423.958L175.98 423.96L165.925 432.088L167.052 423.958ZM165.914 424.838L164.812 432.78L157.71 432.779L165.914 424.838ZM157.536 433.733L164.928 433.735L175.229 455.512L157.536 433.733ZM177.433 457.833L166.033 433.735L188.609 433.739L177.433 457.833ZM179.647 455.433L189.71 433.739L196.861 433.74L179.647 455.433Z" fill="#FFC107"/>
<path d="M115.454 60.8379H58.0027C53.7153 60.8379 50.2397 64.1241 50.2397 68.178C50.2397 72.2319 53.7153 75.5173 58.0027 75.5173H115.454V60.8379Z" fill="#007BFF"/>
<path d="M275.492 60.8379H121.142V75.5173H275.492C279.778 75.5173 283.254 72.2319 283.254 68.178C283.254 64.1241 279.778 60.8379 275.492 60.8379Z" fill="#0E538C"/>
<path d="M217.54 23.6326H58.0027C53.7153 23.6326 50.2397 26.9188 50.2397 30.9726C50.2397 35.0265 53.7153 38.312 58.0027 38.312H217.54V23.6326Z" fill="#007BFF"/>
<path d="M320.061 23.6326H223.229V38.312H320.061C324.348 38.312 327.824 35.0265 327.824 30.9726C327.824 26.9188 324.348 23.6326 320.061 23.6326Z" fill="#0E538C"/>
<path d="M133.112 139.804C111.664 140.139 94.5956 156.82 94.9497 177.098C95.3031 197.377 112.945 213.516 134.393 213.181C155.839 212.847 172.908 196.166 172.555 175.887C172.201 155.609 154.559 139.471 133.112 139.804ZM134.119 197.518C121.828 197.709 111.719 188.461 111.516 176.841C111.314 165.22 121.094 155.661 133.386 155.47C145.675 155.279 155.785 164.526 155.988 176.146C156.19 187.767 146.409 197.326 134.119 197.518Z" fill="#FFC107"/>
<path d="M138.45 130.613L140.912 132.865L129.968 133.036L127.506 130.784L138.45 130.613Z" fill="#0E538C"/>
<path d="M157.125 136.048L159.587 138.3L168.546 144.246L166.084 141.994L157.125 136.048Z" fill="#FFC107"/>
<path d="M177.789 156.73L180.249 158.982L167.752 159.038L165.291 156.785L177.789 156.73Z" fill="#FFC107"/>
<path d="M181.665 184.97L184.127 187.222L173.981 180.322L171.519 178.07L181.665 184.97Z" fill="#FFC107"/>
<path d="M129.105 222.373L131.566 224.625L127.362 213.497L124.901 211.245L129.105 222.373Z" fill="#FFC107"/>
<path d="M101.448 211.015L103.91 213.267L107.43 201.93L104.969 199.677L101.448 211.015Z" fill="#FFC107"/>
<path d="M88.615 188.712L86.1528 186.46L96.0519 179.249L98.514 181.501L88.615 188.712Z" fill="#FFC107"/>
<path d="M92.1612 198.504L89.6999 196.252L86.1528 186.46L88.615 188.713L92.1612 198.504Z" fill="#0E538C"/>
<path d="M85.8257 168.008L88.287 170.26L91.5032 160.367L89.0411 158.115L85.8257 168.008Z" fill="#0E538C"/>
<path d="M101.534 157.78L103.994 160.032L91.5031 160.367L89.041 158.115L101.534 157.78Z" fill="#FFC107"/>
<path d="M100.226 143.022L102.687 145.273L111.433 139.051L108.972 136.799L100.226 143.022Z" fill="#0E538C"/>
<path d="M106.601 156.495L104.139 154.244L100.226 143.022L102.687 145.273L106.601 156.495Z" fill="#FFC107"/>
<path d="M108.972 136.799L111.433 139.051L121.753 145.715L119.291 143.463L108.972 136.799Z" fill="#FFC107"/>
<path d="M123.693 142.036L126.155 144.289L129.968 133.036L127.506 130.784L123.693 142.036Z" fill="#FFC107"/>
<path d="M147.042 143.03L149.505 145.282L159.587 138.3L157.125 136.048L147.042 143.03Z" fill="#FFC107"/>
<path d="M180.923 197.118L184.127 187.221L174.94 180.974C174.999 180.037 175.033 179.094 175.017 178.139C175 177.188 174.934 176.25 174.842 175.317L183.809 168.768L180.25 158.982L168.956 159.031C167.88 157.436 166.674 155.929 165.358 154.515L168.546 144.245L159.588 138.299L150.476 144.608C148.623 143.916 146.699 143.359 144.719 142.942L140.912 132.864L129.968 133.034L126.519 143.213C124.534 143.695 122.61 144.316 120.763 145.074L111.434 139.049L102.688 145.271L106.235 155.443C104.972 156.895 103.821 158.436 102.803 160.062L91.5044 160.365L88.2891 170.258L97.4895 176.53C97.4309 177.462 97.3971 178.4 97.414 179.349C97.4308 180.301 97.4975 181.24 97.5891 182.173L88.6159 188.709L92.1629 198.501L103.481 198.464C104.563 200.067 105.776 201.581 107.099 203.001L103.911 213.265L112.868 219.213L121.996 212.893C123.853 213.585 125.782 214.14 127.766 214.557L131.57 224.623L142.513 224.452L145.967 214.261C147.914 213.786 149.801 213.175 151.615 212.434L160.954 218.462L169.699 212.238L166.157 202.087C167.433 200.625 168.596 199.072 169.623 197.432L180.923 197.118ZM113.978 179.093C113.776 167.472 123.556 157.913 135.847 157.722C148.136 157.53 158.246 166.778 158.449 178.399C158.651 190.019 148.871 199.578 136.581 199.77C124.29 199.961 114.181 190.713 113.978 179.093Z" fill="#FFC107"/>
<path d="M136.203 208.565C119.105 208.565 104.964 195.409 104.681 179.237C104.542 171.267 107.689 163.727 113.544 158.006C119.398 152.285 127.265 149.062 135.694 148.93C153.059 148.664 167.463 161.915 167.749 178.253C168.035 194.694 154.123 208.289 136.736 208.561C136.557 208.564 136.379 208.565 136.203 208.565ZM136.226 150.445C136.058 150.445 135.89 150.447 135.721 150.449C127.72 150.573 120.254 153.632 114.698 159.062C109.143 164.492 106.156 171.648 106.287 179.212C106.558 194.719 120.27 207.321 136.709 207.042C153.21 206.785 166.414 193.881 166.142 178.278C165.873 162.931 152.453 150.445 136.226 150.445Z" fill="#0E538C"/>
<path d="M128.293 176.875C128.347 179.93 131.004 182.362 134.236 182.311C137.466 182.26 140.038 179.748 139.985 176.693C139.932 173.637 137.274 171.207 134.042 171.256C130.811 171.307 128.24 173.82 128.293 176.875Z" fill="#C6BDC2"/>
<path d="M136.032 180.047C135.724 180.047 135.416 179.936 135.181 179.715L67.6032 116.071C67.3767 115.858 67.249 115.568 67.249 115.265C67.249 114.962 67.3759 114.673 67.6016 114.458L117.401 67.3724C117.872 66.9275 118.634 66.9275 119.104 67.3724C119.575 67.8166 119.575 68.5387 119.104 68.9829L70.1584 115.262L136.881 178.101C137.353 178.545 137.354 179.266 136.884 179.712C136.65 179.935 136.341 180.047 136.032 180.047Z" fill="#C6BDC2"/>
<path d="M118.253 84.2498C127.64 84.2498 135.251 77.0542 135.251 68.1779C135.251 59.3016 127.64 52.106 118.253 52.106C108.865 52.106 101.255 59.3016 101.255 68.1779C101.255 77.0542 108.865 84.2498 118.253 84.2498Z" fill="#0E538C"/>
<path d="M130.368 178.837C130.421 181.891 133.079 184.323 136.31 184.272C139.541 184.221 142.112 181.709 142.059 178.654C142.006 175.599 139.348 173.168 136.116 173.218C132.886 173.269 130.315 175.782 130.368 178.837Z" fill="#0E538C"/>
<path d="M118.253 74.5053C121.949 74.5053 124.945 71.6726 124.945 68.1781C124.945 64.6837 121.949 61.851 118.253 61.851C114.558 61.851 111.562 64.6837 111.562 68.1781C111.562 71.6726 114.558 74.5053 118.253 74.5053Z" fill="white"/>
<path d="M232.966 93.8654C207.512 89.9953 183.603 106.339 179.51 130.406C175.416 154.474 192.702 177.081 218.157 180.951C243.61 184.821 267.52 168.477 271.613 144.41C275.706 120.343 258.42 97.7355 232.966 93.8654ZM221.317 162.36C206.731 160.143 196.825 147.188 199.171 133.396C201.517 119.604 215.217 110.239 229.805 112.457C244.391 114.674 254.296 127.629 251.951 141.421C249.605 155.212 235.904 164.578 221.317 162.36Z" fill="#FFC107"/>
<path d="M241.329 84.0502L243.74 87.2051L230.751 85.2302L228.34 82.0753L241.329 84.0502Z" fill="white"/>
<path d="M262.218 94.1965L264.631 97.3506L273.908 106.169L271.496 103.014L262.218 94.1965Z" fill="#FFBE55"/>
<path d="M282.068 122.781L284.479 125.936L269.679 123.514L267.267 120.36L282.068 122.781Z" fill="#FFBE55"/>
<path d="M280.373 156.969L282.785 160.124L272.314 149.941L269.902 146.787L280.373 156.969Z" fill="#FFBE55"/>
<path d="M209.853 190.776L212.266 193.931L209.767 179.926L207.355 176.772L209.853 190.776Z" fill="#FFBE55"/>
<path d="M179.652 171.834L182.064 174.988L188.753 162.273L186.342 159.119L179.652 171.834Z" fill="#FFBE55"/>
<path d="M169.427 142.889L167.015 139.734L180.334 133.169L182.747 136.324L169.427 142.889Z" fill="#FFBE55"/>
<path d="M171.446 155.181L169.034 152.027L167.015 139.734L169.427 142.889L171.446 155.181Z" fill="white"/>
<path d="M170.734 117.834L173.147 120.989L179.153 109.922L176.74 106.767L170.734 117.834Z" fill="white"/>
<path d="M191.599 108.855L194.01 112.01L179.153 109.922L176.741 106.767L191.599 108.855Z" fill="#FFBE55"/>
<path d="M193.333 91.1306L195.746 94.2855L207.48 88.6614L205.068 85.5073L193.333 91.1306Z" fill="white"/>
<path d="M197.88 108.343L195.468 105.189L193.333 91.1306L195.746 94.2855L197.88 108.343Z" fill="#FFBE55"/>
<path d="M205.068 85.5073L207.48 88.6614L218.209 98.5998L215.797 95.4457L205.068 85.5073Z" fill="#FFBE55"/>
<path d="M221.324 94.6333L223.736 97.7881L230.751 85.2302L228.34 82.0753L221.324 94.6333Z" fill="#FFBE55"/>
<path d="M248.734 100.453L251.146 103.608L264.631 97.3506L262.218 94.1965L248.734 100.453Z" fill="#FFBE55"/>
<path d="M274.025 147.565C274.217 146.436 274.346 145.312 274.446 144.192L286.513 138.225L284.48 125.936L271.104 123.748C270.185 121.646 269.094 119.623 267.851 117.689L273.908 106.17L264.63 97.3517L252.444 103.006C250.405 101.819 248.252 100.777 246.003 99.8892L243.74 87.206L230.751 85.2311L224.405 96.5901C221.949 96.7655 219.534 97.1178 217.179 97.6478L207.479 88.6623L195.746 94.2864L197.68 107.028C195.862 108.495 194.158 110.09 192.591 111.812L179.153 109.923L173.147 120.991L182.638 130.243C182.362 131.334 182.113 132.437 181.921 133.563C181.729 134.693 181.599 135.818 181.5 136.94L169.427 142.891L171.446 155.182L184.847 157.39C185.77 159.503 186.869 161.535 188.12 163.479L182.063 174.991L191.339 183.811L203.546 178.148C205.591 179.335 207.749 180.377 210.004 181.264L212.264 193.933L225.252 195.908L231.607 184.534C234.017 184.36 236.386 184.012 238.698 183.496L248.408 192.487L260.14 186.862L258.208 174.145C260.043 172.668 261.765 171.061 263.344 169.326L276.79 171.2L282.783 160.126L273.3 150.905C273.582 149.807 273.832 148.697 274.025 147.565ZM201.584 136.551C203.929 122.759 217.63 113.393 232.216 115.611C246.803 117.829 256.707 130.783 254.362 144.575C252.017 158.367 238.316 167.732 223.729 165.515C209.143 163.297 199.238 150.343 201.584 136.551Z" fill="#0E538C"/>
<path d="M228.03 176.256C226.018 176.256 223.983 176.101 221.98 175.798C201.433 172.674 187.404 154.326 190.708 134.898C193.667 117.499 209.314 104.871 227.915 104.871C229.926 104.871 231.962 105.026 233.965 105.329C254.512 108.453 268.541 126.801 265.237 146.229C262.278 163.628 246.63 176.256 228.03 176.256ZM227.915 106.389C210.107 106.389 195.127 118.48 192.294 135.138C189.13 153.74 202.562 171.307 222.236 174.298C224.154 174.59 226.103 174.738 228.03 174.738C245.837 174.738 260.818 162.647 263.651 145.988C266.813 127.386 253.382 109.82 233.71 106.829C231.792 106.537 229.841 106.389 227.915 106.389Z" fill="#E3DDE4"/>
<path d="M225.503 144.828C229.383 144.828 232.529 141.853 232.529 138.184C232.529 134.515 229.383 131.54 225.503 131.54C221.622 131.54 218.476 134.515 218.476 138.184C218.476 141.853 221.622 144.828 225.503 144.828Z" fill="#C6BDC2"/>
<path d="M227.979 141.664C227.69 141.664 227.401 141.567 227.17 141.369L162.392 85.8521C162.147 85.6425 162.004 85.3479 161.996 85.0359C161.988 84.7245 162.115 84.4231 162.349 84.2029L219.499 30.1664C219.969 29.7214 220.731 29.7214 221.202 30.1664C221.673 30.6105 221.673 31.3326 221.202 31.7768L164.947 84.9675L228.788 139.681C229.281 140.103 229.319 140.823 228.872 141.29C228.634 141.538 228.307 141.664 227.979 141.664Z" fill="#C6BDC2"/>
<path d="M220.351 47.0446C229.739 47.0446 237.349 39.849 237.349 30.9727C237.349 22.0964 229.739 14.9008 220.351 14.9008C210.963 14.9008 203.353 22.0964 203.353 30.9727C203.353 39.849 210.963 47.0446 220.351 47.0446Z" fill="#0E538C"/>
<path d="M227.979 147.169C231.86 147.169 235.006 144.194 235.006 140.525C235.006 136.856 231.86 133.881 227.979 133.881C224.099 133.881 220.953 136.856 220.953 140.525C220.953 144.194 224.099 147.169 227.979 147.169Z" fill="#FFBE55"/>
<path d="M220.35 37.2998C224.046 37.2998 227.042 34.4671 227.042 30.9727C227.042 27.4783 224.046 24.6455 220.35 24.6455C216.655 24.6455 213.659 27.4783 213.659 30.9727C213.659 34.4671 216.655 37.2998 220.35 37.2998Z" fill="white"/>
<path d="M447.875 514.787C451.713 514.803 456.691 513.276 459.8 512.166C458.808 508.598 457.523 505.026 457.247 502.746C456.711 498.317 455.131 484.71 455.243 482.31L435.699 482.427C435.699 482.427 441.654 502.239 438.781 504.835C437.566 505.933 436.055 506.894 434.358 507.739C435.446 507.884 436.517 508.212 437.534 508.799C440.849 510.712 443.26 514.768 447.875 514.787Z" fill="#FFE3CA"/>
<path d="M403.848 519.642C404.652 520.528 409.584 524.156 428.207 524.957C442.93 525.59 460.061 522.63 460.73 520.401C460.845 520.018 460.92 520.364 460.964 519.925C461.177 517.758 460.578 514.963 459.8 512.167C456.691 513.277 451.714 514.804 447.875 514.787C443.26 514.768 440.848 510.712 437.534 508.798C436.517 508.212 435.445 507.884 434.358 507.738C425.245 512.277 410.747 513.464 407.663 514.454C405.321 515.205 404.102 516.994 403.714 518.447C403.482 519.318 403.547 519.309 403.848 519.642Z" fill="#FFC107"/>
<path d="M386.918 240.744C385.643 251.167 392.334 322.794 402.506 378.475C412.678 434.156 425.727 470.096 426.865 483.257C427.071 485.637 436.233 486.77 444.298 486.041C451.123 485.424 455.311 483.374 455.846 481.855C456.381 480.337 456.941 439.871 451.224 406.063C443.595 360.948 448.571 345.332 452.311 313.299C457.112 272.174 455.507 257.242 451.826 240.41C449.025 227.603 432.764 238.607 419.371 239.391C405.978 240.174 386.918 240.744 386.918 240.744Z" fill="#0E538C"/>
<path d="M409.687 311.895L409.165 306.659L410.62 303.29L411.289 311.772L409.687 311.895Z" fill="url(#paint0_linear)"/>
<path d="M435.934 476.876C435.801 475.424 435.628 473.912 435.42 472.382L437.013 472.189C437.224 473.739 437.398 475.273 437.533 476.746L435.934 476.876ZM434.978 469.394C434.747 467.966 434.481 466.462 434.186 464.926L435.767 464.655C436.064 466.206 436.333 467.723 436.565 469.165L434.978 469.394ZM433.59 461.954C433.286 460.497 432.962 459.016 432.62 457.509L434.19 457.19C434.534 458.706 434.86 460.194 435.166 461.661L433.59 461.954ZM431.935 454.55C431.592 453.099 431.236 451.623 430.868 450.115L432.433 449.774C432.801 451.284 433.159 452.765 433.502 454.219L431.935 454.55Z" fill="#0E538C"/>
<path d="M431.718 446.824L430.617 442.392L429.053 442.739L430.154 447.171L431.718 446.824Z" fill="#0E538C"/>
<path d="M428.306 439.773C427.948 438.324 427.583 436.846 427.214 435.335L428.779 434.994C429.148 436.502 429.512 437.98 429.87 439.427L428.306 439.773ZM426.495 432.374C426.146 430.922 425.794 429.44 425.44 427.927L427.008 427.599C427.361 429.109 427.714 430.588 428.063 432.038L426.495 432.374ZM424.754 424.958C424.42 423.5 424.086 422.014 423.752 420.497L425.325 420.187C425.658 421.701 425.99 423.183 426.323 424.636L424.754 424.958ZM423.106 417.519C422.793 416.055 422.481 414.564 422.171 413.044L423.747 412.756C424.057 414.272 424.367 415.758 424.68 417.217L423.106 417.519ZM421.569 410.058C421.28 408.588 420.99 407.094 420.705 405.571L422.287 405.305C422.572 406.824 422.859 408.314 423.149 409.779L421.569 410.058ZM420.155 402.574C419.887 401.101 419.624 399.601 419.363 398.075L420.949 397.833C421.208 399.354 421.471 400.849 421.737 402.317L420.155 402.574ZM418.858 395.071C418.616 393.592 418.376 392.089 418.14 390.561L419.73 390.342C419.965 391.866 420.204 393.364 420.446 394.838L418.858 395.071ZM417.686 387.552C417.467 386.069 417.252 384.561 417.04 383.031L418.632 382.834C418.843 384.36 419.058 385.862 419.276 387.341L417.686 387.552ZM416.634 380.015C416.438 378.527 416.246 377.019 416.058 375.486L417.653 375.312C417.84 376.839 418.031 378.344 418.227 379.826L416.634 380.015ZM415.695 372.465C415.522 370.995 415.346 369.482 415.17 367.928L416.766 367.766C416.943 369.317 417.118 370.829 417.292 372.296L415.695 372.465ZM414.83 364.903C414.664 363.421 414.498 361.907 414.332 360.364L415.93 360.209C416.096 361.751 416.261 363.263 416.426 364.745L414.83 364.903ZM414.007 357.338C413.849 355.847 413.69 354.332 413.532 352.797L415.13 352.651C415.288 354.185 415.447 355.698 415.605 357.187L414.007 357.338ZM413.222 349.77C413.069 348.273 412.917 346.758 412.764 345.229L414.363 345.086C414.515 346.614 414.667 348.128 414.82 349.625L413.222 349.77ZM412.465 342.202C412.317 340.699 412.171 339.183 412.024 337.659L413.623 337.521C413.77 339.046 413.917 340.56 414.064 342.061L412.465 342.202ZM411.735 334.63C411.592 333.123 411.45 331.608 411.309 330.087L412.909 329.953C413.05 331.474 413.192 332.988 413.334 334.494L411.735 334.63Z" fill="#0E538C"/>
<path d="M412.562 326.915L412.151 322.371L410.552 322.5L410.963 327.045L412.562 326.915Z" fill="#0E538C"/>
<path d="M411.934 319.357L411.535 314.808L409.934 314.934L410.333 319.483L411.934 319.357Z" fill="#0E538C"/>
<path d="M409.052 304.325C408.927 302.802 408.803 301.285 408.683 299.777L410.284 299.663C410.404 301.17 410.528 302.685 410.653 304.207L409.052 304.325ZM408.442 296.744C408.321 295.217 408.202 293.699 408.087 292.194L409.689 292.084C409.804 293.588 409.922 295.105 410.043 296.631L408.442 296.744ZM407.856 289.162C407.741 287.629 407.628 286.111 407.519 284.61L409.122 284.506C409.231 286.006 409.342 287.522 409.457 289.054L407.856 289.162ZM407.302 281.576C407.193 280.036 407.087 278.518 406.985 277.023L408.588 276.925C408.69 278.418 408.796 279.935 408.905 281.475L407.302 281.576ZM406.782 273.987C406.68 272.438 406.583 270.918 406.49 269.431L408.093 269.343C408.185 270.828 408.283 272.346 408.385 273.893L406.782 273.987ZM406.305 266.394C406.212 264.831 406.124 263.309 406.045 261.835L407.649 261.756C407.729 263.229 407.814 264.748 407.908 266.308L406.305 266.394ZM405.886 258.794C405.806 257.208 405.735 255.684 405.673 254.23L407.277 254.169C407.339 255.621 407.411 257.14 407.49 258.722L405.886 258.794ZM405.553 251.185C405.495 249.55 405.45 248.022 405.42 246.612L407.026 246.581C407.056 247.985 407.101 249.507 407.158 251.134L405.553 251.185ZM405.378 243.555L405.376 242.89C405.376 241.334 405.405 240.011 405.46 238.959L407.064 239.036C407.01 240.063 406.982 241.36 406.982 242.89L406.983 243.536L405.378 243.555Z" fill="#0E538C"/>
<path d="M403.848 520.401C404.651 521.287 409.584 524.915 428.207 525.716C442.93 526.349 460.061 523.389 460.73 521.16C460.987 520.304 461.049 519.292 460.98 518.185C426.113 526.484 406.824 518.438 404.317 517.053C403.477 518.44 403.392 519.898 403.848 520.401Z" fill="#FFC107"/>
<path d="M444.297 486.041C451.123 485.424 455.311 483.374 455.846 481.855C456.014 481.379 456.184 477.074 456.162 470.348C442.363 477.814 427.668 473.893 425.041 473.363C426.007 477.461 426.651 480.768 426.865 483.257C427.071 485.637 436.232 486.77 444.297 486.041Z" fill="#4E80A8"/>
<path d="M439.106 478.373L439.068 477.234C440.722 477.186 442.353 477.059 443.918 476.855L444.083 477.983C442.475 478.193 440.802 478.324 439.106 478.373ZM435.779 478.369C434.143 478.317 432.471 478.193 430.81 477.999L430.958 476.869C432.583 477.058 434.22 477.18 435.821 477.231L435.779 478.369ZM447.366 477.431L447.107 476.319C448.712 475.986 450.279 475.558 451.766 475.048L452.177 476.118C450.641 476.646 449.022 477.087 447.366 477.431ZM427.743 476.404C427.025 476.279 426.321 476.141 425.641 475.995C425.732 476.413 425.818 476.817 425.9 477.215C426.433 477.323 426.974 477.427 427.526 477.523L427.743 476.404ZM455.273 474.893C455.572 474.758 455.857 474.602 456.152 474.459C456.157 474.044 456.16 473.614 456.162 473.169C455.696 473.407 455.233 473.65 454.755 473.866L455.273 474.893Z" fill="#5C60D5"/>
<path d="M321.633 516.698C324.544 520.02 327.148 522.441 330.266 522.393C333.913 522.335 337.443 520.991 339.665 519.939C339.059 516.943 338.254 514 337.995 511.857C337.46 507.429 341.475 496.292 342.145 493.761L323.139 490.977C323.139 490.977 323.072 506.416 318.053 512.49C317.515 513.141 316.874 513.738 316.163 514.293C318.203 514.385 320.189 515.05 321.633 516.698Z" fill="#FFE3CA"/>
<path d="M283.121 527.296C283.924 528.182 288.856 531.81 307.48 532.611C322.203 533.245 339.334 530.285 340.003 528.056C340.123 527.653 340.213 527.986 340.274 527.542C340.582 525.313 340.203 522.605 339.665 519.939C337.442 520.991 333.913 522.334 330.266 522.392C327.148 522.441 324.544 520.019 321.633 516.697C320.189 515.05 318.203 514.384 316.162 514.293C308.16 520.543 290.294 521.031 286.935 522.108C284.311 522.949 283.099 525.094 282.882 526.608C282.79 527.257 282.88 527.031 283.121 527.296Z" fill="#FFC107"/>
<path d="M366.84 255.596C363.96 263.822 345.275 310.281 336.925 339.751C324.143 384.866 316.419 486.537 316.849 490.597C317.049 492.496 324.39 494.439 329.83 494.868C335.069 495.282 341.207 495.786 342.478 494.584C344.106 493.045 367.708 424.032 371.455 403.025C375.202 382.019 384.571 355.443 398.223 328.868C411.874 302.293 424.019 273.801 425.576 241.857C416.715 238.233 407.956 239.212 393.806 238.892C379.947 238.578 373.965 241.665 370.936 246.612C367.907 251.558 366.84 255.596 366.84 255.596Z" fill="#0E538C"/>
<path d="M394.512 335.601C396.096 332.274 397.77 328.977 399.419 325.684C401.061 322.386 402.669 319.072 404.224 315.738C407.34 309.073 410.248 302.322 412.848 295.47C412.96 295.173 413.304 295.019 413.617 295.125C413.931 295.231 414.094 295.556 413.982 295.852C413.981 295.854 413.979 295.859 413.979 295.86C411.276 302.712 408.269 309.449 405.058 316.092C403.455 319.416 401.8 322.714 400.111 325.998C398.415 329.279 396.705 332.54 395.077 335.848C395.004 335.996 394.82 336.059 394.663 335.991C394.509 335.923 394.442 335.748 394.512 335.601Z" fill="#5C60D5"/>
<path d="M337.413 486.597L335.818 486.42C335.993 485.018 336.171 483.506 336.359 481.893L337.956 482.059C337.768 483.677 337.588 485.192 337.413 486.597ZM338.302 479.034L336.706 478.871L337.219 474.336L338.816 474.498L338.302 479.034ZM339.158 471.477L337.561 471.313C337.728 469.847 337.902 468.334 338.082 466.778L339.678 466.944C339.498 468.499 339.325 470.011 339.158 471.477ZM340.032 463.925L338.436 463.756C338.611 462.279 338.792 460.767 338.982 459.222L340.577 459.397C340.387 460.94 340.207 462.45 340.032 463.925ZM340.95 456.382L339.355 456.203C339.541 454.719 339.735 453.208 339.936 451.673L341.529 451.86C341.328 453.391 341.136 454.899 340.95 456.382ZM341.928 448.846L340.335 448.655C340.535 447.166 340.743 445.658 340.957 444.129L342.549 444.33C342.335 445.854 342.128 447.361 341.928 448.846ZM342.979 441.321L341.387 441.115C341.604 439.624 341.826 438.118 342.057 436.595L343.647 436.811C343.416 438.329 343.194 439.833 342.979 441.321ZM344.111 433.807L342.522 433.585C342.755 432.093 342.997 430.589 343.245 429.073L344.833 429.306C344.585 430.819 344.345 432.32 344.111 433.807ZM345.335 426.309L343.749 426.067C344.002 424.576 344.263 423.074 344.532 421.564L346.117 421.816C345.847 423.322 345.588 424.82 345.335 426.309ZM346.657 418.825L345.075 418.564C345.35 417.073 345.632 415.575 345.923 414.07L347.503 414.343C347.213 415.843 346.931 417.338 346.657 418.825ZM348.09 411.361L346.512 411.08C346.809 409.591 347.116 408.096 347.431 406.597L349.006 406.894C348.692 408.387 348.387 409.876 348.09 411.361ZM349.642 403.92L348.069 403.615C348.391 402.132 348.722 400.647 349.062 399.159L350.632 399.481C350.293 400.962 349.963 402.443 349.642 403.92ZM351.32 396.524L349.753 396.191C350.104 394.711 350.463 393.229 350.832 391.747L352.395 392.094C352.028 393.572 351.668 395.048 351.32 396.524ZM353.141 389.149L351.581 388.79C351.962 387.311 352.352 385.833 352.753 384.358L354.309 384.737C353.91 386.206 353.521 387.677 353.141 389.149ZM355.12 381.8L353.567 381.41C353.983 379.936 354.407 378.465 354.842 376.998L356.389 377.407C355.956 378.869 355.532 380.333 355.12 381.8ZM357.272 374.486L355.73 374.062C356.182 372.593 356.645 371.131 357.118 369.674L358.654 370.12C358.182 371.57 357.722 373.025 357.272 374.486ZM359.611 367.228L358.081 366.767C358.571 365.312 359.074 363.864 359.589 362.424L361.11 362.911C360.598 364.342 360.099 365.782 359.611 367.228ZM362.153 360.047L360.637 359.544C361.173 358.101 361.721 356.667 362.281 355.244L363.787 355.775C363.23 357.189 362.685 358.613 362.153 360.047ZM364.925 352.944L363.427 352.395C364.013 350.968 364.612 349.553 365.222 348.15L366.708 348.729C366.1 350.122 365.506 351.527 364.925 352.944ZM367.944 345.928L366.462 345.342L368.328 341.134L369.809 341.722L367.944 345.928ZM371.054 338.918L369.574 338.329L371.444 334.124L372.925 334.713L371.054 338.918ZM374.173 331.911L372.692 331.323L374.564 327.118L376.045 327.708L374.173 331.911ZM377.294 324.907L375.813 324.317L377.683 320.121L379.164 320.709L377.294 324.907ZM380.413 317.908L378.932 317.318L380.806 313.112L382.287 313.7L380.413 317.908ZM383.536 310.899L382.055 310.31L383.925 306.106L385.406 306.694L383.536 310.899ZM386.652 303.89L385.171 303.303L387.037 299.098L388.518 299.685L386.652 303.89ZM389.762 296.879L388.28 296.294L390.139 292.086L391.622 292.67L389.762 296.879ZM392.859 289.863L391.377 289.278C392.012 287.835 392.63 286.429 393.227 285.067L394.711 285.648C394.114 287.01 393.496 288.418 392.859 289.863ZM395.941 282.836L394.455 282.257C395.098 280.784 395.71 279.373 396.287 278.038L397.775 278.613C397.196 279.95 396.584 281.361 395.941 282.836ZM398.988 275.793L397.499 275.222C398.161 273.677 398.762 272.261 399.292 270.992L400.785 271.551C400.254 272.823 399.651 274.243 398.988 275.793ZM401.958 268.706L400.458 268.164C400.961 266.919 401.337 265.945 401.575 265.27C401.718 264.863 401.869 264.406 402.027 263.907L403.567 264.339C403.404 264.857 403.248 265.33 403.099 265.75C402.851 266.456 402.477 267.423 401.958 268.706ZM404.437 261.385L402.884 260.996C403.265 259.636 403.663 258.138 404.062 256.586L405.622 256.945C405.221 258.507 404.821 260.015 404.437 261.385ZM406.37 253.979L404.806 253.633C405.178 252.132 405.542 250.629 405.884 249.191L407.45 249.524C407.107 250.966 406.743 252.474 406.37 253.979ZM408.152 246.55L406.583 246.223C406.989 244.481 407.34 242.941 407.607 241.764L409.177 242.082C408.911 243.261 408.559 244.805 408.152 246.55Z" fill="#0E538C"/>
<path d="M283.121 528.056C283.924 528.942 288.857 532.57 307.48 533.371C322.203 534.004 339.334 531.044 340.003 528.815C340.273 527.914 340.384 526.897 340.384 525.81C305.435 534.162 286.1 526.094 283.59 524.708C282.75 526.095 282.666 527.553 283.121 528.056Z" fill="#FFC107"/>
<path d="M317.372 480.085C316.954 486.08 316.772 489.877 316.849 490.597C317.049 492.496 324.39 494.439 329.83 494.868C335.069 495.282 341.207 495.786 342.478 494.584C342.853 494.229 344.394 490.293 346.588 484.195C326.941 485.134 320.195 481.106 317.372 480.085Z" fill="#4E80A8"/>
<path d="M340.216 488.141C338.821 488.141 337.445 488.112 336.125 488.055L336.18 486.918C337.498 486.975 338.863 487.013 340.266 487.002L340.563 487.001L340.572 488.14L340.266 488.141C340.249 488.141 340.232 488.141 340.216 488.141ZM333.163 487.874C331.631 487.754 330.142 487.587 328.735 487.379L328.922 486.254C330.299 486.458 331.76 486.621 333.263 486.741L333.163 487.874ZM325.807 486.865C324.273 486.55 322.859 486.185 321.485 485.749L321.868 484.669C323.2 485.092 324.572 485.445 326.063 485.751L325.807 486.865ZM318.692 484.744L319.162 483.695C318.779 483.541 318.433 483.396 318.12 483.266C317.766 483.118 317.463 482.994 317.184 482.887C317.157 483.301 317.132 483.705 317.107 484.09C317.273 484.158 317.444 484.229 317.633 484.308C317.951 484.441 318.302 484.587 318.692 484.744ZM343.541 488.092C344.075 488.076 344.634 488.052 345.189 488.028C345.327 487.657 345.47 487.271 345.615 486.873C344.897 486.905 344.19 486.934 343.505 486.953L343.541 488.092Z" fill="#5C60D5"/>
<path d="M479.437 101.406C481.171 85.4033 481.64 65.8463 475.448 55.5229C469.513 45.6271 450.679 37.3386 431.65 34.7373C412.62 32.136 375.136 36.0661 371.723 35.3068C368.31 34.5475 358.573 25.341 356.867 25.0563C355.16 24.7716 353.956 26.1634 354.458 30.6561C355.063 36.0767 360.498 46.911 360.498 46.911C360.498 46.911 351.886 52.4812 348.136 54.9071C343.422 54.7659 337.865 48.545 335.084 49.7333C332.641 50.7773 338.889 59.92 343.884 60.7112C355.059 62.4826 374.112 51.6133 397.508 50.3385C420.903 49.0636 444.723 51.3719 452.562 72.6062C454.939 79.045 454.8 85.7192 453.59 91.7184C459.968 90.8141 470.347 91.6842 479.437 101.406Z" fill="#FFE3CA"/>
<path d="M457.146 131.357C461.674 142.628 467.954 157.616 468.79 173.023C471.246 162.789 473.809 136.198 476.118 123.606C476.903 119.325 478.398 111.005 479.437 101.407C470.348 91.6842 459.968 90.8141 453.591 91.7199C451.258 103.289 444.934 112.345 444.934 112.345C444.934 112.345 452.228 119.114 457.146 131.357Z" fill="#007BFF"/>
<path d="M478.456 110.057C478.175 110.057 477.904 109.919 477.756 109.673C471.016 98.4465 456.086 96.83 452.464 97.3774C452.02 97.4427 451.613 97.1603 451.544 96.7464C451.474 96.3326 451.773 95.9431 452.211 95.877C456.076 95.2977 471.995 97 479.154 108.922C479.372 109.287 479.237 109.751 478.852 109.957C478.726 110.025 478.59 110.057 478.456 110.057Z" fill="#EA9E2D"/>
<path d="M412.945 96.3976C412.806 101.713 409.198 117.278 406.655 123.479C404.111 129.68 420.305 125.378 428.871 123.1C437.437 120.822 443.728 113.735 443.728 113.735C443.728 113.735 438.106 103.232 437.036 91.7158C435.965 80.1996 427.399 80.5793 422.715 82.2246C418.031 83.87 412.945 96.3976 412.945 96.3976Z" fill="#FFE3CA"/>
<path d="M391.436 61.7649C385.71 76.3403 379.753 76.8778 379.954 79.2506C380.155 81.6234 385.174 84.4708 388.988 83.9013C392.803 83.3318 391.436 61.7649 391.436 61.7649Z" fill="#FFE3CA"/>
<path d="M397.687 51.3466C389.791 58.4331 378.696 94.3484 396.684 102.852C412.611 110.382 429.407 86.6537 429.407 86.6537C429.407 86.6537 449.617 58.9396 428.47 46.4112C409.281 35.0424 397.687 51.3466 397.687 51.3466Z" fill="#FFE3CA"/>
<path d="M388.359 91.8351C388.617 92.0871 389.208 92.2155 389.703 92.2641C390.222 92.3028 390.746 92.2709 391.226 92.1297C392.2 91.8601 392.902 91.1692 393.329 90.3119L393.33 90.3089C393.51 89.9482 393.964 89.7933 394.346 89.9626C394.728 90.1327 394.892 90.5625 394.712 90.9224C394.704 90.9376 394.696 90.9535 394.688 90.9679C394.361 91.5215 393.936 92.0545 393.376 92.4501C392.824 92.8502 392.173 93.1236 391.509 93.2413C390.844 93.359 390.169 93.3529 389.53 93.201C389.209 93.1274 388.897 93.0249 388.6 92.8692C388.313 92.7158 387.994 92.5215 387.805 92.1669C387.722 92.0135 387.788 91.8267 387.95 91.7493C388.082 91.6862 388.237 91.7151 388.335 91.81L388.359 91.8351Z" fill="#FFB5AF"/>
<path d="M395.206 71.8172C394.325 71.8172 393.607 71.1453 393.6 70.3108L393.599 70.2212C393.588 69.1734 393.562 66.7201 395.825 63.8029C396.349 63.1256 397.354 62.9798 398.07 63.4764C398.786 63.9722 398.94 64.9229 398.415 65.5986C396.785 67.7011 396.802 69.3207 396.812 70.1908L396.812 70.2865C396.82 71.1248 396.106 71.8104 395.219 71.8172C395.215 71.8172 395.21 71.8172 395.206 71.8172Z" fill="white"/>
<path d="M438.676 84.3759C439.579 76.7829 456.668 70.0822 447.835 49.1067C442.793 37.1342 431.75 32.2694 422.025 32.4114C414.672 32.5185 410.469 34.832 405.951 33.5982C401.434 32.3643 393.806 29.2323 389.79 31.8898C385.775 34.5473 387.883 38.8183 385.675 40.8115C383.466 42.8046 372.224 40.1471 370.116 46.5062C369.356 48.7992 371.22 56.7566 386.377 56.6617C401.535 56.5668 410.067 47.5502 415.387 53.8143C420.707 60.0785 408.863 66.4376 410.268 72.9865C410.545 74.275 411.423 74.6941 412.577 74.6835C414.751 74.3783 420.539 67.3077 425.09 71.0564C428.202 73.619 427.433 80.8641 421.611 82.6675C421.88 86.0493 424.221 89.5011 426.63 92.0166C428.633 94.1085 434.793 98.0242 438.575 94.6271C439.914 93.4244 438.258 87.8808 438.676 84.3759Z" fill="black"/>
<path d="M395.228 64.6478C393.886 66.7085 393.642 68.4701 393.605 69.5673C396.115 68.5551 395.827 66.0518 395.228 64.6478Z" fill="black"/>
<path d="M401.737 65.2607C401.716 65.2607 401.695 65.26 401.673 65.2584C401.254 65.2258 400.941 64.8773 400.977 64.4802C401.094 63.1484 400.716 62.1484 399.856 61.5075C398.716 60.6602 397.018 60.648 396.658 60.7634C396.257 60.8887 395.827 60.6852 395.694 60.3071C395.561 59.929 395.777 59.5212 396.177 59.3952C396.961 59.1477 399.193 59.1803 400.798 60.3739C401.685 61.033 402.7 62.301 402.498 64.6001C402.463 64.976 402.13 65.2607 401.737 65.2607Z" fill="black"/>
<path d="M270.781 113.558C270.781 113.558 278.444 115.063 288.039 110.922C295.839 107.556 296.867 105.952 296.867 105.952L284.189 95.3735L270.781 113.558Z" fill="#0E538C"/>
<path d="M376.583 21.6887C371.987 15.6159 363.06 14.2135 356.64 18.5559C354.326 20.1208 352.665 22.2218 351.686 24.5482L297.98 62.626L297.971 62.6146C297.971 62.6146 290.441 68.1058 282.848 69.9972C274.524 72.0708 265.872 67.1726 255.709 75.1118C244.28 84.0396 252.369 101.436 252.369 101.436C252.369 101.436 260.772 89.2999 263.287 88.4184C265.579 87.6166 268.561 89.5012 268.561 89.5012L296.848 109.013C296.848 109.013 298.987 99.9422 302.491 91.8496C305.78 84.2598 308.65 80.7587 310.414 79.3069L366.578 42.9755C368.916 42.7242 371.221 41.93 373.27 40.5435C379.695 36.2026 381.175 27.7608 376.583 21.6887ZM368.867 34.725C365.844 36.769 361.642 36.1092 359.479 33.252C357.321 30.3948 358.019 26.4199 361.041 24.3766C364.061 22.3326 368.263 22.9932 370.426 25.8504C372.587 28.7084 371.89 32.681 368.867 34.725Z" fill="#0E538C"/>
<path d="M282.811 74.872C283.843 73.3208 286.013 72.8546 287.654 73.8325L298.749 80.4369C300.388 81.4125 300.883 83.4619 299.847 85.0146L294.484 93.0692C293.451 94.6227 291.284 95.0882 289.642 94.1102L278.547 87.5059C276.905 86.5287 276.413 84.4793 277.446 82.9281L282.811 74.872Z" fill="#0E538C"/>
<path d="M295.305 83.7137C295.822 82.9385 296.905 82.7046 297.725 83.1951C298.547 83.6826 298.793 84.7076 298.277 85.4829L294.254 91.5253C293.738 92.3006 292.652 92.5337 291.831 92.0454C291.013 91.5572 290.765 90.5322 291.282 89.7562L295.305 83.7137ZM291.219 81.2809C291.734 80.5065 292.819 80.2726 293.64 80.7608C294.461 81.2491 294.707 82.2749 294.19 83.0516L290.167 89.0925C289.65 89.8693 288.568 90.1009 287.745 89.6127C286.925 89.1237 286.678 88.0994 287.193 87.3234L291.219 81.2809ZM287.131 78.8489C287.649 78.0722 288.731 77.8406 289.553 78.3281C290.373 78.8163 290.62 79.8413 290.104 80.6166L286.08 86.6598C285.565 87.4358 284.481 87.6681 283.659 87.1791C282.838 86.6909 282.592 85.6666 283.107 84.8906L287.131 78.8489ZM283.046 76.4169C283.561 75.6402 284.646 75.4071 285.467 75.8945C286.287 76.3835 286.533 77.4101 286.018 78.1861L281.994 84.2278C281.476 85.003 280.393 85.2361 279.573 84.7479C278.753 84.2581 278.506 83.2346 279.022 82.4578L283.046 76.4169Z" fill="#FFC107"/>
<path d="M306.526 75.2637C305.249 75.2637 304.044 74.6775 303.304 73.695L300.789 70.3602C300.175 69.5477 299.934 68.5576 300.108 67.5728C300.281 66.588 300.851 65.7262 301.71 65.1461L343.716 36.8177C344.39 36.3629 345.183 36.1222 346.008 36.1222C347.286 36.1222 348.49 36.7084 349.231 37.6901L351.748 41.0249C352.361 41.8381 352.602 42.8283 352.429 43.8131C352.254 44.7979 351.684 45.6604 350.824 46.2398L308.819 74.5682C308.145 75.0237 307.353 75.2637 306.526 75.2637ZM346.009 37.6415C345.52 37.6415 345.05 37.7843 344.65 38.0538L302.644 66.3822C302.134 66.727 301.796 67.2387 301.692 67.8234C301.588 68.408 301.732 68.9957 302.096 69.4786L304.612 72.8142C305.334 73.7732 306.866 74.0207 307.886 73.3328L349.892 45.0044C350.403 44.6597 350.742 44.1487 350.845 43.5632C350.949 42.9786 350.805 42.3909 350.44 41.9072L347.924 38.5724C347.484 37.9893 346.769 37.6415 346.009 37.6415Z" fill="#FFC107"/>
<path d="M336.286 33.1715C334.948 33.5739 331.534 34.3682 330.732 37.9923C330.146 40.6445 331.118 44.668 332.213 46.7947C333.307 48.9215 336.572 51.5358 338.639 50.2898C340.033 49.4492 337.466 45.3794 337.077 43.5761C335.921 38.2307 336.286 33.1715 336.286 33.1715Z" fill="#FFE3CA"/>
<path d="M340.481 30.1822C339.932 30.0357 335.813 30.5353 334.948 33.574C334.439 35.3644 334.339 40.3036 335.983 43.4038C337.626 46.504 341.567 49.3931 342.792 48.6923C344.798 47.5427 343.521 45.3582 343.521 45.3582C343.521 45.3582 340.481 39.4373 340.602 36.7357C340.724 34.0341 340.481 30.1822 340.481 30.1822Z" fill="#FFE3CA"/>
<path d="M344.954 27.9089C343.703 27.7107 339.536 27.4487 338.961 33.3439C338.386 39.239 342.304 48.2898 344.797 47.5419C347.29 46.794 344.916 40.687 344.918 37.2451C344.918 33.804 344.954 27.9089 344.954 27.9089Z" fill="#FFE3CA"/>
<path d="M350.102 28.0569C348.628 30.5854 349.418 38.8055 347.169 39.2656C344.242 39.8639 342.59 29.4943 344.858 25.8717C346.622 23.0555 351.911 24.0904 351.911 24.0904L350.102 28.0569Z" fill="#FFE3CA"/>
<path d="M335.533 33.7114C335.223 34.8018 335.147 36.0257 335.139 37.2148C335.14 38.4122 335.243 39.6134 335.487 40.7842C335.724 41.9687 336.14 43.0575 336.772 44.1236C337.375 45.1805 338.077 46.201 338.984 47.0218L338.987 47.0241C339.087 47.1145 339.09 47.2633 338.995 47.3574C338.902 47.4493 338.749 47.4538 338.65 47.3718C337.638 46.5351 336.862 45.5032 336.185 44.4372C335.496 43.3924 334.954 42.1745 334.657 40.9581C334.341 39.7356 334.175 38.4889 334.113 37.2368C334.065 35.9817 334.069 34.7327 334.365 33.4358C334.435 33.1283 334.755 32.9324 335.081 32.9992C335.407 33.066 335.613 33.369 335.543 33.6765C335.541 33.6848 335.539 33.6932 335.537 33.7023L335.533 33.7114ZM340.585 30.1093C339.741 31.3348 339.467 32.918 339.409 34.4654C339.365 36.0288 339.557 37.6142 339.883 39.1707C340.215 40.7273 340.681 42.2664 341.314 43.7379C341.633 44.4721 341.994 45.1919 342.431 45.8593C342.867 46.5062 343.391 47.1919 344.085 47.4508L344.106 47.4592C344.217 47.5002 344.272 47.6186 344.228 47.7234C344.184 47.8267 344.062 47.8775 343.952 47.8396C343.022 47.5146 342.49 46.794 341.988 46.1312C341.5 45.4448 341.1 44.7158 340.741 43.9717C340.029 42.4812 339.489 40.9255 339.084 39.3363C338.685 37.7463 338.419 36.1176 338.399 34.4555C338.401 32.8094 338.597 31.063 339.555 29.5178L339.561 29.5095C339.729 29.2384 340.098 29.1473 340.384 29.306C340.671 29.4647 340.768 29.814 340.6 30.0858C340.595 30.0941 340.589 30.1025 340.585 30.1093ZM344.587 37.8549C343.777 36.208 343.441 34.4047 343.287 32.6188C343.158 30.8254 343.209 29.0137 343.647 27.2058C343.722 26.899 344.045 26.7069 344.369 26.7776C344.693 26.8482 344.896 27.1534 344.822 27.4602C344.819 27.4708 344.816 27.4807 344.813 27.4905L344.81 27.5012C344.314 29.1093 344.147 30.858 344.17 32.5793C344.213 34.3021 344.433 36.0462 345.105 37.6453C345.162 37.782 345.092 37.9376 344.947 37.9923C344.808 38.0455 344.649 37.9824 344.587 37.8549Z" fill="#FFE3CA"/>
<path d="M353.444 51.4744C351.463 52.7553 349.486 54.0347 348.137 54.9071C343.423 54.7659 337.866 48.545 335.085 49.7333C332.642 50.7773 338.89 59.92 343.885 60.7111C347.578 61.2965 352.136 60.4978 357.422 59.125C357.51 54.4751 354.974 52.3369 353.444 51.4744Z" fill="#FFE3CA"/>
<path d="M343.768 139.018C329.534 145.219 316.903 150.771 315.912 149.802C315.111 149.02 317.652 143.601 321.265 127.53C324.879 111.458 328.559 82.8581 327.154 77.1634C326.133 73.0298 324.055 70.4854 324.055 70.4854L317.941 74.4405C317.941 74.4405 315.009 72.1331 312.399 66.2486C309.789 60.364 310.693 55.2388 311.265 53.2077L313.214 51.8258C313.214 51.8258 310.445 51.0179 308.986 51.4424C307.681 51.822 307.012 53.3725 307.012 53.3725C307.012 53.3725 305.774 52.9609 304.319 54.1948C302.934 55.3679 302.863 57.1371 302.863 57.1371C302.863 57.1371 300.321 57.1689 299.249 60.8386C298.178 64.5083 300.253 76.2773 299.718 76.7837C299.182 77.2902 297.242 72.7344 296.706 70.5826C296.171 68.4308 296.166 63.8348 294.239 65.0268C292.313 66.2189 290.348 72.4808 294.448 82.0266C298.548 91.5725 311.228 92.8549 312.031 94.8799C312.834 96.905 299.183 128.921 295.837 136.641C292.492 144.361 287.138 168.658 295.034 174.353C303.305 180.317 328.899 175.236 349.466 170.556C353.911 152.617 347.567 143.077 343.768 139.018Z" fill="#FFE3CA"/>
<path d="M307.28 53.4319C306.99 54.8062 306.882 56.242 306.842 57.6588C306.809 59.0802 306.871 60.5024 307.029 61.9132C307.342 64.7339 308.039 67.5122 309.146 70.1272C309.27 70.4187 309.12 70.7505 308.811 70.8675C308.502 70.9844 308.152 70.8424 308.028 70.5509C308.025 70.5455 308.022 70.5372 308.02 70.5319C306.971 67.7741 306.364 64.8858 306.153 61.986C306.046 60.535 306.036 59.081 306.125 57.6323C306.223 56.182 306.382 54.7447 306.742 53.3119C306.777 53.1707 306.926 53.0841 307.075 53.1175C307.221 53.1502 307.311 53.2853 307.282 53.4227L307.28 53.4319ZM303.136 57.1721C302.989 58.5229 302.942 59.9071 302.925 61.2769C302.913 62.6497 302.951 64.0217 303.052 65.3877C303.268 68.1052 303.673 70.8561 304.745 73.3109L304.747 73.3169C304.874 73.6078 304.728 73.9403 304.421 74.0603C304.113 74.1803 303.761 74.0421 303.634 73.7513C303.632 73.7467 303.63 73.7391 303.627 73.7353C303.089 72.3861 302.771 70.9973 302.552 69.6078C302.334 68.2176 302.223 66.8227 302.174 65.4302C302.125 64.0377 302.142 62.6459 302.208 61.2586C302.28 59.8684 302.381 58.491 302.587 57.1008C302.608 56.958 302.749 56.8578 302.9 56.8783C303.048 56.898 303.152 57.0248 303.137 57.1638L303.136 57.1721Z" fill="#9B6D6D"/>
<path d="M377.745 165.368C380.423 168.658 379.083 182.072 379.083 182.072C379.083 182.072 389.523 184.73 398.089 175.871C406.655 167.012 396.884 122.341 396.884 122.341C396.884 122.341 395.947 121.455 381.761 124.239C374.585 125.647 358.337 132.672 343.768 139.018C347.566 143.076 353.91 152.617 349.464 170.555C364.361 167.165 376.621 163.985 377.745 165.368Z" fill="#007BFF"/>
<path d="M357.291 169.509C357.208 169.509 357.123 169.496 357.04 169.471C356.619 169.34 356.389 168.91 356.528 168.512C362.492 151.375 353.498 138.625 350.421 136.545C350.061 136.301 349.977 135.826 350.236 135.485C350.494 135.144 350.995 135.066 351.357 135.309C354.644 137.533 364.299 151.043 358.055 168.987C357.943 169.306 357.629 169.509 357.291 169.509Z" fill="#EA9E2D"/>
<path d="M391.826 122.53C392.5 122.453 396.124 121.829 400.784 120.995C407.656 119.766 417.988 119.473 423.252 118.417C429.708 117.122 436.977 113.432 441.874 112.211C443.677 111.761 444.996 111.457 445.55 111.404C451.893 112.596 462.883 122.622 466.764 136.796C470.833 151.656 473.508 167.328 460.86 206.811C451.467 236.133 451.826 240.41 451.826 240.41C451.826 240.41 425.096 253.537 403.442 251.609C381.789 249.681 369.715 246.294 369.715 246.294C369.715 246.294 376.741 214.214 377.946 199.598C379.151 184.981 379.356 177.89 379.356 177.89C379.356 177.89 385.931 178.536 390.326 174.858C396.717 169.511 398.022 152.237 395.211 133.413C393.792 123.903 391.826 122.53 391.826 122.53Z" fill="#0E538C"/>
<path d="M414.686 166.759C417.095 170.555 429.198 171.788 439.38 169.796C449.083 167.898 454.437 164.671 456.243 158.976C458.05 153.282 456.578 124.491 441.875 112.211C436.978 113.432 428.507 115.73 422.048 117.025C416.784 118.082 407.657 119.765 400.784 120.995C403.638 124.987 408.164 132.461 410.872 143.221C413.782 154.79 413.053 164.185 414.686 166.759Z" fill="#007BFF"/>
<path d="M385.629 181.637L385.28 180.155C386.89 179.816 388.382 179.364 389.714 178.811L390.36 180.202C388.933 180.794 387.34 181.278 385.629 181.637ZM393.303 178.682L392.402 177.425C393.438 176.761 394.405 175.697 395.277 174.261L396.669 175.016C395.676 176.654 394.543 177.888 393.303 178.682ZM398.091 172.171L396.597 171.617C397.118 170.357 397.587 168.927 397.989 167.365L399.549 167.725C399.13 169.352 398.64 170.848 398.091 172.171ZM400.218 164.704L398.636 164.439C398.9 163.035 399.121 161.535 399.29 159.981L400.888 160.137C400.715 161.729 400.488 163.266 400.218 164.704ZM401.155 157.079L399.552 156.985C399.648 155.524 399.704 154.006 399.719 152.471L401.325 152.486C401.311 154.046 401.253 155.592 401.155 157.079ZM399.696 149.459C399.659 147.969 399.584 146.45 399.473 144.943L401.075 144.837C401.188 146.366 401.264 147.91 401.302 149.424L399.696 149.459ZM399.203 141.942C399.045 140.442 398.85 138.933 398.623 137.453L400.212 137.235C400.442 138.736 400.641 140.269 400.801 141.79L399.203 141.942ZM398.118 134.477C397.841 132.987 397.526 131.495 397.181 130.044L398.748 129.712C399.098 131.186 399.419 132.701 399.7 134.214L398.118 134.477ZM396.433 127.116C396.027 125.639 395.377 123.433 394.907 122.03L396.475 121.759C396.953 123.187 397.575 125.232 397.988 126.734L396.433 127.116ZM428.603 176.054C427.441 176.054 426.286 176.022 425.172 175.959L425.268 174.444C426.803 174.53 428.409 174.555 430.036 174.52L430.074 176.038C429.581 176.049 429.09 176.054 428.603 176.054ZM433.336 175.885L433.216 174.371C434.818 174.256 436.413 174.083 437.957 173.855L438.205 175.355C436.618 175.589 434.98 175.767 433.336 175.885ZM421.907 175.678C420.132 175.467 418.497 175.169 417.047 174.793L417.472 173.328C418.848 173.685 420.408 173.969 422.107 174.171L421.907 175.678ZM441.417 174.792L441.083 173.306C442.746 172.972 444.304 172.602 445.71 172.205L446.169 173.661C444.721 174.069 443.122 174.449 441.417 174.792ZM413.886 173.722C412.229 172.988 411.055 172.102 410.394 171.09C410.247 170.865 410.115 170.609 409.993 170.311L411.491 169.762C411.575 169.969 411.666 170.148 411.76 170.292C412.254 171.049 413.199 171.74 414.568 172.347L413.886 173.722ZM449.281 172.664L448.703 171.246C450.281 170.673 451.704 170.029 452.935 169.332L453.761 170.634C452.451 171.376 450.944 172.059 449.281 172.664ZM456.489 168.79L455.444 167.637C456.659 166.652 457.624 165.581 458.396 164.36L459.775 165.138C458.924 166.483 457.819 167.712 456.489 168.79ZM409.241 167.174C409.045 165.858 408.891 164.318 408.726 162.587L410.325 162.45C410.488 164.16 410.64 165.68 410.831 166.961L409.241 167.174ZM461.179 162.219L459.653 161.744L459.748 161.465C460.039 160.571 460.274 159.136 460.408 157.424L462.009 157.536C461.864 159.385 461.613 160.897 461.281 161.913L461.179 162.219ZM408.433 159.553C408.26 157.847 408.096 156.408 407.916 155.026L409.509 154.84C409.692 156.237 409.857 157.689 410.03 159.41L408.433 159.553ZM462.142 154.442L460.536 154.426L460.54 153.78C460.54 152.528 460.498 151.225 460.416 149.905L462.019 149.815C462.103 151.165 462.146 152.499 462.146 153.781L462.142 154.442ZM407.483 152.023C407.243 150.499 406.969 148.994 406.668 147.55L408.245 147.257C408.55 148.724 408.829 150.252 409.072 151.799L407.483 152.023ZM460.16 146.895C460.001 145.401 459.792 143.89 459.538 142.404L461.124 142.162C461.383 143.678 461.597 145.219 461.759 146.743L460.16 146.895ZM405.999 144.593C405.922 144.279 405.842 143.963 405.759 143.645C405.463 142.496 405.137 141.339 404.789 140.209L406.331 139.785C406.685 140.937 407.018 142.114 407.32 143.284C407.403 143.607 407.485 143.93 407.564 144.25L405.999 144.593ZM458.965 139.434C458.644 137.944 458.273 136.462 457.862 135.03L459.412 134.633C459.832 136.096 460.211 137.61 460.538 139.131L458.965 139.434ZM403.842 137.323C403.341 135.891 402.793 134.458 402.212 133.063L403.706 132.507C404.298 133.928 404.858 135.388 405.366 136.847L403.842 137.323ZM456.959 132.138C456.469 130.69 455.923 129.261 455.337 127.892L456.826 127.323C457.427 128.728 457.986 130.192 458.488 131.674L456.959 132.138ZM400.984 130.275C400.341 128.891 399.651 127.515 398.93 126.185L400.359 125.493C401.094 126.849 401.799 128.253 402.454 129.665L400.984 130.275ZM454.067 125.134C453.383 123.755 452.642 122.412 451.86 121.143L453.249 120.379C454.053 121.687 454.818 123.07 455.521 124.49L454.067 125.134ZM450.177 118.602C449.282 117.345 448.322 116.139 447.323 115.016L448.552 114.038C449.588 115.202 450.582 116.452 451.508 117.754L450.177 118.602ZM382.193 180.648C381.202 180.76 380.212 180.815 379.231 180.842C379.209 181.295 379.182 181.804 379.152 182.363C380.22 182.337 381.3 182.278 382.381 182.156L382.193 180.648Z" fill="#0E538C"/>
<path d="M398.817 122.783C398.548 122.333 398.284 121.905 398.022 121.486C397.429 121.591 396.867 121.69 396.338 121.782C396.558 122.375 396.576 123.244 396.944 123.859L398.817 122.783ZM446.312 111.709C446.249 111.648 446.181 111.593 446.117 111.532C445.925 111.483 445.735 111.439 445.551 111.404C445.246 111.434 444.704 111.541 443.984 111.704C444.383 112.057 444.786 112.407 445.17 112.776L446.312 111.709Z" fill="#0E538C"/>
<path d="M371.364 238.496C378.013 241.043 412.678 242.941 429.408 239.398C446.137 235.854 453.452 231.981 453.452 231.981C453.452 231.981 455.574 231.362 455.774 237.373C455.959 242.951 452.963 246.484 452.963 246.484C452.963 246.484 425.527 259.899 395.949 259.139C368.416 258.432 366.841 255.596 366.841 255.596L371.364 238.496Z" fill="black"/>
<path d="M391.665 248.193C395.078 247.687 400.368 241.315 400.368 241.315C400.368 241.315 390.284 240.959 386.918 240.744C383.552 240.529 376.313 239.617 371.364 238.495C359.863 241.801 350.576 246.231 350.576 246.231C350.576 246.231 357.536 248.003 366.84 248.509C376.145 249.015 388.252 248.7 391.665 248.193Z" fill="#5B252C"/>
<path d="M373.975 259.886C373.975 265.372 369.271 269.819 363.469 269.819C357.666 269.819 352.962 265.372 352.962 259.886V230.273C352.962 224.787 357.666 220.339 363.469 220.339C369.271 220.339 373.975 224.787 373.975 230.273V259.886Z" fill="#F2D265"/>
<path d="M360.899 233.007C360.899 230.426 358.677 228.325 355.946 228.325C354.877 228.325 353.864 228.649 353.019 229.242C352.982 229.581 352.962 229.925 352.962 230.272V231.047C353.174 231.047 353.383 230.972 353.541 230.817C354.181 230.189 355.034 229.843 355.946 229.843C357.792 229.843 359.293 231.262 359.293 233.007V268.999C359.793 269.205 360.317 269.366 360.854 269.497C360.875 269.428 360.899 269.361 360.899 269.286V233.007ZM373.918 229.243C373.072 228.65 372.06 228.325 370.99 228.325C368.259 228.325 366.037 230.426 366.037 233.008V269.287C366.037 269.361 366.061 269.429 366.082 269.497C366.62 269.367 367.143 269.205 367.644 269V233.007C367.644 231.262 369.144 229.843 370.99 229.843C371.902 229.843 372.756 230.19 373.395 230.817C373.552 230.972 373.763 231.047 373.974 231.047V230.272C373.975 229.925 373.955 229.581 373.918 229.243Z" fill="#EE3224"/>
<path d="M366.261 192.068L367.131 193.271H361.543L360.674 192.068H366.261Z" fill="#E2DCE3"/>
<path d="M356.676 203.205L357.545 204.407L361.544 193.271L360.674 192.068L356.676 203.205Z" fill="#E2DCE3"/>
<path d="M357.88 223.849C357.88 223.849 358.482 224.862 358.777 225.177C359.071 225.492 361.561 207.453 361.561 207.453L360.355 206.591L357.88 223.849Z" fill="#E2DCE3"/>
<path d="M367.383 207.318L371.13 204.408L367.132 193.271H364.371H364.305H361.544L357.545 204.408L361.293 207.318L358.75 225.035H358.753C358.753 225.04 358.75 225.045 358.75 225.051C358.75 225.784 361.251 226.379 364.338 226.379C367.424 226.379 369.926 225.784 369.926 225.051C369.926 225.045 369.923 225.04 369.923 225.035H369.926L367.383 207.318Z" fill="#FFBE55"/>
<path d="M382.451 221.285L374.606 262.372L390.405 265.048L398.25 223.961L382.451 221.285Z" fill="#EE3224"/>
<path d="M387.045 222.066L379.229 263.158L385.85 264.284L393.666 223.191L387.045 222.066Z" fill="#0E538C"/>
<path d="M382.421 221.272L393.077 207.933L398.219 223.957C398.219 223.957 395.409 226.376 389.752 225.414C384.094 224.452 382.421 221.272 382.421 221.272Z" fill="#FFBE55"/>
<path d="M394.665 212.885L393.076 207.933L389.781 212.057C390.494 212.303 391.266 212.527 392.173 212.681C393.088 212.837 393.898 212.882 394.665 212.885Z" fill="black"/>
<path d="M350.575 246.232C350.575 246.232 345.423 278.882 346.962 281.539C349.858 286.542 376.34 289.448 385.106 287.866C391.447 286.722 394.208 282.678 394.208 282.678L400.368 241.316C400.368 241.316 395.077 247.687 391.664 248.193C388.251 248.7 376.145 249.016 366.84 248.51C357.535 248.004 350.575 246.232 350.575 246.232Z" fill="black"/>
<path d="M394.208 282.678L400.368 241.316C400.368 241.316 395.406 247.281 391.993 248.113L391.99 248.129C391.999 253.002 387.515 284.322 385.106 287.866C391.447 286.722 394.208 282.678 394.208 282.678Z" fill="black"/>
<path d="M381.312 257.437L381.306 256.298C382.938 256.291 384.55 256.252 386.097 256.183L386.154 257.321C384.59 257.39 382.962 257.429 381.312 257.437ZM378.083 257.412C376.507 257.381 374.879 257.322 373.246 257.238L373.312 256.1C374.932 256.185 376.545 256.243 378.109 256.274L378.083 257.412ZM389.379 257.125L389.282 255.99C389.871 255.945 390.458 255.895 391.039 255.838C391.297 255.729 392.192 255.331 393.446 254.567L394.099 255.526C392.506 256.495 391.47 256.905 391.426 256.922L391.257 256.962C390.635 257.023 390.009 257.077 389.379 257.125ZM370.026 257.037C368.424 256.92 366.802 256.778 365.207 256.614L365.337 255.482C366.92 255.645 368.529 255.785 370.119 255.902L370.026 257.037ZM362.002 256.252C360.336 256.046 358.723 255.817 357.211 255.573L357.414 254.45C358.911 254.691 360.508 254.917 362.159 255.122L362.002 256.252ZM354.031 255.006C352.338 254.671 350.131 254.17 349.232 253.691L349.823 252.699C350.402 253.008 352.067 253.454 354.277 253.891L354.031 255.006ZM396.75 253.704L395.992 252.82C397.195 251.897 398.353 250.867 399.437 249.757L400.322 250.53C399.2 251.679 397.998 252.747 396.75 253.704Z" fill="#FFBE55"/>
<path d="M400.368 241.316C400.9 241.043 406.052 239.841 412.544 239.588C419.035 239.335 425.107 239.168 425.785 240.043C426.463 240.918 420.976 270.15 419.771 271.668C418.567 273.187 414.886 276.667 408.195 276.667C399.961 276.667 395.785 272.089 395.785 272.089C395.785 272.089 397.987 257.299 398.372 254.721C398.756 252.142 400.368 241.316 400.368 241.316Z" fill="black"/>
<path d="M412.142 255.533C424.235 255.277 425.539 241.848 425.834 240.314C425.827 240.183 425.813 240.079 425.784 240.043C425.106 239.169 419.035 239.335 412.543 239.588C406.051 239.841 400.899 241.044 400.367 241.315C400.161 242.703 400.23 255.786 412.142 255.533Z" fill="black"/>
<path d="M412.945 250.787C414.756 250.787 416.224 249.399 416.224 247.687C416.224 245.974 414.756 244.586 412.945 244.586C411.134 244.586 409.667 245.974 409.667 247.687C409.667 249.399 411.134 250.787 412.945 250.787Z" fill="#FFBE55"/>
<defs>
<linearGradient id="paint0_linear" x1="410.227" y1="311.895" x2="410.227" y2="303.29" gradientUnits="userSpaceOnUse">
<stop stop-color="#6A74EF"/>
<stop offset="1" stop-color="#5C60D5"/>
</linearGradient>
</defs>
</svg>
