<svg width="750" height="649" viewBox="0 0 750 649" fill="none" xmlns="http://www.w3.org/2000/svg">
<g opacity="0.5">
<path d="M679.121 117.153C710.919 117.153 736.697 91.3747 736.697 59.5763C736.697 27.7778 710.919 2 679.121 2C647.322 2 621.544 27.7778 621.544 59.5763C621.544 91.3747 647.322 117.153 679.121 117.153Z" stroke="#D3D3D3" stroke-width="3" stroke-miterlimit="10" stroke-linecap="round" stroke-linejoin="round"/>
<path d="M679.121 7.87622V13.5006" stroke="#D3D3D3" stroke-width="2" stroke-miterlimit="10" stroke-linecap="round" stroke-linejoin="round"/>
<path d="M679.121 105.652V111.275" stroke="#D3D3D3" stroke-width="2" stroke-miterlimit="10" stroke-linecap="round" stroke-linejoin="round"/>
<path d="M730.82 59.5763H725.196" stroke="#D3D3D3" stroke-width="2" stroke-miterlimit="10" stroke-linecap="round" stroke-linejoin="round"/>
<path d="M633.045 59.5763H627.421" stroke="#D3D3D3" stroke-width="2" stroke-miterlimit="10" stroke-linecap="round" stroke-linejoin="round"/>
<path d="M679.121 64.226C681.689 64.226 683.77 62.1442 683.77 59.5762C683.77 57.0082 681.689 54.9264 679.121 54.9264C676.553 54.9264 674.471 57.0082 674.471 59.5762C674.471 62.1442 676.553 64.226 679.121 64.226Z" fill="#D3D3D3"/>
<path d="M679.121 59.5762L703.949 28.8492" stroke="#D3D3D3" stroke-width="2" stroke-miterlimit="10" stroke-linecap="round" stroke-linejoin="round"/>
<path d="M663.455 44.2123L679.121 59.5763" stroke="#D3D3D3" stroke-width="2" stroke-miterlimit="10" stroke-linecap="round" stroke-linejoin="round"/>
</g>
<path opacity="0.5" d="M750 322.458V297.09C750 294.694 749.528 292.322 748.612 290.11C747.695 287.897 746.351 285.886 744.658 284.192C742.964 282.498 740.953 281.155 738.74 280.238C736.527 279.321 734.155 278.85 731.76 278.85H667.379C662.542 278.85 657.902 276.928 654.482 273.507C651.061 270.087 649.139 265.447 649.139 260.61V235.241C649.139 232.846 649.611 230.474 650.528 228.261C651.444 226.048 652.788 224.037 654.482 222.344C656.175 220.65 658.186 219.306 660.399 218.39C662.612 217.473 664.984 217.001 667.379 217.001H669.412C671.807 217.001 674.179 216.53 676.392 215.613C678.605 214.696 680.616 213.353 682.31 211.659C684.003 209.965 685.347 207.955 686.264 205.742C687.18 203.529 687.652 201.157 687.652 198.761V173.393C687.652 168.555 685.73 163.916 682.31 160.495C678.889 157.075 674.25 155.153 669.412 155.153L122.878 155.153C118.041 155.153 113.402 157.075 109.981 160.495C106.56 163.916 104.639 168.555 104.639 173.393V198.761C104.639 201.157 105.11 203.528 106.027 205.741C106.944 207.954 108.287 209.965 109.981 211.659C111.675 213.353 113.685 214.696 115.898 215.613C118.111 216.529 120.483 217.001 122.878 217.001C127.716 217.001 132.355 218.923 135.776 222.343C139.197 225.764 141.118 230.404 141.118 235.241V260.61C141.118 263.005 140.647 265.377 139.73 267.59C138.813 269.803 137.47 271.813 135.776 273.507C134.082 275.201 132.072 276.544 129.859 277.461C127.646 278.378 125.274 278.849 122.878 278.849H52.343C49.9477 278.849 47.5758 279.321 45.3629 280.238C43.1499 281.155 41.1391 282.498 39.4454 284.192C37.7517 285.886 36.4081 287.896 35.4915 290.109C34.5749 292.322 34.1031 294.694 34.1031 297.089V322.458C34.1031 324.853 34.5749 327.225 35.4915 329.438C36.4082 331.651 37.7517 333.662 39.4454 335.355C41.1392 337.049 43.1499 338.393 45.3629 339.309C47.5759 340.226 49.9477 340.698 52.343 340.698H80.02C84.8575 340.698 89.4969 342.62 92.9176 346.04C96.3382 349.461 98.2599 354.1 98.2599 358.938V384.306C98.2599 389.144 96.3382 393.783 92.9176 397.204C89.4969 400.624 84.8575 402.546 80.02 402.546H79.9531C75.1155 402.546 70.4762 404.468 67.0555 407.889C63.6349 411.309 61.7132 415.949 61.7132 420.786V446.155C61.7132 448.55 62.185 450.922 63.1016 453.135C64.0183 455.348 65.3618 457.358 67.0556 459.052C68.7493 460.746 70.76 462.089 72.973 463.006C75.186 463.923 77.5578 464.394 79.9531 464.394H83.9574C88.795 464.394 93.4344 466.316 96.855 469.737C100.276 473.157 102.197 477.797 102.197 482.634V508.003C102.197 510.398 101.726 512.77 100.809 514.983C99.8923 517.196 98.5488 519.207 96.855 520.901C95.1613 522.594 93.1505 523.938 90.9375 524.854C88.7246 525.771 86.3527 526.243 83.9574 526.243H18.24C15.8447 526.243 13.4728 526.715 11.2599 527.631C9.04689 528.548 7.03612 529.892 5.34238 531.585C3.64864 533.279 2.30509 535.29 1.38844 537.503C0.471794 539.716 1.83134e-06 542.088 0 544.483V569.851C-1.83134e-06 572.247 0.471785 574.618 1.38843 576.831C2.30507 579.044 3.64861 581.055 5.34234 582.749C7.03608 584.443 9.04683 585.786 11.2598 586.703C13.4728 587.619 15.8446 588.091 18.2399 588.091L679.204 588.091C684.042 588.091 688.681 586.17 692.102 582.749C695.523 579.328 697.444 574.689 697.444 569.852V544.483C697.444 542.088 696.973 539.716 696.056 537.503C695.139 535.29 693.796 533.279 692.102 531.585C690.408 529.892 688.398 528.548 686.185 527.632C683.972 526.715 681.6 526.243 679.204 526.243H663.39C658.552 526.243 653.913 524.321 650.492 520.901C647.071 517.48 645.15 512.841 645.15 508.003V482.635C645.15 477.797 647.071 473.158 650.492 469.737C653.913 466.316 658.552 464.395 663.39 464.395H700.68C703.075 464.395 705.447 463.923 707.66 463.006C709.873 462.09 711.883 460.746 713.577 459.052C715.271 457.359 716.614 455.348 717.531 453.135C718.448 450.922 718.919 448.55 718.919 446.155V420.786C718.919 418.391 718.448 416.019 717.531 413.806C716.614 411.593 715.271 409.583 713.577 407.889C711.883 406.195 709.873 404.852 707.66 403.935C705.447 403.018 703.075 402.546 700.68 402.546H689.368C686.972 402.546 684.6 402.075 682.387 401.158C680.174 400.241 678.164 398.898 676.47 397.204C674.776 395.51 673.433 393.5 672.516 391.287C671.599 389.074 671.128 386.702 671.128 384.307V358.938C671.128 356.543 671.599 354.171 672.516 351.958C673.433 349.745 674.776 347.734 676.47 346.04C678.164 344.347 680.174 343.003 682.387 342.086C684.6 341.17 686.972 340.698 689.368 340.698H731.76C734.155 340.698 736.527 340.226 738.74 339.31C740.953 338.393 742.964 337.049 744.658 335.356C746.351 333.662 747.695 331.651 748.612 329.438C749.528 327.225 750 324.853 750 322.458Z" fill="#D3D3D3"/>
<path d="M194.246 390.466H290.744C292.284 390.466 293.533 389.217 293.533 387.677V345.367C293.533 343.827 292.284 342.578 290.744 342.578H194.246C192.705 342.578 191.456 343.827 191.456 345.367V387.677C191.456 389.217 192.705 390.466 194.246 390.466Z" fill="#F2F2F2"/>
<path d="M245.286 333.946H341.785C343.325 333.946 344.574 332.697 344.574 331.157V288.848C344.574 287.307 343.325 286.059 341.785 286.059H245.286C243.746 286.059 242.497 287.307 242.497 288.848V331.157C242.497 332.697 243.746 333.946 245.286 333.946Z" fill="#F2F2F2"/>
<path d="M134.577 333.946H231.076C232.616 333.946 233.865 332.697 233.865 331.157V288.848C233.865 287.307 232.616 286.059 231.076 286.059H134.577C133.037 286.059 131.788 287.307 131.788 288.848V331.157C131.788 332.697 133.037 333.946 134.577 333.946Z" fill="#F2F2F2"/>
<path d="M578.767 424.207H482.269C480.728 424.207 479.479 425.455 479.479 426.996V469.305C479.479 470.845 480.728 472.094 482.269 472.094H578.767C580.308 472.094 581.556 470.845 581.556 469.305V426.996C581.556 425.455 580.308 424.207 578.767 424.207Z" fill="#F2F2F2"/>
<path d="M527.73 480.726H431.231C429.691 480.726 428.442 481.975 428.442 483.516V525.825C428.442 527.365 429.691 528.614 431.231 528.614H527.73C529.27 528.614 530.519 527.365 530.519 525.825V483.516C530.519 481.975 529.27 480.726 527.73 480.726Z" fill="#F2F2F2"/>
<path d="M638.439 480.726H541.94C540.4 480.726 539.151 481.975 539.151 483.516V525.825C539.151 527.365 540.4 528.614 541.94 528.614H638.439C639.979 528.614 641.228 527.365 641.228 525.825V483.516C641.228 481.975 639.979 480.726 638.439 480.726Z" fill="#F2F2F2"/>
<path d="M394.292 548.016V565.902C394.292 572.81 391.547 579.435 386.663 584.319C381.778 589.204 375.153 591.948 368.246 591.948H280.744C273.836 591.948 267.211 594.692 262.326 599.577C257.442 604.461 254.698 611.086 254.698 617.994C254.698 624.902 251.953 631.527 247.069 636.411C242.184 641.296 235.559 644.04 228.652 644.04H161.072C154.164 644.04 147.539 641.296 142.655 636.411C137.77 631.527 135.026 624.902 135.026 617.994V571.83C135.026 568.41 134.352 565.023 133.044 561.863C131.735 558.703 129.816 555.832 127.397 553.413C124.979 550.994 122.108 549.076 118.948 547.767C115.787 546.458 112.401 545.784 108.98 545.784H27.8911" stroke="#0B4870" stroke-width="4" stroke-miterlimit="10" stroke-linecap="round"/>
<path d="M525.073 115.306H264.46C259.068 115.306 254.698 119.676 254.698 125.068V377.648C254.698 383.04 259.068 387.41 264.46 387.41H525.073C530.464 387.41 534.835 383.04 534.835 377.648V125.068C534.835 119.676 530.464 115.306 525.073 115.306Z" fill="#FFC107"/>
<path d="M426.365 406.908V347.166" stroke="white" stroke-width="10" stroke-miterlimit="10" stroke-linecap="round"/>
<path d="M362.216 406.908V347.166" stroke="white" stroke-width="10" stroke-miterlimit="10" stroke-linecap="round"/>
<path d="M355.808 404.247V344.505" stroke="#E9E9E9" stroke-width="4" stroke-miterlimit="10" stroke-linecap="round"/>
<path d="M420.766 404.247V344.505" stroke="#E9E9E9" stroke-width="4" stroke-miterlimit="10" stroke-linecap="round"/>
<path d="M455.986 386.24H332.597C331.117 386.24 329.698 386.828 328.652 387.874C327.606 388.92 327.019 390.339 327.019 391.819V446.931C327.019 448.41 327.606 449.829 328.652 450.875C329.698 451.921 331.117 452.509 332.597 452.509H351.39C352.87 452.509 354.289 453.097 355.335 454.143C356.381 455.189 356.969 456.608 356.969 458.087V508.18C356.969 509.659 357.556 511.078 358.602 512.124C359.648 513.17 361.067 513.758 362.547 513.758H426.036C427.516 513.758 428.935 513.17 429.981 512.124C431.027 511.078 431.615 509.659 431.615 508.18V458.087C431.615 456.608 432.202 455.189 433.248 454.143C434.294 453.097 435.713 452.509 437.193 452.509H455.986C457.466 452.509 458.885 451.921 459.931 450.875C460.977 449.829 461.565 448.41 461.565 446.931V391.819C461.565 391.086 461.42 390.361 461.14 389.684C460.86 389.007 460.449 388.392 459.931 387.874C459.413 387.356 458.798 386.945 458.121 386.665C457.444 386.385 456.719 386.24 455.986 386.24Z" fill="#0B4870"/>
<path d="M440.227 493.676H348.354C342.809 493.676 338.313 498.172 338.313 503.717C338.313 509.262 342.809 513.758 348.354 513.758H440.227C445.772 513.758 450.268 509.262 450.268 503.717C450.268 498.172 445.772 493.676 440.227 493.676Z" fill="#FFC107"/>
<path d="M356.388 513.758H432.195V524.175C432.195 526.738 431.177 529.196 429.365 531.009C427.552 532.821 425.094 533.839 422.531 533.839H366.052C364.783 533.839 363.526 533.589 362.354 533.104C361.181 532.618 360.116 531.906 359.218 531.009C358.321 530.111 357.609 529.046 357.123 527.874C356.638 526.701 356.388 525.444 356.388 524.175V513.758H356.388Z" fill="#0B4870"/>
<path d="M371.527 533.839H417.055V551.238C417.055 557.276 414.657 563.066 410.388 567.335C406.119 571.604 400.329 574.002 394.291 574.002C388.254 574.002 382.464 571.604 378.195 567.335C373.926 563.066 371.527 557.276 371.527 551.238V533.839Z" fill="#0B4870"/>
<path d="M394.767 317.627C431.366 317.627 461.035 287.957 461.035 251.358C461.035 214.759 431.366 185.089 394.767 185.089C358.167 185.089 328.498 214.759 328.498 251.358C328.498 287.957 358.167 317.627 394.767 317.627Z" fill="white"/>
<path d="M343.716 268.165C343.712 255.747 347.199 243.577 353.779 233.045C360.359 222.512 369.766 214.042 380.929 208.599C392.091 203.156 404.559 200.96 416.909 202.261C429.259 203.563 440.995 208.31 450.778 215.96C445.618 207.791 438.734 200.848 430.608 195.62C422.482 190.392 413.311 187.004 403.737 185.695C394.164 184.385 384.42 185.185 375.189 188.039C365.957 190.892 357.461 195.73 350.297 202.214C343.133 208.697 337.473 216.669 333.715 225.571C329.956 234.472 328.19 244.088 328.541 253.744C328.891 263.4 331.349 272.863 335.742 281.469C340.136 290.075 346.358 297.616 353.973 303.563C347.259 292.979 343.701 280.7 343.716 268.165Z" fill="#E9E9E9"/>
<path d="M362.692 267.42C369.069 267.42 374.239 262.251 374.239 255.874C374.239 249.496 369.069 244.327 362.692 244.327C356.315 244.327 351.145 249.496 351.145 255.874C351.145 262.251 356.315 267.42 362.692 267.42Z" fill="black"/>
<path d="M426.841 267.42C433.218 267.42 438.388 262.251 438.388 255.874C438.388 249.496 433.218 244.327 426.841 244.327C420.464 244.327 415.294 249.496 415.294 255.874C415.294 262.251 420.464 267.42 426.841 267.42Z" fill="black"/>
<path d="M568.297 208.686H613.344" stroke="#F2F2F2" stroke-width="3" stroke-miterlimit="10" stroke-linecap="round"/>
<path d="M568.297 221.669H613.344" stroke="#F2F2F2" stroke-width="3" stroke-miterlimit="10" stroke-linecap="round"/>
<path d="M568.297 234.654H613.344" stroke="#F2F2F2" stroke-width="3" stroke-miterlimit="10" stroke-linecap="round"/>
<path d="M172.212 195.702H217.26" stroke="#F2F2F2" stroke-width="3" stroke-miterlimit="10" stroke-linecap="round"/>
<path d="M172.212 208.686H217.26" stroke="#F2F2F2" stroke-width="3" stroke-miterlimit="10" stroke-linecap="round"/>
<path d="M172.212 221.669H217.26" stroke="#F2F2F2" stroke-width="3" stroke-miterlimit="10" stroke-linecap="round"/>
<path d="M229.147 458.262H274.195" stroke="#F2F2F2" stroke-width="3" stroke-miterlimit="10" stroke-linecap="round"/>
<path d="M229.147 471.246H274.195" stroke="#F2F2F2" stroke-width="3" stroke-miterlimit="10" stroke-linecap="round"/>
<path d="M229.147 484.229H274.195" stroke="#F2F2F2" stroke-width="3" stroke-miterlimit="10" stroke-linecap="round"/>
<path d="M630.926 587.347C620.778 580.89 602.896 569.512 595.17 545.903C589.783 529.44 589.65 508.687 595.462 506.739C602.177 504.489 613.92 528.329 618.243 526.286C621.634 524.683 614.564 509.934 613.603 484.898C612.948 467.841 615.405 453.199 623.069 440.17C626.587 434.187 629.155 429.823 631.977 430.148C643.617 431.486 640.313 510.328 652.764 511.81C658.615 512.507 663.303 495.565 669.839 496.962C675.395 498.151 679.132 511.909 680.122 520.797C680.171 521.236 680.207 521.587 680.232 521.832C683.15 550.727 666.284 571.555 660.559 578.624C652.065 589.113 646.284 591.182 641.877 591.244C637.23 591.311 633.68 589.099 630.926 587.347Z" fill="#20C997"/>
<path d="M627.92 477.432C629.876 498.033 641.553 529.354 643.294 555.939C644.428 573.25 643.374 588.528 641.624 601.038" stroke="#46DBC9" stroke-width="2" stroke-miterlimit="10" stroke-linecap="round" stroke-linejoin="round"/>
<path d="M681.655 648.488H595.349C586.673 633.12 587.002 614.259 596.208 599.203L608.902 578.442H668.103L680.435 597.662C689.562 611.885 690.651 629.825 683.314 645.048L681.655 648.488Z" fill="#0B4870"/>
<path d="M614.341 546.473C614.341 546.473 623.077 564.29 643.765 564.29M655.493 524.691C655.493 524.691 655.268 534.159 642.251 546.473L655.493 524.691Z" stroke="#46DBC9" stroke-width="2" stroke-miterlimit="10" stroke-linecap="round" stroke-linejoin="round"/>
<path opacity="0.67" d="M659.559 593.131C659.559 593.131 672.686 601.683 672.686 622.24" stroke="white" stroke-width="2" stroke-miterlimit="10" stroke-linecap="round" stroke-linejoin="round"/>
</svg>
