<svg width="750" height="613" viewBox="0 0 750 613" fill="none" xmlns="http://www.w3.org/2000/svg">
<path d="M376.339 564.149C543.055 564.149 678.205 558.494 678.205 551.518C678.205 544.542 543.055 538.887 376.339 538.887C209.622 538.887 74.4722 544.542 74.4722 551.518C74.4722 558.494 209.622 564.149 376.339 564.149Z" fill="#E9E9E9"/>
<path opacity="0.1" d="M560.765 612.257C571.572 612.257 580.333 610.156 580.333 607.564C580.333 604.971 571.572 602.87 560.765 602.87C549.958 602.87 541.197 604.971 541.197 607.564C541.197 610.156 549.958 612.257 560.765 612.257Z" fill="#2A94F4"/>
<path opacity="0.1" d="M615.534 611.325C621.232 611.325 625.852 610.213 625.852 608.841C625.852 607.468 621.232 606.356 615.534 606.356C609.835 606.356 605.215 607.468 605.215 608.841C605.215 610.213 609.835 611.325 615.534 611.325Z" fill="#2A94F4"/>
<path d="M616.328 548.446H131.864C97.9397 548.446 70.4346 520.941 70.4346 487.017C70.4346 453.093 97.9397 425.588 131.864 425.588H616.328C650.252 425.588 677.757 453.093 677.757 487.017C677.757 520.941 650.252 548.446 616.328 548.446Z" fill="#0B4870"/>
<path d="M614.878 535.091H133.313C106.775 535.091 85.2397 513.556 85.2397 487.017C85.2397 460.478 106.775 438.944 133.313 438.944H614.913C641.451 438.944 662.986 460.478 662.986 487.017C662.986 513.556 641.451 535.091 614.878 535.091Z" fill="white"/>
<path d="M223.076 535.091H133.313C106.775 535.091 85.2397 513.556 85.2397 487.017C85.2397 460.478 106.775 438.944 133.313 438.944H223.076C232.739 438.944 240.539 446.778 240.539 456.406V517.594C240.539 527.257 232.739 535.091 223.076 535.091Z" fill="#EE3224"/>
<path d="M249.665 535.091H251.252C252.909 535.091 254.254 533.745 254.254 532.088V527.464C254.254 525.807 252.909 524.461 251.252 524.461H249.665C248.008 524.461 246.662 525.807 246.662 527.464V532.088C246.662 533.745 248.008 535.091 249.665 535.091ZM269.646 535.091H270.785C272.442 535.091 273.788 533.745 273.788 532.088V527.464C273.788 525.807 272.442 524.461 270.785 524.461H269.646C267.99 524.461 266.644 525.807 266.644 527.464V532.088C266.644 533.745 267.99 535.091 269.646 535.091Z" fill="#679B46"/>
<path d="M271.303 518.802C271.303 518.802 280.862 518.595 282.691 512.314V512.279C282.691 511.899 282.691 506.585 288.386 505.998C288.386 505.998 288.386 505.998 288.42 505.998C288.731 505.895 295.564 503.962 296.358 512.314C296.358 512.314 297.565 526.36 273.96 527.982" fill="#679B46"/>
<path d="M279.102 529.776C279.171 529.776 279.24 529.707 279.24 529.638C279.309 527.567 280.034 506.412 262.33 504.342C262.33 504.342 240.002 501.029 240.347 529.155C240.347 529.224 240.416 529.293 240.485 529.293L279.102 529.776Z" fill="#B57400"/>
<path d="M240.519 529.983H278.895C278.964 529.983 279.033 529.914 279.033 529.845V527.705C279.033 527.636 278.964 527.567 278.895 527.567H240.519C240.45 527.567 240.381 527.636 240.381 527.705V529.845C240.347 529.914 240.416 529.983 240.519 529.983ZM269.439 527.395C269.543 525.807 270.302 512.659 262.572 508.517C262.503 508.483 262.399 508.517 262.365 508.586C262.33 508.655 262.365 508.759 262.434 508.794C269.991 512.831 269.267 525.842 269.163 527.36C269.163 527.429 269.232 527.498 269.301 527.533C269.37 527.567 269.439 527.498 269.439 527.395ZM249.906 527.533C249.975 527.533 250.044 527.464 250.044 527.36C249.941 525.842 249.181 512.831 256.774 508.794C256.843 508.759 256.877 508.655 256.843 508.586C256.808 508.517 256.705 508.483 256.636 508.517C248.905 512.624 249.63 525.807 249.768 527.395C249.768 527.498 249.837 527.567 249.906 527.533Z" fill="#FCAD00"/>
<path d="M248.043 508.794H271.751C271.82 508.794 271.89 508.724 271.89 508.655V508.621C271.89 508.552 271.82 508.483 271.751 508.483H248.043C247.973 508.483 247.904 508.552 247.904 508.621V508.655C247.904 508.724 247.973 508.794 248.043 508.794ZM242.141 518.595H277.687C277.756 518.595 277.825 518.526 277.825 518.457V518.353C277.825 518.284 277.756 518.215 277.687 518.215H242.141C242.072 518.215 242.003 518.284 242.003 518.353V518.457C241.969 518.526 242.038 518.595 242.141 518.595Z" fill="#FCAD00"/>
<path d="M667.956 399.152C682.002 398.669 681.691 406.193 681.484 416.028C680.449 468.485 635.861 446.294 649.044 428.832C655.428 420.377 654.324 429.108 653.496 410.645C653.185 404.053 663.538 399.29 667.956 399.152Z" fill="black"/>
<path d="M667.127 438.426C664.194 437.943 648.836 452.955 644.799 457.027C640.761 461.134 636.619 466.759 640.899 466.759C645.178 466.759 649.63 462.756 653.012 460.064C656.394 457.372 660.95 453.438 663.469 451.643C665.954 449.883 670.026 438.909 667.127 438.426Z" fill="#FFE3CA"/>
<path d="M644.902 470.555C644.902 470.555 643.038 458.304 636.93 449.228C630.821 440.117 627.75 433.042 627.75 433.042L625.127 434.25C625.127 434.25 634.307 458.477 636.446 462.445C638.586 466.345 638.724 465.827 644.902 470.555Z" fill="#FFE3CA"/>
<path d="M627.716 436.355C627.716 436.355 623.368 434.768 619.123 431.316C614.878 427.865 614.913 427.762 614.188 426.14C613.463 424.518 614.74 421.481 616.293 422.758C617.812 424.035 619.123 426.865 620.331 427.693C623.402 429.832 622.609 427.9 622.402 427.348C622.194 426.796 621.849 426.002 622.367 425.622C622.885 425.243 623.299 426.485 623.609 426.899C623.92 427.313 626.198 429.246 626.646 429.694C627.095 430.109 626.991 431.558 627.647 432.766C628.337 434.008 630.132 439.219 629.269 439.944C629.235 439.944 629.028 436.976 627.716 436.355ZM565.32 569.153C565.32 569.153 562.525 576.78 560.627 580.3C558.729 583.785 557.107 586.132 556.313 589.273C555.519 592.413 566.874 588.548 568.15 586.512C569.427 584.476 569.703 577.539 574.224 572.328C578.814 567.117 565.32 569.153 565.32 569.153Z" fill="#FFE3CA"/>
<path d="M613.946 500.545C613.946 500.545 579.849 515.834 576.433 520.355C573.05 524.876 567.218 559.801 564.768 569.188C564.25 571.155 572.464 573.881 574.776 572.466C577.088 571.051 587.165 550.483 588.856 545.168C590.686 539.267 590.03 532.226 591.479 531.571C594.516 530.156 624.886 521.804 629.2 518.595C633.548 515.385 646.11 504.065 644.799 500.304C643.487 496.577 613.946 500.545 613.946 500.545ZM570.842 577.85C570.842 577.85 573.085 580.921 573.637 582.267C574.189 583.613 575.57 584.924 574.5 586.339C573.43 587.72 569.323 590.653 566.148 595.485C563.008 600.316 557.452 605.873 553.793 607.702C550.135 609.531 544.752 608.979 544.717 606.942C544.683 604.906 547.65 602.076 549.134 601.007C550.618 599.902 556.623 586.65 557.417 584.579C558.211 582.509 559.35 581.508 560.868 582.474C562.387 583.441 564.285 584.062 566.804 582.06C569.323 580.093 570.842 577.85 570.842 577.85Z" fill="#0B4870"/>
<path d="M570.842 577.85C570.842 577.85 573.085 580.921 573.637 582.267C574.189 583.613 575.57 584.924 574.5 586.339C573.43 587.72 569.323 590.653 566.148 595.485C563.008 600.316 557.452 605.872 553.793 607.702C550.135 609.531 544.752 608.978 544.717 606.942C544.683 604.906 547.65 602.076 549.134 601.006C550.618 599.902 556.623 586.65 557.417 584.579C558.211 582.509 559.35 581.508 560.868 582.474C562.387 583.44 564.285 584.062 566.804 582.06C569.323 580.093 570.842 577.85 570.842 577.85Z" fill="#FFC107"/>
<path d="M668.75 470.141C668.75 470.141 663.262 476.319 661.571 482.255C659.846 488.19 663.849 504.1 654.186 515.627C649.286 521.493 620.745 518.387 620.745 518.387C643.902 477.216 645.282 470.59 643.902 465.793C642.521 460.996 643.798 458.684 648.285 454.956C652.737 451.229 656.015 447.882 656.981 443.533C657.948 439.254 693.114 431.42 668.75 470.141Z" fill="#007BFF"/>
<path d="M678.24 442.36C678.24 442.36 676.445 440.807 676.1 434.146C675.755 427.486 675.651 424.035 676.894 421.653C678.136 419.307 665.298 418.824 664.987 423.69C664.711 428.556 663.952 429.246 665.264 434.388C666.609 439.53 661.985 440.945 660.984 441.359C658.983 442.222 653.185 449.78 678.24 442.36Z" fill="#FFE3CA"/>
<path d="M668.094 414.786C670.406 415.338 672.684 415.58 674.789 415.027C673.063 426.451 663.573 427.969 663.228 428.004C662.883 428.038 662.538 428.073 662.089 427.589C661.64 427.106 655.877 419.755 658.845 408.263C659.052 407.435 660.432 412.922 668.094 414.786ZM673.132 445.673C669.026 446.536 656.36 471.625 652.702 478.459C649.044 485.292 645.903 494.057 651.598 491.918C657.292 489.778 661.537 482.841 664.953 478.01C668.335 473.144 672.753 466.207 675.376 462.86C677.999 459.512 677.239 444.81 673.132 445.673Z" fill="#FFE3CA"/>
<path d="M608.493 558.386C608.493 558.386 612.842 565.736 613.084 568.428C613.325 571.12 613.636 572.949 615.741 572.397C617.846 571.845 621.09 565.633 620.607 563.666C620.124 561.699 615.189 557.04 614.429 553.899C613.705 550.759 608.459 559.628 608.459 559.628L608.493 558.386Z" fill="#FFE3CA"/>
<path d="M617.225 558.248C617.225 558.248 620.123 559.732 621.884 559.904C623.644 560.111 626.094 561.871 625.852 565.598C625.611 569.326 624.851 576.78 624.921 581.473C624.99 586.167 620.986 593.932 619.916 595.485C618.191 598.004 614.257 598.004 613.359 595.795C612.462 593.587 613.532 587.375 613.601 584.2C613.67 581.025 612.393 570.602 612.289 569.326C612.186 568.049 615.534 565.288 616.707 566.806C617.88 568.325 618.985 566.565 619.019 565.426C619.019 564.287 617.225 558.248 617.225 558.248Z" fill="#FFC107"/>
<path d="M632.893 499.476C625.68 499.545 592.48 496.818 587.787 501.201C583.093 505.619 590.824 518.181 615.051 524.082C639.277 529.983 643.902 528.327 651.632 519.872C659.363 511.416 638.277 499.407 632.893 499.476Z" fill="#0B4870"/>
<path d="M598.071 511.485C598.071 511.485 610.944 523.185 611.945 536.126C612.911 549.068 615.465 555.107 615.465 555.107L608.459 559.594C608.459 559.594 586.959 523.357 585.406 516.075C583.853 508.794 584.37 500.925 589.098 502.098C593.826 503.272 598.071 511.485 598.071 511.485Z" fill="#0B4870"/>
<path d="M608.425 559.524C608.459 559.559 608.459 559.593 608.459 559.593L614.568 555.694L608.425 559.524Z" fill="#89D5DA"/>
<path d="M649.906 492.297C642.245 492.884 630.062 493.16 630.062 493.16C630.062 493.16 613.152 495.714 629.096 489.329C632.547 487.949 641.554 483.428 654.254 481.771C655.635 481.599 654.945 481.979 656.394 482.565C658.913 483.566 656.118 491.814 649.906 492.297Z" fill="#FFE3CA"/>
<path d="M615.74 496.197L615.706 495.3L617.673 493.195C617.673 493.195 622.332 491.331 624.299 491.331C626.266 491.331 633.341 488.26 634.273 488.156C635.204 488.052 637.62 492.056 637.62 492.056C637.62 492.056 629.855 493.195 626.784 493.954C623.747 494.713 619.743 497.405 618.536 497.75C616.499 498.337 615.533 498.751 615.533 498.751C615.533 498.751 615.395 497.508 618.536 496.404C619.364 496.094 618.605 495.265 618.605 495.265L615.74 496.197Z" fill="#FFE3CA"/>
<path d="M633.583 499.476C633.583 499.476 633.583 499.441 633.617 499.441L633.583 498.233H588.719V499.441V499.476L588.822 499.683C589.409 500.718 590.444 500.891 591.618 500.891H630.684C631.857 500.891 632.893 500.718 633.479 499.683L633.583 499.476Z" fill="#D3D3D3"/>
<path d="M622.781 499.683C622.781 499.683 622.746 499.683 622.781 499.683L622.884 499.89C623.057 500.166 623.298 500.338 623.54 500.511H630.373C631.512 500.511 632.513 500.373 633.065 499.51L633.168 499.338C633.168 499.338 633.168 499.303 633.203 499.303V498.716H622.815V499.683H622.781ZM622.505 498.199L616.672 473.903C616.534 473.247 615.913 472.73 615.326 472.73H583.853C583.266 472.73 582.921 473.247 583.093 473.903L588.926 498.199H622.505Z" fill="#F7F7F7"/>
<path d="M604.732 485.464C605.042 486.707 604.352 487.707 603.248 487.707C602.109 487.707 600.97 486.707 600.66 485.464C600.349 484.222 601.039 483.221 602.144 483.221C603.282 483.221 604.421 484.222 604.732 485.464Z" fill="#D3D3D3"/>
<path d="M664.642 400.498C665.816 399.981 677.618 397.841 683.244 403.604C688.869 409.368 690.387 417.961 687.696 425.933C685.004 433.905 688.489 433.146 691.733 439.875C698.463 453.714 680.793 462.549 671.027 454.784C665.781 450.608 665.609 437.632 666.955 428.728C668.301 419.824 676.514 417.029 671.648 415.2C665.954 413.06 654.393 405.123 664.642 400.498Z" fill="black"/>
<path d="M0 610.435H750" stroke="#0B4870" stroke-width="0.5"/>
<path d="M52.1738 563.478H697.826" stroke="#0B4870" stroke-opacity="0.1" stroke-width="0.5"/>
<path d="M472.408 96.1173C471.222 96.1171 470.062 95.7652 469.075 95.1059C468.089 94.4466 467.32 93.5095 466.866 92.4133C466.412 91.317 466.293 90.1108 466.524 88.947C466.756 87.7832 467.327 86.7142 468.166 85.8751L484.256 69.797C485.385 68.6906 486.905 68.0745 488.485 68.0825C490.066 68.0905 491.579 68.7219 492.697 69.8396C493.815 70.9573 494.446 72.4709 494.454 74.0515C494.462 75.6321 493.846 77.1521 492.74 78.281L476.65 94.3594C476.093 94.9174 475.432 95.36 474.704 95.6616C473.976 95.9633 473.196 96.1182 472.408 96.1173ZM289.396 96.422C288.608 96.423 287.828 96.2682 287.1 95.9665C286.372 95.6648 285.71 95.2222 285.154 94.6641L268.771 78.2755C268.205 77.7205 267.754 77.0587 267.445 76.3284C267.136 75.5981 266.975 74.8139 266.971 74.0209C266.967 73.228 267.12 72.4421 267.422 71.7087C267.724 70.9754 268.168 70.3091 268.728 69.7484C269.289 69.1877 269.955 68.7437 270.689 68.4421C271.422 68.1405 272.208 67.9873 273.001 67.9913C273.794 67.9953 274.578 68.1564 275.308 68.4654C276.039 68.7744 276.7 69.2251 277.255 69.7915L293.639 86.1797C294.478 87.0188 295.049 88.0879 295.28 89.2517C295.512 90.4154 295.393 91.6217 294.939 92.718C294.485 93.8142 293.716 94.7512 292.729 95.4105C291.743 96.0698 290.583 96.4218 289.396 96.422Z" fill="#FFC107"/>
<path d="M370.174 60.48V36H394.174V60.48" fill="#FFC107"/>
<path d="M400.174 0H364.174C357.546 0 352.174 5.37258 352.174 12V24C352.174 30.6274 357.546 36 364.174 36H400.174C406.801 36 412.174 30.6274 412.174 24V12C412.174 5.37258 406.801 0 400.174 0Z" fill="#FFC107"/>
<path d="M364.174 24V12C364.174 8.8174 365.438 5.76515 367.689 3.51472C369.939 1.26428 372.991 0 376.174 0H364.174C360.991 0 357.939 1.26428 355.689 3.51472C353.438 5.76515 352.174 8.8174 352.174 12V24C352.174 27.1826 353.438 30.2348 355.689 32.4853C357.939 34.7357 360.991 36 364.174 36H376.174C372.991 36 369.939 34.7357 367.689 32.4853C365.438 30.2348 364.174 27.1826 364.174 24Z" fill="#FFC107"/>
<path d="M516.052 65.2651L497.325 46.538C494.982 44.1949 491.183 44.1949 488.839 46.538L479.183 56.1943C476.84 58.5374 476.84 62.3364 479.183 64.6796L497.91 83.4066C500.253 85.7497 504.052 85.7497 506.395 83.4066L516.052 73.7503C518.395 71.4072 518.395 67.6082 516.052 65.2651Z" fill="#FFC107"/>
<path d="M491.188 64.6727C490.063 63.5475 489.431 62.0214 489.431 60.4301C489.431 58.8389 490.063 57.3128 491.188 56.1876L499.086 48.2892L497.329 46.5314C496.204 45.4063 494.678 44.7742 493.087 44.7742C491.496 44.7742 489.969 45.4063 488.844 46.5314L479.188 56.1877C478.063 57.3129 477.431 58.839 477.431 60.4302C477.431 62.0215 478.063 63.5476 479.188 64.6728L497.915 83.3987C499.04 84.5238 500.566 85.1559 502.157 85.1559C503.748 85.1559 505.274 84.5238 506.4 83.3987L508.157 81.6416L491.188 64.6727Z" fill="#FFC107"/>
<path d="M263.661 83.3981L282.388 64.6711C284.731 62.328 284.731 58.529 282.388 56.1858L272.732 46.5296C270.389 44.1864 266.59 44.1864 264.247 46.5296L245.52 65.2566C243.177 67.5997 243.177 71.3987 245.52 73.7419L255.176 83.3981C257.519 85.7413 261.318 85.7413 263.661 83.3981Z" fill="#FFC107"/>
<path d="M257.513 73.7432C256.388 72.618 255.756 71.0919 255.756 69.5006C255.756 67.9094 256.388 66.3833 257.513 65.2581L274.482 48.2881L272.725 46.531C271.6 45.4059 270.073 44.7738 268.482 44.7738C266.891 44.7738 265.364 45.4059 264.239 46.531L245.513 65.2581C244.388 66.3833 243.756 67.9094 243.756 69.5006C243.756 71.0919 244.388 72.618 245.513 73.7432L255.169 83.3987C256.294 84.5239 257.82 85.156 259.411 85.156C261.002 85.156 262.529 84.5239 263.654 83.3987L265.412 81.6417L257.513 73.7432Z" fill="#FFC107"/>
<path d="M382.174 360C465.017 360 532.174 292.843 532.174 210C532.174 127.157 465.017 60 382.174 60C299.331 60 232.174 127.157 232.174 210C232.174 292.843 299.331 360 382.174 360Z" fill="#3F6DB4"/>
<path d="M382.174 84.6868C357.253 84.6868 332.893 92.0765 312.172 105.922C291.451 119.767 275.302 139.445 265.765 162.469C256.228 185.492 253.733 210.827 258.595 235.268C263.457 259.71 275.457 282.161 293.078 299.782C310.7 317.404 333.151 329.404 357.592 334.266C382.034 339.127 407.368 336.632 430.392 327.096C453.415 317.559 473.094 301.409 486.939 280.689C500.784 259.968 508.174 235.607 508.174 210.687C508.166 177.272 494.889 145.228 471.261 121.6C447.633 97.9719 415.589 84.6945 382.174 84.6868Z" fill="white"/>
<path d="M268.174 210.686C268.197 178.33 280.674 147.225 303.017 123.821C325.36 100.418 355.854 86.5127 388.174 84.9895C386.171 84.8951 384.2 84.6863 382.174 84.6863C365.627 84.6863 349.243 87.9454 333.956 94.2775C318.669 100.61 304.779 109.891 293.078 121.591C281.378 133.291 272.097 147.181 265.765 162.468C259.433 177.755 256.174 194.14 256.174 210.686C256.174 227.233 259.433 243.617 265.765 258.904C272.097 274.191 281.378 288.082 293.078 299.782C304.779 311.482 318.669 320.763 333.956 327.095C349.243 333.427 365.627 336.686 382.174 336.686C384.2 336.686 386.171 336.478 388.174 336.384C355.846 334.883 325.339 320.985 302.991 297.576C280.644 274.168 268.174 243.049 268.174 210.686Z" fill="#E9E9E9"/>
<path d="M382.174 114C381.386 114 380.606 113.846 379.877 113.544C379.149 113.243 378.488 112.801 377.93 112.244C377.373 111.686 376.931 111.025 376.63 110.297C376.328 109.568 376.174 108.788 376.174 108V84.6855C376.174 83.0942 376.806 81.5681 377.931 80.4429C379.057 79.3177 380.583 78.6855 382.174 78.6855C383.765 78.6855 385.291 79.3177 386.417 80.4429C387.542 81.5681 388.174 83.0942 388.174 84.6855V108C388.174 108.788 388.02 109.568 387.718 110.297C387.417 111.025 386.975 111.686 386.418 112.244C385.86 112.801 385.199 113.243 384.471 113.544C383.743 113.846 382.962 114 382.174 114ZM382.174 342.685C381.386 342.686 380.606 342.531 379.877 342.23C379.149 341.928 378.488 341.486 377.93 340.929C377.373 340.372 376.931 339.71 376.63 338.982C376.328 338.254 376.174 337.474 376.174 336.685V312C376.174 310.409 376.806 308.883 377.931 307.757C379.057 306.632 380.583 306 382.174 306C383.765 306 385.291 306.632 386.417 307.757C387.542 308.883 388.174 310.409 388.174 312V336.685C388.174 337.474 388.02 338.254 387.718 338.982C387.417 339.71 386.975 340.372 386.418 340.929C385.86 341.486 385.199 341.928 384.471 342.23C383.743 342.531 382.962 342.686 382.174 342.685ZM280.713 215.467H256.186C254.595 215.467 253.069 214.835 251.943 213.709C250.818 212.584 250.186 211.058 250.186 209.467C250.186 207.875 250.818 206.349 251.943 205.224C253.069 204.099 254.595 203.467 256.186 203.467H280.713C282.304 203.467 283.83 204.099 284.956 205.224C286.081 206.349 286.713 207.875 286.713 209.467C286.713 211.058 286.081 212.584 284.956 213.709C283.83 214.835 282.304 215.467 280.713 215.467ZM508.162 215.467H484.713C483.122 215.467 481.595 214.835 480.47 213.709C479.345 212.584 478.713 211.058 478.713 209.467C478.713 207.875 479.345 206.349 480.47 205.224C481.595 204.099 483.122 203.467 484.713 203.467H508.162C509.753 203.467 511.279 204.099 512.405 205.224C513.53 206.349 514.162 207.875 514.162 209.467C514.162 211.058 513.53 212.584 512.405 213.709C511.279 214.835 509.753 215.467 508.162 215.467ZM454.783 144.076C453.597 144.076 452.437 143.724 451.45 143.065C450.464 142.405 449.695 141.468 449.241 140.372C448.787 139.276 448.668 138.07 448.899 136.906C449.131 135.742 449.702 134.673 450.541 133.834L467.029 117.351C468.158 116.245 469.678 115.629 471.259 115.637C472.839 115.645 474.353 116.276 475.471 117.394C476.588 118.512 477.22 120.025 477.228 121.606C477.236 123.187 476.619 124.707 475.513 125.835L459.025 142.318C458.469 142.876 457.808 143.319 457.08 143.62C456.352 143.922 455.571 144.077 454.783 144.076ZM293.076 305.783C291.89 305.783 290.73 305.431 289.743 304.772C288.757 304.112 287.988 303.175 287.534 302.079C287.08 300.983 286.961 299.777 287.192 298.613C287.424 297.449 287.995 296.38 288.834 295.541L306.295 278.086C306.85 277.519 307.512 277.069 308.242 276.76C308.972 276.451 309.757 276.29 310.55 276.286C311.343 276.282 312.129 276.435 312.862 276.736C313.595 277.038 314.262 277.482 314.822 278.043C315.383 278.603 315.827 279.27 316.129 280.003C316.43 280.736 316.583 281.522 316.579 282.315C316.575 283.108 316.414 283.892 316.105 284.623C315.796 285.353 315.345 286.015 314.779 286.57L297.319 304.025C296.762 304.583 296.101 305.026 295.373 305.328C294.645 305.629 293.864 305.784 293.076 305.783ZM311.287 144.076C310.499 144.077 309.719 143.922 308.991 143.621C308.263 143.319 307.601 142.876 307.045 142.318L289.713 124.975C288.607 123.846 287.991 122.326 287.999 120.745C288.007 119.165 288.638 117.651 289.756 116.533C290.873 115.416 292.387 114.784 293.968 114.776C295.548 114.768 297.068 115.384 298.197 116.491L315.529 133.834C316.368 134.673 316.939 135.742 317.171 136.906C317.402 138.07 317.283 139.276 316.829 140.373C316.375 141.469 315.606 142.406 314.62 143.065C313.633 143.724 312.473 144.076 311.287 144.077L311.287 144.076ZM472.127 304.91C471.339 304.911 470.559 304.756 469.831 304.455C469.103 304.153 468.441 303.71 467.885 303.152L451.303 286.57C450.196 285.441 449.58 283.921 449.588 282.341C449.596 280.76 450.228 279.247 451.345 278.129C452.463 277.011 453.977 276.38 455.557 276.372C457.138 276.364 458.658 276.98 459.787 278.086L476.369 294.668C477.208 295.507 477.779 296.576 478.011 297.74C478.242 298.904 478.123 300.11 477.669 301.207C477.215 302.303 476.446 303.24 475.46 303.899C474.473 304.558 473.313 304.91 472.127 304.911L472.127 304.91Z" fill="#E9E9E9"/>
<path d="M382.174 60C352.507 60 323.506 68.7973 298.838 85.2795C274.171 101.762 254.945 125.189 243.592 152.597C232.239 180.006 229.268 210.166 235.056 239.264C240.844 268.361 255.13 295.088 276.108 316.066C297.086 337.044 323.813 351.33 352.91 357.118C382.007 362.906 412.167 359.935 439.576 348.582C466.985 337.229 490.412 318.003 506.894 293.335C523.376 268.668 532.174 239.667 532.174 210C532.159 170.222 516.351 132.077 488.224 103.95C460.097 75.8226 421.952 60.0144 382.174 60ZM382.174 336.72C357.253 336.72 332.893 329.33 312.172 315.485C291.451 301.64 275.302 281.962 265.765 258.938C256.228 235.915 253.733 210.58 258.595 186.139C263.457 161.697 275.457 139.246 293.078 121.625C310.7 104.003 333.151 92.0028 357.592 87.1411C382.034 82.2793 407.368 84.7745 430.392 94.3112C453.415 103.848 473.094 119.998 486.939 140.718C500.784 161.439 508.174 185.8 508.174 210.72C508.176 227.267 504.918 243.653 498.587 258.94C492.255 274.228 482.974 288.119 471.274 299.82C459.573 311.52 445.682 320.802 430.394 327.133C415.106 333.464 398.721 336.722 382.174 336.72Z" fill="#0B4870"/>
<path d="M244.174 210C244.206 171.283 259.212 134.08 286.053 106.177C312.894 78.2747 349.488 61.8363 388.174 60.3032C386.168 60.2234 384.199 60 382.174 60C342.391 60 304.238 75.8035 276.108 103.934C247.977 132.064 232.174 170.218 232.174 210C232.174 249.782 247.977 287.936 276.108 316.066C304.238 344.196 342.391 360 382.174 360C384.199 360 386.168 359.777 388.174 359.697C349.488 358.164 312.894 341.725 286.053 313.823C259.212 285.92 244.206 248.717 244.174 210Z" fill="#0B4870"/>
<path d="M382.104 209.15H382.092C381.303 209.149 380.523 208.992 379.795 208.688C379.068 208.385 378.407 207.941 377.851 207.382C377.295 206.823 376.854 206.16 376.555 205.431C376.255 204.702 376.101 203.921 376.104 203.133L376.244 154.981C376.25 153.393 376.884 151.872 378.009 150.75C379.133 149.629 380.656 148.999 382.244 148.998H382.256C383.045 149 383.825 149.157 384.552 149.46C385.28 149.764 385.941 150.207 386.497 150.766C387.053 151.325 387.493 151.988 387.793 152.717C388.093 153.446 388.246 154.227 388.244 155.016L388.104 203.168C388.098 204.756 387.463 206.277 386.339 207.398C385.214 208.519 383.691 209.149 382.104 209.15Z" fill="#E9E9E9"/>
<path d="M339.694 245.039C338.426 245.039 337.19 244.637 336.164 243.891C335.138 243.145 334.375 242.093 333.984 240.886C333.593 239.679 333.595 238.38 333.99 237.174C334.384 235.968 335.15 234.918 336.178 234.175L375.401 205.822C376.691 204.893 378.297 204.514 379.866 204.767C381.435 205.021 382.84 205.887 383.771 207.176C384.703 208.464 385.085 210.069 384.834 211.639C384.583 213.209 383.719 214.615 382.432 215.549L343.209 243.902C342.186 244.641 340.956 245.039 339.694 245.039Z" fill="#E9E9E9"/>
<path d="M382.174 222C388.801 222 394.174 216.627 394.174 210C394.174 203.372 388.801 198 382.174 198C375.546 198 370.174 203.372 370.174 210C370.174 216.627 375.546 222 382.174 222Z" fill="#E9E9E9"/>
</svg>
