<svg width="54" height="18" viewBox="0 0 54 18" fill="none" xmlns="http://www.w3.org/2000/svg">
<path d="M26.2539 4.04688L29.125 11.6758L31.9893 4.04688H34.2246V14H32.502V10.7188L32.6729 6.33008L29.7334 14H28.4961L25.5635 6.33691L25.7344 10.7188V14H24.0117V4.04688H26.2539ZM40.5342 14C40.4613 13.8587 40.3975 13.6286 40.3428 13.3096C39.8141 13.861 39.167 14.1367 38.4014 14.1367C37.6585 14.1367 37.0524 13.9248 36.583 13.501C36.1136 13.0771 35.8789 12.5531 35.8789 11.9287C35.8789 11.1403 36.1706 10.5365 36.7539 10.1172C37.3418 9.69336 38.1803 9.48145 39.2695 9.48145H40.2881V8.99609C40.2881 8.61328 40.181 8.30794 39.9668 8.08008C39.7526 7.84766 39.4268 7.73145 38.9893 7.73145C38.611 7.73145 38.3011 7.82715 38.0596 8.01855C37.818 8.2054 37.6973 8.44466 37.6973 8.73633H36.0361C36.0361 8.33073 36.1706 7.95247 36.4395 7.60156C36.7083 7.24609 37.0729 6.9681 37.5332 6.76758C37.998 6.56706 38.5153 6.4668 39.085 6.4668C39.9508 6.4668 40.6413 6.68555 41.1562 7.12305C41.6712 7.55599 41.9355 8.16667 41.9492 8.95508V12.291C41.9492 12.9564 42.0426 13.4873 42.2295 13.8838V14H40.5342ZM38.709 12.8037C39.0371 12.8037 39.3447 12.724 39.6318 12.5645C39.9235 12.4049 40.1423 12.1908 40.2881 11.9219V10.5273H39.3926C38.7773 10.5273 38.3148 10.6344 38.0049 10.8486C37.695 11.0628 37.54 11.3659 37.54 11.7578C37.54 12.0768 37.6449 12.332 37.8545 12.5234C38.0687 12.7103 38.3535 12.8037 38.709 12.8037ZM45.4561 14H43.7949V3.5H45.4561V14ZM50.5283 14.1367C49.4756 14.1367 48.6211 13.8063 47.9648 13.1455C47.3132 12.4801 46.9873 11.596 46.9873 10.4932V10.2881C46.9873 9.5498 47.1286 8.89128 47.4111 8.3125C47.6982 7.72917 48.0993 7.27572 48.6143 6.95215C49.1292 6.62858 49.7035 6.4668 50.3369 6.4668C51.3441 6.4668 52.1211 6.78809 52.668 7.43066C53.2194 8.07324 53.4951 8.98242 53.4951 10.1582V10.8281H48.6621C48.7122 11.4388 48.915 11.9219 49.2705 12.2773C49.6305 12.6328 50.0817 12.8105 50.624 12.8105C51.3851 12.8105 52.0049 12.5029 52.4834 11.8877L53.3789 12.7422C53.0827 13.1842 52.6862 13.5283 52.1895 13.7744C51.6973 14.016 51.1436 14.1367 50.5283 14.1367ZM50.3301 7.7998C49.8743 7.7998 49.5052 7.95931 49.2227 8.27832C48.9447 8.59733 48.7669 9.04167 48.6895 9.61133H51.8545V9.48828C51.818 8.93229 51.6699 8.51302 51.4102 8.23047C51.1504 7.94336 50.7904 7.7998 50.3301 7.7998Z" fill="#141B56"/>
<path d="M15 8.25V3H9.75L11.8448 5.09475L8.60325 8.33625C7.84413 7.79247 6.93379 7.50004 6 7.5C3.51825 7.5 1.5 9.51825 1.5 12C1.5 14.4818 3.51825 16.5 6 16.5C8.48175 16.5 10.5 14.4818 10.5 12C10.5 11.0295 10.188 10.1325 9.66375 9.39675L12.9053 6.15525L15 8.25ZM6 15C4.3455 15 3 13.6545 3 12C3 10.3455 4.3455 9 6 9C7.6545 9 9 10.3455 9 12C9 13.6545 7.6545 15 6 15Z" fill="#141B56" fill-opacity="0.5"/>
</svg>
