<svg width="120" height="143" viewBox="0 0 120 143" fill="none" xmlns="http://www.w3.org/2000/svg">
<path d="M0.946826 57.8919C0.946826 57.8919 0.946826 60.349 0.946826 60.9912C0.946826 61.6342 0.693188 62.1879 1.59734 62.2764C2.50149 62.3649 12.0922 62.8523 13.3534 62.9636C14.6146 63.0742 22.42 63.5401 22.9441 63.3846C23.4674 63.2297 24.2766 58.9298 24.2766 58.9298L15.4712 56.8911L1.24029 57.2014L0.946826 57.8919Z" fill="#222222"/>
<path d="M118.492 56.736C118.492 56.736 118.818 59.7059 118.977 60.2376C119.135 60.7692 118.636 61.5227 118.111 61.5227C117.587 61.5227 113.995 62.0771 112.566 62.3426C111.138 62.6088 105.594 63.4951 104.594 63.717C103.595 63.9382 97.8275 64.803 96.4629 64.4484C95.0983 64.0937 95.6223 60.6345 95.6223 60.6345L100.096 58.0882L117.04 56.736H118.492Z" fill="#222222"/>
<path d="M111.967 62.4502C110.117 61.6947 105.194 62.5953 104.998 61.3238C104.761 59.7725 108.361 58.7086 108.361 58.7086L99.6775 58.326L95.6221 60.6341C95.6221 60.6341 95.0988 64.0933 96.4627 64.4479C97.8273 64.8026 103.594 63.9384 104.594 63.7165C105.487 63.52 109.993 62.7932 111.967 62.4502Z" fill="#161515"/>
<path d="M10.3193 20.6287C9.76034 21.4304 6.85644 25.0653 6.19055 25.9958C5.52397 26.9263 3.14411 31.4482 2.52574 36.1022C1.90667 40.7561 0.335938 55.3394 0.335938 56.4476C0.335938 57.5558 0.621716 57.9547 1.38333 57.9547C2.14494 57.9547 8.58369 58.5312 10.1949 58.5755C11.8069 58.6197 22.7056 59.5951 23.2772 59.2848C23.848 58.9744 23.8327 47.2132 23.8327 47.2132C23.8327 47.2132 18.1213 26.7051 18.1213 26.5281C18.1213 26.3511 13.3616 19.7313 13.3616 19.7313L10.3193 20.6287Z" fill="#222222"/>
<path d="M18.1212 26.5282C18.1212 26.4599 17.4148 25.4356 16.5463 24.2025L13.5201 25.8196C13.5201 25.8196 13.9959 36.3267 15.7092 39.5394C17.4225 42.752 18.2791 48.6917 14.6143 50.3765C10.9495 52.0605 14.091 53.036 18.3741 55.784C20.3627 57.0594 21.3032 58.3771 22.1326 59.3421C22.7572 59.3545 23.1772 59.3401 23.2764 59.2861C23.8473 58.9757 23.8319 47.2146 23.8319 47.2146C23.8319 47.2146 18.1212 26.7058 18.1212 26.5282Z" fill="#161515"/>
<path d="M107.666 20.3211C107.982 20.4395 111.567 23.6905 112.852 24.9314C114.137 26.1724 116.898 31.1816 116.898 35.4367C116.898 39.6917 118.23 50.6408 118.516 53.2554C118.802 55.8706 119.325 56.6463 118.635 57.0673C117.945 57.4883 101.984 61.4258 96.4629 60.5988L98.0176 47.4191L102.999 27.0886L106.553 20.3211H107.666Z" fill="#222222"/>
<path d="M106.649 23.6318C106.649 23.6318 104.174 32.9697 103.983 36.1615C103.793 39.3533 105.57 44.14 106.649 46.2678C107.728 48.3957 108.807 49.8728 108.172 52.9462C107.538 56.0195 107.592 57.1277 106.486 57.578C105.38 58.0283 95.7336 60.2154 94.5918 58.9152C93.4494 57.6151 100.16 33.5605 100.16 33.5605L105.443 24.2819L106.649 23.6318Z" fill="#161515"/>
<path d="M107.642 22.8481C107.497 23.9569 105.633 28.3597 104.553 31.4897C103.477 34.6242 98.9711 48.6889 98.5889 49.6344C98.2074 50.5792 96.8107 60.3908 96.8107 62.2857C96.8107 64.176 97.5087 65.5653 97.4843 66.5388C97.4542 67.5123 97.2579 68.3732 97.0021 69.6408C96.7513 70.9136 95.5753 85.4787 95.4796 86.4567C95.4496 86.7795 95.5705 90.0734 95.7256 94.4339C95.7256 94.4339 95.7305 94.4385 95.7256 94.443C95.8814 98.6916 96.077 103.951 96.1979 108.452C96.3335 113.224 96.3887 117.145 96.2433 118.104C95.8115 120.897 97.0021 131.799 97.0021 133.839C97.0021 135.879 97.3843 139.823 97.4794 140.754C97.5751 141.685 96.193 142.13 95.1484 142.219C94.0982 142.308 87.5323 141.905 85.7687 142.172C84.01 142.439 74.6003 142.486 72.3798 142.406C70.1592 142.331 51.5654 142.186 49.2792 142.363C46.9986 142.541 27.1639 142.097 25.1991 142.013C23.2293 141.924 22.627 141.152 22.627 140.473C22.627 139.794 22.7074 138.494 22.7074 138.494C21.9437 138.139 22.3252 132.51 22.3706 130.956C22.4209 129.408 22.4209 123.643 22.4209 122.801C22.4209 122.483 22.4964 120.714 22.6019 118.529C22.7074 116.269 22.8478 113.569 22.9589 111.552V111.548C23.0295 110.383 23.0896 109.452 23.135 108.97C23.17 108.553 23.2307 107.711 23.2957 106.611C23.5619 102.101 23.9993 93.2535 24.0294 91.6859C24.0497 90.4743 24.2858 86.2914 24.4312 83.1094C24.5213 81.1677 24.5772 79.5955 24.5318 79.3007C22.437 70.4952 22.6578 59.28 23.0896 57.2445C23.5165 55.2045 22.1855 51.3913 22.0897 49.4867C21.994 47.5774 20.8034 43.3666 20.7083 42.6137C20.6126 41.8602 20.1857 38.0938 19.422 36.8958C18.6632 35.6979 14.3276 29.3631 14.046 28.6987C13.7595 28.0343 11.2825 24.132 10.7606 22.9808C10.238 21.8252 9.80614 21.2076 10.7606 19.7851C12.9162 17.8388 37.86 8.38256 37.86 8.38256L59.83 7.24054C59.83 7.24054 77.4895 8.17172 81.1068 8.70531C84.7241 9.2389 89.4818 11.5405 91.8176 12.6962C94.1486 13.8473 107.096 19.2561 107.498 19.9205C107.904 20.5881 107.783 21.7393 107.642 22.8481Z" fill="#222222"/>
<path d="M88.8291 63.2822C88.8291 63.2822 89.706 66.0594 92.2445 64.5263C94.7829 62.9939 95.9365 56.7561 97.1942 55.547C98.4519 54.338 96.812 62.2866 96.812 62.2866L96.1993 71.327L96.3355 76.402L96.0141 80.1417L94.1681 78.0691L88.8291 63.2822Z" fill="#141313"/>
<path d="M28.0843 35.0379C28.0843 35.0379 25.673 46.799 24.9114 48.3946C24.1498 49.9902 25.2286 53.152 25.4194 56.8904C25.6095 60.6288 26.3641 67.3072 26.3641 67.3072C26.3641 67.3072 29.4811 55.6645 29.6718 52.5319C29.8612 49.3993 30.4956 32.9107 28.0843 35.0379Z" fill="#161515"/>
<path d="M22.2457 43.0755C22.2457 43.0755 23.1973 38.1704 22.2457 35.2148C21.1361 31.7712 20.7225 31.1367 19.6045 29.482C20.6114 29.7481 24.5941 30.7001 25.0378 34.8485C25.4822 38.9975 23.3378 41.5574 22.2457 43.0755Z" fill="#161515"/>
<path d="M28.8464 54.6302C28.1323 51.616 24.9433 50.0205 24.9433 50.0205C26.0536 52.8277 25.9907 60.6344 25.9907 60.6344C25.9907 60.6344 24.8483 57.6443 23.8331 55.7826C22.8178 53.9209 21.6593 45.6762 21.1549 44.5941C20.6504 43.5119 19.6274 37.2989 19.6274 37.2989C19.6274 37.2989 19.1132 33.5975 18.7324 33.1323C18.3516 32.667 17.4551 30.0739 17.4551 30.0739C17.4551 31.8764 18.8987 35.9395 18.8987 35.9395C18.8987 35.9395 16.7864 32.9468 16.3183 32.246C15.8501 31.5452 11.2546 23.9181 10.6202 22.6785C10.2408 21.9373 10.1653 21.267 10.1639 20.8434C10.1443 20.8701 10.1213 20.9013 10.0996 20.93C9.98224 22.1162 10.5126 22.9303 10.8787 23.5803C10.8787 23.5803 15.0431 31.1821 15.2814 31.5367C15.5196 31.8914 18.1371 35.9252 18.8987 38.6289C19.6603 41.3327 19.422 46.4747 19.5073 47.4501C19.5925 48.4255 21.1835 49.4446 21.6593 52.2817C22.1352 55.1182 22.3413 57.3495 22.1512 58.118C21.9612 58.8865 17.4872 59.0889 17.4872 59.0889C20.4701 59.0251 22.2784 60.0097 22.1198 61.5753C22.0436 62.3282 21.0654 62.9288 20.0697 63.3518C21.354 63.4064 22.4181 63.4344 22.808 63.4038C22.8479 67.2587 23.1658 72.2907 24.0385 76.959C25.7371 74.2234 26.9158 71.286 27.3714 70.0126C28.7989 66.0223 29.5815 57.7341 28.8464 54.6302Z" fill="#161515"/>
<path d="M102.38 45.6034C102.529 45.4531 102.641 45.3314 102.682 45.2631C102.682 45.2631 102.565 45.3932 102.38 45.6034Z" fill="#161515"/>
<path d="M100.239 44.8907C100.239 44.8907 99.4719 47.3387 99.2853 47.9595C99.0988 48.5809 96.5896 59.2105 96.4632 59.4766C96.336 59.7428 95.9077 62.6534 95.5234 64.5269C95.1391 66.4003 93.7186 68.1052 93.6704 70.1888C93.6403 71.511 95.1936 74.438 96.3332 76.4019C96.6197 73.1235 96.8936 70.1823 97.0019 69.6422C97.2555 68.3713 97.4554 67.5143 97.4826 66.5395C97.4973 66.0007 97.2918 65.3305 97.1046 64.5242C97.2506 64.5308 97.4134 64.5314 97.5846 64.5301C97.5839 64.1397 97.6223 63.6926 97.6971 63.2456C97.9263 61.8752 99.1001 60.808 100.579 60.6401C102.954 60.37 104.451 60.1547 104.451 60.1547C104.324 60.1839 101.096 60.3336 99.3503 60.3043C97.6049 60.2744 97.382 59.5039 97.5099 58.7673C97.6049 58.2207 98.8423 57.9695 98.8423 57.9695C97.0019 57.881 98.1757 55.5463 98.1757 55.5463C98.1757 55.5463 99.2713 50.6704 99.5403 49.8284C99.889 48.7352 101.62 46.4615 102.379 45.6032C101.625 46.3613 99.7947 47.9224 99.7947 47.9224L106.204 36.8113L100.239 44.8907Z" fill="#161515"/>
<path d="M60.2509 1.08558C60.2509 1.08558 55.4996 0.68669 54.8337 0.68669C54.1671 0.68669 45.1717 0.464794 44.7434 0.886461C44.3151 1.30748 43.696 0.73159 43.4585 4.01122C43.2202 7.29151 42.6018 11.8127 45.7433 13.0979C48.8848 14.3831 50.9788 15.4027 50.9788 15.4027L59.6892 24.9326C59.6892 24.9326 65.1155 18.4169 65.4005 18.1507C65.6863 17.8846 71.4347 15.0208 72.392 14.3915C73.3492 13.7629 74.3009 11.4574 74.3966 10.97C74.4923 10.4826 74.8725 4.78623 74.8725 4.78623C74.8725 4.78623 73.7063 1.2847 73.635 1.21768C73.5637 1.1513 72.3025 0.508392 72.3025 0.508392L65.0917 0.907284L60.2509 1.08558Z" fill="black"/>
<path d="M43.2741 4.28308C43.2741 4.28308 45.5149 4.95202 51.6888 5.33855C55.9678 5.60665 66.8365 5.15895 68.9969 5.14724C71.091 5.13553 74.4644 4.91233 74.4644 4.91233L74.4267 6.15586C74.4267 6.15586 71.054 6.3797 68.9592 6.39077C66.7987 6.40248 55.9294 6.85018 51.6511 6.58208C45.4771 6.19555 43.2363 5.52661 43.2363 5.52661L43.2741 4.28308Z" fill="#7B7B7B"/>
<path d="M74.4267 6.68582C74.4267 6.68582 71.054 6.896 68.9592 6.90706C66.7987 6.91812 55.9294 7.33849 51.6511 7.08666C45.6036 6.73072 43.3355 6.12229 43.2447 6.09757L43.2363 6.36566C43.2363 6.36566 45.4771 6.99361 51.6511 7.35736C55.9301 7.60919 66.7987 7.18882 68.9592 7.17776C71.0533 7.16735 74.4267 6.95717 74.4267 6.95717L74.4644 5.78912C74.4644 5.78912 74.4568 5.78977 74.4554 5.78977L74.4267 6.68582Z" fill="#7B7B7B"/>
<path d="M43.2741 4.50418C43.2741 4.50418 45.5149 5.17312 51.6888 5.55965C55.9678 5.82775 66.8365 5.38005 68.9969 5.36834C71.091 5.35663 74.4644 5.13343 74.4644 5.13343L74.4267 6.37696C74.4267 6.37696 71.054 6.6008 68.9592 6.61187C66.7987 6.62358 55.9294 7.07128 51.6511 6.80318C45.4771 6.416 43.2363 5.74771 43.2363 5.74771L43.2741 4.50418Z" fill="black"/>
<path d="M43.6962 2.21073C43.6962 2.21073 47.0753 1.66152 47.4086 2.8582C47.7418 4.05488 47.3205 5.19299 47.6741 5.39926C48.0591 5.75391 48.7417 6.1528 48.8207 6.58163C48.8996 7.0098 51.6449 9.32962 52.4065 11.3247C53.1681 13.3192 54.7605 15.5948 58.9857 15.5655C63.2109 15.5362 69.0655 11.4106 69.2081 9.28407C69.3506 7.15816 67.2565 7.20241 66.7807 6.62587C66.8282 6.22698 67.0665 4.83053 67.9469 4.83053C68.8273 4.83053 72.9686 2.96882 72.2545 0.885864L74.0097 2.23806L75.9193 12.4023L71.3958 14.2061L66.7814 17.1955L61.2601 21.83L59.0598 23.4255L51.8839 16.9984L45.8392 12.7212C45.8392 12.7212 41.9361 4.41017 42.1269 4.32167C42.3155 4.23252 43.6962 2.21073 43.6962 2.21073Z" fill="black"/>
<path d="M46.2648 13.3473C46.2648 13.3473 49.6061 12.463 50.367 12.4018C51.1279 12.3406 52.3192 14.5056 53.2786 15.0854C54.2379 15.6645 59.5972 21.4586 60.1925 23.3795C60.7878 25.3004 56.5535 33.9296 56.5535 33.9296C56.5535 33.9296 53.7579 24.4161 52.22 22.0377C50.6814 19.6593 47.3143 15.9548 47.1368 15.5884C46.9593 15.2227 45.6695 14.1249 45.5206 13.7586C45.3718 13.3935 46.2648 13.3473 46.2648 13.3473Z" fill="black"/>
<path d="M46.8365 13.318C46.8365 13.318 50.0416 12.461 50.7711 12.4018C51.5005 12.3426 52.643 14.4405 53.5632 15.0021C54.4834 15.5636 59.6239 21.178 60.1948 23.0398C60.7656 24.9015 56.7046 33.2645 56.7046 33.2645C56.7046 33.2645 54.0236 24.0445 52.5479 21.7396C51.0722 19.4348 47.8427 15.8441 47.6729 15.4894C47.5031 15.1348 46.2657 14.0709 46.1224 13.7162C45.9799 13.3622 46.8365 13.318 46.8365 13.318Z" fill="#222222"/>
<path d="M48.7246 13.4082C48.7246 13.4082 50.549 12.5219 50.7398 12.5661C50.9305 12.6104 53.4291 15.4696 53.9525 16.201C54.4758 16.9325 58.3076 20.693 58.6647 21.5051C59.0217 22.3178 59.8812 23.1176 59.8812 23.1176L57.0702 39.9153C57.0702 39.9153 56.4993 39.627 56.4274 38.9398C56.3561 38.2527 55.8321 34.8396 55.5707 33.2662C55.3087 31.6928 55.6183 28.6565 56.7844 26.3516C57.9506 24.0468 58.4977 23.0492 57.9268 21.9189C57.356 20.7886 55.1899 20.0351 53.4291 18.8384C51.6684 17.6417 48.5388 14.7571 48.3795 14.2157C48.2195 13.6743 48.7246 13.4082 48.7246 13.4082Z" fill="black"/>
<path d="M38.8397 54.6313C38.8397 54.6313 31.9545 74.8427 29.6082 82.2037C28.4693 85.7761 25.2852 98.907 23.2959 106.614C23.5621 102.103 23.9995 93.2555 24.0296 91.6879C24.0498 90.4763 24.286 86.2934 24.4313 83.1114C27.0886 75.2 33.1277 58.8194 38.8397 54.6313Z" fill="#141313"/>
<path d="M46.2595 56.2365C46.0184 56.8918 30.3586 98.9824 29.133 102.768C28.2687 105.416 24.7017 113.716 22.6021 118.531C22.7076 116.271 22.848 113.571 22.9591 111.554V111.55C28.203 97.6113 42.6017 59.8903 46.2595 56.2365Z" fill="#141313"/>
<path d="M36.3096 135.413C36.3096 135.413 37.7301 125.109 42.1334 119.77C42.1334 119.77 41.3795 128.861 36.3096 135.413Z" fill="#141313"/>
<path d="M66.0347 134.979C66.0347 134.979 55.9975 72.9814 58.9852 49.9323C59.4345 46.5043 61.9094 43.727 66.0347 56.2267C70.1599 68.7264 81.183 104.041 90.9114 119.731C90.9114 119.731 73.7772 99.8725 64.0042 72.8044C64.0035 72.8044 64.1907 127.616 66.0347 134.979Z" fill="#141313"/>
<path d="M95.3523 118.53C95.3523 118.53 91.2906 113.347 89.0065 107.555C86.7216 101.763 72.8205 60.2153 70.1248 54.6301C67.4291 49.045 73.7757 52.76 76.187 60.7131C78.599 68.6668 95.3523 118.53 95.3523 118.53Z" fill="#141313"/>
<path d="M96.1977 108.453C94.3189 102.244 83.04 64.9676 83.04 64.5323C83.04 64.1113 92.8774 85.8492 95.7254 94.4349C95.7254 94.4349 95.7303 94.4394 95.7254 94.444C95.8812 98.6925 96.0769 103.952 96.1977 108.453Z" fill="#141313"/>
<path d="M50.3775 14.8062C50.8959 15.185 51.0308 15.8318 50.6779 16.2502C50.325 16.6686 49.6193 16.7005 49.1002 16.3218C48.5817 15.943 48.4469 15.2962 48.7997 14.8778C49.1526 14.4594 49.8583 14.4275 50.3775 14.8062Z" fill="white"/>
<path d="M50.1415 15.0852C50.5279 15.3677 50.6383 15.8375 50.3882 16.1349C50.138 16.4322 49.6217 16.444 49.2346 16.1615C48.8482 15.8791 48.7378 15.4093 48.9879 15.1119C49.2388 14.8152 49.7551 14.8028 50.1415 15.0852Z" fill="#C6C1C1"/>
<path d="M50.1419 15.0852C49.7744 14.8165 49.2923 14.8172 49.0303 15.0735C49.3035 14.9004 49.7185 14.9271 50.0434 15.1646C50.4298 15.447 50.5402 15.9169 50.2901 16.2142C50.2775 16.2286 50.2621 16.2396 50.2488 16.2526C50.3006 16.2195 50.3495 16.1824 50.3893 16.1349C50.6387 15.8381 50.5283 15.3683 50.1419 15.0852Z" fill="#B2B1B1"/>
<path d="M49.4841 15.3449C49.5638 15.4028 49.5861 15.4998 49.5351 15.5609C49.4834 15.6221 49.3772 15.6247 49.2976 15.5661C49.2179 15.5082 49.1955 15.4113 49.2466 15.3501C49.2983 15.2889 49.4052 15.287 49.4841 15.3449Z" fill="black"/>
<path d="M49.9748 15.8063C50.0545 15.8642 50.0769 15.9611 50.0258 16.0223C49.9741 16.0835 49.8679 16.0861 49.7883 16.0275C49.7086 15.9696 49.6863 15.8726 49.7373 15.8115C49.789 15.7503 49.8952 15.7483 49.9748 15.8063Z" fill="black"/>
<path d="M49.9748 15.3147C50.0545 15.3726 50.0769 15.4695 50.0258 15.5307C49.9741 15.5919 49.8679 15.5945 49.7883 15.5359C49.7086 15.478 49.6863 15.381 49.7373 15.3199C49.7883 15.2587 49.8952 15.2561 49.9748 15.3147Z" fill="black"/>
<path d="M49.5235 15.7819C49.6031 15.8398 49.6255 15.9367 49.5745 15.9979C49.5228 16.0591 49.4166 16.0617 49.3369 16.0031C49.2573 15.9452 49.2342 15.8483 49.2859 15.7871C49.3376 15.7266 49.4445 15.724 49.5235 15.7819Z" fill="black"/>
<path d="M57.0337 21.6161C57.5522 21.9948 57.687 22.6416 57.3342 23.0601C56.9813 23.4785 56.2756 23.5104 55.7564 23.1316C55.238 22.7529 55.1031 22.1061 55.456 21.6877C55.8088 21.2693 56.5152 21.2374 57.0337 21.6161Z" fill="white"/>
<path d="M56.7984 21.8954C57.1848 22.1778 57.2952 22.6476 57.0451 22.945C56.7949 23.2424 56.2786 23.2541 55.8915 22.9717C55.5044 22.6892 55.3947 22.2194 55.6448 21.922C55.895 21.6247 56.4113 21.6129 56.7984 21.8954Z" fill="#C6C1C1"/>
<path d="M56.7987 21.8951C56.4312 21.6264 55.9483 21.627 55.687 21.8834C55.9602 21.7103 56.3753 21.737 56.7002 21.9745C57.0866 22.2569 57.197 22.7267 56.9468 23.0241C56.9349 23.0384 56.9189 23.0495 56.9056 23.0625C56.9573 23.03 57.0062 22.9922 57.046 22.9447C57.2955 22.648 57.1851 22.1775 56.7987 21.8951Z" fill="#B2B1B1"/>
<path d="M56.1399 22.154C56.2195 22.2119 56.2426 22.3088 56.1909 22.37C56.1392 22.4312 56.033 22.4338 55.9533 22.3752C55.8737 22.3173 55.8513 22.2204 55.9023 22.1592C55.954 22.098 56.0602 22.0954 56.1399 22.154Z" fill="black"/>
<path d="M56.6309 22.6153C56.7106 22.6733 56.7329 22.7702 56.6819 22.8314C56.6302 22.8926 56.524 22.8952 56.4444 22.8366C56.3647 22.7787 56.3416 22.6817 56.3933 22.6205C56.445 22.5594 56.5513 22.5568 56.6309 22.6153Z" fill="black"/>
<path d="M56.6309 22.123C56.7106 22.1809 56.7329 22.2779 56.6819 22.339C56.6302 22.4002 56.524 22.4028 56.4444 22.3442C56.3647 22.2863 56.3416 22.1894 56.3933 22.1282C56.445 22.0677 56.5513 22.0651 56.6309 22.123Z" fill="black"/>
<path d="M56.1789 22.591C56.2586 22.6489 56.2817 22.7458 56.23 22.807C56.1782 22.8682 56.072 22.8708 55.9924 22.8122C55.9127 22.7543 55.8904 22.6573 55.9414 22.5962C55.9931 22.535 56.0993 22.533 56.1789 22.591Z" fill="black"/>
<path d="M36.5728 9.49108C36.5728 9.49108 35.7323 10.3038 35.8273 11.2493C35.9223 12.1948 35.4549 17.4845 36.1962 17.7507C36.9376 18.0168 42.1256 16.8644 42.6965 16.8865C43.268 16.9087 49.8822 23.6313 55.3378 30.0122C55.3378 30.0122 50.5229 22.2348 45.346 16.8052C44.7437 16.1733 45.4096 16.1258 45.7583 16.362C46.1069 16.5983 50.9624 21.031 50.9624 21.031C50.9624 21.031 48.0305 16.3061 47.8307 15.7133C47.6309 15.1205 47.5708 14.4281 47.902 14.0058C48.2332 13.5841 48.5979 13.5483 48.2178 12.9601C47.8377 12.3718 40.8085 9.15076 40.8085 9.15076L36.5728 9.49108Z" fill="black"/>
<path d="M107.667 20.3212C107.988 21.1469 107.825 22.0527 107.637 22.8922C107.431 23.7479 107.045 24.5398 106.798 25.3688C106.245 27.0177 105.717 28.6758 105.195 30.3345L103.628 35.3105C103.131 36.977 102.574 38.6325 102.027 40.284C100.907 43.5779 99.7649 46.8764 98.8727 50.214C98.2767 53.6251 97.2258 56.9633 96.2832 60.3041L97.4661 55.2337C97.8602 53.5353 98.2627 51.8746 98.4961 50.1385C98.8804 48.4317 99.4219 46.7762 99.934 45.1123C100.448 43.4517 101.004 41.7937 101.559 40.1467C102.715 36.8625 103.69 33.5262 104.839 30.2329C105.406 28.5853 105.97 26.937 106.575 25.2998C106.863 24.4721 107.285 23.6932 107.524 22.8655C107.745 22.043 107.948 21.1567 107.667 20.3212Z" fill="black"/>
<path d="M58.9848 0.522884C55.0132 0.522884 48.1063 0.109026 47.17 0.153275C45.3163 0.241122 43.7672 0.286022 42.4816 2.19198C41.1966 4.09795 38.5072 7.42248 37.8651 7.88775C37.2223 8.35301 36.2944 8.79615 36.3656 10.0377C36.4369 11.2787 36.3579 15.645 36.3614 16.2215C36.3656 16.7974 36.9127 17.5288 38.269 17.1748C39.6252 16.8202 42.7115 16.7167 48.4864 13.1709C48.8036 12.964 47.8834 12.4617 47.4712 12.0777C47.0589 11.6938 44.5205 7.37953 44.2983 5.81325C44.0761 4.24696 44.6476 2.20825 44.8062 1.67596C44.9648 1.14432 46.0437 1.02589 46.3609 1.08511C46.6781 1.14432 54.9818 1.61675 58.9848 1.61675V0.522884Z" fill="#222222"/>
<path d="M22.7075 138.495C23.0059 138.739 23.4104 138.8 23.7822 138.882C24.1637 138.951 24.5494 138.995 24.9372 139.028C25.7113 139.095 26.4897 139.118 27.2674 139.132C28.8235 139.16 30.3816 139.127 31.9398 139.101C35.0568 139.067 38.171 138.982 41.2873 138.892C44.4029 138.802 47.5199 138.734 50.6314 138.616L52.9588 138.513C53.7176 138.459 54.5477 138.434 55.3198 138.432C56.8885 138.423 58.4494 138.454 60.0097 138.501L69.3586 138.797L71.6874 138.847L74.0233 138.845C75.5884 138.85 77.1466 138.911 78.7068 138.953C84.9283 139.155 91.2063 139.361 97.3838 139.765C97.0246 139.935 96.6145 139.941 96.2281 139.995C95.8361 140.031 95.4434 140.055 95.0521 140.065C94.2681 140.092 93.4863 140.08 92.7051 140.056L88.0355 139.935L78.6866 139.777L74.017 139.735L71.6763 139.737L69.3299 139.686L59.981 139.391C58.4249 139.352 56.8682 139.306 55.3191 139.287C54.5323 139.28 53.8029 139.289 53.0056 139.333L50.6593 139.404C47.5374 139.47 44.419 139.518 41.2992 139.529C38.1808 139.535 35.0589 139.536 31.9398 139.486C30.3802 139.456 28.8186 139.417 27.259 139.327C26.4792 139.281 25.7002 139.225 24.9253 139.125C24.5382 139.075 24.1518 139.015 23.771 138.93C23.4 138.832 22.9961 138.752 22.7075 138.495Z" fill="#141313"/>
<path d="M71.323 14.6488C71.323 14.6488 66.1224 16.3713 62.763 20.5151C59.4035 24.6589 57.3199 29.0213 57.533 31.6821C57.7454 34.3429 57.714 39.4361 57.7566 39.85C57.7992 40.2645 57.8202 40.4389 58.1814 40.4935C58.5427 40.5482 63.259 40.4935 63.7978 40.4935C64.3365 40.4935 64.4022 39.9411 64.3267 39.4758C64.2512 39.0105 64.4497 36.9165 64.0815 36.2476C63.7132 35.5786 63.8516 30.054 63.9718 28.7122C64.0926 27.3613 64.3931 19.3607 67.5394 17.8588C68.8153 17.0546 69.5804 16.735 70.516 16.5021C71.4516 16.2691 71.5913 15.2091 71.323 14.6488Z" fill="black"/>
<path d="M71.982 14.0057C71.982 14.0057 66.1602 15.7555 62.4004 19.967C58.6405 24.1778 56.3082 28.6105 56.5465 31.3143C56.7847 34.018 56.7484 39.1932 56.7966 39.6142C56.8441 40.0352 56.8679 40.2129 57.2724 40.2682C57.677 40.3235 62.9559 40.2682 63.5589 40.2682C64.1619 40.2682 64.2352 39.7066 64.1507 39.2342C64.0661 38.7611 64.2883 36.6339 63.8761 35.9539C63.4638 35.2739 63.4003 29.6595 63.5903 28.3001C63.7804 26.9408 64.2248 18.7937 67.747 17.2672C69.1752 16.4498 70.0319 16.1251 71.0786 15.8883C72.1259 15.6527 72.2825 14.5758 71.982 14.0057Z" fill="#222222"/>
<path d="M61.2128 30.7326C61.1583 31.3449 60.6 31.8095 59.9648 31.7698C59.3304 31.7308 58.8595 31.2024 58.914 30.5901C58.9685 29.9777 59.5267 29.5131 60.1619 29.5528C60.797 29.5919 61.2673 30.1202 61.2128 30.7326Z" fill="white"/>
<path d="M60.9118 30.7486C60.8684 31.2392 60.4401 31.6121 59.9559 31.5821C59.4717 31.5522 59.1139 31.1305 59.158 30.6399C59.2013 30.1492 59.6296 29.7764 60.1138 29.8063C60.598 29.8362 60.9551 30.2586 60.9118 30.7486Z" fill="#C6C1C1"/>
<path d="M60.9111 30.7485C60.9523 30.2819 60.6295 29.8817 60.1816 29.8173C60.5485 29.941 60.7972 30.3015 60.7602 30.7134C60.7168 31.204 60.2885 31.5769 59.8043 31.5469C59.7806 31.5456 59.7589 31.5391 59.7358 31.5359C59.8057 31.5593 59.8777 31.5769 59.9552 31.5821C60.4395 31.6127 60.8678 31.2391 60.9111 30.7485Z" fill="#B2B1B1"/>
<path d="M60.2365 30.3009C60.2449 30.3946 60.1764 30.4779 60.0835 30.4863C59.9912 30.4948 59.9095 30.4252 59.9011 30.3315C59.8927 30.2378 59.9612 30.1545 60.0541 30.146C60.147 30.1376 60.2288 30.2072 60.2365 30.3009Z" fill="black"/>
<path d="M60.2809 30.9529C60.2893 31.0473 60.2208 31.1299 60.1279 31.1384C60.0357 31.1468 59.9539 31.0772 59.9455 30.9835C59.9371 30.8898 60.0056 30.8065 60.0985 30.798C60.1915 30.7896 60.2732 30.8592 60.2809 30.9529Z" fill="black"/>
<path d="M60.6305 30.6086C60.6389 30.7029 60.5704 30.7856 60.4775 30.794C60.3853 30.8025 60.3035 30.7328 60.2951 30.6391C60.2867 30.5454 60.3552 30.4621 60.4481 30.4537C60.5411 30.4446 60.6228 30.5142 60.6305 30.6086Z" fill="black"/>
<path d="M59.88 30.6339C59.8884 30.7276 59.8199 30.8109 59.727 30.8193C59.6348 30.8278 59.553 30.7582 59.5446 30.6645C59.5363 30.5701 59.6047 30.4875 59.6977 30.479C59.7906 30.4705 59.8723 30.5402 59.88 30.6339Z" fill="black"/>
<path d="M68.7312 15.8599C68.7312 15.8599 71.0474 18.0762 71.5554 18.1355C72.0634 18.1947 69.0805 21.1496 68.4775 21.5042C68.4775 21.5042 71.4604 19.1701 72.3806 18.4159C73.3008 17.6624 73.7131 17.7216 74.4111 17.9578C75.1091 18.194 81.6136 19.4942 82.153 19.2872C82.6924 19.0803 82.153 17.8986 82.153 17.8986L73.5768 12.8848L71.8084 13.436L70.1251 14.943L68.7312 15.8599Z" fill="black"/>
<path d="M58.9849 0.523436C59.9421 0.523436 69.4609 0.221502 70.2546 0.150573C71.0484 0.0796447 73.1739 -0.304281 73.7769 0.523436C74.3799 1.3505 76.6913 5.76825 80.1548 7.52715C81.1701 8.00022 82.3125 9.24115 82.3761 10.4528C82.4397 11.6644 82.5661 17.3381 82.6297 17.9881C82.6933 18.6382 81.7731 18.6089 81.3287 18.5198C80.8843 18.4313 75.5537 17.899 71.4285 13.437C71.2384 12.9346 71.8093 12.2846 72.1579 11.723C72.5073 11.1614 74.7914 6.99486 74.0298 4.12843C73.2682 1.262 72.7288 1.04011 71.8009 0.951611C70.873 0.863113 63.041 1.61665 58.9849 1.61665V0.523436Z" fill="#222222"/>
<path d="M102.683 30.9677C102.683 30.9677 97.5104 32.5555 93.6709 32.0238C93.6709 32.0238 97.4475 34.861 97.0667 38.4068C96.6859 41.9525 94.3934 49.754 94.4612 52.3543C94.5282 54.9546 93.9574 56.4324 94.6554 57.2009C95.3534 57.9694 102.683 30.9677 102.683 30.9677Z" fill="#161515"/>
<path d="M23.2944 110.656C24.1336 105.892 25.1006 101.146 26.1725 96.4218C27.2241 91.693 28.4287 86.9948 29.671 82.3057C30.9154 77.6166 32.3366 72.9698 33.8116 68.3393C35.3223 63.7178 37.002 59.1452 38.8383 54.6312C38.0368 56.9276 37.1942 59.209 36.457 61.5223C35.664 63.8187 34.945 66.1366 34.2204 68.4525C32.7824 73.0869 31.4304 77.7441 30.1615 82.4209C28.8738 87.0943 27.702 91.7938 26.5407 96.4966C25.9671 98.8496 25.4172 101.207 24.8729 103.567C24.3209 105.924 23.7919 108.287 23.2944 110.656Z" fill="#222222"/>
<path d="M94.461 117.32C92.8575 112.625 91.2644 107.928 89.7118 103.219C88.1355 98.5169 86.6276 93.7959 85.0821 89.0847L80.5522 74.9231L78.3429 67.8263L76.188 60.7139L78.6014 67.7528L80.9603 74.8072L85.5663 88.9487C87.0664 93.6723 88.6043 98.3855 90.0731 103.118C91.5669 107.844 93.0196 112.58 94.461 117.32Z" fill="#222222"/>
<path d="M94.4992 78.4417C94.0918 78.0701 93.885 77.558 93.6467 77.0882C93.4175 76.6079 93.2044 76.1219 92.9976 75.6338C92.586 74.6564 92.2129 73.6673 91.8349 72.6795C91.0726 70.7059 90.4081 68.703 89.7073 66.7118C89.019 64.7167 88.3839 62.7059 87.7383 60.6991C87.1199 58.6838 86.5071 56.6679 85.9614 54.6324C86.7328 56.6035 87.4357 58.594 88.1463 60.582C88.8269 62.5784 89.5284 64.569 90.1901 66.5706L92.1934 72.5696C92.5253 73.5697 92.869 74.566 93.2198 75.5603C93.3924 76.0581 93.5712 76.5539 93.7655 77.0439C93.8619 77.2899 93.9653 77.532 94.0771 77.7714C94.1924 78.0057 94.3021 78.2517 94.4992 78.4417Z" fill="#222222"/>
<path d="M22.7075 119.77C23.7982 116.345 24.9399 112.934 26.1327 109.539C27.303 106.137 28.5607 102.762 29.7919 99.3793C31.0363 96.0007 32.336 92.6398 33.637 89.2801L35.643 84.2585L37.7203 79.2616C36.5178 82.6538 35.2804 86.0343 34.0394 89.4135L30.2698 99.5342L22.7075 119.77Z" fill="#222222"/>
<path fill-rule="evenodd" clip-rule="evenodd" d="M86.6056 42.2523C86.5716 43.9759 86.4129 45.3512 85.5796 46.0982C84.7463 46.8452 83.3122 47.022 81.45 47.0537C79.5992 47.022 78.1226 46.8742 77.3205 46.0982C76.5183 45.3221 76.3284 43.9865 76.2944 42.2523C76.3284 40.5286 76.4872 39.1534 77.3205 38.4064C78.1537 37.6594 79.5879 37.4826 81.45 37.4509C83.3008 37.4826 84.7775 37.6304 85.5796 38.4064C86.3817 39.1825 86.5716 40.5286 86.6056 42.2523Z" fill="#CF2228"/>
<path d="M80.0325 42.0225V43.1443C80.0321 43.1821 80.0405 43.2194 80.057 43.2539C80.0735 43.2884 80.0977 43.3192 80.1281 43.3442C80.1584 43.3692 80.1942 43.3879 80.233 43.399C80.2717 43.41 80.3126 43.4132 80.3528 43.4083C80.4224 43.4011 80.4867 43.3701 80.5333 43.3214C80.5799 43.2727 80.6054 43.2096 80.605 43.1443V41.5606C80.605 41.4527 80.559 41.3494 80.4772 41.2731C80.3953 41.1969 80.2843 41.1541 80.1685 41.1541C80.0806 41.1549 79.9951 41.1806 79.9232 41.2277C79.8513 41.2748 79.7965 41.3412 79.7661 41.418L79.2616 42.6006C79.2589 42.6017 79.256 42.6023 79.2531 42.6023C79.2501 42.6023 79.2472 42.6017 79.2446 42.6006C79.2415 42.6022 79.2381 42.603 79.2346 42.603C79.2312 42.603 79.2277 42.6022 79.2247 42.6006L78.7202 41.418C78.6898 41.3412 78.635 41.2748 78.5631 41.2277C78.4912 41.1806 78.4056 41.1549 78.3177 41.1541C78.2039 41.1533 78.0943 41.194 78.0122 41.2675C77.9301 41.341 77.8821 41.4414 77.8784 41.5474V43.1311C77.878 43.1964 77.9035 43.2595 77.9501 43.3082C77.9967 43.3569 78.061 43.3879 78.1307 43.3951C78.1709 43.4 78.2117 43.3968 78.2505 43.3858C78.2892 43.3747 78.325 43.356 78.3554 43.331C78.3857 43.306 78.41 43.2752 78.4265 43.2407C78.4429 43.2062 78.4513 43.1689 78.451 43.1311V41.9961L78.981 43.2446C79.0057 43.2911 79.0436 43.3304 79.0905 43.3583C79.1375 43.3862 79.1917 43.4017 79.2474 43.403C79.3088 43.4062 79.3697 43.3906 79.4209 43.3587C79.472 43.3268 79.5106 43.2803 79.5308 43.2261L80.0325 42.0225Z" fill="white"/>
<path d="M84.9134 41.5157C84.8403 41.4024 84.7342 41.3109 84.6073 41.2517C84.4608 41.1825 84.2982 41.148 84.134 41.1514H83.4935C83.3957 41.1514 83.302 41.1876 83.2329 41.2519C83.1638 41.3163 83.125 41.4035 83.125 41.4946V43.1469C83.125 43.2169 83.1549 43.2841 83.208 43.3336C83.2612 43.3831 83.3333 43.4109 83.4084 43.4109C83.4836 43.4109 83.5557 43.3831 83.6088 43.3336C83.662 43.2841 83.6919 43.2169 83.6919 43.1469V42.7061H84.1142C84.2815 42.7101 84.4475 42.6776 84.5988 42.6111C84.7286 42.5529 84.8378 42.4613 84.9134 42.3471C84.9871 42.2219 85.0242 42.0808 85.0211 41.938C85.0273 41.7907 84.9901 41.6447 84.9134 41.5157ZM84.3664 42.1096C84.335 42.1627 84.2864 42.2052 84.2275 42.231C84.1586 42.2615 84.0827 42.276 84.0065 42.2732H83.7174V41.5843H84.0008C84.0771 41.5816 84.1529 41.5961 84.2219 41.6265C84.2814 41.6502 84.3304 41.6921 84.3608 41.7453C84.393 41.8012 84.4087 41.8641 84.4061 41.9274C84.4096 41.9903 84.396 42.053 84.3664 42.1096Z" fill="white"/>
<path d="M82.5216 42.989H81.8527L82.0766 42.8068C82.2254 42.691 82.3656 42.5657 82.4961 42.432C82.5809 42.3475 82.6499 42.2502 82.7001 42.1443C82.7369 42.0605 82.7561 41.9709 82.7568 41.8803C82.7605 41.7484 82.721 41.6186 82.6434 41.5082C82.561 41.398 82.4457 41.3127 82.3118 41.2627C82.1565 41.1993 81.9881 41.1687 81.8187 41.1729C81.6523 41.1692 81.4873 41.2018 81.3368 41.268C81.2058 41.3255 81.0955 41.4172 81.0194 41.5319C81.0067 41.5492 80.9962 41.5678 80.9882 41.5874C80.9867 41.5916 80.9867 41.5963 80.9882 41.6006C80.9882 41.6006 80.9882 41.6164 80.9882 41.6243C80.9882 41.6243 80.9882 41.6401 80.9882 41.6481V41.6797C80.9882 41.7546 81.0202 41.8265 81.077 41.8795C81.1339 41.9324 81.211 41.9622 81.2915 41.9622C81.3532 41.9629 81.4136 41.9458 81.4644 41.9132C81.5151 41.8805 81.5538 41.834 81.5749 41.78V41.7642C81.5995 41.7226 81.6358 41.6879 81.6798 41.6639C81.7286 41.6399 81.7833 41.6281 81.8385 41.6296C81.8928 41.6281 81.9466 41.6399 81.9944 41.6639C82.0398 41.6847 82.0774 41.7178 82.1021 41.7589C82.1294 41.8059 82.1431 41.8586 82.1418 41.912C82.1423 41.9622 82.1307 42.0118 82.1078 42.0572C82.0822 42.1043 82.0498 42.1478 82.0114 42.1865C81.9689 42.2261 81.9179 42.271 81.8583 42.3185L81.0647 42.9626C81.0313 42.9895 81.0045 43.0227 80.9859 43.06C80.9673 43.0973 80.9575 43.1379 80.957 43.179V43.2107C80.957 43.2863 80.9893 43.3588 81.0467 43.4123C81.1041 43.4657 81.182 43.4958 81.2631 43.4958H82.5216C82.5638 43.5072 82.6083 43.5094 82.6516 43.5021C82.6949 43.4947 82.7358 43.4781 82.771 43.4535C82.8062 43.429 82.8348 43.3971 82.8544 43.3604C82.8741 43.3238 82.8844 43.2834 82.8844 43.2424C82.8844 43.2014 82.8741 43.161 82.8544 43.1243C82.8348 43.0877 82.8062 43.0558 82.771 43.0312C82.7358 43.0066 82.6949 42.99 82.6516 42.9827C82.6083 42.9753 82.5638 42.9775 82.5216 42.989Z" fill="white"/>
</svg>
