<svg width="90" height="123" viewBox="0 0 90 123" fill="none" xmlns="http://www.w3.org/2000/svg">
<path d="M82.9734 123H0.569588C0.254964 123 0 122.754 0 122.45V0.550096C0 0.246239 0.254964 0 0.569588 0H82.9734C86.8541 0 90 3.03828 90 6.78619V116.214C90 119.962 86.8541 123 82.9734 123Z" fill="#222222"/>
<mask id="mask0_1615_808" style="mask-type:alpha" maskUnits="userSpaceOnUse" x="67" y="1" width="6" height="123">
<path d="M72.8454 1.3927H67.6543V123H72.8454V1.3927Z" fill="url(#paint0_linear_1615_808)"/>
</mask>
<g mask="url(#mask0_1615_808)">
<mask id="mask1_1615_808" style="mask-type:alpha" maskUnits="userSpaceOnUse" x="62" y="0" width="7" height="146">
<path d="M62.3286 0.392822H68.489V145.895H62.3286V0.392822Z" fill="url(#paint1_linear_1615_808)"/>
</mask>
<g mask="url(#mask1_1615_808)">
<path opacity="0.7" d="M62.3291 0.392944H68.4895V145.895H62.3291V0.392944Z" fill="url(#paint2_linear_1615_808)"/>
</g>
</g>
<path opacity="0.7" d="M73.4513 0H68.2437V123H73.4513V0Z" fill="url(#paint3_linear_1615_808)"/>
<circle cx="70.9511" cy="105.321" r="4.33193" fill="#CCCCCC"/>
<circle cx="70.9511" cy="105.321" r="3.79044" fill="#959595"/>
<path d="M69.6695 104.973V105.922C69.6692 105.954 69.6758 105.985 69.6888 106.014C69.7018 106.044 69.7209 106.07 69.7448 106.091C69.7687 106.112 69.7969 106.128 69.8274 106.137C69.8579 106.146 69.8901 106.149 69.9218 106.145C69.9766 106.139 70.0273 106.113 70.064 106.071C70.1007 106.03 70.1208 105.977 70.1205 105.922V104.582C70.1205 104.491 70.0842 104.403 70.0198 104.339C69.9553 104.275 69.8678 104.238 69.7766 104.238C69.7074 104.239 69.64 104.261 69.5834 104.301C69.5268 104.34 69.4836 104.397 69.4596 104.462L69.0622 105.462C69.0601 105.463 69.0578 105.463 69.0555 105.463C69.0532 105.463 69.0509 105.463 69.0488 105.462C69.0464 105.463 69.0437 105.464 69.041 105.464C69.0382 105.464 69.0355 105.463 69.0332 105.462L68.6358 104.462C68.6118 104.397 68.5686 104.34 68.512 104.301C68.4554 104.261 68.388 104.239 68.3187 104.238C68.229 104.238 68.1427 104.272 68.078 104.334C68.0134 104.396 67.9756 104.481 67.9727 104.571V105.911C67.9723 105.966 67.9924 106.019 68.0291 106.06C68.0658 106.102 68.1165 106.128 68.1714 106.134C68.203 106.138 68.2352 106.135 68.2657 106.126C68.2963 106.117 68.3244 106.101 68.3484 106.08C68.3723 106.058 68.3914 106.032 68.4044 106.003C68.4173 105.974 68.4239 105.942 68.4237 105.911V104.951L68.8412 106.007C68.8606 106.046 68.8905 106.079 68.9275 106.103C68.9644 106.126 69.0072 106.139 69.051 106.141C69.0994 106.143 69.1474 106.13 69.1877 106.103C69.228 106.076 69.2584 106.037 69.2743 105.991L69.6695 104.973Z" fill="#CCCCCC"/>
<path d="M73.5143 104.545C73.4567 104.449 73.3731 104.372 73.2731 104.322C73.1577 104.263 73.0297 104.234 72.9003 104.237H72.3957C72.3187 104.237 72.2449 104.268 72.1905 104.322C72.136 104.376 72.1055 104.45 72.1055 104.527V105.925C72.1055 105.984 72.129 106.041 72.1709 106.083C72.2127 106.125 72.2695 106.148 72.3287 106.148C72.3879 106.148 72.4447 106.125 72.4866 106.083C72.5285 106.041 72.552 105.984 72.552 105.925V105.552H72.8847C73.0165 105.555 73.1472 105.528 73.2664 105.472C73.3687 105.422 73.4547 105.345 73.5143 105.248C73.5723 105.142 73.6015 105.023 73.5991 104.902C73.604 104.778 73.5746 104.654 73.5143 104.545ZM73.0834 105.047C73.0586 105.092 73.0203 105.128 72.974 105.15C72.9196 105.176 72.8599 105.188 72.7998 105.186H72.5721V104.603H72.7954C72.8554 104.601 72.9152 104.613 72.9695 104.639C73.0164 104.659 73.055 104.694 73.0789 104.739C73.1043 104.787 73.1166 104.84 73.1146 104.893C73.1174 104.947 73.1066 105 73.0834 105.047Z" fill="#CCCCCC"/>
<path d="M71.6299 105.791H71.103L71.2794 105.637C71.3966 105.539 71.507 105.433 71.6098 105.32C71.6766 105.249 71.731 105.166 71.7705 105.077C71.7995 105.006 71.8146 104.93 71.8152 104.854C71.8181 104.742 71.7869 104.632 71.7259 104.539C71.6609 104.446 71.5701 104.373 71.4647 104.331C71.3423 104.278 71.2097 104.252 71.0762 104.255C70.9451 104.252 70.8152 104.28 70.6966 104.336C70.5934 104.384 70.5066 104.462 70.4466 104.559C70.4366 104.573 70.4283 104.589 70.422 104.606C70.4208 104.609 70.4208 104.613 70.422 104.617C70.422 104.617 70.422 104.63 70.422 104.637C70.422 104.637 70.422 104.65 70.422 104.657V104.684C70.422 104.747 70.4472 104.808 70.492 104.853C70.5368 104.898 70.5976 104.923 70.6609 104.923C70.7095 104.923 70.7571 104.909 70.7971 104.881C70.8371 104.854 70.8675 104.814 70.8842 104.769V104.755C70.9036 104.72 70.9321 104.691 70.9668 104.67C71.0053 104.65 71.0483 104.64 71.0918 104.641C71.1346 104.64 71.1769 104.65 71.2146 104.67C71.2504 104.688 71.28 104.716 71.2995 104.751C71.321 104.791 71.3318 104.835 71.3307 104.88C71.3312 104.923 71.322 104.965 71.3039 105.003C71.2838 105.043 71.2582 105.08 71.228 105.113C71.1945 105.146 71.1543 105.184 71.1074 105.224L70.4823 105.769C70.456 105.792 70.4348 105.82 70.4202 105.851C70.4056 105.883 70.3978 105.917 70.3975 105.952V105.979C70.3975 106.043 70.4229 106.104 70.4681 106.149C70.5133 106.195 70.5746 106.22 70.6386 106.22H71.6299C71.6632 106.23 71.6982 106.231 71.7323 106.225C71.7664 106.219 71.7986 106.205 71.8264 106.184C71.8541 106.163 71.8766 106.136 71.8921 106.105C71.9076 106.074 71.9157 106.04 71.9157 106.006C71.9157 105.971 71.9076 105.937 71.8921 105.906C71.8766 105.875 71.8541 105.848 71.8264 105.827C71.7986 105.806 71.7664 105.792 71.7323 105.786C71.6982 105.78 71.6632 105.782 71.6299 105.791Z" fill="#CCCCCC"/>
<mask id="mask2_1615_808" style="mask-type:alpha" maskUnits="userSpaceOnUse" x="66" y="100" width="10" height="10">
<circle cx="70.9511" cy="105.32" r="4.33193" fill="#CCCCCC"/>
</mask>
<g mask="url(#mask2_1615_808)">
<rect x="74.0142" y="101.858" width="0.848333" height="9.20535" transform="rotate(45.2221 74.0142 101.858)" fill="white" fill-opacity="0.24"/>
<rect width="0.420636" height="9.20535" transform="matrix(0.704348 0.709855 -0.70983 0.704373 73.1362 100.973)" fill="white" fill-opacity="0.24"/>
</g>
<path fill-rule="evenodd" clip-rule="evenodd" d="M17.2956 11.8497C17.2639 13.5744 17.116 14.9504 16.3395 15.6979C15.563 16.4453 14.2265 16.6223 12.4913 16.654C10.7666 16.6223 9.39056 16.4744 8.64311 15.6979C7.89566 14.9214 7.71871 13.5849 7.68701 11.8497C7.71871 10.125 7.86661 8.74896 8.64311 8.00151C9.41961 7.25406 10.756 7.0771 12.4913 7.04541C14.216 7.0771 15.592 7.22501 16.3395 8.00151C17.0869 8.77801 17.2639 10.125 17.2956 11.8497Z" fill="#CF2228"/>
<path d="M11.1704 11.6196V12.7421C11.1701 12.7798 11.1778 12.8172 11.1932 12.8517C11.2086 12.8862 11.2312 12.9171 11.2594 12.9421C11.2877 12.9671 11.3211 12.9858 11.3572 12.9969C11.3933 13.0079 11.4314 13.0111 11.4688 13.0062C11.5337 12.999 11.5937 12.968 11.6371 12.9193C11.6805 12.8705 11.7043 12.8074 11.7039 12.7421V11.1574C11.7039 11.0495 11.661 10.946 11.5848 10.8698C11.5085 10.7935 11.405 10.7506 11.2971 10.7506C11.2152 10.7514 11.1355 10.7771 11.0685 10.8243C11.0015 10.8715 10.9505 10.9379 10.9221 11.0147L10.452 12.198C10.4495 12.1992 10.4468 12.1998 10.4441 12.1998C10.4413 12.1998 10.4386 12.1992 10.4361 12.198C10.4333 12.1996 10.4301 12.2005 10.4269 12.2005C10.4236 12.2005 10.4205 12.1996 10.4176 12.198L9.94751 11.0147C9.91914 10.9379 9.86808 10.8715 9.8011 10.8243C9.73412 10.7771 9.65439 10.7514 9.57247 10.7506C9.46639 10.7499 9.36422 10.7906 9.28774 10.8641C9.21126 10.9376 9.16653 11.0381 9.16309 11.1442V12.7289C9.16269 12.7941 9.1865 12.8573 9.22991 12.906C9.27332 12.9548 9.33326 12.9858 9.39815 12.993C9.43561 12.9979 9.47368 12.9947 9.5098 12.9836C9.54592 12.9726 9.57925 12.9539 9.60753 12.9289C9.63582 12.9039 9.65841 12.873 9.67377 12.8385C9.68914 12.804 9.69693 12.7666 9.6966 12.7289V11.5932L10.1905 12.8424C10.2136 12.8889 10.2489 12.9283 10.2926 12.9562C10.3363 12.9841 10.3869 12.9996 10.4388 13.0009C10.496 13.0041 10.5528 12.9885 10.6004 12.9566C10.6481 12.9247 10.684 12.8781 10.7029 12.8239L11.1704 11.6196Z" fill="white"/>
<path d="M15.7188 11.1132C15.6507 10.9999 15.5518 10.9083 15.4336 10.8491C15.2971 10.7799 15.1455 10.7454 14.9925 10.7488H14.3956C14.3045 10.7488 14.2172 10.7849 14.1528 10.8493C14.0884 10.9137 14.0522 11.001 14.0522 11.0921V12.7455C14.0522 12.8155 14.0801 12.8827 14.1296 12.9322C14.1791 12.9818 14.2463 13.0096 14.3164 13.0096C14.3864 13.0096 14.4536 12.9818 14.5031 12.9322C14.5527 12.8827 14.5805 12.8155 14.5805 12.7455V12.3044H14.974C15.1299 12.3084 15.2846 12.2759 15.4256 12.2093C15.5466 12.1511 15.6483 12.0594 15.7188 11.9452C15.7874 11.8198 15.822 11.6787 15.8192 11.5358C15.8249 11.3884 15.7902 11.2423 15.7188 11.1132ZM15.2091 11.7075C15.1798 11.7606 15.1345 11.8031 15.0797 11.829C15.0154 11.8595 14.9447 11.874 14.8736 11.8713H14.6042V11.1819H14.8684C14.9394 11.1792 15.0101 11.1937 15.0744 11.2242C15.1298 11.2479 15.1755 11.2898 15.2038 11.343C15.2338 11.3989 15.2484 11.4618 15.246 11.5253C15.2493 11.5882 15.2366 11.6509 15.2091 11.7075Z" fill="white"/>
<path d="M13.4897 12.587H12.8663L13.075 12.4048C13.2137 12.2889 13.3443 12.1635 13.4659 12.0298C13.545 11.9451 13.6093 11.8478 13.6561 11.7419C13.6903 11.658 13.7082 11.5684 13.7089 11.4778C13.7123 11.3458 13.6755 11.2159 13.6032 11.1054C13.5264 10.9951 13.419 10.9097 13.2942 10.8597C13.1495 10.7963 12.9926 10.7656 12.8347 10.7699C12.6796 10.7662 12.5259 10.7988 12.3857 10.865C12.2636 10.9226 12.1608 11.0143 12.0898 11.1291C12.078 11.1464 12.0682 11.165 12.0608 11.1846C12.0594 11.1889 12.0594 11.1935 12.0608 11.1978C12.0608 11.1978 12.0608 11.2136 12.0608 11.2216C12.0608 11.2216 12.0608 11.2374 12.0608 11.2453V11.277C12.0608 11.352 12.0906 11.4239 12.1436 11.4769C12.1966 11.5299 12.2684 11.5596 12.3434 11.5596C12.4009 11.5604 12.4572 11.5432 12.5045 11.5106C12.5518 11.4779 12.5878 11.4314 12.6075 11.3774V11.3615C12.6305 11.3199 12.6642 11.2852 12.7052 11.2612C12.7508 11.2372 12.8017 11.2254 12.8531 11.2268C12.9037 11.2253 12.9538 11.2372 12.9984 11.2612C13.0407 11.282 13.0757 11.3151 13.0988 11.3563C13.1242 11.4032 13.137 11.456 13.1357 11.5095C13.1363 11.5596 13.1254 11.6093 13.1041 11.6547C13.0802 11.7018 13.05 11.7454 13.0143 11.7841C12.9746 11.8238 12.9271 11.8687 12.8716 11.9162L12.1321 12.5606C12.101 12.5876 12.076 12.6208 12.0587 12.6581C12.0413 12.6955 12.0322 12.7361 12.0317 12.7772V12.8089C12.0317 12.8846 12.0618 12.9571 12.1153 13.0106C12.1688 13.0641 12.2413 13.0941 12.317 13.0941H13.4897C13.529 13.1056 13.5705 13.1078 13.6109 13.1005C13.6512 13.0931 13.6893 13.0765 13.7221 13.0519C13.7549 13.0273 13.7815 12.9954 13.7998 12.9587C13.8182 12.922 13.8277 12.8816 13.8277 12.8406C13.8277 12.7996 13.8182 12.7592 13.7998 12.7225C13.7815 12.6858 13.7549 12.6539 13.7221 12.6293C13.6893 12.6047 13.6512 12.5881 13.6109 12.5807C13.5705 12.5734 13.529 12.5756 13.4897 12.587Z" fill="white"/>
<defs>
<linearGradient id="paint0_linear_1615_808" x1="67.6543" y1="62.1965" x2="72.8453" y2="62.1965" gradientUnits="userSpaceOnUse">
<stop stop-color="#CCCCCC"/>
<stop offset="1"/>
</linearGradient>
<linearGradient id="paint1_linear_1615_808" x1="68.489" y1="73.1441" x2="62.3286" y2="73.1441" gradientUnits="userSpaceOnUse">
<stop stop-color="#CCCCCC"/>
<stop offset="1"/>
</linearGradient>
<linearGradient id="paint2_linear_1615_808" x1="68.4895" y1="73.1442" x2="62.329" y2="73.1442" gradientUnits="userSpaceOnUse">
<stop stop-color="#0F0F0F"/>
<stop offset="1" stop-color="white"/>
</linearGradient>
<linearGradient id="paint3_linear_1615_808" x1="68.2437" y1="61.5001" x2="73.4513" y2="61.5001" gradientUnits="userSpaceOnUse">
<stop stop-color="#ED4040"/>
<stop offset="1" stop-color="#CF2228"/>
</linearGradient>
</defs>
</svg>
