<svg width="14" height="16" viewBox="0 0 14 16" fill="none" xmlns="http://www.w3.org/2000/svg">
<path d="M1 3.91748H2.33333H13" stroke="#EB5757" stroke-width="1.5" stroke-linecap="round" stroke-linejoin="round"/>
<path d="M4.33397 3.91799V2.5796C4.33397 2.22464 4.47444 1.88421 4.72449 1.63322C4.97453 1.38222 5.31367 1.24121 5.66729 1.24121H8.33393C8.68755 1.24121 9.02669 1.38222 9.27673 1.63322C9.52678 1.88421 9.66725 2.22464 9.66725 2.5796V3.91799M11.6672 3.91799V13.2867C11.6672 13.6417 11.5268 13.9821 11.2767 14.2331C11.0267 14.4841 10.6875 14.6251 10.3339 14.6251H3.66731C3.31369 14.6251 2.97455 14.4841 2.72451 14.2331C2.47446 13.9821 2.33398 13.6417 2.33398 13.2867V3.91799H11.6672Z" stroke="#EB5757" stroke-width="1.5" stroke-linecap="round" stroke-linejoin="round"/>
<path d="M5.66602 7.26367V11.2788" stroke="#EB5757" stroke-width="1.5" stroke-linecap="round" stroke-linejoin="round"/>
<path d="M8.33398 7.26367V11.2788" stroke="#EB5757" stroke-width="1.5" stroke-linecap="round" stroke-linejoin="round"/>
</svg>
