<svg width="224" height="4" viewBox="0 0 224 4" fill="none" xmlns="http://www.w3.org/2000/svg">
<path d="M2 0.5C1.17157 0.5 0.5 1.17157 0.5 2C0.5 2.82843 1.17157 3.5 2 3.5L2 0.5ZM222 3.50002C222.828 3.50002 223.5 2.82845 223.5 2.00002C223.5 1.17159 222.828 0.500019 222 0.500019L222 3.50002ZM2.24943 3.5L3.74943 3.5L3.74943 0.5L2.24943 0.5L2.24943 3.5ZM12.2268 0.500001L10.7268 0.500001L10.7268 3.5L12.2268 3.5L12.2268 0.500001ZM12.7256 3.5L14.2256 3.5L14.2256 0.500001L12.7256 0.500001L12.7256 3.5ZM22.7029 0.500002L21.2029 0.500002L21.2029 3.5L22.7029 3.5L22.7029 0.500002ZM23.2018 3.5L24.7018 3.5L24.7018 0.500002L23.2018 0.500002L23.2018 3.5ZM33.1791 0.500003L31.6791 0.500003L31.6791 3.5L33.1791 3.5L33.1791 0.500003ZM33.678 3.5L35.178 3.5L35.178 0.500003L33.678 0.500003L33.678 3.5ZM43.6553 0.500004L42.1553 0.500004L42.1553 3.5L43.6553 3.5L43.6553 0.500004ZM44.1542 3.5L45.6542 3.5L45.6542 0.500004L44.1542 0.500004L44.1542 3.5ZM54.1315 0.500005L52.6315 0.500004L52.6315 3.5L54.1315 3.5L54.1315 0.500005ZM54.6304 3.5L56.1304 3.5L56.1304 0.500005L54.6304 0.500005L54.6304 3.5ZM64.6077 0.500005L63.1077 0.500005L63.1077 3.50001L64.6077 3.50001L64.6077 0.500005ZM65.1066 3.50001L66.6066 3.50001L66.6066 0.500006L65.1066 0.500006L65.1066 3.50001ZM75.0839 0.500006L73.5839 0.500006L73.5839 3.50001L75.0839 3.50001L75.0839 0.500006ZM75.5828 3.50001L77.0828 3.50001L77.0828 0.500007L75.5828 0.500006L75.5828 3.50001ZM85.5601 0.500007L84.0601 0.500007L84.0601 3.50001L85.5601 3.50001L85.5601 0.500007ZM86.059 3.50001L87.559 3.50001L87.559 0.500007L86.059 0.500007L86.059 3.50001ZM96.0363 0.500008L94.5363 0.500008L94.5363 3.50001L96.0363 3.50001L96.0363 0.500008ZM96.5351 3.50001L98.0351 3.50001L98.0351 0.500008L96.5351 0.500008L96.5351 3.50001ZM106.512 0.500009L105.012 0.500009L105.012 3.50001L106.512 3.50001L106.512 0.500009ZM107.011 3.50001L108.511 3.50001L108.511 0.500009L107.011 0.500009L107.011 3.50001ZM116.989 0.50001L115.489 0.50001L115.489 3.50001L116.989 3.50001L116.989 0.50001ZM117.488 3.50001L118.988 3.50001L118.988 0.50001L117.488 0.50001L117.488 3.50001ZM127.465 0.500011L125.965 0.500011L125.965 3.50001L127.465 3.50001L127.465 0.500011ZM127.964 3.50001L129.464 3.50001L129.464 0.500011L127.964 0.500011L127.964 3.50001ZM137.941 0.500012L136.441 0.500012L136.441 3.50001L137.941 3.50001L137.941 0.500012ZM138.44 3.50001L139.94 3.50001L139.94 0.500012L138.44 0.500012L138.44 3.50001ZM148.417 0.500013L146.917 0.500013L146.917 3.50001L148.417 3.50001L148.417 0.500013ZM148.916 3.50001L150.416 3.50001L150.416 0.500013L148.916 0.500013L148.916 3.50001ZM158.893 0.500014L157.393 0.500014L157.393 3.50001L158.893 3.50001L158.893 0.500014ZM159.392 3.50001L160.892 3.50001L160.892 0.500014L159.392 0.500014L159.392 3.50001ZM169.37 0.500015L167.87 0.500015L167.87 3.50001L169.37 3.50001L169.37 0.500015ZM169.868 3.50001L171.368 3.50001L171.368 0.500015L169.868 0.500015L169.868 3.50001ZM179.846 0.500016L178.346 0.500015L178.346 3.50002L179.846 3.50002L179.846 0.500016ZM180.345 3.50002L181.845 3.50002L181.845 0.500016L180.345 0.500016L180.345 3.50002ZM190.322 0.500016L188.822 0.500016L188.822 3.50002L190.322 3.50002L190.322 0.500016ZM190.821 3.50002L192.321 3.50002L192.321 0.500017L190.821 0.500017L190.821 3.50002ZM200.798 0.500017L199.298 0.500017L199.298 3.50002L200.798 3.50002L200.798 0.500017ZM201.297 3.50002L202.797 3.50002L202.797 0.500018L201.297 0.500017L201.297 3.50002ZM211.274 0.500018L209.774 0.500018L209.774 3.50002L211.274 3.50002L211.274 0.500018ZM211.773 3.50002L213.273 3.50002L213.273 0.500018L211.773 0.500018L211.773 3.50002ZM221.751 0.500019L220.251 0.500019L220.251 3.50002L221.751 3.50002L221.751 0.500019ZM2 3.5L2.24943 3.5L2.24943 0.5L2 0.5L2 3.5ZM12.2268 3.5L12.7256 3.5L12.7256 0.500001L12.2268 0.500001L12.2268 3.5ZM22.7029 3.5L23.2018 3.5L23.2018 0.500002L22.7029 0.500002L22.7029 3.5ZM33.1791 3.5L33.678 3.5L33.678 0.500003L33.1791 0.500003L33.1791 3.5ZM43.6553 3.5L44.1542 3.5L44.1542 0.500004L43.6553 0.500004L43.6553 3.5ZM54.1315 3.5L54.6304 3.5L54.6304 0.500005L54.1315 0.500005L54.1315 3.5ZM64.6077 3.50001L65.1066 3.50001L65.1066 0.500006L64.6077 0.500005L64.6077 3.50001ZM75.0839 3.50001L75.5828 3.50001L75.5828 0.500006L75.0839 0.500006L75.0839 3.50001ZM85.5601 3.50001L86.059 3.50001L86.059 0.500007L85.5601 0.500007L85.5601 3.50001ZM96.0363 3.50001L96.5351 3.50001L96.5351 0.500008L96.0363 0.500008L96.0363 3.50001ZM106.512 3.50001L107.011 3.50001L107.011 0.500009L106.512 0.500009L106.512 3.50001ZM116.989 3.50001L117.488 3.50001L117.488 0.50001L116.989 0.50001L116.989 3.50001ZM127.465 3.50001L127.964 3.50001L127.964 0.500011L127.465 0.500011L127.465 3.50001ZM137.941 3.50001L138.44 3.50001L138.44 0.500012L137.941 0.500012L137.941 3.50001ZM148.417 3.50001L148.916 3.50001L148.916 0.500013L148.417 0.500013L148.417 3.50001ZM158.893 3.50001L159.392 3.50001L159.392 0.500014L158.893 0.500014L158.893 3.50001ZM169.37 3.50001L169.868 3.50001L169.868 0.500015L169.37 0.500015L169.37 3.50001ZM179.846 3.50002L180.345 3.50002L180.345 0.500016L179.846 0.500016L179.846 3.50002ZM190.322 3.50002L190.821 3.50002L190.821 0.500017L190.322 0.500016L190.322 3.50002ZM200.798 3.50002L201.297 3.50002L201.297 0.500017L200.798 0.500017L200.798 3.50002ZM211.274 3.50002L211.773 3.50002L211.773 0.500018L211.274 0.500018L211.274 3.50002ZM221.751 3.50002L222 3.50002L222 0.500019L221.751 0.500019L221.751 3.50002Z" fill="#B8B8B8"/>
</svg>
