<svg width="14" height="14" viewBox="0 0 14 14" fill="none" xmlns="http://www.w3.org/2000/svg">
<path fill-rule="evenodd" clip-rule="evenodd" d="M0 9.80028V11.667C0 12.2858 0.245928 12.8794 0.683195 13.3171C1.12093 13.7544 1.71453 14.0003 2.33333 14.0003C4.81693 14.0003 9.18307 14.0003 11.6667 14.0003C12.2855 14.0003 12.8791 13.7544 13.3168 13.3171C13.7541 12.8794 14 12.2858 14 11.667C14 10.7336 14 9.80028 14 9.80028C14 9.54268 13.7909 9.33362 13.5333 9.33362C13.2757 9.33362 13.0667 9.54268 13.0667 9.80028C13.0667 9.80028 13.0667 10.7336 13.0667 11.667C13.0667 12.0384 12.9192 12.3945 12.6565 12.6568C12.3942 12.9195 12.0381 13.067 11.6667 13.067C9.18307 13.067 4.81693 13.067 2.33333 13.067C1.96187 13.067 1.6058 12.9195 1.34353 12.6568C1.0808 12.3945 0.933333 12.0384 0.933333 11.667V9.80028C0.933333 9.54268 0.724267 9.33362 0.466667 9.33362C0.209067 9.33362 0 9.54268 0 9.80028Z" fill="#141B56"/>
<path fill-rule="evenodd" clip-rule="evenodd" d="M6.53414 8.67347L4.53074 6.67007C4.34874 6.48807 4.05287 6.48807 3.87088 6.67007C3.68888 6.85207 3.68888 7.14793 3.87088 7.32993L6.67088 10.1299C6.85287 10.3124 7.14874 10.3124 7.33074 10.1299L10.1307 7.32993C10.3127 7.14793 10.3127 6.85207 10.1307 6.67007C9.94874 6.48807 9.65287 6.48807 9.47087 6.67007L7.46748 8.67347V0.466667C7.46748 0.209067 7.25841 0 7.00081 0C6.74321 0 6.53414 0.209067 6.53414 0.466667V8.67347Z" fill="#141B56"/>
</svg>
