<svg width="350" height="84" viewBox="0 0 350 84" fill="none" xmlns="http://www.w3.org/2000/svg">
<path d="M0 15C0 6.71573 6.71573 0 15 0H335C343.284 0 350 6.71573 350 15V69C350 77.2843 343.284 84 335 84H15C6.71574 84 0 77.2843 0 69V15Z" fill="#F5F5F5"/>
<path d="M2.52652 77.3342C1.44907 75.7249 0.674825 73.8953 0.285511 71.9274L0.530758 71.8789C0.346595 70.948 0.25 69.9854 0.25 69V66.3H0V60.9H0.25V55.5H0V50.1H0.25V44.7H0V39.3H0.25V33.9H0V28.5H0.25V23.1H0V17.7H0.25V15C0.25 14.0146 0.346595 13.052 0.530758 12.1211L0.285511 12.0726C0.674825 10.1046 1.44907 8.27514 2.52652 6.66576L2.73426 6.80484C3.8112 5.19623 5.19623 3.8112 6.80485 2.73426L6.66577 2.52652C8.27514 1.44907 10.1047 0.674824 12.0726 0.285511L12.1211 0.530758C13.052 0.346595 14.0146 0.25 15 0.25H17.5V0H22.5V0.25H27.5V0H32.5V0.25H37.5V0H42.5V0.25H47.5V0H52.5V0.25H57.5V0H62.5V0.25H67.5V0H72.5V0.25H77.5V0H82.5V0.25H87.5V0H92.5V0.25H97.5V0H102.5V0.25H107.5V0H112.5V0.25H117.5V0H122.5V0.25H127.5V0H132.5V0.25H137.5V0H142.5V0.25H147.5V0H152.5V0.25H157.5V0H162.5V0.25H167.5V0H172.5V0.25H177.5V0H182.5V0.25H187.5V0H192.5V0.25H197.5V0H202.5V0.25H207.5V0H212.5V0.25H217.5V0H222.5V0.25H227.5V0H232.5V0.25H237.5V0H242.5V0.25H247.5V0H252.5V0.25H257.5V0H262.5V0.25H267.5V0H272.5V0.25H277.5V0H282.5V0.25H287.5V0H292.5V0.25H297.5V0H302.5V0.25H307.5V0H312.5V0.25H317.5V0H322.5V0.25H327.5V0H332.5V0.25H335C335.985 0.25 336.948 0.346595 337.879 0.530758L337.927 0.285511C339.895 0.674825 341.725 1.44907 343.334 2.52652L343.195 2.73426C344.804 3.8112 346.189 5.19623 347.266 6.80484L347.473 6.66576C348.551 8.27514 349.325 10.1046 349.714 12.0726L349.469 12.1211C349.653 13.052 349.75 14.0146 349.75 15V17.7H350V23.1H349.75V28.5H350V33.9H349.75V39.3H350V44.7H349.75V50.1H350V55.5H349.75V60.9H350V66.3H349.75V69C349.75 69.9854 349.653 70.948 349.469 71.8789L349.714 71.9274C349.325 73.8953 348.551 75.7249 347.473 77.3342L347.266 77.1952C346.189 78.8038 344.804 80.1888 343.195 81.2657L343.334 81.4735C341.725 82.5509 339.895 83.3252 337.927 83.7145L337.879 83.4692C336.948 83.6534 335.985 83.75 335 83.75H332.5V84H327.5V83.75H322.5V84H317.5V83.75H312.5V84H307.5V83.75H302.5V84H297.5V83.75H292.5V84H287.5V83.75H282.5V84H277.5V83.75H272.5V84H267.5V83.75H262.5V84H257.5V83.75H252.5V84H247.5V83.75H242.5V84H237.5V83.75H232.5V84H227.5V83.75H222.5V84H217.5V83.75H212.5V84H207.5V83.75H202.5V84H197.5V83.75H192.5V84H187.5V83.75H182.5V84H177.5V83.75H172.5V84H167.5V83.75H162.5V84H157.5V83.75H152.5V84H147.5V83.75H142.5V84H137.5V83.75H132.5V84H127.5V83.75H122.5V84H117.5V83.75H112.5V84H107.5V83.75H102.5V84H97.5V83.75H92.5V84H87.5V83.75H82.5V84H77.5V83.75H72.5V84H67.5V83.75H62.5V84H57.5V83.75H52.5V84H47.5V83.75H42.5V84H37.5V83.75H32.5V84H27.5V83.75H22.5V84H17.5V83.75H15C14.0146 83.75 13.052 83.6534 12.1211 83.4692L12.0726 83.7145C10.1047 83.3252 8.27515 82.5509 6.66577 81.4735L6.80485 81.2657C5.19623 80.1888 3.81121 78.8038 2.73426 77.1952L2.52652 77.3342Z" stroke="#141B56" stroke-opacity="0.2" stroke-width="0.5" stroke-dasharray="5 5"/>
</svg>
