<svg width="120" height="143" viewBox="0 0 120 143" fill="none" xmlns="http://www.w3.org/2000/svg">
<path d="M1.23393 57.8919C1.23393 57.8919 1.23393 60.349 1.23393 60.9912C1.23393 61.6342 0.980298 62.1879 1.88445 62.2764C2.7886 62.3649 12.3793 62.8523 13.6405 62.9636C14.9017 63.0742 22.7072 63.5401 23.2312 63.3846C23.7545 63.2297 24.5637 58.9298 24.5637 58.9298L15.7583 56.8911L1.5274 57.2014L1.23393 57.8919Z" fill="#D0D0D0"/>
<path d="M118.779 56.736C118.779 56.736 119.105 59.7059 119.264 60.2376C119.422 60.7692 118.923 61.5227 118.399 61.5227C117.875 61.5227 114.282 62.0771 112.854 62.3426C111.425 62.6088 105.881 63.4951 104.881 63.717C103.882 63.9382 98.1146 64.803 96.75 64.4484C95.3854 64.0937 95.9094 60.6345 95.9094 60.6345L100.383 58.0882L117.327 56.736H118.779Z" fill="#D0D0D0"/>
<path d="M112.254 62.4502C110.404 61.6947 105.481 62.5953 105.285 61.3238C105.048 59.7725 108.648 58.7086 108.648 58.7086L99.9646 58.326L95.9092 60.6341C95.9092 60.6341 95.3859 64.0933 96.7498 64.4479C98.1144 64.8026 103.881 63.9384 104.881 63.7165C105.774 63.52 110.281 62.7932 112.254 62.4502Z" fill="#C5C5C5"/>
<path d="M10.6064 20.6287C10.0474 21.4304 7.14355 25.0653 6.47766 25.9958C5.81108 26.9263 3.43122 31.4482 2.81285 36.1022C2.19378 40.7561 0.623047 55.3394 0.623047 56.4476C0.623047 57.5558 0.908825 57.9547 1.67044 57.9547C2.43205 57.9547 8.8708 58.5312 10.4821 58.5755C12.094 58.6197 22.9927 59.5951 23.5643 59.2848C24.1351 58.9744 24.1198 47.2132 24.1198 47.2132C24.1198 47.2132 18.4084 26.7051 18.4084 26.5281C18.4084 26.3511 13.6487 19.7313 13.6487 19.7313L10.6064 20.6287Z" fill="#D0D0D0"/>
<path d="M18.4083 26.5282C18.4083 26.4599 17.7019 25.4356 16.8334 24.2025L13.8072 25.8196C13.8072 25.8196 14.283 36.3267 15.9963 39.5394C17.7096 42.752 18.5662 48.6917 14.9014 50.3765C11.2366 52.0605 14.3781 53.036 18.6613 55.784C20.6498 57.0594 21.5903 58.3771 22.4197 59.3421C23.0444 59.3545 23.4643 59.3401 23.5635 59.2861C24.1344 58.9757 24.119 47.2146 24.119 47.2146C24.119 47.2146 18.4083 26.7058 18.4083 26.5282Z" fill="#C5C5C5"/>
<path d="M107.953 20.3211C108.269 20.4395 111.854 23.6905 113.139 24.9314C114.424 26.1724 117.185 31.1816 117.185 35.4367C117.185 39.6917 118.517 50.6408 118.803 53.2554C119.089 55.8706 119.612 56.6463 118.922 57.0673C118.232 57.4883 102.271 61.4258 96.75 60.5988L98.3047 47.4191L103.287 27.0886L106.84 20.3211H107.953Z" fill="#D0D0D0"/>
<path d="M106.936 23.6318C106.936 23.6318 104.461 32.9697 104.271 36.1615C104.08 39.3533 105.857 44.14 106.936 46.2678C108.015 48.3957 109.094 49.8728 108.459 52.9462C107.825 56.0195 107.879 57.1277 106.773 57.578C105.667 58.0283 96.0207 60.2154 94.879 58.9152C93.7365 57.6151 100.447 33.5605 100.447 33.5605L105.73 24.2819L106.936 23.6318Z" fill="#C5C5C5"/>
<path d="M107.929 22.8481C107.784 23.9569 105.92 28.3597 104.84 31.4897C103.764 34.6242 99.2583 48.6889 98.8761 49.6344C98.4945 50.5792 97.0978 60.3908 97.0978 62.2857C97.0978 64.176 97.7958 65.5653 97.7714 66.5388C97.7413 67.5123 97.545 68.3732 97.2893 69.6408C97.0384 70.9136 95.8624 85.4787 95.7667 86.4567C95.7367 86.7795 95.8576 90.0734 96.0127 94.4339C96.0127 94.4339 96.0176 94.4385 96.0127 94.443C96.1685 98.6916 96.3641 103.951 96.485 108.452C96.6206 113.224 96.6758 117.145 96.5304 118.104C96.0986 120.897 97.2893 131.799 97.2893 133.839C97.2893 135.879 97.6715 139.823 97.7665 140.754C97.8622 141.685 96.4801 142.13 95.4355 142.219C94.3853 142.308 87.8194 141.905 86.0558 142.172C84.2971 142.439 74.8874 142.486 72.6669 142.406C70.4463 142.331 51.8526 142.186 49.5663 142.363C47.2857 142.541 27.451 142.097 25.4862 142.013C23.5165 141.924 22.9142 141.152 22.9142 140.473C22.9142 139.794 22.9945 138.494 22.9945 138.494C22.2308 138.139 22.6123 132.51 22.6577 130.956C22.708 129.408 22.708 123.643 22.708 122.801C22.708 122.483 22.7835 120.714 22.889 118.529C22.9945 116.269 23.135 113.569 23.246 111.552V111.548C23.3166 110.383 23.3767 109.452 23.4221 108.97C23.4571 108.553 23.5179 107.711 23.5828 106.611C23.8491 102.101 24.2865 93.2535 24.3165 91.6859C24.3368 90.4743 24.5729 86.2914 24.7183 83.1094C24.8084 81.1677 24.8643 79.5955 24.8189 79.3007C22.7241 70.4952 22.9449 59.28 23.3767 57.2445C23.8036 55.2045 22.4726 51.3913 22.3768 49.4867C22.2811 47.5774 21.0905 43.3666 20.9955 42.6137C20.8997 41.8602 20.4728 38.0938 19.7091 36.8958C18.9503 35.6979 14.6147 29.3631 14.3331 28.6987C14.0466 28.0343 11.5697 24.132 11.0477 22.9808C10.5251 21.8252 10.0932 21.2076 11.0477 19.7851C13.2033 17.8388 38.1471 8.38256 38.1471 8.38256L60.1171 7.24054C60.1171 7.24054 77.7766 8.17172 81.394 8.70531C85.0113 9.2389 89.7689 11.5405 92.1047 12.6962C94.4357 13.8473 107.383 19.2561 107.785 19.9205C108.191 20.5881 108.071 21.7393 107.929 22.8481Z" fill="#D0D0D0"/>
<path d="M89.1162 63.2822C89.1162 63.2822 89.9931 66.0594 92.5316 64.5263C95.07 62.9939 96.2236 56.7561 97.4813 55.547C98.7391 54.338 97.0991 62.2866 97.0991 62.2866L96.4864 71.327L96.6226 76.402L96.3012 80.1417L94.4552 78.0691L89.1162 63.2822Z" fill="#C5C5C5"/>
<path d="M28.3714 35.0379C28.3714 35.0379 25.9601 46.799 25.1985 48.3946C24.4369 49.9902 25.5158 53.152 25.7065 56.8904C25.8966 60.6288 26.6512 67.3072 26.6512 67.3072C26.6512 67.3072 29.7682 55.6645 29.959 52.5319C30.1483 49.3993 30.7827 32.9107 28.3714 35.0379Z" fill="#C5C5C5"/>
<path d="M22.5328 43.0755C22.5328 43.0755 23.4844 38.1704 22.5328 35.2148C21.4232 31.7712 21.0096 31.1367 19.8916 29.482C20.8985 29.7481 24.8812 30.7001 25.3249 34.8485C25.7693 38.9975 23.6249 41.5574 22.5328 43.0755Z" fill="#C5C5C5"/>
<path d="M29.1335 54.6302C28.4194 51.616 25.2304 50.0205 25.2304 50.0205C26.3407 52.8277 26.2778 60.6344 26.2778 60.6344C26.2778 60.6344 25.1354 57.6443 24.1202 55.7826C23.1049 53.9209 21.9464 45.6762 21.442 44.5941C20.9375 43.5119 19.9145 37.2989 19.9145 37.2989C19.9145 37.2989 19.4003 33.5975 19.0195 33.1323C18.6387 32.667 17.7422 30.0739 17.7422 30.0739C17.7422 31.8764 19.1858 35.9395 19.1858 35.9395C19.1858 35.9395 17.0735 32.9468 16.6054 32.246C16.1372 31.5452 11.5417 23.9181 10.9073 22.6785C10.5279 21.9373 10.4524 21.267 10.451 20.8434C10.4315 20.8701 10.4084 20.9013 10.3867 20.93C10.2693 22.1162 10.7997 22.9303 11.1658 23.5803C11.1658 23.5803 15.3302 31.1821 15.5685 31.5367C15.8067 31.8914 18.4242 35.9252 19.1858 38.6289C19.9474 41.3327 19.7091 46.4747 19.7944 47.4501C19.8796 48.4255 21.4706 49.4446 21.9464 52.2817C22.4223 55.1182 22.6284 57.3495 22.4383 58.118C22.2483 58.8865 17.7744 59.0889 17.7744 59.0889C20.7572 59.0251 22.5655 60.0097 22.4069 61.5753C22.3307 62.3282 21.3525 62.9288 20.3568 63.3518C21.6411 63.4064 22.7053 63.4344 23.0951 63.4038C23.135 67.2587 23.4529 72.2907 24.3256 76.959C26.0242 74.2234 27.203 71.286 27.6585 70.0126C29.086 66.0223 29.8686 57.7341 29.1335 54.6302Z" fill="#C5C5C5"/>
<path d="M102.667 45.6034C102.817 45.4531 102.928 45.3314 102.97 45.2631C102.97 45.2631 102.852 45.3932 102.667 45.6034Z" fill="#C5C5C5"/>
<path d="M100.526 44.8907C100.526 44.8907 99.759 47.3387 99.5724 47.9595C99.3859 48.5809 96.8767 59.2105 96.7503 59.4766C96.6231 59.7428 96.1948 62.6534 95.8105 64.5269C95.4262 66.4003 94.0057 68.1052 93.9575 70.1888C93.9274 71.511 95.4807 74.438 96.6203 76.4019C96.9068 73.1235 97.1807 70.1823 97.289 69.6422C97.5426 68.3713 97.7425 67.5143 97.7697 66.5395C97.7844 66.0007 97.579 65.3305 97.3917 64.5242C97.5377 64.5308 97.7005 64.5314 97.8717 64.5301C97.871 64.1397 97.9094 63.6926 97.9842 63.2456C98.2134 61.8752 99.3873 60.808 100.866 60.6401C103.241 60.37 104.738 60.1547 104.738 60.1547C104.611 60.1839 101.383 60.3336 99.6374 60.3043C97.892 60.2744 97.6691 59.5039 97.797 58.7673C97.892 58.2207 99.1294 57.9695 99.1294 57.9695C97.289 57.881 98.4628 55.5463 98.4628 55.5463C98.4628 55.5463 99.5584 50.6704 99.8275 49.8284C100.176 48.7352 101.907 46.4615 102.666 45.6032C101.912 46.3613 100.082 47.9224 100.082 47.9224L106.491 36.8113L100.526 44.8907Z" fill="#C5C5C5"/>
<path d="M60.538 1.08558C60.538 1.08558 55.7867 0.68669 55.1208 0.68669C54.4542 0.68669 45.4589 0.464794 45.0305 0.886461C44.6022 1.30748 43.9831 0.73159 43.7456 4.01122C43.5073 7.29151 42.8889 11.8127 46.0304 13.0979C49.1719 14.3831 51.266 15.4027 51.266 15.4027L59.9763 24.9326C59.9763 24.9326 65.4026 18.4169 65.6876 18.1507C65.9734 17.8846 71.7218 15.0208 72.6791 14.3915C73.6363 13.7629 74.588 11.4574 74.6837 10.97C74.7795 10.4826 75.1596 4.78623 75.1596 4.78623C75.1596 4.78623 73.9934 1.2847 73.9221 1.21768C73.8508 1.1513 72.5896 0.508392 72.5896 0.508392L65.3788 0.907284L60.538 1.08558Z" fill="#939393"/>
<path d="M43.5612 4.28308C43.5612 4.28308 45.802 4.95202 51.9759 5.33855C56.2549 5.60665 67.1236 5.15895 69.284 5.14724C71.3781 5.13553 74.7516 4.91233 74.7516 4.91233L74.7138 6.15586C74.7138 6.15586 71.3411 6.3797 69.2463 6.39077C67.0858 6.40248 56.2165 6.85018 51.9382 6.58208C45.7643 6.19555 43.5234 5.52661 43.5234 5.52661L43.5612 4.28308Z" fill="#7B7B7B"/>
<path d="M74.7138 6.68582C74.7138 6.68582 71.3411 6.896 69.2463 6.90706C67.0858 6.91812 56.2165 7.33849 51.9382 7.08666C45.8907 6.73072 43.6227 6.12229 43.5318 6.09757L43.5234 6.36566C43.5234 6.36566 45.7643 6.99361 51.9382 7.35736C56.2172 7.60919 67.0858 7.18882 69.2463 7.17776C71.3404 7.16735 74.7138 6.95717 74.7138 6.95717L74.7516 5.78912C74.7516 5.78912 74.7439 5.78977 74.7425 5.78977L74.7138 6.68582Z" fill="#7B7B7B"/>
<path d="M43.5612 4.50418C43.5612 4.50418 45.802 5.17312 51.9759 5.55965C56.2549 5.82775 67.1236 5.38005 69.284 5.36834C71.3781 5.35663 74.7516 5.13343 74.7516 5.13343L74.7138 6.37696C74.7138 6.37696 71.3411 6.6008 69.2463 6.61187C67.0858 6.62358 56.2165 7.07128 51.9382 6.80318C45.7643 6.416 43.5234 5.74771 43.5234 5.74771L43.5612 4.50418Z" fill="#939393"/>
<path d="M43.9833 2.21073C43.9833 2.21073 47.3624 1.66152 47.6957 2.8582C48.029 4.05488 47.6076 5.19299 47.9612 5.39926C48.3462 5.75391 49.0288 6.1528 49.1078 6.58163C49.1867 7.0098 51.932 9.32962 52.6936 11.3247C53.4553 13.3192 55.0476 15.5948 59.2728 15.5655C63.498 15.5362 69.3526 11.4106 69.4952 9.28407C69.6377 7.15816 67.5436 7.20241 67.0678 6.62587C67.1153 6.22698 67.3536 4.83053 68.234 4.83053C69.1144 4.83053 73.2557 2.96882 72.5416 0.885864L74.2968 2.23806L76.2064 12.4023L71.6829 14.2061L67.0685 17.1955L61.5472 21.83L59.3469 23.4255L52.171 16.9984L46.1263 12.7212C46.1263 12.7212 42.2232 4.41017 42.414 4.32167C42.6027 4.23252 43.9833 2.21073 43.9833 2.21073Z" fill="#939393"/>
<path d="M46.5519 13.3473C46.5519 13.3473 49.8932 12.463 50.6541 12.4018C51.415 12.3406 52.6063 14.5056 53.5657 15.0854C54.525 15.6645 59.8843 21.4586 60.4796 23.3795C61.0749 25.3004 56.8406 33.9296 56.8406 33.9296C56.8406 33.9296 54.045 24.4161 52.5071 22.0377C50.9685 19.6593 47.6014 15.9548 47.4239 15.5884C47.2464 15.2227 45.9566 14.1249 45.8077 13.7586C45.6589 13.3935 46.5519 13.3473 46.5519 13.3473Z" fill="#939393"/>
<path d="M47.1237 13.318C47.1237 13.318 50.3287 12.461 51.0582 12.4018C51.7876 12.3426 52.9301 14.4405 53.8503 15.0021C54.7705 15.5636 59.911 21.178 60.4819 23.0398C61.0527 24.9015 56.9918 33.2645 56.9918 33.2645C56.9918 33.2645 54.3107 24.0445 52.835 21.7396C51.3593 19.4348 48.1298 15.8441 47.96 15.4894C47.7902 15.1348 46.5528 14.0709 46.4096 13.7162C46.267 13.3622 47.1237 13.318 47.1237 13.318Z" fill="#D0D0D0"/>
<path d="M49.0117 13.4082C49.0117 13.4082 50.8361 12.5219 51.0269 12.5661C51.2176 12.6104 53.7163 15.4696 54.2396 16.201C54.7629 16.9325 58.5948 20.693 58.9518 21.5051C59.3088 22.3178 60.1683 23.1176 60.1683 23.1176L57.3573 39.9153C57.3573 39.9153 56.7865 39.627 56.7145 38.9398C56.6432 38.2527 56.1192 34.8396 55.8579 33.2662C55.5958 31.6928 55.9054 28.6565 57.0715 26.3516C58.2377 24.0468 58.7848 23.0492 58.2139 21.9189C57.6431 20.7886 55.477 20.0351 53.7163 18.8384C51.9555 17.6417 48.8259 14.7571 48.6666 14.2157C48.5066 13.6743 49.0117 13.4082 49.0117 13.4082Z" fill="#939393"/>
<path d="M39.1268 54.6313C39.1268 54.6313 32.2416 74.8427 29.8953 82.2037C28.7564 85.7761 25.5723 98.907 23.583 106.614C23.8492 102.103 24.2866 93.2555 24.3167 91.6879C24.3369 90.4763 24.5731 86.2934 24.7184 83.1114C27.3757 75.2 33.4148 58.8194 39.1268 54.6313Z" fill="#C5C5C5"/>
<path d="M46.5466 56.2365C46.3055 56.8918 30.6457 98.9824 29.4201 102.768C28.5558 105.416 24.9888 113.716 22.8892 118.531C22.9947 116.271 23.1351 113.571 23.2462 111.554V111.55C28.4901 97.6113 42.8888 59.8903 46.5466 56.2365Z" fill="#C5C5C5"/>
<path d="M36.5967 135.413C36.5967 135.413 38.0172 125.109 42.4206 119.77C42.4206 119.77 41.6666 128.861 36.5967 135.413Z" fill="#C5C5C5"/>
<path d="M66.3218 134.979C66.3218 134.979 56.2846 72.9814 59.2723 49.9323C59.7216 46.5043 62.1965 43.727 66.3218 56.2267C70.447 68.7264 81.4701 104.041 91.1985 119.731C91.1985 119.731 74.0643 99.8725 64.2913 72.8044C64.2906 72.8044 64.4778 127.616 66.3218 134.979Z" fill="#C5C5C5"/>
<path d="M95.6394 118.53C95.6394 118.53 91.5777 113.347 89.2936 107.555C87.0087 101.763 73.1076 60.2153 70.4119 54.6301C67.7162 49.045 74.0628 52.76 76.4741 60.7131C78.8861 68.6668 95.6394 118.53 95.6394 118.53Z" fill="#C5C5C5"/>
<path d="M96.4848 108.453C94.606 102.244 83.3271 64.9676 83.3271 64.5323C83.3271 64.1113 93.1645 85.8492 96.0125 94.4349C96.0125 94.4349 96.0174 94.4394 96.0125 94.444C96.1683 98.6925 96.364 103.952 96.4848 108.453Z" fill="#C5C5C5"/>
<path d="M50.6646 14.8062C51.183 15.185 51.3179 15.8318 50.965 16.2502C50.6122 16.6686 49.9064 16.7005 49.3873 16.3218C48.8688 15.943 48.734 15.2962 49.0868 14.8778C49.4397 14.4594 50.1454 14.4275 50.6646 14.8062Z" fill="white"/>
<path d="M50.4286 15.0852C50.815 15.3677 50.9254 15.8375 50.6753 16.1349C50.4251 16.4322 49.9088 16.444 49.5217 16.1615C49.1353 15.8791 49.0249 15.4093 49.275 15.1119C49.5259 14.8152 50.0422 14.8028 50.4286 15.0852Z" fill="#C6C1C1"/>
<path d="M50.4291 15.0852C50.0615 14.8165 49.5794 14.8172 49.3174 15.0735C49.5906 14.9004 50.0056 14.9271 50.3305 15.1646C50.7169 15.447 50.8273 15.9169 50.5772 16.2142C50.5646 16.2286 50.5492 16.2396 50.536 16.2526C50.5877 16.2195 50.6366 16.1824 50.6764 16.1349C50.9258 15.8381 50.8154 15.3683 50.4291 15.0852Z" fill="#B2B1B1"/>
<path d="M49.7712 15.3449C49.8509 15.4028 49.8732 15.4998 49.8222 15.5609C49.7705 15.6221 49.6643 15.6247 49.5847 15.5661C49.505 15.5082 49.4827 15.4113 49.5337 15.3501C49.5854 15.2889 49.6923 15.287 49.7712 15.3449Z" fill="#939393"/>
<path d="M50.2619 15.8063C50.3416 15.8642 50.364 15.9611 50.313 16.0223C50.2612 16.0835 50.155 16.0861 50.0754 16.0275C49.9957 15.9696 49.9734 15.8726 50.0244 15.8115C50.0761 15.7503 50.1823 15.7483 50.2619 15.8063Z" fill="#939393"/>
<path d="M50.2619 15.3147C50.3416 15.3726 50.364 15.4695 50.313 15.5307C50.2612 15.5919 50.155 15.5945 50.0754 15.5359C49.9957 15.478 49.9734 15.381 50.0244 15.3199C50.0754 15.2587 50.1823 15.2561 50.2619 15.3147Z" fill="#939393"/>
<path d="M49.8101 15.7819C49.8898 15.8398 49.9121 15.9367 49.8611 15.9979C49.8094 16.0591 49.7032 16.0617 49.6236 16.0031C49.5439 15.9452 49.5208 15.8483 49.5725 15.7871C49.6243 15.7266 49.7312 15.724 49.8101 15.7819Z" fill="#939393"/>
<path d="M57.3203 21.6161C57.8388 21.9948 57.9736 22.6416 57.6208 23.0601C57.2679 23.4785 56.5622 23.5104 56.0431 23.1316C55.5246 22.7529 55.3897 22.1061 55.7426 21.6877C56.0955 21.2693 56.8019 21.2374 57.3203 21.6161Z" fill="white"/>
<path d="M57.0851 21.8954C57.4715 22.1778 57.5819 22.6476 57.3317 22.945C57.0816 23.2424 56.5652 23.2541 56.1781 22.9717C55.791 22.6892 55.6813 22.2194 55.9315 21.922C56.1816 21.6247 56.698 21.6129 57.0851 21.8954Z" fill="#C6C1C1"/>
<path d="M57.0853 21.8951C56.7178 21.6264 56.235 21.627 55.9736 21.8834C56.2468 21.7103 56.6619 21.737 56.9868 21.9745C57.3732 22.2569 57.4836 22.7267 57.2334 23.0241C57.2216 23.0384 57.2055 23.0495 57.1922 23.0625C57.2439 23.03 57.2928 22.9922 57.3327 22.9447C57.5821 22.648 57.4717 22.1775 57.0853 21.8951Z" fill="#B2B1B1"/>
<path d="M56.4265 22.154C56.5062 22.2119 56.5292 22.3088 56.4775 22.37C56.4258 22.4312 56.3196 22.4338 56.2399 22.3752C56.1603 22.3173 56.1379 22.2204 56.1889 22.1592C56.2406 22.098 56.3468 22.0954 56.4265 22.154Z" fill="#939393"/>
<path d="M56.9175 22.6153C56.9972 22.6733 57.0195 22.7702 56.9685 22.8314C56.9168 22.8926 56.8106 22.8952 56.731 22.8366C56.6513 22.7787 56.6283 22.6817 56.68 22.6205C56.7317 22.5594 56.8379 22.5568 56.9175 22.6153Z" fill="#939393"/>
<path d="M56.9175 22.123C56.9972 22.1809 57.0195 22.2779 56.9685 22.339C56.9168 22.4002 56.8106 22.4028 56.731 22.3442C56.6513 22.2863 56.6283 22.1894 56.68 22.1282C56.7317 22.0677 56.8379 22.0651 56.9175 22.123Z" fill="#939393"/>
<path d="M56.4651 22.591C56.5447 22.6489 56.5678 22.7458 56.5161 22.807C56.4644 22.8682 56.3582 22.8708 56.2785 22.8122C56.1989 22.7543 56.1765 22.6573 56.2275 22.5962C56.2792 22.535 56.3854 22.533 56.4651 22.591Z" fill="#939393"/>
<path d="M36.8599 9.49108C36.8599 9.49108 36.0194 10.3038 36.1144 11.2493C36.2094 12.1948 35.742 17.4845 36.4833 17.7507C37.2247 18.0168 42.4127 16.8644 42.9836 16.8865C43.5551 16.9087 50.1693 23.6313 55.6249 30.0122C55.6249 30.0122 50.81 22.2348 45.6331 16.8052C45.0308 16.1733 45.6967 16.1258 46.0454 16.362C46.3941 16.5983 51.2495 21.031 51.2495 21.031C51.2495 21.031 48.3176 16.3061 48.1178 15.7133C47.918 15.1205 47.8579 14.4281 48.1891 14.0058C48.5203 13.5841 48.885 13.5483 48.5049 12.9601C48.1248 12.3718 41.0956 9.15076 41.0956 9.15076L36.8599 9.49108Z" fill="#939393"/>
<path d="M107.954 20.3212C108.275 21.1469 108.113 22.0527 107.924 22.8922C107.718 23.7479 107.332 24.5398 107.085 25.3688C106.532 27.0177 106.004 28.6758 105.483 30.3345L103.915 35.3105C103.419 36.977 102.861 38.6325 102.314 40.284C101.194 43.5779 100.052 46.8764 99.1598 50.214C98.5638 53.6251 97.5129 56.9633 96.5703 60.3041L97.7532 55.2337C98.1473 53.5353 98.5498 51.8746 98.7832 50.1385C99.1675 48.4317 99.709 46.7762 100.221 45.1123C100.735 43.4517 101.291 41.7937 101.846 40.1467C103.002 36.8625 103.977 33.5262 105.126 30.2329C105.693 28.5853 106.257 26.937 106.862 25.2998C107.15 24.4721 107.572 23.6932 107.811 22.8655C108.032 22.043 108.236 21.1567 107.954 20.3212Z" fill="#939393"/>
<path d="M59.2719 0.522884C55.3003 0.522884 48.3934 0.109026 47.4571 0.153275C45.6034 0.241122 44.0543 0.286022 42.7687 2.19198C41.4837 4.09795 38.7943 7.42248 38.1522 7.88775C37.5094 8.35301 36.5815 8.79615 36.6527 10.0377C36.724 11.2787 36.6451 15.645 36.6486 16.2215C36.6527 16.7974 37.1998 17.5288 38.5561 17.1748C39.9123 16.8202 42.9986 16.7167 48.7735 13.1709C49.0908 12.964 48.1705 12.4617 47.7583 12.0777C47.346 11.6938 44.8076 7.37953 44.5854 5.81325C44.3632 4.24696 44.9347 2.20825 45.0933 1.67596C45.252 1.14432 46.3308 1.02589 46.648 1.08511C46.9652 1.14432 55.2689 1.61675 59.2719 1.61675V0.522884Z" fill="#D0D0D0"/>
<path d="M22.9941 138.495C23.2925 138.739 23.6971 138.8 24.0688 138.882C24.4503 138.951 24.836 138.995 25.2238 139.028C25.998 139.095 26.7763 139.118 27.554 139.132C29.1101 139.16 30.6682 139.127 32.2264 139.101C35.3434 139.067 38.4576 138.982 41.5739 138.892C44.6896 138.802 47.8066 138.734 50.918 138.616L53.2454 138.513C54.0043 138.459 54.8343 138.434 55.6064 138.432C57.1751 138.423 58.736 138.454 60.2963 138.501L69.6452 138.797L71.9741 138.847L74.3099 138.845C75.875 138.85 77.4332 138.911 78.9935 138.953C85.2149 139.155 91.4929 139.361 97.6704 139.765C97.3112 139.935 96.9011 139.941 96.5147 139.995C96.1227 140.031 95.73 140.055 95.3387 140.065C94.5548 140.092 93.7729 140.08 92.9917 140.056L88.3221 139.935L78.9732 139.777L74.3036 139.735L71.9629 139.737L69.6166 139.686L60.2676 139.391C58.7116 139.352 57.1548 139.306 55.6057 139.287C54.819 139.28 54.0895 139.289 53.2923 139.333L50.9459 139.404C47.824 139.47 44.7056 139.518 41.5858 139.529C38.4674 139.535 35.3455 139.536 32.2264 139.486C30.6668 139.456 29.1052 139.417 27.5456 139.327C26.7659 139.281 25.9868 139.225 25.2119 139.125C24.8248 139.075 24.4384 139.015 24.0576 138.93C23.6866 138.832 23.2827 138.752 22.9941 138.495Z" fill="#C5C5C5"/>
<path d="M71.6101 14.6488C71.6101 14.6488 66.4095 16.3713 63.0501 20.5151C59.6906 24.6589 57.607 29.0213 57.8201 31.6821C58.0325 34.3429 58.0011 39.4361 58.0437 39.85C58.0863 40.2645 58.1073 40.4389 58.4685 40.4935C58.8298 40.5482 63.5462 40.4935 64.0849 40.4935C64.6236 40.4935 64.6893 39.9411 64.6138 39.4758C64.5384 39.0105 64.7368 36.9165 64.3686 36.2476C64.0003 35.5786 64.1387 30.054 64.2589 28.7122C64.3797 27.3613 64.6802 19.3607 67.8266 17.8588C69.1024 17.0546 69.8675 16.735 70.8031 16.5021C71.7387 16.2691 71.8785 15.2091 71.6101 14.6488Z" fill="#939393"/>
<path d="M72.2696 14.0057C72.2696 14.0057 66.4478 15.7555 62.688 19.967C58.9281 24.1778 56.5958 28.6105 56.8341 31.3143C57.0723 34.018 57.036 39.1932 57.0842 39.6142C57.1317 40.0352 57.1555 40.2129 57.56 40.2682C57.9646 40.3235 63.2435 40.2682 63.8465 40.2682C64.4495 40.2682 64.5228 39.7066 64.4383 39.2342C64.3537 38.7611 64.5759 36.6339 64.1637 35.9539C63.7514 35.2739 63.6879 29.6595 63.8779 28.3001C64.068 26.9408 64.5124 18.7937 68.0346 17.2672C69.4628 16.4498 70.3195 16.1251 71.3661 15.8883C72.4135 15.6527 72.5701 14.5758 72.2696 14.0057Z" fill="#D0D0D0"/>
<path d="M61.4999 30.7326C61.4454 31.3449 60.8871 31.8095 60.252 31.7698C59.6175 31.7308 59.1466 31.2024 59.2011 30.5901C59.2556 29.9777 59.8139 29.5131 60.449 29.5528C61.0841 29.5919 61.5544 30.1202 61.4999 30.7326Z" fill="white"/>
<path d="M61.1989 30.7486C61.1556 31.2392 60.7272 31.6121 60.243 31.5821C59.7588 31.5522 59.4011 31.1305 59.4451 30.6399C59.4884 30.1492 59.9167 29.7764 60.4009 29.8063C60.8851 29.8362 61.2422 30.2586 61.1989 30.7486Z" fill="#C6C1C1"/>
<path d="M61.1982 30.7485C61.2394 30.2819 60.9166 29.8817 60.4687 29.8173C60.8356 29.941 61.0843 30.3015 61.0473 30.7134C61.004 31.204 60.5756 31.5769 60.0914 31.5469C60.0677 31.5456 60.046 31.5391 60.0229 31.5359C60.0928 31.5593 60.1648 31.5769 60.2424 31.5821C60.7266 31.6127 61.1549 31.2391 61.1982 30.7485Z" fill="#B2B1B1"/>
<path d="M60.5231 30.3009C60.5315 30.3946 60.463 30.4779 60.3701 30.4863C60.2778 30.4948 60.1961 30.4252 60.1877 30.3315C60.1793 30.2378 60.2478 30.1545 60.3407 30.146C60.4337 30.1376 60.5154 30.2072 60.5231 30.3009Z" fill="#939393"/>
<path d="M60.5675 30.9529C60.5759 31.0473 60.5074 31.1299 60.4145 31.1384C60.3223 31.1468 60.2405 31.0772 60.2321 30.9835C60.2238 30.8898 60.2922 30.8065 60.3852 30.798C60.4781 30.7896 60.5598 30.8592 60.5675 30.9529Z" fill="#939393"/>
<path d="M60.9171 30.6086C60.9255 30.7029 60.857 30.7856 60.7641 30.794C60.6719 30.8025 60.5901 30.7328 60.5817 30.6391C60.5734 30.5454 60.6418 30.4621 60.7348 30.4537C60.8277 30.4446 60.9094 30.5142 60.9171 30.6086Z" fill="#939393"/>
<path d="M60.1667 30.6339C60.175 30.7276 60.1066 30.8109 60.0136 30.8193C59.9214 30.8278 59.8396 30.7582 59.8313 30.6645C59.8229 30.5701 59.8914 30.4875 59.9843 30.479C60.0772 30.4705 60.159 30.5402 60.1667 30.6339Z" fill="#939393"/>
<path d="M69.0183 15.8599C69.0183 15.8599 71.3346 18.0762 71.8425 18.1355C72.3505 18.1947 69.3676 21.1496 68.7646 21.5042C68.7646 21.5042 71.7475 19.1701 72.6677 18.4159C73.5879 17.6624 74.0002 17.7216 74.6982 17.9578C75.3962 18.194 81.9007 19.4942 82.4401 19.2872C82.9795 19.0803 82.4401 17.8986 82.4401 17.8986L73.8639 12.8848L72.0955 13.436L70.4122 14.943L69.0183 15.8599Z" fill="#939393"/>
<path d="M59.272 0.523436C60.2292 0.523436 69.748 0.221502 70.5417 0.150573C71.3355 0.0796447 73.461 -0.304281 74.064 0.523436C74.667 1.3505 76.9784 5.76825 80.4419 7.52715C81.4572 8.00022 82.5996 9.24115 82.6632 10.4528C82.7268 11.6644 82.8532 17.3381 82.9168 17.9881C82.9804 18.6382 82.0602 18.6089 81.6158 18.5198C81.1714 18.4313 75.8408 17.899 71.7156 13.437C71.5255 12.9346 72.0964 12.2846 72.445 11.723C72.7944 11.1614 75.0785 6.99486 74.3169 4.12843C73.5553 1.262 73.0159 1.04011 72.088 0.951611C71.1601 0.863113 63.3281 1.61665 59.272 1.61665V0.523436Z" fill="#D0D0D0"/>
<path d="M102.97 30.9677C102.97 30.9677 97.7975 32.5555 93.958 32.0238C93.958 32.0238 97.7346 34.861 97.3538 38.4068C96.973 41.9525 94.6805 49.754 94.7483 52.3543C94.8154 54.9546 94.2445 56.4324 94.9425 57.2009C95.6405 57.9694 102.97 30.9677 102.97 30.9677Z" fill="#C5C5C5"/>
<path d="M23.5815 110.656C24.4207 105.892 25.3877 101.146 26.4596 96.4218C27.5112 91.693 28.7158 86.9948 29.9581 82.3057C31.2025 77.6166 32.6237 72.9698 34.0988 68.3393C35.6094 63.7178 37.2891 59.1452 39.1254 54.6312C38.3239 56.9276 37.4813 59.209 36.7441 61.5223C35.9511 63.8187 35.2321 66.1366 34.5075 68.4525C33.0695 73.0869 31.7175 77.7441 30.4486 82.4209C29.1609 87.0943 27.9891 91.7938 26.8278 96.4966C26.2542 98.8496 25.7043 101.207 25.16 103.567C24.608 105.924 24.079 108.287 23.5815 110.656Z" fill="#D0D0D0"/>
<path d="M94.7472 117.32C93.1436 112.625 91.5505 107.928 89.9979 103.219C88.4216 98.5169 86.9138 93.7959 85.3682 89.0847L80.8384 74.9231L78.629 67.8263L76.4741 60.7139L78.8875 67.7528L81.2464 74.8072L85.8524 88.9487C87.3526 93.6723 88.8905 98.3855 90.3592 103.118C91.8531 107.844 93.3057 112.58 94.7472 117.32Z" fill="#D0D0D0"/>
<path d="M94.7863 78.4417C94.3789 78.0701 94.1721 77.558 93.9338 77.0882C93.7046 76.6079 93.4915 76.1219 93.2847 75.6338C92.8732 74.6564 92.5 73.6673 92.122 72.6795C91.3597 70.7059 90.6952 68.703 89.9944 66.7118C89.3062 64.7167 88.671 62.7059 88.0254 60.6991C87.407 58.6838 86.7942 56.6679 86.2485 54.6324C87.0199 56.6035 87.7228 58.594 88.4334 60.582C89.114 62.5784 89.8155 64.569 90.4772 66.5706L92.4805 72.5696C92.8124 73.5697 93.1561 74.566 93.5069 75.5603C93.6795 76.0581 93.8584 76.5539 94.0526 77.0439C94.149 77.2899 94.2524 77.532 94.3642 77.7714C94.4795 78.0057 94.5892 78.2517 94.7863 78.4417Z" fill="#D0D0D0"/>
<path d="M22.9941 119.77C24.0849 116.345 25.2266 112.934 26.4193 109.539C27.5897 106.137 28.8474 102.762 30.0785 99.3793C31.3229 96.0007 32.6226 92.6398 33.9236 89.2801L35.9296 84.2585L38.0069 79.2616C36.8044 82.6538 35.567 86.0343 34.3261 89.4135L30.5564 99.5342L22.9941 119.77Z" fill="#D0D0D0"/>
<path fill-rule="evenodd" clip-rule="evenodd" d="M86.8932 42.2523C86.8592 43.9759 86.7005 45.3512 85.8672 46.0982C85.0339 46.8452 83.5998 47.022 81.7376 47.0537C79.8868 47.022 78.4102 46.8742 77.608 46.0982C76.8059 45.3221 76.616 43.9865 76.582 42.2523C76.616 40.5286 76.7748 39.1534 77.608 38.4064C78.4413 37.6594 79.8755 37.4826 81.7376 37.4509C83.5884 37.4826 85.0651 37.6304 85.8672 38.4064C86.6693 39.1825 86.8592 40.5286 86.8932 42.2523Z" fill="#CF2228"/>
<path d="M80.3196 42.0225V43.1443C80.3193 43.1821 80.3276 43.2194 80.3441 43.2539C80.3606 43.2884 80.3848 43.3192 80.4152 43.3442C80.4455 43.3692 80.4813 43.3879 80.5201 43.399C80.5588 43.41 80.5997 43.4132 80.6399 43.4083C80.7095 43.4011 80.7738 43.3701 80.8204 43.3214C80.867 43.2727 80.8926 43.2096 80.8921 43.1443V41.5606C80.8921 41.4527 80.8461 41.3494 80.7643 41.2731C80.6824 41.1969 80.5714 41.1541 80.4556 41.1541C80.3677 41.1549 80.2822 41.1806 80.2103 41.2277C80.1384 41.2748 80.0836 41.3412 80.0532 41.418L79.5487 42.6006C79.546 42.6017 79.5431 42.6023 79.5402 42.6023C79.5372 42.6023 79.5343 42.6017 79.5317 42.6006C79.5286 42.6022 79.5252 42.603 79.5217 42.603C79.5183 42.603 79.5148 42.6022 79.5118 42.6006L79.0073 41.418C78.9769 41.3412 78.9221 41.2748 78.8502 41.2277C78.7783 41.1806 78.6928 41.1549 78.6048 41.1541C78.491 41.1533 78.3814 41.194 78.2993 41.2675C78.2172 41.341 78.1692 41.4414 78.1655 41.5474V43.1311C78.1651 43.1964 78.1907 43.2595 78.2372 43.3082C78.2838 43.3569 78.3481 43.3879 78.4178 43.3951C78.458 43.4 78.4988 43.3968 78.5376 43.3858C78.5764 43.3747 78.6121 43.356 78.6425 43.331C78.6728 43.306 78.6971 43.2752 78.7136 43.2407C78.7301 43.2062 78.7384 43.1689 78.7381 43.1311V41.9961L79.2681 43.2446C79.2928 43.2911 79.3307 43.3304 79.3776 43.3583C79.4246 43.3862 79.4788 43.4017 79.5345 43.403C79.596 43.4062 79.6569 43.3906 79.708 43.3587C79.7591 43.3268 79.7977 43.2803 79.8179 43.2261L80.3196 42.0225Z" fill="white"/>
<path d="M85.201 41.5157C85.1279 41.4024 85.0218 41.3109 84.8949 41.2517C84.7484 41.1825 84.5858 41.148 84.4216 41.1514H83.7811C83.6833 41.1514 83.5896 41.1876 83.5205 41.2519C83.4514 41.3163 83.4126 41.4035 83.4126 41.4946V43.1469C83.4126 43.2169 83.4425 43.2841 83.4956 43.3336C83.5488 43.3831 83.6209 43.4109 83.696 43.4109C83.7712 43.4109 83.8433 43.3831 83.8964 43.3336C83.9496 43.2841 83.9795 43.2169 83.9795 43.1469V42.7061H84.4018C84.5691 42.7101 84.7351 42.6776 84.8864 42.6111C85.0162 42.5529 85.1254 42.4613 85.201 42.3471C85.2747 42.2219 85.3118 42.0808 85.3087 41.938C85.3149 41.7907 85.2776 41.6447 85.201 41.5157ZM84.654 42.1096C84.6226 42.1627 84.574 42.2052 84.5151 42.231C84.4462 42.2615 84.3703 42.276 84.2941 42.2732H84.005V41.5843H84.2884C84.3647 41.5816 84.4405 41.5961 84.5095 41.6265C84.569 41.6502 84.618 41.6921 84.6484 41.7453C84.6806 41.8012 84.6963 41.8641 84.6937 41.9274C84.6972 41.9903 84.6836 42.053 84.654 42.1096Z" fill="white"/>
<path d="M82.8092 42.989H82.1403L82.3642 42.8068C82.513 42.691 82.6532 42.5657 82.7837 42.432C82.8685 42.3475 82.9375 42.2502 82.9877 42.1443C83.0245 42.0605 83.0437 41.9709 83.0444 41.8803C83.0481 41.7484 83.0086 41.6186 82.931 41.5082C82.8486 41.398 82.7333 41.3127 82.5994 41.2627C82.4441 41.1993 82.2757 41.1687 82.1063 41.1729C81.9399 41.1692 81.7749 41.2018 81.6244 41.268C81.4934 41.3255 81.3831 41.4172 81.307 41.5319C81.2943 41.5492 81.2838 41.5678 81.2758 41.5874C81.2743 41.5916 81.2743 41.5963 81.2758 41.6006C81.2758 41.6006 81.2758 41.6164 81.2758 41.6243C81.2758 41.6243 81.2758 41.6401 81.2758 41.6481V41.6797C81.2758 41.7546 81.3078 41.8265 81.3646 41.8795C81.4215 41.9324 81.4986 41.9622 81.5791 41.9622C81.6408 41.9629 81.7012 41.9458 81.752 41.9132C81.8027 41.8805 81.8414 41.834 81.8625 41.78V41.7642C81.8871 41.7226 81.9234 41.6879 81.9674 41.6639C82.0162 41.6399 82.0709 41.6281 82.1261 41.6296C82.1804 41.6281 82.2342 41.6399 82.282 41.6639C82.3274 41.6847 82.365 41.7178 82.3897 41.7589C82.417 41.8059 82.4307 41.8586 82.4294 41.912C82.4299 41.9622 82.4183 42.0118 82.3954 42.0572C82.3698 42.1043 82.3374 42.1478 82.299 42.1865C82.2565 42.2261 82.2055 42.271 82.1459 42.3185L81.3523 42.9626C81.3189 42.9895 81.2921 43.0227 81.2735 43.06C81.2549 43.0973 81.2451 43.1379 81.2446 43.179V43.2107C81.2446 43.2863 81.2769 43.3588 81.3343 43.4123C81.3917 43.4657 81.4695 43.4958 81.5507 43.4958H82.8092C82.8514 43.5072 82.8959 43.5094 82.9392 43.5021C82.9825 43.4947 83.0234 43.4781 83.0586 43.4535C83.0938 43.429 83.1224 43.3971 83.142 43.3604C83.1617 43.3238 83.172 43.2834 83.172 43.2424C83.172 43.2014 83.1617 43.161 83.142 43.1243C83.1224 43.0877 83.0938 43.0558 83.0586 43.0312C83.0234 43.0066 82.9825 42.99 82.9392 42.9827C82.8959 42.9753 82.8514 42.9775 82.8092 42.989Z" fill="white"/>
</svg>
