<svg width="72" height="72" viewBox="0 0 72 72" fill="none" xmlns="http://www.w3.org/2000/svg">
<path fill-rule="evenodd" clip-rule="evenodd" d="M72 36C71.7625 48.9236 70.6542 59.2347 64.8356 64.8356C59.017 70.4365 49.0028 71.7625 36 72C23.0764 71.7625 12.7653 70.6542 7.16438 64.8356C1.5635 59.017 0.237493 49.0028 0 36C0.237493 23.0764 1.34579 12.7653 7.16438 7.16438C12.983 1.5635 22.9973 0.237493 36 0C48.9236 0.237493 59.2347 1.34579 64.8356 7.16438C70.4365 12.983 71.7625 23.0764 72 36Z" fill="#CF2228"/>
<path d="M26.1035 34.276V42.6872C26.1011 42.9703 26.1595 43.2505 26.2746 43.5091C26.3897 43.7677 26.559 43.9985 26.771 44.1861C26.9829 44.3737 27.2327 44.5136 27.5033 44.5965C27.774 44.6793 28.0593 44.7031 28.3399 44.6663C28.8262 44.6125 29.2754 44.3805 29.6006 44.015C29.9259 43.6495 30.1043 43.1765 30.1013 42.6872V30.8126C30.1013 30.0042 29.7802 29.229 29.2086 28.6574C28.6371 28.0858 27.8618 27.7647 27.0535 27.7647C26.4397 27.7709 25.8422 27.9634 25.3403 28.3169C24.8384 28.6703 24.4558 29.168 24.2432 29.7438L20.7203 38.6103C20.7018 38.6191 20.6815 38.6236 20.661 38.6236C20.6404 38.6236 20.6202 38.6191 20.6016 38.6103C20.5805 38.6224 20.5566 38.6288 20.5323 38.6288C20.508 38.6288 20.4841 38.6224 20.4631 38.6103L16.9402 29.7438C16.7276 29.168 16.345 28.6703 15.8431 28.3169C15.3412 27.9634 14.7437 27.7709 14.1299 27.7647C13.335 27.7591 12.5694 28.0643 11.9963 28.6152C11.4233 29.1661 11.0881 29.9191 11.0623 30.7136V42.5883C11.0593 43.0775 11.2377 43.5506 11.563 43.916C11.8883 44.2815 12.3374 44.5136 12.8237 44.5674C13.1043 44.6042 13.3896 44.5804 13.6603 44.4975C13.9309 44.4147 14.1807 44.2748 14.3926 44.0872C14.6046 43.8996 14.7739 43.6687 14.889 43.4101C15.0042 43.1516 15.0625 42.8713 15.0601 42.5883V34.0781L18.761 43.4393C18.9337 43.7877 19.1983 44.0825 19.5261 44.2917C19.8539 44.501 20.2326 44.6168 20.6214 44.6268C21.0505 44.6506 21.4757 44.5341 21.8328 44.2949C22.1899 44.0557 22.4593 43.7067 22.6005 43.3008L26.1035 34.276Z" fill="white"/>
<path d="M60.1835 30.477C59.673 29.628 58.9317 28.9416 58.046 28.4979C57.0231 27.9789 55.8878 27.7206 54.7409 27.7458H50.2682C49.5858 27.7458 48.9314 28.0169 48.4489 28.4994C47.9664 28.9819 47.6953 29.6363 47.6953 30.3187V42.7079C47.6953 43.2328 47.9038 43.7362 48.275 44.1073C48.6461 44.4785 49.1495 44.687 49.6744 44.687C50.1993 44.687 50.7027 44.4785 51.0739 44.1073C51.445 43.7362 51.6535 43.2328 51.6535 42.7079V39.4028H54.6024C55.7707 39.4329 56.9297 39.1889 57.9867 38.6903C58.893 38.254 59.6553 37.5672 60.1835 36.7112C60.6976 35.7718 60.9569 34.7142 60.9355 33.6436C60.9785 32.5392 60.7184 31.4441 60.1835 30.477ZM56.3638 34.93C56.1445 35.328 55.8051 35.6466 55.394 35.8404C54.9125 36.0689 54.3829 36.1775 53.8503 36.157H51.8316V30.9916H53.8108C54.3433 30.9711 54.873 31.0798 55.3545 31.3082C55.7699 31.4857 56.1121 31.8 56.3242 32.1988C56.5494 32.6177 56.6588 33.0891 56.6409 33.5644C56.6655 34.0357 56.5702 34.5056 56.3638 34.93Z" fill="white"/>
<path d="M43.4804 41.524H38.8097L40.3732 40.1584C41.4125 39.2896 42.3911 38.3506 43.3022 37.3481C43.8948 36.714 44.3765 35.9848 44.7272 35.1909C44.9837 34.5623 45.118 33.8906 45.123 33.2118C45.1488 32.2228 44.8727 31.2494 44.3314 30.4212C43.7554 29.5951 42.9506 28.9553 42.0158 28.5806C40.9315 28.1054 39.7556 27.8756 38.5722 27.9077C37.4105 27.88 36.2584 28.124 35.2077 28.6202C34.2928 29.0515 33.5228 29.739 32.9911 30.5993C32.9023 30.7288 32.8292 30.8683 32.7734 31.0149C32.7628 31.0471 32.7628 31.0818 32.7734 31.1139C32.7734 31.1139 32.7734 31.2326 32.7734 31.292C32.7734 31.292 32.7734 31.4108 32.7734 31.4701V31.7076C32.7734 32.2693 32.9965 32.8079 33.3936 33.205C33.7907 33.6022 34.3294 33.8253 34.891 33.8253C35.3218 33.8309 35.7436 33.7025 36.0981 33.4578C36.4527 33.2132 36.7225 32.8644 36.8701 32.4597V32.341C37.0421 32.0289 37.2951 31.7691 37.6024 31.5889C37.9435 31.409 38.3253 31.3204 38.7107 31.3316C39.0898 31.3202 39.4653 31.4089 39.7992 31.5889C40.1164 31.7446 40.3787 31.9931 40.5513 32.3014C40.7421 32.6533 40.8377 33.049 40.8283 33.4493C40.8323 33.8254 40.7511 34.1975 40.5909 34.5378C40.4125 34.8906 40.186 35.2169 39.918 35.5075C39.6211 35.8044 39.2648 36.1408 38.8492 36.4971L33.3077 41.3261C33.0746 41.5279 32.887 41.777 32.7573 42.0567C32.6277 42.3365 32.5589 42.6406 32.5557 42.949V43.1865C32.5557 43.7534 32.7809 44.297 33.1817 44.6979C33.5826 45.0987 34.1262 45.3239 34.6931 45.3239H43.4804C43.7753 45.4099 44.0862 45.4261 44.3885 45.3712C44.6908 45.3162 44.9762 45.1916 45.222 45.0073C45.4678 44.8229 45.6673 44.5839 45.8047 44.3091C45.9421 44.0342 46.0136 43.7312 46.0136 43.424C46.0136 43.1167 45.9421 42.8137 45.8047 42.5389C45.6673 42.2641 45.4678 42.025 45.222 41.8407C44.9762 41.6563 44.6908 41.5317 44.3885 41.4768C44.0862 41.4218 43.7753 41.438 43.4804 41.524Z" fill="white"/>
</svg>
