<svg width="18" height="18" viewBox="0 0 18 18" fill="none" xmlns="http://www.w3.org/2000/svg">
<path d="M15 8.25V3H9.75L11.8448 5.09475L8.60325 8.33625C7.84413 7.79247 6.93379 7.50004 6 7.5C3.51825 7.5 1.5 9.51825 1.5 12C1.5 14.4818 3.51825 16.5 6 16.5C8.48175 16.5 10.5 14.4818 10.5 12C10.5 11.0295 10.188 10.1325 9.66375 9.39675L12.9053 6.15525L15 8.25ZM6 15C4.3455 15 3 13.6545 3 12C3 10.3455 4.3455 9 6 9C7.6545 9 9 10.3455 9 12C9 13.6545 7.6545 15 6 15Z" fill="#141B56" fill-opacity="0.5"/>
</svg>
