<svg width="21" height="16" viewBox="0 0 21 16" fill="none" xmlns="http://www.w3.org/2000/svg">
<path d="M8.999 16C12.6916 14.4228 15.364 11.7303 16.8056 9.00392C18.2249 6.28886 18.4245 3.58507 17.1604 1.96279C16.0182 0.509496 14.5323 -0.0425286 13.0243 0.00253464C11.5162 0.0475979 10.0524 0.712281 8.999 1.64734C7.94556 0.712281 6.48183 0.0475979 4.97375 0.00253464C3.46567 -0.0425286 1.97976 0.509496 0.837607 1.96279C-0.426522 3.58507 -0.226923 6.28886 1.21463 9.00392C2.634 11.7303 5.30642 14.4228 8.999 16Z" fill="#141B56"/>
<path d="M13.6741 5.61536L13.9992 5.89365L14.3244 5.61536C15.0663 4.98035 16.0974 4.53186 17.1444 4.50169C18.1786 4.47189 19.1788 4.83071 19.9587 5.78706C20.7473 6.76387 20.7026 8.53829 19.632 10.5136C18.5908 12.4119 16.6673 14.3083 13.9992 15.4575C11.3303 14.308 9.40833 12.4114 8.38468 10.5154L8.3847 10.5154L8.38271 10.5118C7.29565 8.53751 7.25163 6.76339 8.03973 5.78714C8.81963 4.83073 9.81982 4.47189 10.8541 4.50169C11.901 4.53186 12.9322 4.98035 13.6741 5.61536Z" fill="#ECF2FF" stroke="#141B56"/>
</svg>
