<svg width="723" height="4" viewBox="0 0 723 4" fill="none" xmlns="http://www.w3.org/2000/svg">
<path d="M2 0.5C1.17157 0.5 0.5 1.17157 0.5 2C0.5 2.82843 1.17157 3.5 2 3.5V0.5ZM721 3.5C721.828 3.5 722.5 2.82843 722.5 2C722.5 1.17157 721.828 0.5 721 0.5V3.5ZM2.25175 3.5H3.75175V0.5H2.25175V3.5ZM12.3218 0.5L10.8218 0.5V3.5L12.3218 3.5V0.5ZM12.8253 3.5H14.3253V0.5H12.8253V3.5ZM22.8953 0.5L21.3953 0.5V3.5L22.8953 3.5V0.5ZM23.3988 3.5H24.8988V0.5H23.3988V3.5ZM33.4688 0.5L31.9688 0.5V3.5H33.4688V0.5ZM33.9723 3.5H35.4723V0.5H33.9723V3.5ZM44.0424 0.5L42.5424 0.5V3.5H44.0424V0.5ZM44.5459 3.5H46.0459V0.5H44.5459V3.5ZM54.6159 0.5L53.1159 0.5V3.5L54.6159 3.5V0.5ZM55.1194 3.5H56.6194V0.5H55.1194V3.5ZM65.1894 0.5H63.6894V3.5H65.1894V0.5ZM65.6929 3.5H67.1929V0.5H65.6929V3.5ZM75.763 0.5H74.263V3.5H75.763V0.5ZM76.2665 3.5H77.7665V0.5H76.2665V3.5ZM86.3365 0.5H84.8365V3.5H86.3365V0.5ZM86.84 3.5H88.34V0.5L86.84 0.5V3.5ZM96.91 0.5H95.41V3.5H96.91V0.5ZM97.4135 3.5L98.9135 3.5V0.5L97.4135 0.5V3.5ZM107.484 0.5H105.984V3.5H107.484V0.5ZM107.987 3.5L109.487 3.5V0.5L107.987 0.5V3.5ZM118.057 0.5H116.557V3.5H118.057V0.5ZM118.561 3.5H120.061V0.5L118.561 0.5V3.5ZM128.631 0.5H127.131V3.5H128.631V0.5ZM129.134 3.5H130.634V0.5L129.134 0.5V3.5ZM139.204 0.5H137.704V3.5H139.204V0.5ZM139.708 3.5L141.208 3.5V0.5L139.708 0.5V3.5ZM149.778 0.5L148.278 0.5V3.5H149.778V0.5ZM150.281 3.5H151.781V0.5H150.281V3.5ZM160.351 0.5L158.851 0.5V3.5H160.351V0.5ZM160.855 3.5H162.355V0.5H160.855V3.5ZM170.925 0.5L169.425 0.5V3.5L170.925 3.5V0.5ZM171.428 3.5H172.928V0.5H171.428V3.5ZM181.498 0.5L179.998 0.5V3.5L181.498 3.5V0.5ZM182.002 3.5H183.502V0.5H182.002V3.5ZM192.072 0.5L190.572 0.5V3.5H192.072V0.5ZM192.575 3.5H194.075V0.5H192.575V3.5ZM202.645 0.5L201.145 0.5V3.5H202.645V0.5ZM203.149 3.5H204.649V0.5H203.149V3.5ZM213.219 0.5H211.719V3.5H213.219V0.5ZM213.722 3.5H215.222V0.5H213.722V3.5ZM223.792 0.5H222.292V3.5H223.792V0.5ZM224.296 3.5H225.796V0.5H224.296V3.5ZM234.366 0.5H232.866V3.5H234.366V0.5ZM234.869 3.5H236.369V0.5L234.869 0.5V3.5ZM244.939 0.5H243.439V3.5H244.939V0.5ZM245.443 3.5H246.943V0.5L245.443 0.5V3.5ZM255.513 0.5H254.013V3.5H255.513V0.5ZM256.016 3.5L257.516 3.5V0.5L256.016 0.5V3.5ZM266.086 0.5H264.586V3.5H266.086V0.5ZM266.59 3.5L268.09 3.5V0.5L266.59 0.5V3.5ZM276.66 0.5H275.16V3.5H276.66V0.5ZM277.163 3.5H278.663V0.5L277.163 0.5V3.5ZM287.233 0.5H285.733V3.5H287.233V0.5ZM287.737 3.5H289.237V0.5H287.737V3.5ZM297.807 0.5L296.307 0.5V3.5L297.807 3.5V0.5ZM298.311 3.5H299.811V0.5H298.311V3.5ZM308.381 0.5L306.881 0.5V3.5H308.381V0.5ZM308.884 3.5H310.384V0.5H308.884V3.5ZM318.954 0.5L317.454 0.5V3.5H318.954V0.5ZM319.458 3.5H320.958V0.5H319.458V3.5ZM329.528 0.5L328.028 0.5V3.5L329.528 3.5V0.5ZM330.031 3.5H331.531V0.5H330.031V3.5ZM340.101 0.5L338.601 0.5V3.5L340.101 3.5V0.5ZM340.605 3.5H342.105V0.5H340.605V3.5ZM350.675 0.5H349.175V3.5H350.675V0.5ZM351.178 3.5H352.678V0.5H351.178V3.5ZM361.248 0.5H359.748V3.5H361.248V0.5ZM361.752 3.5H363.252V0.5H361.752V3.5ZM371.822 0.5H370.322V3.5H371.822V0.5ZM372.325 3.5L373.825 3.5V0.5L372.325 0.5V3.5ZM382.395 0.5H380.895V3.5H382.395V0.5ZM382.899 3.5L384.399 3.5V0.5L382.899 0.5V3.5ZM392.969 0.5H391.469V3.5H392.969V0.5ZM393.472 3.5H394.972V0.5L393.472 0.5V3.5ZM403.542 0.5H402.042V3.5H403.542V0.5ZM404.046 3.5H405.546V0.5L404.046 0.5V3.5ZM414.116 0.5H412.616V3.5H414.116V0.5ZM414.62 3.5L416.12 3.5V0.5L414.62 0.5V3.5ZM424.69 0.5H423.19V3.5H424.69V0.5ZM425.193 3.5L426.693 3.5V0.5L425.193 0.5V3.5ZM435.263 0.5L433.763 0.5V3.5H435.263V0.5ZM435.767 3.5H437.267V0.5H435.767V3.5ZM445.837 0.5L444.337 0.5V3.5L445.837 3.5V0.5ZM446.34 3.5H447.84V0.5H446.34V3.5ZM456.41 0.5L454.91 0.5V3.5L456.41 3.5V0.5ZM456.914 3.5H458.414V0.5H456.914V3.5ZM466.984 0.5L465.484 0.5V3.5H466.984V0.5ZM467.487 3.5H468.987V0.5H467.487V3.5ZM477.557 0.5L476.057 0.5V3.5H477.557V0.5ZM478.061 3.5H479.561V0.5H478.061V3.5ZM488.131 0.5L486.631 0.5V3.5L488.131 3.5V0.5ZM488.634 3.5H490.134V0.5H488.634V3.5ZM498.704 0.5H497.204V3.5H498.704V0.5ZM499.208 3.5H500.708V0.5H499.208V3.5ZM509.278 0.5H507.778V3.5H509.278V0.5ZM509.781 3.5H511.281V0.5H509.781V3.5ZM519.852 0.5H518.352V3.5H519.852V0.5ZM520.355 3.5H521.855V0.5L520.355 0.5V3.5ZM530.425 0.5H528.925V3.5H530.425V0.5ZM530.928 3.5L532.428 3.5V0.5L530.928 0.5V3.5ZM540.998 0.5H539.498V3.5H540.998V0.5ZM541.502 3.5L543.002 3.5V0.5L541.502 0.5V3.5ZM551.572 0.5H550.072V3.5H551.572V0.5ZM552.075 3.5H553.575V0.5L552.075 0.5V3.5ZM562.145 0.5H560.645V3.5H562.145V0.5ZM562.649 3.5H564.149V0.5L562.649 0.5V3.5ZM572.719 0.5H571.219V3.5H572.719V0.5ZM573.222 3.5H574.722V0.5H573.222V3.5ZM583.292 0.5L581.792 0.5V3.5H583.292V0.5ZM583.796 3.5H585.296V0.5H583.796V3.5ZM593.866 0.5L592.366 0.5V3.5H593.866V0.5ZM594.369 3.5H595.869V0.5H594.369V3.5ZM604.439 0.5L602.939 0.5V3.5L604.439 3.5V0.5ZM604.943 3.5H606.443V0.5H604.943V3.5ZM615.013 0.5L613.513 0.5V3.5L615.013 3.5V0.5ZM615.516 3.5H617.016V0.5H615.516V3.5ZM625.586 0.5L624.086 0.5V3.5H625.586V0.5ZM626.09 3.5H627.59V0.5H626.09V3.5ZM636.16 0.5H634.66V3.5H636.16V0.5ZM636.663 3.5H638.163V0.5H636.663V3.5ZM646.733 0.5H645.233V3.5H646.733V0.5ZM647.237 3.5H648.737V0.5H647.237V3.5ZM657.307 0.5H655.807V3.5H657.307V0.5ZM657.81 3.5L659.31 3.5V0.5L657.81 0.5V3.5ZM667.88 0.5H666.38V3.5H667.88V0.5ZM668.384 3.5H669.884V0.5L668.384 0.5V3.5ZM678.454 0.5H676.954V3.5H678.454V0.5ZM678.957 3.5H680.457V0.5L678.957 0.5V3.5ZM689.027 0.5H687.527V3.5H689.027V0.5ZM689.531 3.5L691.031 3.5V0.5L689.531 0.5V3.5ZM699.601 0.5H698.101V3.5H699.601V0.5ZM700.104 3.5L701.604 3.5V0.5L700.104 0.5V3.5ZM710.174 0.5H708.674V3.5H710.174V0.5ZM710.678 3.5H712.178V0.5L710.678 0.5V3.5ZM720.748 0.5L719.248 0.5V3.5L720.748 3.5V0.5ZM2 3.5H2.25175V0.5H2V3.5ZM12.3218 3.5H12.8253V0.5H12.3218V3.5ZM22.8953 3.5H23.3988V0.5H22.8953V3.5ZM33.4688 3.5H33.9723V0.5H33.4688V3.5ZM44.0424 3.5H44.5459V0.5H44.0424V3.5ZM54.6159 3.5H55.1194V0.5H54.6159V3.5ZM65.1894 3.5L65.6929 3.5V0.5L65.1894 0.5V3.5ZM75.763 3.5H76.2665V0.5L75.763 0.5V3.5ZM86.3365 3.5H86.84V0.5H86.3365V3.5ZM96.91 3.5H97.4135V0.5H96.91V3.5ZM107.484 3.5H107.987V0.5H107.484V3.5ZM118.057 3.5H118.561V0.5H118.057V3.5ZM128.631 3.5H129.134V0.5H128.631V3.5ZM139.204 3.5H139.708V0.5H139.204V3.5ZM149.778 3.5H150.281V0.5H149.778V3.5ZM160.351 3.5H160.855V0.5H160.351V3.5ZM170.925 3.5H171.428V0.5H170.925V3.5ZM181.498 3.5H182.002V0.5H181.498V3.5ZM192.072 3.5H192.575V0.5H192.072V3.5ZM202.645 3.5H203.149V0.5H202.645V3.5ZM213.219 3.5L213.722 3.5V0.5L213.219 0.5V3.5ZM223.792 3.5L224.296 3.5V0.5L223.792 0.5V3.5ZM234.366 3.5H234.869V0.5H234.366V3.5ZM244.939 3.5H245.443V0.5H244.939V3.5ZM255.513 3.5H256.016V0.5H255.513V3.5ZM266.086 3.5H266.59V0.5H266.086V3.5ZM276.66 3.5H277.163V0.5H276.66V3.5ZM287.233 3.5H287.737V0.5H287.233V3.5ZM297.807 3.5H298.311V0.5H297.807V3.5ZM308.381 3.5H308.884V0.5H308.381V3.5ZM318.954 3.5H319.458V0.5H318.954V3.5ZM329.528 3.5H330.031V0.5H329.528V3.5ZM340.101 3.5H340.605V0.5H340.101V3.5ZM350.675 3.5H351.178V0.5L350.675 0.5V3.5ZM361.248 3.5H361.752V0.5L361.248 0.5V3.5ZM371.822 3.5H372.325V0.5H371.822V3.5ZM382.395 3.5H382.899V0.5H382.395V3.5ZM392.969 3.5H393.472V0.5H392.969V3.5ZM403.542 3.5H404.046V0.5H403.542V3.5ZM414.116 3.5H414.62V0.5H414.116V3.5ZM424.69 3.5H425.193V0.5H424.69V3.5ZM435.263 3.5H435.767V0.5H435.263V3.5ZM445.837 3.5H446.34V0.5H445.837V3.5ZM456.41 3.5H456.914V0.5H456.41V3.5ZM466.984 3.5H467.487V0.5H466.984V3.5ZM477.557 3.5H478.061V0.5H477.557V3.5ZM488.131 3.5H488.634V0.5H488.131V3.5ZM498.704 3.5L499.208 3.5V0.5L498.704 0.5V3.5ZM509.278 3.5H509.781V0.5L509.278 0.5V3.5ZM519.852 3.5H520.355V0.5H519.852V3.5ZM530.425 3.5H530.928V0.5H530.425V3.5ZM540.998 3.5H541.502V0.5H540.998V3.5ZM551.572 3.5H552.075V0.5H551.572V3.5ZM562.145 3.5H562.649V0.5H562.145V3.5ZM572.719 3.5H573.222V0.5H572.719V3.5ZM583.292 3.5H583.796V0.5H583.292V3.5ZM593.866 3.5H594.369V0.5H593.866V3.5ZM604.439 3.5H604.943V0.5H604.439V3.5ZM615.013 3.5H615.516V0.5H615.013V3.5ZM625.586 3.5H626.09V0.5H625.586V3.5ZM636.16 3.5H636.663V0.5L636.16 0.5V3.5ZM646.733 3.5L647.237 3.5V0.5L646.733 0.5V3.5ZM657.307 3.5H657.81V0.5H657.307V3.5ZM667.88 3.5H668.384V0.5H667.88V3.5ZM678.454 3.5H678.957V0.5H678.454V3.5ZM689.027 3.5H689.531V0.5H689.027V3.5ZM699.601 3.5H700.104V0.5H699.601V3.5ZM710.174 3.5H710.678V0.5H710.174V3.5ZM720.748 3.5H721V0.5H720.748V3.5Z" fill="#B8B8B8"/>
</svg>
