<svg width="60" height="137" viewBox="0 0 60 137" fill="none" xmlns="http://www.w3.org/2000/svg">
<path d="M49.2666 36.9845V129.306C49.2666 133.555 38.2369 137 24.634 137C11.0298 137 0 133.555 0 129.306V36.9845C0 36.9845 0 28.0322 8.11211 26.6328H41.1566C41.1566 26.6321 49.3727 26.6321 49.2666 36.9845Z" fill="black"/>
<path opacity="0.1" d="M27.3222 35.4224C23.2098 39.5574 20.3546 44.6209 18.6834 50.0218C15.15 61.4369 15.7284 74.1748 18.7391 85.6349C20.3349 91.7022 22.611 97.8665 26.6875 102.906C28.6217 105.295 31.012 107.448 33.8596 108.87C36.7324 110.306 40.1075 111.047 43.3093 111.503C45.2537 111.781 47.2532 111.952 49.2669 112.007V36.9838C49.356 28.4208 43.7531 26.9428 41.8107 26.6865C36.3607 28.579 31.3035 31.4196 27.3222 35.4224Z" fill="white"/>
<path opacity="0.7" d="M36.3047 136.147L31.043 136.737V26.6327H36.3047V136.147Z" fill="white"/>
<path opacity="0.5" d="M42.4714 135.302L39.8406 135.789V26.6327H42.4714V135.302Z" fill="white"/>
<path d="M41.3795 123.695C34.5567 124.599 26.7382 123.128 21.0727 119.378C9.48293 111.709 8.43697 97.4019 7.21431 85.3431C6.41234 77.4598 5.98146 69.4924 6.59449 61.5838C7.14635 54.46 8.15696 46.5818 12.0424 40.2796C15.0811 35.3534 19.7998 32.0741 25.4652 30.1139C29.7965 28.6151 34.3215 27.7106 38.7921 26.6327H8.11211C0 28.0315 0 36.9845 0 36.9845V129.306C0 133.555 11.0298 137 24.634 137C38.2376 137 49.2666 133.555 49.2666 129.306V121.488C46.7833 122.56 44.1497 123.328 41.3795 123.695Z" fill="#8C0000"/>
<path d="M44.5716 16.0006H4.69751V27.5968H44.5716V16.0006Z" fill="#3C3C3B"/>
<path d="M44.5716 21.7996H4.69751V27.5973H44.5716V21.7996Z" fill="black"/>
<path d="M58.7908 26.878C56.5141 20.7404 46.2455 16.6345 44.5715 16.001V18.6087C47.4212 19.8043 54.7239 23.2367 56.3632 27.661C56.9191 29.1649 56.7404 30.6232 55.8113 32.1144C55.6774 32.2574 55.0399 32.8695 53.9702 32.7549C52.6932 32.6188 49.3296 31.2181 44.5722 21.5335V26.8527C47.6809 32.0372 50.7311 34.817 53.6766 35.1329C53.8662 35.1525 54.0511 35.1626 54.2312 35.1626C56.0866 35.1626 57.3996 34.1493 57.9121 33.4967L57.98 33.4011C59.3339 31.2738 59.6071 29.0794 58.7908 26.878Z" fill="black"/>
<path d="M36.0488 0H13.1321C10.3707 0 8.13208 2.23858 8.13208 5V13.0325C8.13208 15.794 10.3707 18.0325 13.1321 18.0325H36.0488C38.8103 18.0325 41.0488 15.794 41.0488 13.0325V5C41.0488 2.23858 38.8103 0 36.0488 0Z" fill="#3C3C3B"/>
<path d="M41.157 8.44774H8.11255V16.0019H41.157V8.44774Z" fill="black"/>
<path d="M36.1201 0H13.1201C10.3587 0 8.12012 2.23858 8.12012 5V9L41.1201 5.5V5C41.1201 2.23858 38.8815 0 36.1201 0Z" fill="#8C0000"/>
<path fill-rule="evenodd" clip-rule="evenodd" d="M16.2649 123.703C16.2266 125.645 16.0477 127.195 15.1089 128.036C14.17 128.878 12.5541 129.077 10.4561 129.113C8.37075 129.077 6.70698 128.911 5.80324 128.036C4.8995 127.162 4.68554 125.657 4.64722 123.703C4.68554 121.761 4.86437 120.212 5.80324 119.37C6.7421 118.528 8.35798 118.329 10.4561 118.293C12.5414 118.329 14.2051 118.496 15.1089 119.37C16.0126 120.244 16.2266 121.761 16.2649 123.703Z" fill="#CF2228"/>
<path d="M8.85987 123.444V124.708C8.85948 124.751 8.86889 124.793 8.88747 124.832C8.90605 124.871 8.93336 124.905 8.96757 124.933C9.00177 124.962 9.04206 124.983 9.08574 124.995C9.12941 125.008 9.17544 125.011 9.22072 125.006C9.29919 124.998 9.37166 124.963 9.42415 124.908C9.47664 124.853 9.50542 124.782 9.50494 124.708V122.924C9.50494 122.802 9.45313 122.686 9.3609 122.6C9.26867 122.514 9.14358 122.466 9.01315 122.466C8.91411 122.467 8.8177 122.496 8.73672 122.549C8.65573 122.602 8.59399 122.677 8.55969 122.763L7.99126 124.096C7.98826 124.097 7.98499 124.098 7.98168 124.098C7.97836 124.098 7.97509 124.097 7.9721 124.096C7.9687 124.097 7.96484 124.098 7.96092 124.098C7.957 124.098 7.95314 124.097 7.94974 124.096L7.38131 122.763C7.34701 122.677 7.28527 122.602 7.20428 122.549C7.1233 122.496 7.02689 122.467 6.92785 122.466C6.79959 122.465 6.67605 122.511 6.58358 122.594C6.49111 122.676 6.43703 122.79 6.43287 122.909V124.693C6.43239 124.767 6.46117 124.838 6.51366 124.893C6.56614 124.948 6.63861 124.983 6.71708 124.991C6.76237 124.996 6.8084 124.993 6.85207 124.98C6.89574 124.968 6.93604 124.947 6.97024 124.919C7.00444 124.89 7.03176 124.856 7.05033 124.817C7.06891 124.778 7.07833 124.736 7.07794 124.693V123.414L7.67511 124.821C7.70298 124.874 7.74566 124.918 7.79856 124.949C7.85145 124.981 7.91256 124.998 7.97529 125C8.04453 125.003 8.11315 124.986 8.17076 124.95C8.22837 124.914 8.27185 124.861 8.29463 124.8L8.85987 123.444Z" fill="white"/>
<path d="M14.3581 122.873C14.2757 122.746 14.1561 122.642 14.0132 122.576C13.8481 122.498 13.6649 122.459 13.4799 122.463H12.7582C12.6481 122.463 12.5425 122.504 12.4646 122.576C12.3868 122.649 12.343 122.747 12.343 122.849V124.711C12.343 124.79 12.3767 124.866 12.4366 124.921C12.4964 124.977 12.5777 125.009 12.6624 125.009C12.7471 125.009 12.8283 124.977 12.8882 124.921C12.9481 124.866 12.9817 124.79 12.9817 124.711V124.214H13.4575C13.646 124.219 13.833 124.182 14.0036 124.107C14.1498 124.042 14.2728 123.939 14.3581 123.81C14.441 123.669 14.4829 123.51 14.4794 123.349C14.4863 123.183 14.4444 123.019 14.3581 122.873ZM13.7417 123.542C13.7064 123.602 13.6516 123.65 13.5853 123.679C13.5076 123.713 13.4221 123.73 13.3362 123.727H13.0104V122.951H13.3298C13.4157 122.947 13.5012 122.964 13.5789 122.998C13.6459 123.025 13.7011 123.072 13.7353 123.132C13.7717 123.195 13.7893 123.266 13.7864 123.337C13.7904 123.408 13.775 123.479 13.7417 123.542Z" fill="white"/>
<path d="M11.6627 124.533H10.909L11.1613 124.328C11.329 124.197 11.4869 124.056 11.6339 123.906C11.7296 123.81 11.8073 123.701 11.8639 123.581C11.9052 123.487 11.9269 123.386 11.9277 123.284C11.9319 123.135 11.8873 122.989 11.8 122.865C11.7071 122.741 11.5772 122.644 11.4264 122.588C11.2514 122.517 11.0617 122.482 10.8707 122.487C10.6833 122.483 10.4974 122.52 10.3278 122.594C10.1802 122.659 10.056 122.762 9.97016 122.892C9.95583 122.911 9.94404 122.932 9.93503 122.954C9.93332 122.959 9.93332 122.964 9.93503 122.969C9.93503 122.969 9.93503 122.987 9.93503 122.996C9.93503 122.996 9.93503 123.013 9.93503 123.022V123.058C9.93503 123.142 9.97103 123.223 10.0351 123.283C10.0992 123.343 10.1861 123.376 10.2767 123.376C10.3462 123.377 10.4143 123.358 10.4715 123.321C10.5287 123.284 10.5722 123.232 10.5961 123.171V123.153C10.6238 123.106 10.6646 123.067 10.7142 123.04C10.7693 123.013 10.8309 123 10.8931 123.002C10.9542 123 11.0148 123.013 11.0687 123.04C11.1199 123.064 11.1622 123.101 11.19 123.147C11.2208 123.2 11.2363 123.26 11.2348 123.32C11.2354 123.376 11.2223 123.432 11.1964 123.483C11.1677 123.536 11.1311 123.585 11.0879 123.629C11.04 123.674 10.9825 123.724 10.9154 123.778L10.0213 124.503C9.98363 124.534 9.95336 124.571 9.93244 124.613C9.91152 124.655 9.90043 124.701 9.8999 124.747V124.783C9.8999 124.868 9.93624 124.95 10.0009 125.01C10.0656 125.07 10.1533 125.104 10.2448 125.104H11.6627C11.7103 125.117 11.7604 125.12 11.8092 125.111C11.858 125.103 11.904 125.084 11.9437 125.057C11.9834 125.029 12.0155 124.993 12.0377 124.952C12.0599 124.91 12.0714 124.865 12.0714 124.819C12.0714 124.773 12.0599 124.727 12.0377 124.686C12.0155 124.644 11.9834 124.608 11.9437 124.581C11.904 124.553 11.858 124.534 11.8092 124.526C11.7604 124.518 11.7103 124.52 11.6627 124.533Z" fill="white"/>
</svg>
