<svg width="90" height="123" viewBox="0 0 90 123" fill="none" xmlns="http://www.w3.org/2000/svg">
<path d="M82.9734 123H0.569588C0.254964 123 0 122.754 0 122.45V0.550218C0 0.246361 0.254964 0.00012207 0.569588 0.00012207H82.9734C86.8541 0.00012207 90 3.0384 90 6.78631V116.214C90 119.962 86.8541 123 82.9734 123Z" fill="#B52323"/>
<mask id="mask0_1615_882" style="mask-type:alpha" maskUnits="userSpaceOnUse" x="67" y="1" width="6" height="123">
<path d="M72.8454 1.3927H67.6543V123H72.8454V1.3927Z" fill="url(#paint0_linear_1615_882)"/>
</mask>
<g mask="url(#mask0_1615_882)">
<mask id="mask1_1615_882" style="mask-type:alpha" maskUnits="userSpaceOnUse" x="62" y="0" width="7" height="146">
<path d="M62.3286 0.392822H68.489V145.895H62.3286V0.392822Z" fill="url(#paint1_linear_1615_882)"/>
</mask>
<g mask="url(#mask1_1615_882)">
<path opacity="0.7" d="M62.3291 0.392944H68.4895V145.895H62.3291V0.392944Z" fill="url(#paint2_linear_1615_882)"/>
</g>
</g>
<path opacity="0.7" d="M73 0H67V123H73V0Z" fill="url(#paint3_linear_1615_882)"/>
<circle cx="70.3319" cy="105.332" r="4.33193" fill="#CCCCCC"/>
<circle cx="70.2904" cy="105.29" r="3.79044" fill="#959595"/>
<path d="M69.0503 104.985V105.934C69.0501 105.966 69.0566 105.998 69.0696 106.027C69.0826 106.056 69.1017 106.082 69.1256 106.103C69.1495 106.125 69.1777 106.14 69.2082 106.15C69.2388 106.159 69.271 106.162 69.3026 106.158C69.3575 106.151 69.4081 106.125 69.4448 106.084C69.4815 106.043 69.5017 105.989 69.5013 105.934V104.595C69.5013 104.504 69.4651 104.416 69.4006 104.352C69.3361 104.287 69.2487 104.251 69.1575 104.251C69.0882 104.252 69.0208 104.273 68.9642 104.313C68.9076 104.353 68.8644 104.409 68.8405 104.474L68.4431 105.474C68.441 105.475 68.4387 105.476 68.4364 105.476C68.434 105.476 68.4317 105.475 68.4297 105.474C68.4273 105.476 68.4246 105.476 68.4218 105.476C68.4191 105.476 68.4164 105.476 68.414 105.474L68.0166 104.474C67.9926 104.409 67.9495 104.353 67.8928 104.313C67.8362 104.273 67.7688 104.252 67.6996 104.251C67.6099 104.25 67.5235 104.285 67.4589 104.347C67.3942 104.409 67.3564 104.494 67.3535 104.584V105.923C67.3532 105.978 67.3733 106.032 67.41 106.073C67.4467 106.114 67.4974 106.14 67.5522 106.146C67.5839 106.151 67.6161 106.148 67.6466 106.139C67.6771 106.129 67.7053 106.113 67.7292 106.092C67.7531 106.071 67.7722 106.045 67.7852 106.016C67.7982 105.987 67.8048 105.955 67.8045 105.923V104.963L68.222 106.019C68.2415 106.058 68.2713 106.092 68.3083 106.115C68.3453 106.139 68.388 106.152 68.4319 106.153C68.4803 106.156 68.5283 106.143 68.5685 106.116C68.6088 106.089 68.6392 106.049 68.6552 106.003L69.0503 104.985Z" fill="#CCCCCC"/>
<path d="M72.8951 104.557C72.8375 104.462 72.7539 104.384 72.654 104.334C72.5386 104.276 72.4105 104.246 72.2811 104.249H71.7766C71.6996 104.249 71.6258 104.28 71.5713 104.334C71.5169 104.389 71.4863 104.462 71.4863 104.539V105.937C71.4863 105.996 71.5099 106.053 71.5517 106.095C71.5936 106.137 71.6504 106.16 71.7096 106.16C71.7688 106.16 71.8256 106.137 71.8675 106.095C71.9093 106.053 71.9329 105.996 71.9329 105.937V105.564H72.2655C72.3973 105.568 72.5281 105.54 72.6473 105.484C72.7495 105.435 72.8355 105.357 72.8951 105.261C72.9531 105.155 72.9824 105.035 72.98 104.915C72.9848 104.79 72.9555 104.666 72.8951 104.557ZM72.4642 105.06C72.4395 105.105 72.4012 105.141 72.3548 105.162C72.3005 105.188 72.2408 105.2 72.1807 105.198H71.953V104.615H72.1762C72.2363 104.613 72.296 104.625 72.3504 104.651C72.3972 104.671 72.4358 104.707 72.4598 104.752C72.4852 104.799 72.4975 104.852 72.4955 104.906C72.4983 104.959 72.4875 105.012 72.4642 105.06Z" fill="#CCCCCC"/>
<path d="M71.0107 105.804H70.4838L70.6602 105.65C70.7775 105.552 70.8879 105.446 70.9906 105.333C71.0575 105.261 71.1118 105.179 71.1514 105.09C71.1803 105.019 71.1955 104.943 71.1961 104.866C71.199 104.755 71.1678 104.645 71.1067 104.551C71.0418 104.458 70.951 104.386 70.8455 104.344C70.7232 104.29 70.5906 104.264 70.457 104.268C70.326 104.265 70.196 104.292 70.0775 104.348C69.9743 104.397 69.8874 104.474 69.8274 104.572C69.8174 104.586 69.8092 104.602 69.8029 104.618C69.8017 104.622 69.8017 104.626 69.8029 104.63C69.8029 104.63 69.8029 104.643 69.8029 104.65C69.8029 104.65 69.8029 104.663 69.8029 104.67V104.697C69.8029 104.76 69.828 104.821 69.8728 104.866C69.9177 104.91 69.9784 104.935 70.0418 104.935C70.0904 104.936 70.138 104.922 70.1779 104.894C70.2179 104.866 70.2484 104.827 70.265 104.781V104.768C70.2844 104.733 70.313 104.704 70.3476 104.683C70.3861 104.663 70.4292 104.653 70.4727 104.654C70.5154 104.653 70.5578 104.663 70.5955 104.683C70.6312 104.701 70.6608 104.729 70.6803 104.764C70.7018 104.803 70.7126 104.848 70.7116 104.893C70.712 104.935 70.7029 104.977 70.6848 105.016C70.6647 105.056 70.6391 105.092 70.6089 105.125C70.5754 105.159 70.5352 105.197 70.4883 105.237L69.8632 105.782C69.8369 105.804 69.8157 105.833 69.8011 105.864C69.7864 105.896 69.7787 105.93 69.7783 105.965V105.992C69.7783 106.055 69.8037 106.117 69.8489 106.162C69.8942 106.207 69.9555 106.233 70.0194 106.233H71.0107C71.044 106.242 71.0791 106.244 71.1132 106.238C71.1473 106.232 71.1795 106.218 71.2072 106.197C71.2349 106.176 71.2574 106.149 71.273 106.118C71.2885 106.087 71.2965 106.053 71.2965 106.018C71.2965 105.984 71.2885 105.949 71.273 105.918C71.2574 105.887 71.2349 105.86 71.2072 105.84C71.1795 105.819 71.1473 105.805 71.1132 105.799C71.0791 105.792 71.044 105.794 71.0107 105.804Z" fill="#CCCCCC"/>
<mask id="mask2_1615_882" style="mask-type:alpha" maskUnits="userSpaceOnUse" x="66" y="101" width="9" height="9">
<circle cx="70.3319" cy="105.332" r="4.33193" fill="#CCCCCC"/>
</mask>
<g mask="url(#mask2_1615_882)">
<rect x="73.395" y="101.87" width="0.848333" height="9.20535" transform="rotate(45.2221 73.395 101.87)" fill="white" fill-opacity="0.24"/>
<rect width="0.420636" height="9.20535" transform="matrix(0.704373 0.70983 -0.709855 0.704348 72.5171 100.985)" fill="white" fill-opacity="0.24"/>
</g>
<path fill-rule="evenodd" clip-rule="evenodd" d="M17.2956 11.8497C17.2639 13.5744 17.116 14.9504 16.3395 15.6979C15.563 16.4453 14.2265 16.6223 12.4913 16.654C10.7666 16.6223 9.39056 16.4744 8.64311 15.6979C7.89566 14.9214 7.71871 13.5849 7.68701 11.8497C7.71871 10.125 7.86661 8.74896 8.64311 8.00151C9.41961 7.25406 10.756 7.0771 12.4913 7.04541C14.216 7.0771 15.592 7.22501 16.3395 8.00151C17.0869 8.77801 17.2639 10.125 17.2956 11.8497Z" fill="white"/>
<path d="M11.1704 11.6196V12.7421C11.1701 12.7798 11.1778 12.8172 11.1932 12.8517C11.2086 12.8862 11.2312 12.9171 11.2594 12.9421C11.2877 12.9671 11.3211 12.9858 11.3572 12.9969C11.3933 13.0079 11.4314 13.0111 11.4688 13.0062C11.5337 12.999 11.5937 12.968 11.6371 12.9193C11.6805 12.8705 11.7043 12.8074 11.7039 12.7421V11.1574C11.7039 11.0495 11.661 10.946 11.5848 10.8698C11.5085 10.7935 11.405 10.7506 11.2971 10.7506C11.2152 10.7514 11.1355 10.7771 11.0685 10.8243C11.0015 10.8715 10.9505 10.9379 10.9221 11.0147L10.452 12.198C10.4495 12.1992 10.4468 12.1998 10.4441 12.1998C10.4413 12.1998 10.4386 12.1992 10.4361 12.198C10.4333 12.1996 10.4301 12.2005 10.4269 12.2005C10.4236 12.2005 10.4205 12.1996 10.4176 12.198L9.94751 11.0147C9.91914 10.9379 9.86808 10.8715 9.8011 10.8243C9.73412 10.7771 9.65439 10.7514 9.57247 10.7506C9.46639 10.7499 9.36422 10.7906 9.28774 10.8641C9.21126 10.9376 9.16653 11.0381 9.16309 11.1442V12.7289C9.16269 12.7941 9.1865 12.8573 9.22991 12.906C9.27332 12.9548 9.33326 12.9858 9.39815 12.993C9.43561 12.9979 9.47368 12.9947 9.5098 12.9836C9.54592 12.9726 9.57925 12.9539 9.60753 12.9289C9.63582 12.9039 9.65841 12.873 9.67377 12.8385C9.68914 12.804 9.69693 12.7666 9.6966 12.7289V11.5932L10.1905 12.8424C10.2136 12.8889 10.2489 12.9283 10.2926 12.9562C10.3363 12.9841 10.3869 12.9996 10.4388 13.0009C10.496 13.0041 10.5528 12.9885 10.6004 12.9566C10.6481 12.9247 10.684 12.8781 10.7029 12.8239L11.1704 11.6196Z" fill="#C20000"/>
<path d="M15.7188 11.1132C15.6507 10.9999 15.5518 10.9083 15.4336 10.8491C15.2971 10.7799 15.1455 10.7454 14.9925 10.7488H14.3956C14.3045 10.7488 14.2172 10.7849 14.1528 10.8493C14.0884 10.9137 14.0522 11.001 14.0522 11.0921V12.7455C14.0522 12.8155 14.0801 12.8827 14.1296 12.9322C14.1791 12.9818 14.2463 13.0096 14.3164 13.0096C14.3864 13.0096 14.4536 12.9818 14.5031 12.9322C14.5527 12.8827 14.5805 12.8155 14.5805 12.7455V12.3044H14.974C15.1299 12.3084 15.2846 12.2759 15.4256 12.2093C15.5466 12.1511 15.6483 12.0594 15.7188 11.9452C15.7874 11.8198 15.822 11.6787 15.8192 11.5358C15.8249 11.3884 15.7902 11.2423 15.7188 11.1132ZM15.2091 11.7075C15.1798 11.7606 15.1345 11.8031 15.0797 11.829C15.0154 11.8595 14.9447 11.874 14.8736 11.8713H14.6042V11.1819H14.8684C14.9394 11.1792 15.0101 11.1937 15.0744 11.2242C15.1298 11.2479 15.1755 11.2898 15.2038 11.343C15.2338 11.3989 15.2484 11.4618 15.246 11.5253C15.2493 11.5882 15.2366 11.6509 15.2091 11.7075Z" fill="#C20000"/>
<path d="M13.4897 12.587H12.8663L13.075 12.4048C13.2137 12.2889 13.3443 12.1635 13.4659 12.0298C13.545 11.9451 13.6093 11.8478 13.6561 11.7419C13.6903 11.658 13.7082 11.5684 13.7089 11.4778C13.7123 11.3458 13.6755 11.2159 13.6032 11.1054C13.5264 10.9951 13.419 10.9097 13.2942 10.8597C13.1495 10.7963 12.9926 10.7656 12.8347 10.7699C12.6796 10.7662 12.5259 10.7988 12.3857 10.865C12.2636 10.9226 12.1608 11.0143 12.0898 11.1291C12.078 11.1464 12.0682 11.165 12.0608 11.1846C12.0594 11.1889 12.0594 11.1935 12.0608 11.1978C12.0608 11.1978 12.0608 11.2136 12.0608 11.2216C12.0608 11.2216 12.0608 11.2374 12.0608 11.2453V11.277C12.0608 11.352 12.0906 11.4239 12.1436 11.4769C12.1966 11.5299 12.2684 11.5596 12.3434 11.5596C12.4009 11.5604 12.4572 11.5432 12.5045 11.5106C12.5518 11.4779 12.5878 11.4314 12.6075 11.3774V11.3615C12.6305 11.3199 12.6642 11.2852 12.7052 11.2612C12.7508 11.2372 12.8017 11.2254 12.8531 11.2268C12.9037 11.2253 12.9538 11.2372 12.9984 11.2612C13.0407 11.282 13.0757 11.3151 13.0988 11.3563C13.1242 11.4032 13.137 11.456 13.1357 11.5095C13.1363 11.5596 13.1254 11.6093 13.1041 11.6547C13.0802 11.7018 13.05 11.7454 13.0143 11.7841C12.9746 11.8238 12.9271 11.8687 12.8716 11.9162L12.1321 12.5606C12.101 12.5876 12.076 12.6208 12.0587 12.6581C12.0413 12.6955 12.0322 12.7361 12.0317 12.7772V12.8089C12.0317 12.8846 12.0618 12.9571 12.1153 13.0106C12.1688 13.0641 12.2413 13.0941 12.317 13.0941H13.4897C13.529 13.1056 13.5705 13.1078 13.6109 13.1005C13.6512 13.0931 13.6893 13.0765 13.7221 13.0519C13.7549 13.0273 13.7815 12.9954 13.7998 12.9587C13.8182 12.922 13.8277 12.8816 13.8277 12.8406C13.8277 12.7996 13.8182 12.7592 13.7998 12.7225C13.7815 12.6858 13.7549 12.6539 13.7221 12.6293C13.6893 12.6047 13.6512 12.5881 13.6109 12.5807C13.5705 12.5734 13.529 12.5756 13.4897 12.587Z" fill="#C20000"/>
<defs>
<linearGradient id="paint0_linear_1615_882" x1="67.6543" y1="62.1965" x2="72.8453" y2="62.1965" gradientUnits="userSpaceOnUse">
<stop stop-color="#CCCCCC"/>
<stop offset="1"/>
</linearGradient>
<linearGradient id="paint1_linear_1615_882" x1="68.489" y1="73.1441" x2="62.3286" y2="73.1441" gradientUnits="userSpaceOnUse">
<stop stop-color="#CCCCCC"/>
<stop offset="1"/>
</linearGradient>
<linearGradient id="paint2_linear_1615_882" x1="68.4895" y1="73.1442" x2="62.329" y2="73.1442" gradientUnits="userSpaceOnUse">
<stop stop-color="#0F0F0F"/>
<stop offset="1" stop-color="white"/>
</linearGradient>
<linearGradient id="paint3_linear_1615_882" x1="67" y1="61.5001" x2="73" y2="61.5001" gradientUnits="userSpaceOnUse">
<stop/>
<stop offset="1" stop-color="#090909"/>
</linearGradient>
</defs>
</svg>
