<svg width="120" height="143" viewBox="0 0 120 143" fill="none" xmlns="http://www.w3.org/2000/svg">
<path d="M1.55327 57.8919C1.55327 57.8919 1.55327 60.349 1.55327 60.9912C1.55327 61.6342 1.29963 62.1879 2.20378 62.2764C3.10793 62.3649 12.6986 62.8523 13.9598 62.9636C15.221 63.0742 23.0265 63.5401 23.5505 63.3846C24.0739 63.2297 24.883 58.9298 24.883 58.9298L16.0777 56.8911L1.84674 57.2014L1.55327 57.8919Z" fill="#8C0005"/>
<path d="M119.099 56.736C119.099 56.736 119.424 59.7059 119.583 60.2376C119.742 60.7692 119.242 61.5227 118.718 61.5227C118.194 61.5227 114.601 62.0771 113.173 62.3426C111.745 62.6088 106.2 63.4951 105.2 63.717C104.201 63.9382 98.434 64.803 97.0693 64.4484C95.7047 64.0937 96.2288 60.6345 96.2288 60.6345L100.703 58.0882L117.647 56.736H119.099Z" fill="#8C0005"/>
<path d="M112.574 62.4502C110.724 61.6947 105.8 62.5953 105.605 61.3238C105.367 59.7725 108.967 58.7086 108.967 58.7086L100.284 58.326L96.2285 60.6341C96.2285 60.6341 95.7052 64.0933 97.0691 64.4479C98.4337 64.8026 104.2 63.9384 105.2 63.7165C106.093 63.52 110.6 62.7932 112.574 62.4502Z" fill="#760000"/>
<path d="M10.9258 20.6287C10.3668 21.4304 7.46288 25.0653 6.797 25.9958C6.13042 26.9263 3.75056 31.4482 3.13219 36.1022C2.51312 40.7561 0.942383 55.3394 0.942383 56.4476C0.942383 57.5558 1.22816 57.9547 1.98977 57.9547C2.75138 57.9547 9.19013 58.5312 10.8014 58.5755C12.4134 58.6197 23.3121 59.5951 23.8836 59.2848C24.4545 58.9744 24.4391 47.2132 24.4391 47.2132C24.4391 47.2132 18.7277 26.7051 18.7277 26.5281C18.7277 26.3511 13.968 19.7313 13.968 19.7313L10.9258 20.6287Z" fill="#8C0005"/>
<path d="M18.7277 26.5282C18.7277 26.4599 18.0212 25.4356 17.1527 24.2025L14.1265 25.8196C14.1265 25.8196 14.6024 36.3267 16.3157 39.5394C18.0289 42.752 18.8856 48.6917 15.2208 50.3765C11.5559 52.0605 14.6974 53.036 18.9806 55.784C20.9692 57.0594 21.9096 58.3771 22.739 59.3421C23.3637 59.3545 23.7836 59.3401 23.8828 59.2861C24.4537 58.9757 24.4383 47.2146 24.4383 47.2146C24.4383 47.2146 18.7277 26.7058 18.7277 26.5282Z" fill="#760000"/>
<path d="M108.273 20.3211C108.589 20.4395 112.174 23.6905 113.459 24.9314C114.744 26.1724 117.504 31.1816 117.504 35.4367C117.504 39.6917 118.837 50.6408 119.122 53.2554C119.408 55.8706 119.932 56.6463 119.241 57.0673C118.551 57.4883 102.591 61.4258 97.0693 60.5988L98.624 47.4191L103.606 27.0886L107.16 20.3211H108.273Z" fill="#8C0005"/>
<path d="M107.255 23.6318C107.255 23.6318 104.781 32.9697 104.59 36.1615C104.4 39.3533 106.177 44.14 107.255 46.2678C108.334 48.3957 109.413 49.8728 108.779 52.9462C108.144 56.0195 108.198 57.1277 107.092 57.578C105.987 58.0283 96.34 60.2154 95.1983 58.9152C94.0559 57.6151 100.766 33.5605 100.766 33.5605L106.049 24.2819L107.255 23.6318Z" fill="#760000"/>
<path d="M108.249 22.8481C108.103 23.9569 106.239 28.3597 105.159 31.4897C104.084 34.6242 99.5776 48.6889 99.1954 49.6344C98.8139 50.5792 97.4171 60.3908 97.4171 62.2857C97.4171 64.176 98.1152 65.5653 98.0907 66.5388C98.0607 67.5123 97.8643 68.3732 97.6086 69.6408C97.3577 70.9136 96.1818 85.4787 96.0861 86.4567C96.056 86.7795 96.1769 90.0734 96.332 94.4339C96.332 94.4339 96.3369 94.4385 96.332 94.443C96.4878 98.6916 96.6835 103.951 96.8044 108.452C96.9399 113.224 96.9951 117.145 96.8498 118.104C96.418 120.897 97.6086 131.799 97.6086 133.839C97.6086 135.879 97.9908 139.823 98.0858 140.754C98.1815 141.685 96.7995 142.13 95.7549 142.219C94.7047 142.308 88.1388 141.905 86.3752 142.172C84.6165 142.439 75.2068 142.486 72.9862 142.406C70.7657 142.331 52.1719 142.186 49.8857 142.363C47.605 142.541 27.7703 142.097 25.8055 142.013C23.8358 141.924 23.2335 141.152 23.2335 140.473C23.2335 139.794 23.3138 138.494 23.3138 138.494C22.5501 138.139 22.9316 132.51 22.9771 130.956C23.0274 129.408 23.0274 123.643 23.0274 122.801C23.0274 122.483 23.1028 120.714 23.2083 118.529C23.3138 116.269 23.4543 113.569 23.5654 111.552V111.548C23.636 110.383 23.696 109.452 23.7415 108.97C23.7764 108.553 23.8372 107.711 23.9022 106.611C24.1684 102.101 24.6058 93.2535 24.6358 91.6859C24.6561 90.4743 24.8923 86.2914 25.0376 83.1094C25.1277 81.1677 25.1836 79.5955 25.1382 79.3007C23.0434 70.4952 23.2642 59.28 23.696 57.2445C24.123 55.2045 22.7919 51.3913 22.6962 49.4867C22.6004 47.5774 21.4098 43.3666 21.3148 42.6137C21.2191 41.8602 20.7921 38.0938 20.0284 36.8958C19.2696 35.6979 14.934 29.3631 14.6524 28.6987C14.366 28.0343 11.889 24.132 11.367 22.9808C10.8444 21.8252 10.4126 21.2076 11.367 19.7851C13.5226 17.8388 38.4664 8.38256 38.4664 8.38256L60.4364 7.24054C60.4364 7.24054 78.096 8.17172 81.7133 8.70531C85.3306 9.2389 90.0882 11.5405 92.424 12.6962C94.755 13.8473 107.702 19.2561 108.104 19.9205C108.51 20.5881 108.39 21.7393 108.249 22.8481Z" fill="#8C0005"/>
<path d="M89.4355 63.2822C89.4355 63.2822 90.3124 66.0594 92.8509 64.5263C95.3894 62.9939 96.543 56.7561 97.8007 55.547C99.0584 54.338 97.4185 62.2866 97.4185 62.2866L96.8057 71.327L96.9419 76.402L96.6205 80.1417L94.7745 78.0691L89.4355 63.2822Z" fill="#760000"/>
<path d="M28.6908 35.0379C28.6908 35.0379 26.2795 46.799 25.5179 48.3946C24.7563 49.9902 25.8351 53.152 26.0258 56.8904C26.2159 60.6288 26.9705 67.3072 26.9705 67.3072C26.9705 67.3072 30.0875 55.6645 30.2783 52.5319C30.4676 49.3993 31.1021 32.9107 28.6908 35.0379Z" fill="#760000"/>
<path d="M22.8521 43.0755C22.8521 43.0755 23.8038 38.1704 22.8521 35.2148C21.7425 31.7712 21.3289 31.1367 20.2109 29.482C21.2178 29.7481 25.2005 30.7001 25.6442 34.8485C26.0886 38.9975 23.9442 41.5574 22.8521 43.0755Z" fill="#760000"/>
<path d="M29.4529 54.6302C28.7388 51.616 25.5498 50.0205 25.5498 50.0205C26.6601 52.8277 26.5972 60.6344 26.5972 60.6344C26.5972 60.6344 25.4548 57.6443 24.4395 55.7826C23.4243 53.9209 22.2658 45.6762 21.7613 44.5941C21.2568 43.5119 20.2339 37.2989 20.2339 37.2989C20.2339 37.2989 19.7196 33.5975 19.3388 33.1323C18.958 32.667 18.0615 30.0739 18.0615 30.0739C18.0615 31.8764 19.5051 35.9395 19.5051 35.9395C19.5051 35.9395 17.3929 32.9468 16.9247 32.246C16.4566 31.5452 11.8611 23.9181 11.2266 22.6785C10.8472 21.9373 10.7718 21.267 10.7704 20.8434C10.7508 20.8701 10.7277 20.9013 10.7061 20.93C10.5887 22.1162 11.119 22.9303 11.4851 23.5803C11.4851 23.5803 15.6496 31.1821 15.8878 31.5367C16.1261 31.8914 18.7435 35.9252 19.5051 38.6289C20.2667 41.3327 20.0285 46.4747 20.1137 47.4501C20.1989 48.4255 21.7899 49.4446 22.2658 52.2817C22.7416 55.1182 22.9477 57.3495 22.7577 58.118C22.5676 58.8865 18.0937 59.0889 18.0937 59.0889C21.0765 59.0251 22.8848 60.0097 22.7262 61.5753C22.6501 62.3282 21.6719 62.9288 20.6762 63.3518C21.9604 63.4064 23.0246 63.4344 23.4145 63.4038C23.4543 67.2587 23.7722 72.2907 24.6449 76.959C26.3435 74.2234 27.5223 71.286 27.9779 70.0126C29.4054 66.0223 30.1879 57.7341 29.4529 54.6302Z" fill="#760000"/>
<path d="M102.986 45.6034C103.136 45.4531 103.247 45.3314 103.289 45.2631C103.289 45.2631 103.171 45.3932 102.986 45.6034Z" fill="#760000"/>
<path d="M100.846 44.8907C100.846 44.8907 100.078 47.3387 99.8918 47.9595C99.7052 48.5809 97.1961 59.2105 97.0696 59.4766C96.9424 59.7428 96.5141 62.6534 96.1298 64.5269C95.7455 66.4003 94.325 68.1052 94.2768 70.1888C94.2468 71.511 95.8 74.438 96.9396 76.4019C97.2261 73.1235 97.5 70.1823 97.6083 69.6422C97.862 68.3713 98.0618 67.5143 98.089 66.5395C98.1037 66.0007 97.8983 65.3305 97.711 64.5242C97.8571 64.5308 98.0199 64.5314 98.1911 64.5301C98.1904 64.1397 98.2288 63.6926 98.3035 63.2456C98.5327 61.8752 99.7066 60.808 101.185 60.6401C103.561 60.37 105.057 60.1547 105.057 60.1547C104.93 60.1839 101.702 60.3336 99.9567 60.3043C98.2113 60.2744 97.9884 59.5039 98.1163 58.7673C98.2113 58.2207 99.4488 57.9695 99.4488 57.9695C97.6083 57.881 98.7822 55.5463 98.7822 55.5463C98.7822 55.5463 99.8778 50.6704 100.147 49.8284C100.495 48.7352 102.226 46.4615 102.986 45.6032C102.231 46.3613 100.401 47.9224 100.401 47.9224L106.811 36.8113L100.846 44.8907Z" fill="#760000"/>
<path d="M60.8574 1.08558C60.8574 1.08558 56.106 0.68669 55.4402 0.68669C54.7736 0.68669 45.7782 0.464794 45.3499 0.886461C44.9215 1.30748 44.3025 0.73159 44.0649 4.01122C43.8266 7.29151 43.2083 11.8127 46.3497 13.0979C49.4912 14.3831 51.5853 15.4027 51.5853 15.4027L60.2956 24.9326C60.2956 24.9326 65.7219 18.4169 66.007 18.1507C66.2928 17.8846 72.0412 15.0208 72.9984 14.3915C73.9557 13.7629 74.9073 11.4574 75.0031 10.97C75.0988 10.4826 75.4789 4.78623 75.4789 4.78623C75.4789 4.78623 74.3127 1.2847 74.2415 1.21768C74.1702 1.1513 72.909 0.508392 72.909 0.508392L65.6981 0.907284L60.8574 1.08558Z" fill="#561414"/>
<path d="M43.8805 4.28308C43.8805 4.28308 46.1213 4.95202 52.2953 5.33855C56.5742 5.60665 67.4429 5.15895 69.6034 5.14724C71.6974 5.13553 75.0709 4.91233 75.0709 4.91233L75.0332 6.15586C75.0332 6.15586 71.6604 6.3797 69.5656 6.39077C67.4052 6.40248 56.5358 6.85018 52.2575 6.58208C46.0836 6.19555 43.8428 5.52661 43.8428 5.52661L43.8805 4.28308Z" fill="#7B7B7B"/>
<path d="M75.0332 6.68582C75.0332 6.68582 71.6604 6.896 69.5656 6.90706C67.4052 6.91812 56.5358 7.33849 52.2575 7.08666C46.2101 6.73072 43.942 6.12229 43.8512 6.09757L43.8428 6.36566C43.8428 6.36566 46.0836 6.99361 52.2575 7.35736C56.5365 7.60919 67.4052 7.18882 69.5656 7.17776C71.6597 7.16735 75.0332 6.95717 75.0332 6.95717L75.0709 5.78912C75.0709 5.78912 75.0632 5.78977 75.0618 5.78977L75.0332 6.68582Z" fill="#7B7B7B"/>
<path d="M43.8805 4.50418C43.8805 4.50418 46.1213 5.17312 52.2953 5.55965C56.5742 5.82775 67.4429 5.38005 69.6034 5.36834C71.6974 5.35663 75.0709 5.13343 75.0709 5.13343L75.0332 6.37696C75.0332 6.37696 71.6604 6.6008 69.5656 6.61187C67.4052 6.62358 56.5358 7.07128 52.2575 6.80318C46.0836 6.416 43.8428 5.74771 43.8428 5.74771L43.8805 4.50418Z" fill="#561414"/>
<path d="M44.3027 2.21073C44.3027 2.21073 47.6817 1.66152 48.015 2.8582C48.3483 4.05488 47.927 5.19299 48.2805 5.39926C48.6655 5.75391 49.3482 6.1528 49.4271 6.58163C49.5061 7.0098 52.2514 9.32962 53.013 11.3247C53.7746 13.3192 55.367 15.5948 59.5922 15.5655C63.8174 15.5362 69.672 11.4106 69.8145 9.28407C69.9571 7.15816 67.863 7.20241 67.3871 6.62587C67.4347 6.22698 67.6729 4.83053 68.5533 4.83053C69.4337 4.83053 73.5751 2.96882 72.861 0.885864L74.6162 2.23806L76.5258 12.4023L72.0022 14.2061L67.3878 17.1955L61.8665 21.83L59.6662 23.4255L52.4903 16.9984L46.4457 12.7212C46.4457 12.7212 42.5426 4.41017 42.7333 4.32167C42.922 4.23252 44.3027 2.21073 44.3027 2.21073Z" fill="#561414"/>
<path d="M46.8712 13.3473C46.8712 13.3473 50.2125 12.463 50.9734 12.4018C51.7344 12.3406 52.9257 14.5056 53.885 15.0854C54.8444 15.6645 60.2036 21.4586 60.7989 23.3795C61.3942 25.3004 57.16 33.9296 57.16 33.9296C57.16 33.9296 54.3644 24.4161 52.8265 22.0377C51.2879 19.6593 47.9207 15.9548 47.7432 15.5884C47.5658 15.2227 46.2759 14.1249 46.1271 13.7586C45.9783 13.3935 46.8712 13.3473 46.8712 13.3473Z" fill="#561414"/>
<path d="M47.443 13.318C47.443 13.318 50.648 12.461 51.3775 12.4018C52.107 12.3426 53.2494 14.4405 54.1696 15.0021C55.0898 15.5636 60.2304 21.178 60.8012 23.0398C61.3721 24.9015 57.3111 33.2645 57.3111 33.2645C57.3111 33.2645 54.6301 24.0445 53.1544 21.7396C51.6787 19.4348 48.4492 15.8441 48.2794 15.4894C48.1096 15.1348 46.8721 14.0709 46.7289 13.7162C46.5864 13.3622 47.443 13.318 47.443 13.318Z" fill="#8C0005"/>
<path d="M49.3311 13.4082C49.3311 13.4082 51.1554 12.5219 51.3462 12.5661C51.537 12.6104 54.0356 15.4696 54.5589 16.201C55.0823 16.9325 58.9141 20.693 59.2711 21.5051C59.6282 22.3178 60.4876 23.1176 60.4876 23.1176L57.6766 39.9153C57.6766 39.9153 57.1058 39.627 57.0338 38.9398C56.9626 38.2527 56.4385 34.8396 56.1772 33.2662C55.9152 31.6928 56.2247 28.6565 57.3909 26.3516C58.557 24.0468 59.1041 23.0492 58.5333 21.9189C57.9624 20.7886 55.7964 20.0351 54.0356 18.8384C52.2748 17.6417 49.1452 14.7571 48.9859 14.2157C48.8259 13.6743 49.3311 13.4082 49.3311 13.4082Z" fill="#561414"/>
<path d="M39.4462 54.6313C39.4462 54.6313 32.5609 74.8427 30.2146 82.2037C29.0757 85.7761 25.8916 98.907 23.9023 106.614C24.1686 102.103 24.606 93.2555 24.636 91.6879C24.6563 90.4763 24.8924 86.2934 25.0378 83.1114C27.695 75.2 33.7341 58.8194 39.4462 54.6313Z" fill="#760000"/>
<path d="M46.8659 56.2365C46.6249 56.8918 30.965 98.9824 29.7395 102.768C28.8752 105.416 25.3082 113.716 23.2085 118.531C23.314 116.271 23.4544 113.571 23.5655 111.554V111.55C28.8095 97.6113 43.2081 59.8903 46.8659 56.2365Z" fill="#760000"/>
<path d="M36.916 135.413C36.916 135.413 38.3365 125.109 42.7399 119.77C42.7399 119.77 41.986 128.861 36.916 135.413Z" fill="#760000"/>
<path d="M66.6411 134.979C66.6411 134.979 56.6039 72.9814 59.5917 49.9323C60.0409 46.5043 62.5158 43.727 66.6411 56.2267C70.7664 68.7264 81.7895 104.041 91.5178 119.731C91.5178 119.731 74.3837 99.8725 64.6106 72.8044C64.6099 72.8044 64.7972 127.616 66.6411 134.979Z" fill="#760000"/>
<path d="M95.9587 118.53C95.9587 118.53 91.897 113.347 89.6129 107.555C87.3281 101.763 73.4269 60.2153 70.7313 54.6301C68.0356 49.045 74.3821 52.76 76.7934 60.7131C79.2054 68.6668 95.9587 118.53 95.9587 118.53Z" fill="#760000"/>
<path d="M96.8042 108.453C94.9253 102.244 83.6465 64.9676 83.6465 64.5323C83.6465 64.1113 93.4838 85.8492 96.3318 94.4349C96.3318 94.4349 96.3367 94.4394 96.3318 94.444C96.4877 98.6925 96.6833 103.952 96.8042 108.453Z" fill="#760000"/>
<path d="M50.9844 14.8062C51.5028 15.185 51.6377 15.8318 51.2848 16.2502C50.932 16.6686 50.2263 16.7005 49.7071 16.3218C49.1887 15.943 49.0538 15.2962 49.4067 14.8778C49.7595 14.4594 50.4652 14.4275 50.9844 14.8062Z" fill="white"/>
<path d="M50.7485 15.0852C51.1349 15.3677 51.2453 15.8375 50.9951 16.1349C50.745 16.4322 50.2286 16.444 49.8415 16.1615C49.4551 15.8791 49.3447 15.4093 49.5949 15.1119C49.8457 14.8152 50.3621 14.8028 50.7485 15.0852Z" fill="#C6C1C1"/>
<path d="M50.7489 15.0852C50.3813 14.8165 49.8992 14.8172 49.6372 15.0735C49.9104 14.9004 50.3254 14.9271 50.6504 15.1646C51.0368 15.447 51.1471 15.9169 50.897 16.2142C50.8844 16.2286 50.8691 16.2396 50.8558 16.2526C50.9075 16.2195 50.9564 16.1824 50.9962 16.1349C51.2457 15.8381 51.1353 15.3683 50.7489 15.0852Z" fill="#B2B1B1"/>
<path d="M50.091 15.3449C50.1707 15.4028 50.1931 15.4998 50.1421 15.5609C50.0904 15.6221 49.9841 15.6247 49.9045 15.5661C49.8248 15.5082 49.8025 15.4113 49.8535 15.3501C49.9052 15.2889 50.0121 15.287 50.091 15.3449Z" fill="#561414"/>
<path d="M50.5818 15.8063C50.6614 15.8642 50.6838 15.9611 50.6328 16.0223C50.5811 16.0835 50.4749 16.0861 50.3952 16.0275C50.3156 15.9696 50.2932 15.8726 50.3442 15.8115C50.3959 15.7503 50.5021 15.7483 50.5818 15.8063Z" fill="#561414"/>
<path d="M50.5818 15.3147C50.6614 15.3726 50.6838 15.4695 50.6328 15.5307C50.5811 15.5919 50.4749 15.5945 50.3952 15.5359C50.3156 15.478 50.2932 15.381 50.3442 15.3199C50.3952 15.2587 50.5021 15.2561 50.5818 15.3147Z" fill="#561414"/>
<path d="M50.1304 15.7819C50.2101 15.8398 50.2324 15.9367 50.1814 15.9979C50.1297 16.0591 50.0235 16.0617 49.9439 16.0031C49.8642 15.9452 49.8412 15.8483 49.8929 15.7871C49.9446 15.7266 50.0515 15.724 50.1304 15.7819Z" fill="#561414"/>
<path d="M57.6401 21.6161C58.1586 21.9948 58.2935 22.6416 57.9406 23.0601C57.5877 23.4785 56.882 23.5104 56.3629 23.1316C55.8444 22.7529 55.7096 22.1061 56.0624 21.6877C56.4153 21.2693 57.1217 21.2374 57.6401 21.6161Z" fill="white"/>
<path d="M57.4049 21.8954C57.7913 22.1778 57.9017 22.6476 57.6515 22.945C57.4014 23.2424 56.885 23.2541 56.4979 22.9717C56.1108 22.6892 56.0011 22.2194 56.2513 21.922C56.5014 21.6247 57.0178 21.6129 57.4049 21.8954Z" fill="#C6C1C1"/>
<path d="M57.4051 21.8951C57.0376 21.6264 56.5548 21.627 56.2935 21.8834C56.5667 21.7103 56.9817 21.737 57.3066 21.9745C57.693 22.2569 57.8034 22.7267 57.5533 23.0241C57.5414 23.0384 57.5253 23.0495 57.512 23.0625C57.5637 23.03 57.6126 22.9922 57.6525 22.9447C57.9019 22.648 57.7915 22.1775 57.4051 21.8951Z" fill="#B2B1B1"/>
<path d="M56.7468 22.154C56.8265 22.2119 56.8495 22.3088 56.7978 22.37C56.7461 22.4312 56.6399 22.4338 56.5603 22.3752C56.4806 22.3173 56.4582 22.2204 56.5092 22.1592C56.561 22.098 56.6672 22.0954 56.7468 22.154Z" fill="#561414"/>
<path d="M57.2378 22.6153C57.3175 22.6733 57.3399 22.7702 57.2889 22.8314C57.2371 22.8926 57.1309 22.8952 57.0513 22.8366C56.9716 22.7787 56.9486 22.6817 57.0003 22.6205C57.052 22.5594 57.1582 22.5568 57.2378 22.6153Z" fill="#561414"/>
<path d="M57.2378 22.123C57.3175 22.1809 57.3399 22.2779 57.2889 22.339C57.2371 22.4002 57.1309 22.4028 57.0513 22.3442C56.9716 22.2863 56.9486 22.1894 57.0003 22.1282C57.052 22.0677 57.1582 22.0651 57.2378 22.123Z" fill="#561414"/>
<path d="M56.7859 22.591C56.8655 22.6489 56.8886 22.7458 56.8369 22.807C56.7852 22.8682 56.679 22.8708 56.5993 22.8122C56.5197 22.7543 56.4973 22.6573 56.5483 22.5962C56.6 22.535 56.7062 22.533 56.7859 22.591Z" fill="#561414"/>
<path d="M37.1793 9.49108C37.1793 9.49108 36.3387 10.3038 36.4337 11.2493C36.5288 12.1948 36.0613 17.4845 36.8027 17.7507C37.544 18.0168 42.7321 16.8644 43.3029 16.8865C43.8745 16.9087 50.4886 23.6313 55.9442 30.0122C55.9442 30.0122 51.1293 22.2348 45.9525 16.8052C45.3502 16.1733 46.0161 16.1258 46.3647 16.362C46.7134 16.5983 51.5688 21.031 51.5688 21.031C51.5688 21.031 48.637 16.3061 48.4371 15.7133C48.2373 15.1205 48.1772 14.4281 48.5084 14.0058C48.8396 13.5841 49.2043 13.5483 48.8242 12.9601C48.4441 12.3718 41.415 9.15076 41.415 9.15076L37.1793 9.49108Z" fill="#561414"/>
<path d="M108.273 20.3212C108.594 21.1469 108.432 22.0527 108.243 22.8922C108.037 23.7479 107.651 24.5398 107.404 25.3688C106.851 27.0177 106.323 28.6758 105.802 30.3345L104.235 35.3105C103.738 36.977 103.18 38.6325 102.633 40.284C101.513 43.5779 100.371 46.8764 99.4791 50.214C98.8831 53.6251 97.8322 56.9633 96.8896 60.3041L98.0726 55.2337C98.4667 53.5353 98.8691 51.8746 99.1025 50.1385C99.4868 48.4317 100.028 46.7762 100.54 45.1123C101.055 43.4517 101.61 41.7937 102.166 40.1467C103.321 36.8625 104.297 33.5262 105.446 30.2329C106.012 28.5853 106.576 26.937 107.181 25.2998C107.47 24.4721 107.892 23.6932 108.13 22.8655C108.352 22.043 108.555 21.1567 108.273 20.3212Z" fill="#561414"/>
<path d="M59.5912 0.522884C55.6197 0.522884 48.7128 0.109026 47.7765 0.153275C45.9227 0.241122 44.3737 0.286022 43.088 2.19198C41.8031 4.09795 39.1137 7.42248 38.4715 7.88775C37.8287 8.35301 36.9008 8.79615 36.9721 10.0377C37.0433 11.2787 36.9644 15.645 36.9679 16.2215C36.9721 16.7974 37.5192 17.5288 38.8754 17.1748C40.2316 16.8202 43.3179 16.7167 49.0929 13.1709C49.4101 12.964 48.4899 12.4617 48.0776 12.0777C47.6654 11.6938 45.1269 7.37953 44.9047 5.81325C44.6825 4.24696 45.2541 2.20825 45.4127 1.67596C45.5713 1.14432 46.6501 1.02589 46.9673 1.08511C47.2846 1.14432 55.5882 1.61675 59.5912 1.61675V0.522884Z" fill="#8C0005"/>
<path d="M23.314 138.495C23.6123 138.739 24.0169 138.8 24.3886 138.882C24.7701 138.951 25.1558 138.995 25.5436 139.028C26.3178 139.095 27.0962 139.118 27.8738 139.132C29.4299 139.16 30.9881 139.127 32.5462 139.101C35.6632 139.067 38.7774 138.982 41.8938 138.892C45.0094 138.802 48.1264 138.734 51.2378 138.616L53.5653 138.513C54.3241 138.459 55.1542 138.434 55.9263 138.432C57.4949 138.423 59.0558 138.454 60.6161 138.501L69.965 138.797L72.2939 138.847L74.6297 138.845C76.1949 138.85 77.753 138.911 79.3133 138.953C85.5347 139.155 91.8128 139.361 97.9902 139.765C97.6311 139.935 97.2209 139.941 96.8345 139.995C96.4425 140.031 96.0498 140.055 95.6585 140.065C94.8746 140.092 94.0927 140.08 93.3115 140.056L88.642 139.935L79.293 139.777L74.6234 139.735L72.2827 139.737L69.9364 139.686L60.5875 139.391C59.0314 139.352 57.4746 139.306 55.9256 139.287C55.1388 139.28 54.4093 139.289 53.6121 139.333L51.2658 139.404C48.1439 139.47 45.0254 139.518 41.9056 139.529C38.7872 139.535 35.6653 139.536 32.5462 139.486C30.9867 139.456 29.425 139.417 27.8655 139.327C27.0857 139.281 26.3066 139.225 25.5317 139.125C25.1446 139.075 24.7582 139.015 24.3774 138.93C24.0064 138.832 23.6025 138.752 23.314 138.495Z" fill="#760000"/>
<path d="M71.9295 14.6488C71.9295 14.6488 66.7289 16.3713 63.3694 20.5151C60.0099 24.6589 57.9263 29.0213 58.1394 31.6821C58.3519 34.3429 58.3204 39.4361 58.363 39.85C58.4057 40.2645 58.4266 40.4389 58.7879 40.4935C59.1491 40.5482 63.8655 40.4935 64.4042 40.4935C64.9429 40.4935 65.0086 39.9411 64.9331 39.4758C64.8577 39.0105 65.0561 36.9165 64.6879 36.2476C64.3197 35.5786 64.458 30.054 64.5782 28.7122C64.6991 27.3613 64.9995 19.3607 68.1459 17.8588C69.4218 17.0546 70.1869 16.735 71.1225 16.5021C72.0581 16.2691 72.1978 15.2091 71.9295 14.6488Z" fill="#561414"/>
<path d="M72.5889 14.0057C72.5889 14.0057 66.7672 15.7555 63.0073 19.967C59.2475 24.1778 56.9151 28.6105 57.1534 31.3143C57.3917 34.018 57.3553 39.1932 57.4035 39.6142C57.4511 40.0352 57.4748 40.2129 57.8794 40.2682C58.2839 40.3235 63.5628 40.2682 64.1658 40.2682C64.7688 40.2682 64.8422 39.7066 64.7576 39.2342C64.6731 38.7611 64.8953 36.6339 64.483 35.9539C64.0708 35.2739 64.0072 29.6595 64.1972 28.3001C64.3873 26.9408 64.8317 18.7937 68.354 17.2672C69.7822 16.4498 70.6388 16.1251 71.6855 15.8883C72.7329 15.6527 72.8894 14.5758 72.5889 14.0057Z" fill="#8C0005"/>
<path d="M61.8197 30.7326C61.7652 31.3449 61.2069 31.8095 60.5718 31.7698C59.9373 31.7308 59.4664 31.2024 59.5209 30.5901C59.5754 29.9777 60.1337 29.5131 60.7688 29.5528C61.404 29.5919 61.8742 30.1202 61.8197 30.7326Z" fill="white"/>
<path d="M61.5187 30.7486C61.4754 31.2392 61.0471 31.6121 60.5628 31.5821C60.0786 31.5522 59.7209 31.1305 59.7649 30.6399C59.8082 30.1492 60.2365 29.7764 60.7208 29.8063C61.205 29.8362 61.562 30.2586 61.5187 30.7486Z" fill="#C6C1C1"/>
<path d="M61.518 30.7485C61.5593 30.2819 61.2364 29.8817 60.7886 29.8173C61.1554 29.941 61.4041 30.3015 61.3671 30.7134C61.3238 31.204 60.8955 31.5769 60.4112 31.5469C60.3875 31.5456 60.3658 31.5391 60.3428 31.5359C60.4126 31.5593 60.4846 31.5769 60.5622 31.5821C61.0464 31.6127 61.4747 31.2391 61.518 30.7485Z" fill="#B2B1B1"/>
<path d="M60.8434 30.3009C60.8518 30.3946 60.7833 30.4779 60.6904 30.4863C60.5982 30.4948 60.5164 30.4252 60.508 30.3315C60.4996 30.2378 60.5681 30.1545 60.661 30.146C60.754 30.1376 60.8357 30.2072 60.8434 30.3009Z" fill="#561414"/>
<path d="M60.8878 30.9529C60.8962 31.0473 60.8278 31.1299 60.7348 31.1384C60.6426 31.1468 60.5608 31.0772 60.5525 30.9835C60.5441 30.8898 60.6125 30.8065 60.7055 30.798C60.7984 30.7896 60.8802 30.8592 60.8878 30.9529Z" fill="#561414"/>
<path d="M61.2374 30.6086C61.2458 30.7029 61.1774 30.7856 61.0844 30.794C60.9922 30.8025 60.9104 30.7328 60.9021 30.6391C60.8937 30.5454 60.9621 30.4621 61.0551 30.4537C61.148 30.4446 61.2298 30.5142 61.2374 30.6086Z" fill="#561414"/>
<path d="M60.487 30.6339C60.4953 30.7276 60.4269 30.8109 60.3339 30.8193C60.2417 30.8278 60.16 30.7582 60.1516 30.6645C60.1432 30.5701 60.2117 30.4875 60.3046 30.479C60.3975 30.4705 60.4793 30.5402 60.487 30.6339Z" fill="#561414"/>
<path d="M69.3376 15.8599C69.3376 15.8599 71.6539 18.0762 72.1619 18.1355C72.6698 18.1947 69.687 21.1496 69.084 21.5042C69.084 21.5042 72.0668 19.1701 72.9871 18.4159C73.9073 17.6624 74.3195 17.7216 75.0176 17.9578C75.7156 18.194 82.22 19.4942 82.7594 19.2872C83.2988 19.0803 82.7594 17.8986 82.7594 17.8986L74.1833 12.8848L72.4148 13.436L70.7316 14.943L69.3376 15.8599Z" fill="#561414"/>
<path d="M59.5913 0.523436C60.5486 0.523436 70.0673 0.221502 70.861 0.150573C71.6548 0.0796447 73.7803 -0.304281 74.3833 0.523436C74.9863 1.3505 77.2977 5.76825 80.7613 7.52715C81.7765 8.00022 82.9189 9.24115 82.9825 10.4528C83.0461 11.6644 83.1726 17.3381 83.2362 17.9881C83.2998 18.6382 82.3795 18.6089 81.9351 18.5198C81.4908 18.4313 76.1602 17.899 72.0349 13.437C71.8449 12.9346 72.4157 12.2846 72.7644 11.723C73.1137 11.1614 75.3979 6.99486 74.6363 4.12843C73.8747 1.262 73.3352 1.04011 72.4073 0.951611C71.4794 0.863113 63.6474 1.61665 59.5913 1.61665V0.523436Z" fill="#8C0005"/>
<path d="M103.29 30.9677C103.29 30.9677 98.1168 32.5555 94.2773 32.0238C94.2773 32.0238 98.054 34.861 97.6731 38.4068C97.2923 41.9525 94.9998 49.754 95.0676 52.3543C95.1347 54.9546 94.5638 56.4324 95.2619 57.2009C95.9599 57.9694 103.29 30.9677 103.29 30.9677Z" fill="#760000"/>
<path d="M23.9009 110.656C24.74 105.892 25.7071 101.146 26.7789 96.4218C27.8305 91.693 29.0351 86.9948 30.2774 82.3057C31.5219 77.6166 32.9431 72.9698 34.4181 68.3393C35.9287 63.7178 37.6085 59.1452 39.4447 54.6312C38.6433 56.9276 37.8006 59.209 37.0635 61.5223C36.2704 63.8187 35.5514 66.1366 34.8268 68.4525C33.3889 73.0869 32.0368 77.7441 30.7679 82.4209C29.4802 87.0943 28.3084 91.7938 27.1472 96.4966C26.5735 98.8496 26.0236 101.207 25.4793 103.567C24.9273 105.924 24.3984 108.287 23.9009 110.656Z" fill="#8C0005"/>
<path d="M95.0675 117.32C93.4639 112.625 91.8708 107.928 90.3183 103.219C88.7419 98.5169 87.2341 93.7959 85.6885 89.0847L81.1587 74.9231L78.9493 67.8263L76.7944 60.7139L79.2078 67.7528L81.5667 74.8072L86.1727 88.9487C87.6729 93.6723 89.2108 98.3855 90.6795 103.118C92.1734 107.844 93.626 112.58 95.0675 117.32Z" fill="#8C0005"/>
<path d="M95.1056 78.4417C94.6982 78.0701 94.4914 77.558 94.2532 77.0882C94.024 76.6079 93.8109 76.1219 93.604 75.6338C93.1925 74.6564 92.8194 73.6673 92.4414 72.6795C91.679 70.7059 91.0146 68.703 90.3137 66.7118C89.6255 64.7167 88.9904 62.7059 88.3447 60.6991C87.7264 58.6838 87.1136 56.6679 86.5679 54.6324C87.3393 56.6035 88.0422 58.594 88.7528 60.582C89.4333 62.5784 90.1349 64.569 90.7966 66.5706L92.7998 72.5696C93.1317 73.5697 93.4755 74.566 93.8262 75.5603C93.9988 76.0581 94.1777 76.5539 94.3719 77.0439C94.4684 77.2899 94.5718 77.532 94.6836 77.7714C94.7989 78.0057 94.9086 78.2517 95.1056 78.4417Z" fill="#8C0005"/>
<path d="M23.314 119.77C24.4047 116.345 25.5464 112.934 26.7391 109.539C27.9095 106.137 29.1672 102.762 30.3983 99.3793C31.6428 96.0007 32.9424 92.6398 34.2434 89.2801L36.2495 84.2585L38.3268 79.2616C37.1243 82.6538 35.8868 86.0343 34.6459 89.4135L30.8763 99.5342L23.314 119.77Z" fill="#8C0005"/>
<path fill-rule="evenodd" clip-rule="evenodd" d="M87.2121 42.2523C87.1781 43.9759 87.0193 45.3512 86.1861 46.0982C85.3528 46.8452 83.9186 47.022 82.0565 47.0537C80.2057 47.022 78.729 46.8742 77.9269 46.0982C77.1248 45.3221 76.9349 43.9865 76.9009 42.2523C76.9349 40.5286 77.0936 39.1534 77.9269 38.4064C78.7602 37.6594 80.1943 37.4826 82.0565 37.4509C83.9073 37.4826 85.3839 37.6304 86.1861 38.4064C86.9882 39.1825 87.1781 40.5286 87.2121 42.2523Z" fill="#CF2228"/>
<path d="M80.6384 42.0225V43.1443C80.6381 43.1821 80.6465 43.2194 80.6629 43.2539C80.6794 43.2884 80.7037 43.3192 80.734 43.3442C80.7644 43.3692 80.8002 43.3879 80.8389 43.399C80.8777 43.41 80.9185 43.4132 80.9587 43.4083C81.0284 43.4011 81.0927 43.3701 81.1393 43.3214C81.1859 43.2727 81.2114 43.2096 81.211 43.1443V41.5606C81.211 41.4527 81.165 41.3494 81.0831 41.2731C81.0013 41.1969 80.8903 41.1541 80.7745 41.1541C80.6866 41.1549 80.601 41.1806 80.5291 41.2277C80.4573 41.2748 80.4025 41.3412 80.372 41.418L79.8675 42.6006C79.8649 42.6017 79.862 42.6023 79.859 42.6023C79.8561 42.6023 79.8532 42.6017 79.8505 42.6006C79.8475 42.6022 79.8441 42.603 79.8406 42.603C79.8371 42.603 79.8337 42.6022 79.8307 42.6006L79.3262 41.418C79.2957 41.3412 79.2409 41.2748 79.169 41.2277C79.0972 41.1806 79.0116 41.1549 78.9237 41.1541C78.8099 41.1533 78.7002 41.194 78.6181 41.2675C78.5361 41.341 78.4881 41.4414 78.4844 41.5474V43.1311C78.484 43.1964 78.5095 43.2595 78.5561 43.3082C78.6027 43.3569 78.667 43.3879 78.7366 43.3951C78.7768 43.4 78.8177 43.3968 78.8564 43.3858C78.8952 43.3747 78.931 43.356 78.9613 43.331C78.9917 43.306 79.0159 43.2752 79.0324 43.2407C79.0489 43.2062 79.0573 43.1689 79.0569 43.1311V41.9961L79.5869 43.2446C79.6117 43.2911 79.6495 43.3304 79.6965 43.3583C79.7434 43.3862 79.7977 43.4017 79.8533 43.403C79.9148 43.4062 79.9757 43.3906 80.0268 43.3587C80.078 43.3268 80.1166 43.2803 80.1368 43.2261L80.6384 42.0225Z" fill="white"/>
<path d="M85.5199 41.5157C85.4468 41.4024 85.3406 41.3109 85.2138 41.2517C85.0673 41.1825 84.9047 41.148 84.7405 41.1514H84.0999C84.0022 41.1514 83.9085 41.1876 83.8394 41.2519C83.7703 41.3163 83.7314 41.4035 83.7314 41.4946V43.1469C83.7314 43.2169 83.7613 43.2841 83.8145 43.3336C83.8676 43.3831 83.9397 43.4109 84.0149 43.4109C84.09 43.4109 84.1621 43.3831 84.2153 43.3336C84.2684 43.2841 84.2983 43.2169 84.2983 43.1469V42.7061H84.7206C84.8879 42.7101 85.0539 42.6776 85.2053 42.6111C85.3351 42.5529 85.4442 42.4613 85.5199 42.3471C85.5935 42.2219 85.6306 42.0808 85.6276 41.938C85.6337 41.7907 85.5965 41.6447 85.5199 41.5157ZM84.9729 42.1096C84.9415 42.1627 84.8929 42.2052 84.834 42.231C84.765 42.2615 84.6892 42.276 84.6129 42.2732H84.3238V41.5843H84.6072C84.6835 41.5816 84.7594 41.5961 84.8283 41.6265C84.8878 41.6502 84.9368 41.6921 84.9672 41.7453C84.9995 41.8012 85.0151 41.8641 85.0125 41.9274C85.0161 41.9903 85.0024 42.053 84.9729 42.1096Z" fill="white"/>
<path d="M83.128 42.989H82.4591L82.683 42.8068C82.8319 42.691 82.972 42.5657 83.1025 42.432C83.1874 42.3475 83.2564 42.2502 83.3066 42.1443C83.3433 42.0605 83.3625 41.9709 83.3633 41.8803C83.367 41.7484 83.3274 41.6186 83.2499 41.5082C83.1674 41.398 83.0521 41.3127 82.9183 41.2627C82.763 41.1993 82.5946 41.1687 82.4251 41.1729C82.2587 41.1692 82.0937 41.2018 81.9433 41.268C81.8123 41.3255 81.702 41.4172 81.6258 41.5319C81.6131 41.5492 81.6026 41.5678 81.5947 41.5874C81.5931 41.5916 81.5931 41.5963 81.5947 41.6006C81.5947 41.6006 81.5947 41.6164 81.5947 41.6243C81.5947 41.6243 81.5947 41.6401 81.5947 41.6481V41.6797C81.5947 41.7546 81.6266 41.8265 81.6835 41.8795C81.7404 41.9324 81.8175 41.9622 81.8979 41.9622C81.9596 41.9629 82.02 41.9458 82.0708 41.9132C82.1216 41.8805 82.1602 41.834 82.1814 41.78V41.7642C82.206 41.7226 82.2422 41.6879 82.2862 41.6639C82.3351 41.6399 82.3897 41.6281 82.4449 41.6296C82.4992 41.6281 82.553 41.6399 82.6008 41.6639C82.6463 41.6847 82.6838 41.7178 82.7085 41.7589C82.7359 41.8059 82.7495 41.8586 82.7482 41.912C82.7488 41.9622 82.7372 42.0118 82.7142 42.0572C82.6887 42.1043 82.6562 42.1478 82.6178 42.1865C82.5753 42.2261 82.5243 42.271 82.4648 42.3185L81.6712 42.9626C81.6378 42.9895 81.6109 43.0227 81.5924 43.06C81.5738 43.0973 81.5639 43.1379 81.5635 43.179V43.2107C81.5635 43.2863 81.5957 43.3588 81.6531 43.4123C81.7105 43.4657 81.7884 43.4958 81.8696 43.4958H83.128C83.1703 43.5072 83.2148 43.5094 83.2581 43.5021C83.3014 43.4947 83.3422 43.4781 83.3774 43.4535C83.4126 43.429 83.4412 43.3971 83.4609 43.3604C83.4806 43.3238 83.4908 43.2834 83.4908 43.2424C83.4908 43.2014 83.4806 43.161 83.4609 43.1243C83.4412 43.0877 83.4126 43.0558 83.3774 43.0312C83.3422 43.0066 83.3014 42.99 83.2581 42.9827C83.2148 42.9753 83.1703 42.9775 83.128 42.989Z" fill="white"/>
</svg>
