<svg width="167" height="4" viewBox="0 0 167 4" fill="none" xmlns="http://www.w3.org/2000/svg">
<path d="M2 0.5C1.17157 0.5 0.5 1.17157 0.5 2C0.5 2.82843 1.17157 3.5 2 3.5V0.5ZM165 3.5C165.828 3.5 166.5 2.82843 166.5 2C166.5 1.17157 165.828 0.5 165 0.5V3.5ZM2.24256 3.5H3.74256V0.5H2.24256V3.5ZM11.9449 0.5L10.4449 0.5V3.5L11.9449 3.5V0.5ZM12.4301 3.5H13.9301V0.5H12.4301V3.5ZM22.1324 0.5L20.6324 0.5V3.5L22.1324 3.5V0.5ZM22.6176 3.5H24.1176V0.5H22.6176V3.5ZM32.3199 0.5H30.8199V3.5H32.3199V0.5ZM32.8051 3.5H34.3051V0.5H32.8051V3.5ZM42.5074 0.5H41.0074V3.5H42.5074V0.5ZM42.9926 3.5H44.4926V0.5L42.9926 0.5V3.5ZM52.6949 0.5H51.1949V3.5H52.6949V0.5ZM53.1801 3.5L54.6801 3.5V0.5L53.1801 0.5V3.5ZM62.8824 0.5L61.3824 0.5V3.5H62.8824V0.5ZM63.3676 3.5H64.8676V0.5H63.3676V3.5ZM73.0699 0.5L71.5699 0.5V3.5H73.0699V0.5ZM73.5551 3.5H75.0551V0.5H73.5551V3.5ZM83.2574 0.5L81.7574 0.5V3.5L83.2574 3.5V0.5ZM83.7426 3.5H85.2426V0.5H83.7426V3.5ZM93.445 0.5H91.945V3.5H93.445V0.5ZM93.9301 3.5L95.4301 3.5V0.5L93.9301 0.5V3.5ZM103.632 0.5H102.132V3.5H103.632V0.5ZM104.118 3.5H105.618V0.5L104.118 0.5V3.5ZM113.82 0.5H112.32V3.5H113.82V0.5ZM114.305 3.5H115.805V0.5L114.305 0.5V3.5ZM124.007 0.5L122.507 0.5V3.5L124.007 3.5V0.5ZM124.493 3.5H125.993V0.5H124.493V3.5ZM134.195 0.5L132.695 0.5V3.5H134.195V0.5ZM134.68 3.5H136.18V0.5H134.68V3.5ZM144.382 0.5H142.882V3.5H144.382V0.5ZM144.868 3.5H146.368V0.5H144.868V3.5ZM154.57 0.5H153.07V3.5H154.57V0.5ZM155.055 3.5L156.555 3.5V0.5L155.055 0.5V3.5ZM164.757 0.5H163.257V3.5H164.757V0.5ZM2 3.5H2.24256V0.5H2V3.5ZM11.9449 3.5H12.4301V0.5H11.9449V3.5ZM22.1324 3.5H22.6176V0.5H22.1324V3.5ZM32.3199 3.5H32.8051V0.5L32.3199 0.5V3.5ZM42.5074 3.5H42.9926V0.5H42.5074V3.5ZM52.6949 3.5H53.1801V0.5H52.6949V3.5ZM62.8824 3.5H63.3676V0.5H62.8824V3.5ZM73.0699 3.5H73.5551V0.5H73.0699V3.5ZM83.2574 3.5H83.7426V0.5H83.2574V3.5ZM93.445 3.5H93.9301V0.5H93.445V3.5ZM103.632 3.5H104.118V0.5H103.632V3.5ZM113.82 3.5H114.305V0.5H113.82V3.5ZM124.007 3.5H124.493V0.5H124.007V3.5ZM134.195 3.5H134.68V0.5H134.195V3.5ZM144.382 3.5H144.868V0.5L144.382 0.5V3.5ZM154.57 3.5H155.055V0.5H154.57V3.5ZM164.757 3.5H165V0.5H164.757V3.5Z" fill="#FDDB10"/>
</svg>
