<svg width="20" height="21" viewBox="0 0 20 21" fill="none" xmlns="http://www.w3.org/2000/svg">
<path d="M3.51834 16.9388C3.9049 17.3259 4.36415 17.6329 4.86969 17.8419C5.37523 18.051 5.9171 18.1581 6.46418 18.1572C7.01137 18.1581 7.55336 18.051 8.05903 17.8419C8.5647 17.6328 9.0241 17.3259 9.41084 16.9388L11.7675 14.5813L10.5892 13.403L8.23251 15.7605C7.7629 16.228 7.12724 16.4905 6.46459 16.4905C5.80195 16.4905 5.16628 16.228 4.69668 15.7605C4.22876 15.2911 3.96601 14.6554 3.96601 13.9926C3.96601 13.3298 4.22876 12.6941 4.69668 12.2247L7.05418 9.868L5.87584 8.68966L3.51834 11.0463C2.73818 11.8284 2.30005 12.8879 2.30005 13.9926C2.30005 15.0972 2.73818 16.1568 3.51834 16.9388ZM16.4817 9.868C17.2614 9.08573 17.6993 8.02626 17.6993 6.92175C17.6993 5.81723 17.2614 4.75776 16.4817 3.9755C15.6996 3.19533 14.6401 2.7572 13.5354 2.7572C12.4308 2.7572 11.3712 3.19533 10.5892 3.9755L8.23251 6.333L9.41084 7.51133L11.7675 5.15383C12.2371 4.68632 12.8728 4.42385 13.5354 4.42385C14.1981 4.42385 14.8337 4.68632 15.3033 5.15383C15.7713 5.62322 16.034 6.25897 16.034 6.92175C16.034 7.58452 15.7713 8.22027 15.3033 8.68966L12.9458 11.0463L14.1242 12.2247L16.4817 9.868Z" fill="#141B56"/>
<path d="M7.05343 14.5822L5.87427 13.4038L12.9468 6.33215L14.1251 7.51132L7.05343 14.5822Z" fill="#141B56"/>
</svg>
